<?xml version="1.0" standalone="no"?>
 <!DOCTYPE svg PUBLIC "-//W3C//DTD SVG 1.1//EN" 
 "http://www.w3.org/Graphics/SVG/1.1/DTD/svg11.dtd"> 
<svg xmlns="http://www.w3.org/2000/svg" version="1.1" 
    width="29.7002cm" height="21.0007cm" viewBox="0 0 116930 82680 ">
<title>SVG Picture created as pressureSensorHolder-F_Cu.svg date 2019/10/17 17:26:28 </title>
  <desc>Picture generated by PCBNEW </desc>
<g style="fill:#000000; fill-opacity:1;stroke:#000000; stroke-opacity:1;
stroke-linecap:round; stroke-linejoin:round; "
 transform="translate(0 0) scale(1 1)">
</g>
<g style="fill:#000000; fill-opacity:0.0; 
stroke:#000000; stroke-width:-0.000393701; stroke-opacity:1; 
stroke-linecap:round; stroke-linejoin:round;">
</g>
<g style="fill:#000000; fill-opacity:0.0; 
stroke:#000000; stroke-width:78.7402; stroke-opacity:1; 
stroke-linecap:round; stroke-linejoin:round;">
<path d="M28749.7 33985.6 A787.402 787.402 0.0 0 0 27962.3 34773 " />
<path d="M27962.3 40284.8 A787.402 787.402 0.0 0 0 28749.7 41072.2 " />
<path d="M38592 33985
L28749 33985
" />
<path d="M39379.6 34773 A787.402 787.402 0.0 0 0 38592.2 33985.6 " />
<path d="M28749 41072
L38592 41072
" />
<path d="M39379 40284
L39379 34772
" />
<path d="M38592.2 41072.2 A787.402 787.402 0.0 0 0 39379.6 40284.8 " />
<path d="M27962 34772
L27962 40284
" />
<g >
</g>
<g style="fill:#000000; fill-opacity:0.0; 
stroke:#000000; stroke-width:551.181; stroke-opacity:1; 
stroke-linecap:round; stroke-linejoin:round;">
<path d="M34848 38769
L34848 38454
" />
<path d="M34060 38769
L34060 38454
" />
<path d="M33273 38769
L33273 38454
" />
<path d="M32485 38769
L32485 38454
" />
</g>
<g >
</g>
<g style="fill:#000000; fill-opacity:0.0; 
stroke:#000000; stroke-width:551.181; stroke-opacity:1; 
stroke-linecap:round; stroke-linejoin:round;">
</g>
<g style="fill:#000000; fill-opacity:0.0; 
stroke:#000000; stroke-width:0; stroke-opacity:1; 
stroke-linecap:round; stroke-linejoin:round;">
</g>
<g style="fill:#000000; fill-opacity:1.0; 
stroke:#000000; stroke-width:0; stroke-opacity:1; 
stroke-linecap:round; stroke-linejoin:round;">
<path style="fill:#000000; fill-opacity:1.0; 
stroke:#000000; stroke-width:0; stroke-opacity:1; 
stroke-linecap:round; stroke-linejoin:round;fill-rule:evenodd;"
d="M 34649,36466
34656,36467
34664,36469
34671,36471
34678,36475
34685,36479
34691,36483
34697,36488
34702,36494
34706,36500
34710,36507
34714,36514
34716,36521
34718,36529
34719,36536
34720,36544
34720,36898
34719,36906
34718,36914
34716,36921
34714,36929
34710,36936
34706,36942
34702,36948
34697,36954
34691,36959
34685,36964
34678,36968
34671,36971
34664,36974
34656,36976
34649,36977
34641,36977
34483,36977
34476,36977
34468,36976
34461,36974
34453,36971
34446,36968
34440,36964
34433,36959
34428,36954
34423,36948
34418,36942
34414,36936
34411,36929
34408,36921
34406,36914
34405,36906
34405,36898
34405,36544
34405,36536
34406,36529
34408,36521
34411,36514
34414,36507
34418,36500
34423,36494
34428,36488
34433,36483
34440,36479
34446,36475
34453,36471
34461,36469
34468,36467
34476,36466
34483,36465
34641,36465
34649,36466
Z" /> 
<path style="fill:#000000; fill-opacity:1.0; 
stroke:#000000; stroke-width:0; stroke-opacity:1; 
stroke-linecap:round; stroke-linejoin:round;fill-rule:evenodd;"
d="M 34157,36466
34164,36467
34172,36469
34179,36471
34186,36475
34193,36479
34199,36483
34204,36488
34210,36494
34214,36500
34218,36507
34222,36514
34224,36521
34226,36529
34227,36536
34228,36544
34228,36898
34227,36906
34226,36914
34224,36921
34222,36929
34218,36936
34214,36942
34210,36948
34204,36954
34199,36959
34193,36964
34186,36968
34179,36971
34172,36974
34164,36976
34157,36977
34149,36977
33991,36977
33984,36977
33976,36976
33968,36974
33961,36971
33954,36968
33948,36964
33941,36959
33936,36954
33930,36948
33926,36942
33922,36936
33919,36929
33916,36921
33914,36914
33913,36906
33913,36898
33913,36544
33913,36536
33914,36529
33916,36521
33919,36514
33922,36507
33926,36500
33930,36494
33936,36488
33941,36483
33948,36479
33954,36475
33961,36471
33968,36469
33976,36467
33984,36466
33991,36465
34149,36465
34157,36466
Z" /> 
<path style="fill:#000000; fill-opacity:1.0; 
stroke:#000000; stroke-width:0; stroke-opacity:1; 
stroke-linecap:round; stroke-linejoin:round;fill-rule:evenodd;"
d="M 33664,36466
33672,36467
33680,36469
33687,36471
33694,36475
33700,36479
33707,36483
33712,36488
33718,36494
33722,36500
33726,36507
33729,36514
33732,36521
33734,36529
33735,36536
33735,36544
33735,36898
33735,36906
33734,36914
33732,36921
33729,36929
33726,36936
33722,36942
33718,36948
33712,36954
33707,36959
33700,36964
33694,36968
33687,36971
33680,36974
33672,36976
33664,36977
33657,36977
33499,36977
33491,36977
33484,36976
33476,36974
33469,36971
33462,36968
33455,36964
33449,36959
33444,36954
33438,36948
33434,36942
33430,36936
33426,36929
33424,36921
33422,36914
33421,36906
33420,36898
33420,36544
33421,36536
33422,36529
33424,36521
33426,36514
33430,36507
33434,36500
33438,36494
33444,36488
33449,36483
33455,36479
33462,36475
33469,36471
33476,36469
33484,36467
33491,36466
33499,36465
33657,36465
33664,36466
Z" /> 
<path style="fill:#000000; fill-opacity:1.0; 
stroke:#000000; stroke-width:0; stroke-opacity:1; 
stroke-linecap:round; stroke-linejoin:round;fill-rule:evenodd;"
d="M 33172,36466
33180,36467
33187,36469
33195,36471
33202,36475
33208,36479
33214,36483
33220,36488
33225,36494
33230,36500
33234,36507
33237,36514
33240,36521
33242,36529
33243,36536
33243,36544
33243,36898
33243,36906
33242,36914
33240,36921
33237,36929
33234,36936
33230,36942
33225,36948
33220,36954
33214,36959
33208,36964
33202,36968
33195,36971
33187,36974
33180,36976
33172,36977
33165,36977
33007,36977
32999,36977
32992,36976
32984,36974
32977,36971
32970,36968
32963,36964
32957,36959
32951,36954
32946,36948
32942,36942
32938,36936
32934,36929
32932,36921
32930,36914
32929,36906
32928,36898
32928,36544
32929,36536
32930,36529
32932,36521
32934,36514
32938,36507
32942,36500
32946,36494
32951,36488
32957,36483
32963,36479
32970,36475
32977,36471
32984,36469
32992,36467
32999,36466
33007,36465
33165,36465
33172,36466
Z" /> 
<path style="fill:#000000; fill-opacity:1.0; 
stroke:#000000; stroke-width:0; stroke-opacity:1; 
stroke-linecap:round; stroke-linejoin:round;fill-rule:evenodd;"
d="M 35891,35049
35900,35050
35910,35052
35919,35056
35927,35060
35936,35065
35944,35070
35951,35077
35957,35084
35963,35092
35968,35100
35972,35109
35975,35118
35978,35127
35979,35137
35980,35147
35980,36131
35979,36140
35978,36150
35975,36159
35972,36168
35968,36177
35963,36185
35957,36193
35951,36200
35944,36207
35936,36213
35927,36218
35919,36222
35910,36225
35900,36227
35891,36229
35881,36229
35251,36229
35242,36229
35232,36227
35223,36225
35213,36222
35205,36218
35196,36213
35189,36207
35182,36200
35175,36193
35169,36185
35164,36177
35160,36168
35157,36159
35155,36150
35153,36140
35153,36131
35153,35147
35153,35137
35155,35127
35157,35118
35160,35109
35164,35100
35169,35092
35175,35084
35182,35077
35189,35070
35196,35065
35205,35060
35213,35056
35223,35052
35232,35050
35242,35049
35251,35048
35881,35048
35891,35049
Z" /> 
<path style="fill:#000000; fill-opacity:1.0; 
stroke:#000000; stroke-width:0; stroke-opacity:1; 
stroke-linecap:round; stroke-linejoin:round;fill-rule:evenodd;"
d="M 32406,35049
32416,35050
32425,35052
32434,35056
32443,35060
32452,35065
32459,35070
32466,35077
32473,35084
32479,35092
32484,35100
32488,35109
32491,35118
32493,35127
32495,35137
32495,35147
32495,36131
32495,36140
32493,36150
32491,36159
32488,36168
32484,36177
32479,36185
32473,36193
32466,36200
32459,36207
32452,36213
32443,36218
32434,36222
32425,36225
32416,36227
32406,36229
32397,36229
31767,36229
31757,36229
31748,36227
31738,36225
31729,36222
31721,36218
31712,36213
31704,36207
31697,36200
31691,36193
31685,36185
31680,36177
31676,36168
31673,36159
31670,36150
31669,36140
31668,36131
31668,35147
31669,35137
31670,35127
31673,35118
31676,35109
31680,35100
31685,35092
31691,35084
31697,35077
31704,35070
31712,35065
31721,35060
31729,35056
31738,35052
31748,35050
31757,35049
31767,35048
32397,35048
32406,35049
Z" /> 
</g>
<g >
</g>
<g >
</g>
<g style="fill:#000000; fill-opacity:1.0; 
stroke:#000000; stroke-width:0; stroke-opacity:1; 
stroke-linecap:round; stroke-linejoin:round;">
</g>
<g style="fill:#000000; fill-opacity:1.0; 
stroke:#000000; stroke-width:98.4252; stroke-opacity:1; 
stroke-linecap:round; stroke-linejoin:round;">
</g>
<g style="fill:#000000; fill-opacity:0.0; 
stroke:#000000; stroke-width:98.4252; stroke-opacity:1; 
stroke-linecap:round; stroke-linejoin:round;">
<path d="M33578 37017
L33578 36721
" />
<path d="M33578 37774
L33578 37017
" />
<path d="M33273 38080
L33578 37774
" />
<path d="M33273 38611
L33273 38080
" />
<path d="M34060 38611
L34060 37292
" />
<path d="M34070 37282
L34070 36721
" />
<path d="M34060 37292
L34070 37282
" />
<path d="M33086 37853
L33086 36721
" />
<path d="M32485 38611
L32485 38454
" />
<path d="M32485 38454
L33086 37853
" />
<path d="M34848 38611
L34848 37410
" />
<path d="M34562 37125
L34562 36721
" />
<path d="M34848 37410
L34562 37125
" />
</g>
<g >
</g>
<g style="fill:#000000; fill-opacity:0.0; 
stroke:#000000; stroke-width:98.4252; stroke-opacity:1; 
stroke-linecap:round; stroke-linejoin:round;">
</g>
<g style="fill:#000000; fill-opacity:1.0; 
stroke:#000000; stroke-width:100; stroke-opacity:1; 
stroke-linecap:round; stroke-linejoin:round;">
<path style="fill:#000000; fill-opacity:1.0; 
stroke:#000000; stroke-width:100; stroke-opacity:1; 
stroke-linecap:round; stroke-linejoin:round;fill-rule:evenodd;"
d="M 38688,34285
38781,34313
38867,34359
38942,34420
39003,34495
39050,34580
39078,34673
39090,34782
39090,40270
39079,40381
39051,40474
39005,40559
38944,40634
38869,40696
38784,40742
38692,40771
38582,40782
28763,40782
28653,40771
28560,40743
28474,40698
28399,40637
28337,40562
28291,40477
28263,40384
28251,40274
28251,39808
28653,39808
28653,39934
28677,40059
28726,40176
28796,40281
28886,40371
28992,40441
29109,40490
29233,40515
29360,40515
29484,40490
29601,40441
29707,40371
29796,40281
29867,40176
29915,40059
29940,39934
29940,39808
37393,39808
37393,39934
37418,40059
37466,40176
37537,40281
37626,40371
37732,40441
37849,40490
37973,40515
38100,40515
38224,40490
38341,40441
38447,40371
38537,40281
38607,40176
38656,40059
38680,39934
38680,39808
38656,39683
38607,39566
38537,39461
38447,39371
38341,39300
38224,39252
38100,39227
37973,39227
37849,39252
37732,39300
37626,39371
37537,39461
37466,39566
37418,39683
37393,39808
29940,39808
29915,39683
29867,39566
29796,39461
29707,39371
29601,39300
29484,39252
29360,39227
29233,39227
29109,39252
28992,39300
28886,39371
28796,39461
28726,39566
28677,39683
28653,39808
28251,39808
28251,38428
31960,38428
31960,38794
31967,38872
31997,38971
32046,39062
32112,39142
32192,39208
32283,39256
32382,39287
32485,39297
32588,39287
32688,39256
32779,39208
32859,39142
32879,39118
32937,39176
33022,39233
33118,39273
33142,39277
33223,39229
33223,38661
33215,38661
33215,38561
33223,38561
33223,38553
33323,38553
33323,38561
33331,38561
33331,38661
33323,38661
33323,39229
33404,39277
33428,39273
33523,39233
33609,39176
33667,39118
33687,39142
33767,39208
33858,39256
33957,39287
34060,39297
34163,39287
34262,39256
34354,39208
34434,39142
34454,39117
34474,39142
34554,39208
34646,39256
34745,39287
34848,39297
34951,39287
35050,39256
35141,39208
35221,39142
35287,39062
35336,38971
35366,38872
35373,38794
35373,38669
37708,38669
37708,38750
37724,38828
37754,38903
37799,38969
37856,39026
37922,39071
37996,39101
38075,39117
38155,39117
38234,39101
38308,39071
38375,39026
38432,38969
38476,38903
38507,38828
38523,38750
38523,38669
38507,38591
38476,38516
38432,38450
38375,38393
38308,38348
38234,38318
38155,38302
38075,38302
37996,38318
37922,38348
37856,38393
37799,38450
37754,38516
37724,38591
37708,38669
35373,38669
35373,38428
35366,38351
35336,38251
35287,38160
35221,38080
35147,38019
35147,37465
37747,37465
37747,37592
37772,37716
37820,37833
37891,37939
37981,38028
38086,38099
38203,38147
38328,38172
38454,38172
38579,38147
38696,38099
38801,38028
38891,37939
38961,37833
39010,37716
39035,37592
39035,37465
39010,37341
38961,37223
38891,37118
38801,37028
38696,36958
38579,36909
38454,36885
38328,36885
38203,36909
38086,36958
37981,37028
37891,37118
37820,37223
37772,37341
37747,37465
35147,37465
35147,37425
35148,37410
35147,37396
35147,37396
35142,37352
35125,37295
35098,37243
35060,37198
35049,37188
34925,37064
34946,37025
34965,36963
34971,36898
34971,36544
34965,36480
34946,36418
34915,36361
34874,36311
34824,36270
34767,36239
34705,36221
34641,36214
34483,36214
34419,36221
34357,36239
34316,36261
34275,36239
34213,36221
34149,36214
33991,36214
33927,36221
33865,36239
33854,36245
33832,36233
33784,36219
33735,36214
33690,36215
33628,36278
33628,36671
33636,36671
33636,36771
33628,36771
33628,37165
33690,37227
33735,37228
33768,37225
33765,37234
33760,37292
33761,37307
33761,38019
33687,38080
33667,38105
33609,38047
33523,37989
33428,37949
33404,37945
33363,37969
33364,37968
33381,37912
33385,37868
33385,37868
33386,37853
33385,37839
33385,37225
33420,37228
33465,37227
33528,37165
33528,36771
33520,36771
33520,36671
33528,36671
33528,36278
33465,36215
33420,36214
33371,36219
33324,36233
33302,36245
33291,36239
33229,36221
33165,36214
33007,36214
32943,36221
32881,36239
32824,36270
32774,36311
32733,36361
32702,36418
32683,36480
32677,36544
32677,36898
32683,36963
32702,37025
32733,37082
32774,37132
32787,37142
32787,37729
32581,37935
32485,37925
32382,37936
32283,37966
32192,38014
32112,38080
32046,38160
31997,38251
31967,38351
31960,38428
28251,38428
28251,37465
28298,37465
28298,37592
28323,37716
28372,37833
28442,37939
28532,38028
28637,38099
28754,38147
28879,38172
29005,38172
29130,38147
29247,38099
29352,38028
29442,37939
29513,37833
29561,37716
29586,37592
29586,37465
29561,37341
29513,37223
29442,37118
29352,37028
29247,36958
29130,36909
29005,36885
28879,36885
28754,36909
28637,36958
28532,37028
28442,37118
28372,37223
28323,37341
28298,37465
28251,37465
28251,36307
28810,36307
28810,36387
28826,36466
28857,36540
28901,36607
28958,36664
29025,36708
29099,36739
29178,36755
29258,36755
29337,36739
29411,36708
29477,36664
29534,36607
29579,36540
29610,36466
29625,36387
29625,36307
29610,36228
29579,36154
29534,36088
29477,36031
29411,35986
29337,35955
29258,35940
29178,35940
29099,35955
29025,35986
28958,36031
28901,36088
28857,36154
28826,36228
28810,36307
28251,36307
28251,35122
28653,35122
28653,35249
28677,35374
28726,35491
28796,35596
28886,35686
28992,35756
29109,35805
29233,35830
29360,35830
29484,35805
29601,35756
29707,35686
29796,35596
29867,35491
29915,35374
29940,35249
29940,35147
31417,35147
31417,36131
31424,36199
31444,36265
31476,36325
31520,36378
31573,36421
31633,36454
31699,36474
31767,36480
32397,36480
32465,36474
32531,36454
32591,36421
32644,36378
32688,36325
32720,36265
32740,36199
32746,36131
32746,35147
34902,35147
34902,36131
34908,36199
34928,36265
34960,36325
35004,36378
35057,36421
35117,36454
35183,36474
35251,36480
35881,36480
35949,36474
36015,36454
36075,36421
36128,36378
36172,36325
36204,36265
36224,36199
36231,36131
36231,35713
37393,35713
37393,35840
37418,35964
37466,36081
37537,36187
37626,36276
37732,36347
37849,36395
37973,36420
38100,36420
38224,36395
38341,36347
38447,36276
38537,36187
38607,36081
38656,35964
38680,35840
38680,35713
38656,35589
38607,35472
38537,35366
38447,35276
38341,35206
38224,35157
38100,35133
37973,35133
37849,35157
37732,35206
37626,35276
37537,35366
37466,35472
37418,35589
37393,35713
36231,35713
36231,35147
36224,35078
36204,35013
36172,34952
36128,34899
36075,34856
36015,34823
35949,34804
35881,34797
35251,34797
35183,34804
35117,34823
35057,34856
35004,34899
34960,34952
34928,35013
34908,35078
34902,35147
32746,35147
32740,35078
32720,35013
32688,34952
32644,34899
32591,34856
32531,34823
32465,34804
32397,34797
31767,34797
31699,34804
31633,34823
31573,34856
31520,34899
31476,34952
31444,35013
31424,35078
31417,35147
29940,35147
29940,35122
29915,34998
29867,34881
29796,34776
29707,34686
29601,34615
29484,34567
29360,34542
29233,34542
29109,34567
28992,34615
28886,34686
28796,34776
28726,34881
28677,34998
28653,35122
28251,35122
28251,34787
28262,34676
28290,34583
28336,34498
28397,34423
28471,34361
28557,34315
28649,34286
28759,34274
38578,34274
38688,34285
Z" /> 
</g>
</g>
<g style="fill:#FFFFFF; fill-opacity:1.0; 
stroke:#FFFFFF; stroke-width:100; stroke-opacity:1; 
stroke-linecap:round; stroke-linejoin:round;">
</g>
<g style="fill:#FFFFFF; fill-opacity:1.0; 
stroke:#FFFFFF; stroke-width:0; stroke-opacity:1; 
stroke-linecap:round; stroke-linejoin:round;">
<circle cx="34848.1" cy="38611.6" r="196.85" /> 
</g>
<g style="fill:#FFFFFF; fill-opacity:1.0; 
stroke:#FFFFFF; stroke-width:39.3701; stroke-opacity:1; 
stroke-linecap:round; stroke-linejoin:round;">
</g>
<g style="fill:#FFFFFF; fill-opacity:1.0; 
stroke:#FFFFFF; stroke-width:0; stroke-opacity:1; 
stroke-linecap:round; stroke-linejoin:round;">
<circle cx="34060.7" cy="38611.6" r="196.85" /> 
</g>
<g style="fill:#FFFFFF; fill-opacity:1.0; 
stroke:#FFFFFF; stroke-width:39.3701; stroke-opacity:1; 
stroke-linecap:round; stroke-linejoin:round;">
</g>
<g style="fill:#FFFFFF; fill-opacity:1.0; 
stroke:#FFFFFF; stroke-width:0; stroke-opacity:1; 
stroke-linecap:round; stroke-linejoin:round;">
<circle cx="33273.3" cy="38611.6" r="196.85" /> 
</g>
<g style="fill:#FFFFFF; fill-opacity:1.0; 
stroke:#FFFFFF; stroke-width:39.3701; stroke-opacity:1; 
stroke-linecap:round; stroke-linejoin:round;">
</g>
<g style="fill:#FFFFFF; fill-opacity:1.0; 
stroke:#FFFFFF; stroke-width:0; stroke-opacity:1; 
stroke-linecap:round; stroke-linejoin:round;">
<circle cx="32485.9" cy="38611.6" r="196.85" /> 
</g>
<g style="fill:#FFFFFF; fill-opacity:1.0; 
stroke:#FFFFFF; stroke-width:39.3701; stroke-opacity:1; 
stroke-linecap:round; stroke-linejoin:round;">
</g>
<g style="fill:#FFFFFF; fill-opacity:1.0; 
stroke:#FFFFFF; stroke-width:0; stroke-opacity:1; 
stroke-linecap:round; stroke-linejoin:round;">
<circle cx="38037.1" cy="39871.4" r="393.701" /> 
</g>
<g style="fill:#FFFFFF; fill-opacity:1.0; 
stroke:#FFFFFF; stroke-width:39.3701; stroke-opacity:1; 
stroke-linecap:round; stroke-linejoin:round;">
</g>
<g style="fill:#FFFFFF; fill-opacity:1.0; 
stroke:#FFFFFF; stroke-width:0; stroke-opacity:1; 
stroke-linecap:round; stroke-linejoin:round;">
<circle cx="38037.1" cy="35776.9" r="393.701" /> 
</g>
<g style="fill:#FFFFFF; fill-opacity:1.0; 
stroke:#FFFFFF; stroke-width:39.3701; stroke-opacity:1; 
stroke-linecap:round; stroke-linejoin:round;">
</g>
<g style="fill:#FFFFFF; fill-opacity:1.0; 
stroke:#FFFFFF; stroke-width:0; stroke-opacity:1; 
stroke-linecap:round; stroke-linejoin:round;">
<circle cx="29296.9" cy="35186.4" r="393.701" /> 
</g>
<g style="fill:#FFFFFF; fill-opacity:1.0; 
stroke:#FFFFFF; stroke-width:39.3701; stroke-opacity:1; 
stroke-linecap:round; stroke-linejoin:round;">
</g>
<g style="fill:#FFFFFF; fill-opacity:1.0; 
stroke:#FFFFFF; stroke-width:0; stroke-opacity:1; 
stroke-linecap:round; stroke-linejoin:round;">
<circle cx="29296.9" cy="39871.4" r="393.701" /> 
</g>
<g style="fill:#FFFFFF; fill-opacity:1.0; 
stroke:#FFFFFF; stroke-width:39.3701; stroke-opacity:1; 
stroke-linecap:round; stroke-linejoin:round;">
</g>
<g style="fill:#FFFFFF; fill-opacity:1.0; 
stroke:#FFFFFF; stroke-width:0; stroke-opacity:1; 
stroke-linecap:round; stroke-linejoin:round;">
<circle cx="38115.8" cy="38710" r="157.48" /> 
</g>
<g style="fill:#FFFFFF; fill-opacity:1.0; 
stroke:#FFFFFF; stroke-width:39.3701; stroke-opacity:1; 
stroke-linecap:round; stroke-linejoin:round;">
</g>
<g style="fill:#FFFFFF; fill-opacity:1.0; 
stroke:#FFFFFF; stroke-width:0; stroke-opacity:1; 
stroke-linecap:round; stroke-linejoin:round;">
<circle cx="38391.4" cy="37528.9" r="393.701" /> 
</g>
<g style="fill:#FFFFFF; fill-opacity:1.0; 
stroke:#FFFFFF; stroke-width:39.3701; stroke-opacity:1; 
stroke-linecap:round; stroke-linejoin:round;">
</g>
<g style="fill:#FFFFFF; fill-opacity:1.0; 
stroke:#FFFFFF; stroke-width:0; stroke-opacity:1; 
stroke-linecap:round; stroke-linejoin:round;">
<circle cx="29218.2" cy="36347.8" r="157.48" /> 
</g>
<g style="fill:#FFFFFF; fill-opacity:1.0; 
stroke:#FFFFFF; stroke-width:39.3701; stroke-opacity:1; 
stroke-linecap:round; stroke-linejoin:round;">
</g>
<g style="fill:#FFFFFF; fill-opacity:1.0; 
stroke:#FFFFFF; stroke-width:0; stroke-opacity:1; 
stroke-linecap:round; stroke-linejoin:round;">
<circle cx="28942.6" cy="37528.9" r="393.701" /> 
</g>
<g style="fill:#FFFFFF; fill-opacity:1.0; 
stroke:#FFFFFF; stroke-width:39.3701; stroke-opacity:1; 
stroke-linecap:round; stroke-linejoin:round;">
</g>
<g style="fill:#000000; fill-opacity:1.0; 
stroke:#000000; stroke-width:39.3701; stroke-opacity:1; 
stroke-linecap:round; stroke-linejoin:round;">
</g> 
</svg>
