<?xml version="1.0" standalone="no"?>
<!DOCTYPE svg PUBLIC "-//W3C//DTD SVG 1.1//EN"
"http://www.w3.org/Graphics/SVG/1.1/DTD/svg11.dtd">
<svg width="257.575" height="238.957" viewBox="0 0 5366.14 4978.27" version="1.1"
xmlns="http://www.w3.org/2000/svg"
xmlns:xlink="http://www.w3.org/1999/xlink">
<circle cx="1049.21" cy="3240.08" r="39.3701" style=""/>
<circle cx="1049.21" cy="3082.6" r="39.3701" style=""/>
<circle cx="1049.21" cy="2925.12" r="39.3701" style=""/>
<circle cx="1049.21" cy="2767.64" r="39.3701" style=""/>
<circle cx="2860.24" cy="2767.64" r="39.3701" style=""/>
<circle cx="2860.24" cy="2925.12" r="39.3701" style=""/>
<circle cx="2860.24" cy="3082.6" r="39.3701" style=""/>
<circle cx="2860.24" cy="3240.08" r="39.3701" style=""/>
<circle cx="4671.26" cy="2767.64" r="39.3701" style=""/>
<circle cx="4671.26" cy="2925.12" r="39.3701" style=""/>
<circle cx="4671.26" cy="3082.6" r="39.3701" style=""/>
<circle cx="4671.26" cy="3240.08" r="39.3701" style=""/>
<circle cx="1556.85" cy="616.142" r="39.3701" style=""/>
<circle cx="1399.37" cy="616.142" r="39.3701" style=""/>
<circle cx="1241.89" cy="616.142" r="39.3701" style=""/>
<circle cx="1084.41" cy="616.142" r="39.3701" style=""/>
<circle cx="1068.9" cy="3893.62" r="31.4961" style=""/>
<circle cx="596.457" cy="2114.09" r="31.4961" style=""/>
<circle cx="430.866" cy="1068.9" r="31.4961" style=""/>
<circle cx="2210.39" cy="596.457" r="31.4961" style=""/>
<circle cx="2407.48" cy="2114.09" r="31.4961" style=""/>
<circle cx="2879.92" cy="3893.62" r="31.4961" style=""/>
<circle cx="4218.5" cy="2114.09" r="31.4961" style=""/>
<circle cx="4690.94" cy="3893.62" r="31.4961" style=""/>
<circle cx="-118.425" cy="4584.8" r="39.4094" style=""/>
<circle cx="-118.425" cy="634.803" r="39.4094" style=""/>
<circle cx="5501.57" cy="4704.8" r="39.4094" style=""/>
<circle cx="5701.57" cy="294.803" r="39.4094" style=""/>
<circle cx="482.283" cy="3877.87" r="78.7402" style=""/>
<circle cx="832.677" cy="3948.74" r="78.7402" style=""/>
<circle cx="1301.18" cy="3877.87" r="78.7402" style=""/>
<circle cx="2293.31" cy="3877.87" r="78.7402" style=""/>
<circle cx="2643.7" cy="3948.74" r="78.7402" style=""/>
<circle cx="3112.2" cy="3877.87" r="78.7402" style=""/>
<circle cx="4104.33" cy="3877.87" r="78.7402" style=""/>
<circle cx="4454.72" cy="3948.74" r="78.7402" style=""/>
<circle cx="4923.23" cy="3877.87" r="78.7402" style=""/>
<circle cx="4923.23" cy="2129.84" r="78.7402" style=""/>
<circle cx="4454.72" cy="2058.98" r="78.7402" style=""/>
<circle cx="3986.22" cy="2129.84" r="78.7402" style=""/>
<circle cx="3112.2" cy="2129.84" r="78.7402" style=""/>
<circle cx="2643.7" cy="2058.98" r="78.7402" style=""/>
<circle cx="2175.2" cy="2129.84" r="78.7402" style=""/>
<circle cx="1301.18" cy="2129.84" r="78.7402" style=""/>
<circle cx="832.677" cy="2058.98" r="78.7402" style=""/>
<circle cx="364.173" cy="2129.84" r="78.7402" style=""/>
<circle cx="446.614" cy="1301.18" r="78.7402" style=""/>
<circle cx="375.748" cy="832.677" r="78.7402" style=""/>
<circle cx="446.614" cy="364.173" r="78.7402" style=""/>
<circle cx="2194.65" cy="364.173" r="78.7402" style=""/>
<circle cx="2265.51" cy="832.677" r="78.7402" style=""/>
<circle cx="2194.65" cy="1183.07" r="78.7402" style=""/>
</svg>
