M48
; DRILL file {KiCad 5.1.4} date Thu Sep 26 13:09:02 2019
; FORMAT={-:-/ absolute / metric / decimal}
; #@! TF.CreationDate,2019-09-26T13:09:02+02:00
; #@! TF.GenerationSoftware,Kicad,Pcbnew,5.1.4
FMAT,2
METRIC
T1C1.000
T2C0.800
T3C1.001
T4C2.000
%
G90
G05
T1
X46.0Y6.0
X46.0Y4.0
X46.0Y2.0
X46.0Y0.0
X0.447Y33.324
X2.447Y33.324
X4.447Y33.324
X6.447Y33.324
X23.0Y6.0
X23.0Y4.0
X23.0Y2.0
X23.0Y0.0
X0.0Y6.0
X0.0Y4.0
X0.0Y2.0
X0.0Y0.0
T2
X40.25Y14.3
X46.25Y-8.3
X-7.853Y27.574
X14.747Y33.574
X17.25Y14.3
X23.25Y-8.3
X-5.75Y14.3
X0.25Y-8.3
T3
X59.085Y37.405
X-14.829Y33.087
X-14.829Y-17.078
X56.545Y-18.602
T4
X37.3Y14.1
X38.8Y-8.1
X43.25Y15.0
X43.25Y-9.0
X49.2Y14.1
X49.2Y-8.1
X-8.553Y30.574
X-7.653Y36.524
X-7.653Y24.624
X14.547Y36.524
X14.547Y26.124
X15.447Y30.574
X14.3Y14.1
X15.8Y-8.1
X20.25Y15.0
X20.25Y-9.0
X26.2Y14.1
X26.2Y-8.1
X-8.7Y14.1
X-7.2Y-8.1
X-2.75Y15.0
X-2.75Y-9.0
X3.2Y14.1
X3.2Y-8.1
T0
M30
