<?xml version="1.0" standalone="no"?>
<!DOCTYPE svg PUBLIC "-//W3C//DTD SVG 1.1//EN"
"http://www.w3.org/Graphics/SVG/1.1/DTD/svg11.dtd">
<svg width="257.575" height="238.957" viewBox="0 0 5366.14 4978.27" version="1.1"
xmlns="http://www.w3.org/2000/svg"
xmlns:xlink="http://www.w3.org/1999/xlink">
<g fill-rule="evenodd"><path d="M 0.000275268,1674.98 L 84.6466,1681.45 L 100.159,1682.05 L 1580.71,1682.05 L 1600.39,1683 L 1620.08,1685.87 L 1639.76,1690.65 L 1659.45,1697.34 L 1679.13,1705.95 L 1698.82,1716.46 L 1738.19,1743.23 L 1738.19,4978.27 L 2.27374e-13,4978.27 L 0.000275268,1674.98 z " style="fill-opacity:0.200000;fill:rgb(103,198,105);"/></g>
<g fill-rule="evenodd"><path d="M -0.000271038,1674.98 L 2.27374e-13,-4.54747e-13 L 3303.87,-9.89832e-05 L 3301.16,84.6467 L 3301.06,90.4727 L 3301.06,1580.71 L 3300.97,1586.54 L 3298.51,1662.89 L 3276.48,1671.27 L 3254.45,1677.26 L 3232.42,1680.85 L 3210.39,1682.05 L 1895.67,1682.05 L 1875.98,1683 L 1856.3,1685.87 L 1836.61,1690.65 L 1816.93,1697.34 L 1797.24,1705.95 L 1777.56,1716.46 L 1738.19,1743.23 L 1698.82,1716.46 L 1679.13,1705.95 L 1659.45,1697.34 L 1639.76,1690.65 L 1620.08,1685.87 L 1600.39,1683 L 1580.71,1682.05 L 100.159,1682.05 L 84.6466,1681.45 L -0.000271038,1674.98 z " style="fill-opacity:0.200000;fill:rgb(115,81,255);"/></g>
<g fill-rule="evenodd"><path d="M 1738.19,4978.27 L 1738.19,4893.62 L 1738.19,1783.39 L 1738.19,1743.23 L 1777.56,1716.46 L 1797.24,1705.95 L 1816.93,1697.34 L 1836.61,1690.65 L 1856.3,1685.87 L 1875.98,1683 L 1895.67,1682.05 L 3210.39,1682.05 L 3232.42,1680.85 L 3254.45,1677.26 L 3276.48,1671.27 L 3298.51,1662.89 L 3321.82,1672.55 L 3345.12,1679.44 L 3368.43,1683.58 L 3391.73,1684.96 L 3411.42,1685.95 L 3431.1,1688.9 L 3450.79,1693.82 L 3470.47,1700.71 L 3490.16,1709.57 L 3509.84,1720.4 L 3529.53,1733.19 L 3549.21,1747.95 L 3549.21,4978.27 L 1738.19,4978.27 z " style="fill-opacity:0.200000;fill:rgb(74,236,41);"/></g>
<g fill-rule="evenodd"><path d="M 3303.87,-0.000598981 L 5366.14,-4.54747e-13 L 5366.14,1734.57 L 5281.49,1700.71 L 5261.81,1693.82 L 5242.12,1688.9 L 5222.44,1685.95 L 5202.75,1684.96 L 3706.69,1684.96 L 3687.01,1685.95 L 3667.32,1688.9 L 3647.64,1693.82 L 3627.95,1700.71 L 3608.27,1709.57 L 3588.58,1720.4 L 3568.9,1733.19 L 3549.21,1747.95 L 3529.53,1733.19 L 3509.84,1720.4 L 3490.16,1709.57 L 3470.47,1700.71 L 3450.79,1693.82 L 3431.1,1688.9 L 3411.42,1685.95 L 3391.73,1684.96 L 3368.43,1683.58 L 3345.12,1679.44 L 3321.82,1672.55 L 3298.51,1662.89 L 3300.97,1586.54 L 3301.06,1580.71 L 3301.06,90.4727 L 3301.16,84.6467 L 3303.87,-0.000598981 z " style="fill-opacity:0.200000;fill:rgb(205,186,171);"/></g>
<g fill-rule="evenodd"><path d="M 3549.21,4978.27 L 3549.21,4893.62 L 3549.21,1783.39 L 3549.21,1747.95 L 3568.9,1733.19 L 3588.58,1720.4 L 3608.27,1709.57 L 3627.95,1700.71 L 3647.64,1693.82 L 3667.32,1688.9 L 3687.01,1685.95 L 3706.69,1684.96 L 5202.75,1684.96 L 5222.44,1685.95 L 5242.12,1688.9 L 5261.81,1693.82 L 5281.49,1700.71 L 5366.14,1734.57 L 5366.14,4978.27 L 3549.21,4978.27 z " style="fill-opacity:0.200000;fill:rgb(242,251,227);"/></g>
<polyline points="43.3086,4893.62 43.3086,1783.39 44.1026,1775.32 46.4546,1767.57 50.2746,1760.42 55.4166,1754.16 61.6806,1749.01 68.8266,1745.19 76.5826,1742.84 84.6466,1742.05 1580.71,1742.05 1588.77,1742.84 1596.53,1745.19 1603.67,1749.01 1609.94,1754.16 1615.08,1760.42 1618.9,1767.57 1621.25,1775.32 1622.05,1783.39 1622.05,4893.62 1621.25,4901.69 1618.9,4909.44 1615.08,4916.59 1609.94,4922.85 1603.67,4927.99 1596.53,4931.81 1588.77,4934.16 1580.71,4934.96 84.6466,4934.96 76.5826,4934.16 68.8266,4931.81 61.6806,4927.99 55.4166,4922.85 50.2746,4916.59 46.4546,4909.44 44.1026,4901.69 43.3086,4893.62" style="stroke:rgb(103,198,105);stroke-width:82.677165;fill:none;stroke-opacity:0.5;stroke-linecap:round;stroke-linejoin:round;;fill:none"/>
<polyline points="43.3086,4893.62 43.3086,1783.39 44.1026,1775.32 46.4546,1767.57 50.2746,1760.42 55.4166,1754.16 61.6806,1749.01 68.8266,1745.19 76.5826,1742.84 84.6466,1742.05 1580.71,1742.05 1588.77,1742.84 1596.53,1745.19 1603.67,1749.01 1609.94,1754.16 1615.08,1760.42 1618.9,1767.57 1621.25,1775.32 1622.05,1783.39 1622.05,4893.62 1621.25,4901.69 1618.9,4909.44 1615.08,4916.59 1609.94,4922.85 1603.67,4927.99 1596.53,4931.81 1588.77,4934.16 1580.71,4934.96 84.6466,4934.96 76.5826,4934.16 68.8266,4931.81 61.6806,4927.99 55.4166,4922.85 50.2746,4916.59 46.4546,4909.44 44.1026,4901.69 43.3086,4893.62" style="stroke:rgb(0,0,0);stroke-width:1px;fill:none;stroke-opacity:1;stroke-linecap:round;stroke-linejoin:round;;fill:none"/>
<polyline points="58.8206,1580.71 58.8206,84.6467 59.6146,76.5827 61.9666,68.8267 65.7866,61.6807 70.9286,55.4167 77.1926,50.2747 84.3386,46.4547 92.0946,44.1027 100.159,43.3087 3210.39,43.3087 3218.46,44.1027 3226.21,46.4547 3233.36,50.2747 3239.62,55.4167 3244.76,61.6807 3248.58,68.8267 3250.94,76.5827 3251.73,84.6467 3251.73,1580.71 3250.94,1588.77 3248.58,1596.53 3244.76,1603.68 3239.62,1609.94 3233.36,1615.08 3226.21,1618.9 3218.46,1621.25 3210.39,1622.05 100.159,1622.05 92.0946,1621.25 84.3386,1618.9 77.1926,1615.08 70.9286,1609.94 65.7866,1603.68 61.9666,1596.53 59.6146,1588.77 58.8206,1580.71" style="stroke:rgb(115,81,255);stroke-width:82.677165;fill:none;stroke-opacity:0.5;stroke-linecap:round;stroke-linejoin:round;;fill:none"/>
<polyline points="58.8206,1580.71 58.8206,84.6467 59.6146,76.5827 61.9666,68.8267 65.7866,61.6807 70.9286,55.4167 77.1926,50.2747 84.3386,46.4547 92.0946,44.1027 100.159,43.3087 3210.39,43.3087 3218.46,44.1027 3226.21,46.4547 3233.36,50.2747 3239.62,55.4167 3244.76,61.6807 3248.58,68.8267 3250.94,76.5827 3251.73,84.6467 3251.73,1580.71 3250.94,1588.77 3248.58,1596.53 3244.76,1603.68 3239.62,1609.94 3233.36,1615.08 3226.21,1618.9 3218.46,1621.25 3210.39,1622.05 100.159,1622.05 92.0946,1621.25 84.3386,1618.9 77.1926,1615.08 70.9286,1609.94 65.7866,1603.68 61.9666,1596.53 59.6146,1588.77 58.8206,1580.71" style="stroke:rgb(0,0,0);stroke-width:1px;fill:none;stroke-opacity:1;stroke-linecap:round;stroke-linejoin:round;;fill:none"/>
<polyline points="1854.33,4893.62 1854.33,1783.39 1855.12,1775.32 1857.48,1767.57 1861.3,1760.42 1866.44,1754.16 1872.7,1749.01 1879.85,1745.19 1887.6,1742.84 1895.67,1742.05 3391.73,1742.05 3399.8,1742.84 3407.55,1745.19 3414.7,1749.01 3420.96,1754.16 3426.1,1760.42 3429.92,1767.57 3432.27,1775.32 3433.07,1783.39 3433.07,4893.62 3432.27,4901.69 3429.92,4909.44 3426.1,4916.59 3420.96,4922.85 3414.7,4927.99 3407.55,4931.81 3399.8,4934.16 3391.73,4934.96 1895.67,4934.96 1887.6,4934.16 1879.85,4931.81 1872.7,4927.99 1866.44,4922.85 1861.3,4916.59 1857.48,4909.44 1855.12,4901.69 1854.33,4893.62" style="stroke:rgb(74,236,41);stroke-width:82.677165;fill:none;stroke-opacity:0.5;stroke-linecap:round;stroke-linejoin:round;;fill:none"/>
<polyline points="1854.33,4893.62 1854.33,1783.39 1855.12,1775.32 1857.48,1767.57 1861.3,1760.42 1866.44,1754.16 1872.7,1749.01 1879.85,1745.19 1887.6,1742.84 1895.67,1742.05 3391.73,1742.05 3399.8,1742.84 3407.55,1745.19 3414.7,1749.01 3420.96,1754.16 3426.1,1760.42 3429.92,1767.57 3432.27,1775.32 3433.07,1783.39 3433.07,4893.62 3432.27,4901.69 3429.92,4909.44 3426.1,4916.59 3420.96,4922.85 3414.7,4927.99 3407.55,4931.81 3399.8,4934.16 3391.73,4934.96 1895.67,4934.96 1887.6,4934.16 1879.85,4931.81 1872.7,4927.99 1866.44,4922.85 1861.3,4916.59 1857.48,4909.44 1855.12,4901.69 1854.33,4893.62" style="stroke:rgb(0,0,0);stroke-width:1px;fill:none;stroke-opacity:1;stroke-linecap:round;stroke-linejoin:round;;fill:none"/>
<polyline points="3350.39,1586.54 3350.39,90.4727 3351.19,82.4087 3353.54,74.6547 3357.36,67.5067 3362.5,61.2427 3368.76,56.1007 3375.91,52.2807 3383.67,49.9287 3391.73,49.1347 5281.49,49.1347 5289.56,49.9287 5297.31,52.2807 5304.46,56.1007 5310.73,61.2427 5315.87,67.5067 5319.69,74.6547 5322.04,82.4087 5322.83,90.4727 5322.83,1586.54 5322.04,1594.6 5319.69,1602.36 5315.87,1609.5 5310.73,1615.77 5304.46,1620.91 5297.31,1624.73 5289.56,1627.08 5281.49,1627.87 3391.73,1627.87 3383.67,1627.08 3375.91,1624.73 3368.76,1620.91 3362.5,1615.77 3357.36,1609.5 3353.54,1602.36 3351.19,1594.6 3350.39,1586.54" style="stroke:rgb(205,186,171);stroke-width:82.677165;fill:none;stroke-opacity:0.5;stroke-linecap:round;stroke-linejoin:round;;fill:none"/>
<polyline points="3350.39,1586.54 3350.39,90.4727 3351.19,82.4087 3353.54,74.6547 3357.36,67.5067 3362.5,61.2427 3368.76,56.1007 3375.91,52.2807 3383.67,49.9287 3391.73,49.1347 5281.49,49.1347 5289.56,49.9287 5297.31,52.2807 5304.46,56.1007 5310.73,61.2427 5315.87,67.5067 5319.69,74.6547 5322.04,82.4087 5322.83,90.4727 5322.83,1586.54 5322.04,1594.6 5319.69,1602.36 5315.87,1609.5 5310.73,1615.77 5304.46,1620.91 5297.31,1624.73 5289.56,1627.08 5281.49,1627.87 3391.73,1627.87 3383.67,1627.08 3375.91,1624.73 3368.76,1620.91 3362.5,1615.77 3357.36,1609.5 3353.54,1602.36 3351.19,1594.6 3350.39,1586.54" style="stroke:rgb(0,0,0);stroke-width:1px;fill:none;stroke-opacity:1;stroke-linecap:round;stroke-linejoin:round;;fill:none"/>
<polyline points="3665.35,4893.62 3665.35,1783.39 3666.15,1775.32 3668.5,1767.57 3672.32,1760.42 3677.46,1754.16 3683.72,1749.01 3690.87,1745.19 3698.63,1742.84 3706.69,1742.05 5202.75,1742.05 5210.82,1742.84 5218.57,1745.19 5225.72,1749.01 5231.99,1754.16 5237.13,1760.42 5240.95,1767.57 5243.3,1775.32 5244.09,1783.39 5244.09,4893.62 5243.3,4901.69 5240.95,4909.44 5237.13,4916.59 5231.99,4922.85 5225.72,4927.99 5218.57,4931.81 5210.82,4934.16 5202.75,4934.96 3706.69,4934.96 3698.63,4934.16 3690.87,4931.81 3683.72,4927.99 3677.46,4922.85 3672.32,4916.59 3668.5,4909.44 3666.15,4901.69 3665.35,4893.62" style="stroke:rgb(242,251,227);stroke-width:82.677165;fill:none;stroke-opacity:0.5;stroke-linecap:round;stroke-linejoin:round;;fill:none"/>
<polyline points="3665.35,4893.62 3665.35,1783.39 3666.15,1775.32 3668.5,1767.57 3672.32,1760.42 3677.46,1754.16 3683.72,1749.01 3690.87,1745.19 3698.63,1742.84 3706.69,1742.05 5202.75,1742.05 5210.82,1742.84 5218.57,1745.19 5225.72,1749.01 5231.99,1754.16 5237.13,1760.42 5240.95,1767.57 5243.3,1775.32 5244.09,1783.39 5244.09,4893.62 5243.3,4901.69 5240.95,4909.44 5237.13,4916.59 5231.99,4922.85 5225.72,4927.99 5218.57,4931.81 5210.82,4934.16 5202.75,4934.96 3706.69,4934.96 3698.63,4934.16 3690.87,4931.81 3683.72,4927.99 3677.46,4922.85 3672.32,4916.59 3668.5,4909.44 3666.15,4901.69 3665.35,4893.62" style="stroke:rgb(0,0,0);stroke-width:1px;fill:none;stroke-opacity:1;stroke-linecap:round;stroke-linejoin:round;;fill:none"/>
<g fill-rule="evenodd"><path d="M 1580.71,1783.39 L 1580.71,4893.62 L 84.6457,4893.62 L 84.6457,1783.39 L 1580.71,1783.39 z " style="fill-opacity:1.000000;fill:rgb(103,198,105);stroke:rgb(0,0,0);stroke-width:2"/></g>
<g fill-rule="evenodd"><path d="M 3210.39,84.6457 L 3210.39,1580.71 L 100.157,1580.71 L 100.157,84.6457 L 3210.39,84.6457 z " style="fill-opacity:1.000000;fill:rgb(115,81,255);stroke:rgb(0,0,0);stroke-width:2"/></g>
<g fill-rule="evenodd"><path d="M 3391.73,1783.39 L 3391.73,4893.62 L 1895.67,4893.62 L 1895.67,1783.39 L 3391.73,1783.39 z " style="fill-opacity:1.000000;fill:rgb(74,236,41);stroke:rgb(0,0,0);stroke-width:2"/></g>
<g fill-rule="evenodd"><path d="M 5281.5,90.4724 L 5281.5,1586.54 L 3391.73,1586.54 L 3391.73,90.4724 L 5281.5,90.4724 z " style="fill-opacity:1.000000;fill:rgb(205,186,171);stroke:rgb(0,0,0);stroke-width:2"/></g>
<g fill-rule="evenodd"><path d="M 5202.76,1783.39 L 5202.76,4893.62 L 3706.69,4893.62 L 3706.69,1783.39 L 5202.76,1783.39 z " style="fill-opacity:1.000000;fill:rgb(242,251,227);stroke:rgb(0,0,0);stroke-width:2"/></g>
</svg>
