G04 #@! TF.GenerationSoftware,KiCad,Pcbnew,5.1.9*
G04 #@! TF.CreationDate,2021-04-02T13:00:30+02:00*
G04 #@! TF.ProjectId,pressureSensorHolder,70726573-7375-4726-9553-656e736f7248,rev?*
G04 #@! TF.SameCoordinates,Original*
G04 #@! TF.FileFunction,Soldermask,Top*
G04 #@! TF.FilePolarity,Negative*
%FSLAX46Y46*%
G04 Gerber Fmt 4.6, Leading zero omitted, Abs format (unit mm)*
G04 Created by KiCad (PCBNEW 5.1.9) date 2021-04-02 13:00:30*
%MOMM*%
%LPD*%
G01*
G04 APERTURE LIST*
G04 #@! TA.AperFunction,Profile*
%ADD10C,0.050000*%
G04 #@! TD*
%ADD11O,2.200000X1.400000*%
%ADD12C,2.000000*%
%ADD13C,0.800000*%
%ADD14R,1.500000X1.500000*%
%ADD15C,0.100000*%
G04 APERTURE END LIST*
D10*
X140942200Y-99157400D02*
G75*
G02*
X139442200Y-97657400I0J1500000D01*
G01*
X139442200Y-69657400D02*
G75*
G02*
X140942200Y-68157400I1500000J0D01*
G01*
X158442200Y-97657400D02*
G75*
G02*
X156942200Y-99157400I-1500000J0D01*
G01*
X156942200Y-68157400D02*
G75*
G02*
X158442200Y-69657400I0J-1500000D01*
G01*
X158442200Y-97657400D02*
X158442200Y-69657400D01*
X140942200Y-99157400D02*
X156942200Y-99157400D01*
X139442200Y-69657400D02*
X139442200Y-97657400D01*
X156942200Y-68157400D02*
X140942200Y-68157400D01*
G36*
G01*
X152338200Y-89472400D02*
X152338200Y-88522400D01*
G75*
G02*
X152588200Y-88272400I250000J0D01*
G01*
X153088200Y-88272400D01*
G75*
G02*
X153338200Y-88522400I0J-250000D01*
G01*
X153338200Y-89472400D01*
G75*
G02*
X153088200Y-89722400I-250000J0D01*
G01*
X152588200Y-89722400D01*
G75*
G02*
X152338200Y-89472400I0J250000D01*
G01*
G37*
G36*
G01*
X150438200Y-89472400D02*
X150438200Y-88522400D01*
G75*
G02*
X150688200Y-88272400I250000J0D01*
G01*
X151188200Y-88272400D01*
G75*
G02*
X151438200Y-88522400I0J-250000D01*
G01*
X151438200Y-89472400D01*
G75*
G02*
X151188200Y-89722400I-250000J0D01*
G01*
X150688200Y-89722400D01*
G75*
G02*
X150438200Y-89472400I0J250000D01*
G01*
G37*
G36*
G01*
X154540199Y-88578400D02*
X155840201Y-88578400D01*
G75*
G02*
X156090200Y-88828399I0J-249999D01*
G01*
X156090200Y-89478401D01*
G75*
G02*
X155840201Y-89728400I-249999J0D01*
G01*
X154540199Y-89728400D01*
G75*
G02*
X154290200Y-89478401I0J249999D01*
G01*
X154290200Y-88828399D01*
G75*
G02*
X154540199Y-88578400I249999J0D01*
G01*
G37*
G36*
G01*
X154540199Y-85628400D02*
X155840201Y-85628400D01*
G75*
G02*
X156090200Y-85878399I0J-249999D01*
G01*
X156090200Y-86528401D01*
G75*
G02*
X155840201Y-86778400I-249999J0D01*
G01*
X154540199Y-86778400D01*
G75*
G02*
X154290200Y-86528401I0J249999D01*
G01*
X154290200Y-85878399D01*
G75*
G02*
X154540199Y-85628400I249999J0D01*
G01*
G37*
G36*
G01*
X144942200Y-80057400D02*
X142442200Y-80057400D01*
G75*
G02*
X142192200Y-79807400I0J250000D01*
G01*
X142192200Y-78707400D01*
G75*
G02*
X142442200Y-78457400I250000J0D01*
G01*
X144942200Y-78457400D01*
G75*
G02*
X145192200Y-78707400I0J-250000D01*
G01*
X145192200Y-79807400D01*
G75*
G02*
X144942200Y-80057400I-250000J0D01*
G01*
G37*
G36*
G01*
X144942200Y-88857400D02*
X142442200Y-88857400D01*
G75*
G02*
X142192200Y-88607400I0J250000D01*
G01*
X142192200Y-87507400D01*
G75*
G02*
X142442200Y-87257400I250000J0D01*
G01*
X144942200Y-87257400D01*
G75*
G02*
X145192200Y-87507400I0J-250000D01*
G01*
X145192200Y-88607400D01*
G75*
G02*
X144942200Y-88857400I-250000J0D01*
G01*
G37*
G36*
G01*
X148442200Y-82157400D02*
X143442200Y-82157400D01*
G75*
G02*
X143192200Y-81907400I0J250000D01*
G01*
X143192200Y-81407400D01*
G75*
G02*
X143442200Y-81157400I250000J0D01*
G01*
X148442200Y-81157400D01*
G75*
G02*
X148692200Y-81407400I0J-250000D01*
G01*
X148692200Y-81907400D01*
G75*
G02*
X148442200Y-82157400I-250000J0D01*
G01*
G37*
G36*
G01*
X148442200Y-84157400D02*
X143442200Y-84157400D01*
G75*
G02*
X143192200Y-83907400I0J250000D01*
G01*
X143192200Y-83407400D01*
G75*
G02*
X143442200Y-83157400I250000J0D01*
G01*
X148442200Y-83157400D01*
G75*
G02*
X148692200Y-83407400I0J-250000D01*
G01*
X148692200Y-83907400D01*
G75*
G02*
X148442200Y-84157400I-250000J0D01*
G01*
G37*
G36*
G01*
X148442200Y-86157400D02*
X143442200Y-86157400D01*
G75*
G02*
X143192200Y-85907400I0J250000D01*
G01*
X143192200Y-85407400D01*
G75*
G02*
X143442200Y-85157400I250000J0D01*
G01*
X148442200Y-85157400D01*
G75*
G02*
X148692200Y-85407400I0J-250000D01*
G01*
X148692200Y-85907400D01*
G75*
G02*
X148442200Y-86157400I-250000J0D01*
G01*
G37*
G36*
G01*
X151985700Y-75731402D02*
X151985700Y-74831398D01*
G75*
G02*
X152235698Y-74581400I249998J0D01*
G01*
X152760702Y-74581400D01*
G75*
G02*
X153010700Y-74831398I0J-249998D01*
G01*
X153010700Y-75731402D01*
G75*
G02*
X152760702Y-75981400I-249998J0D01*
G01*
X152235698Y-75981400D01*
G75*
G02*
X151985700Y-75731402I0J249998D01*
G01*
G37*
G36*
G01*
X150160700Y-75731402D02*
X150160700Y-74831398D01*
G75*
G02*
X150410698Y-74581400I249998J0D01*
G01*
X150935702Y-74581400D01*
G75*
G02*
X151185700Y-74831398I0J-249998D01*
G01*
X151185700Y-75731402D01*
G75*
G02*
X150935702Y-75981400I-249998J0D01*
G01*
X150410698Y-75981400D01*
G75*
G02*
X150160700Y-75731402I0J249998D01*
G01*
G37*
G36*
G01*
X152035700Y-77896650D02*
X152035700Y-76984150D01*
G75*
G02*
X152279450Y-76740400I243750J0D01*
G01*
X152766950Y-76740400D01*
G75*
G02*
X153010700Y-76984150I0J-243750D01*
G01*
X153010700Y-77896650D01*
G75*
G02*
X152766950Y-78140400I-243750J0D01*
G01*
X152279450Y-78140400D01*
G75*
G02*
X152035700Y-77896650I0J243750D01*
G01*
G37*
G36*
G01*
X150160700Y-77896650D02*
X150160700Y-76984150D01*
G75*
G02*
X150404450Y-76740400I243750J0D01*
G01*
X150891950Y-76740400D01*
G75*
G02*
X151135700Y-76984150I0J-243750D01*
G01*
X151135700Y-77896650D01*
G75*
G02*
X150891950Y-78140400I-243750J0D01*
G01*
X150404450Y-78140400D01*
G75*
G02*
X150160700Y-77896650I0J243750D01*
G01*
G37*
D11*
X151692200Y-80657400D03*
X151692200Y-82657400D03*
X151692200Y-84657400D03*
X151692200Y-86657400D03*
D12*
X154892200Y-72557400D03*
X144492200Y-72557400D03*
X142992200Y-94757400D03*
X154892200Y-94757400D03*
D13*
X151942200Y-72357400D03*
D12*
X148942200Y-71657400D03*
D13*
X145942200Y-94957400D03*
D12*
X148942200Y-95657400D03*
D14*
X154942200Y-79707400D03*
X154942200Y-82107400D03*
D15*
G36*
X154942200Y-81907400D02*
G01*
X155692200Y-82407400D01*
X155692200Y-83407400D01*
X154192200Y-83407400D01*
X154192200Y-82407400D01*
X154942200Y-81907400D01*
G37*
G36*
X154942200Y-79907400D02*
G01*
X154192200Y-79407400D01*
X154192200Y-78407400D01*
X155692200Y-78407400D01*
X155692200Y-79407400D01*
X154942200Y-79907400D01*
G37*
M02*
