G04 #@! TF.GenerationSoftware,KiCad,Pcbnew,5.1.9*
G04 #@! TF.CreationDate,2021-04-02T13:00:30+02:00*
G04 #@! TF.ProjectId,pressureSensorHolder,70726573-7375-4726-9553-656e736f7248,rev?*
G04 #@! TF.SameCoordinates,Original*
G04 #@! TF.FileFunction,Copper,L2,Bot*
G04 #@! TF.FilePolarity,Positive*
%FSLAX46Y46*%
G04 Gerber Fmt 4.6, Leading zero omitted, Abs format (unit mm)*
G04 Created by KiCad (PCBNEW 5.1.9) date 2021-04-02 13:00:30*
%MOMM*%
%LPD*%
G01*
G04 APERTURE LIST*
G04 #@! TA.AperFunction,Profile*
%ADD10C,0.050000*%
G04 #@! TD*
G04 #@! TA.AperFunction,ComponentPad*
%ADD11O,2.200000X1.400000*%
G04 #@! TD*
G04 #@! TA.AperFunction,ViaPad*
%ADD12C,0.800000*%
G04 #@! TD*
G04 #@! TA.AperFunction,ViaPad*
%ADD13C,1.200000*%
G04 #@! TD*
G04 #@! TA.AperFunction,Conductor*
%ADD14C,0.500000*%
G04 #@! TD*
G04 #@! TA.AperFunction,Conductor*
%ADD15C,0.130000*%
G04 #@! TD*
G04 #@! TA.AperFunction,Conductor*
%ADD16C,0.100000*%
G04 #@! TD*
G04 APERTURE END LIST*
D10*
X140942200Y-99157400D02*
G75*
G02*
X139442200Y-97657400I0J1500000D01*
G01*
X139442200Y-69657400D02*
G75*
G02*
X140942200Y-68157400I1500000J0D01*
G01*
X158442200Y-97657400D02*
G75*
G02*
X156942200Y-99157400I-1500000J0D01*
G01*
X156942200Y-68157400D02*
G75*
G02*
X158442200Y-69657400I0J-1500000D01*
G01*
X158442200Y-97657400D02*
X158442200Y-69657400D01*
X140942200Y-99157400D02*
X156942200Y-99157400D01*
X139442200Y-69657400D02*
X139442200Y-97657400D01*
X156942200Y-68157400D02*
X140942200Y-68157400D01*
D11*
X151692200Y-80657400D03*
X151692200Y-82657400D03*
X151692200Y-84657400D03*
X151692200Y-86657400D03*
D12*
X146808200Y-76043400D03*
X153793200Y-84806400D03*
D13*
X147504200Y-87219402D03*
X155190196Y-87473404D03*
D14*
X147504200Y-87219402D02*
X148412197Y-88127399D01*
X148412197Y-88127399D02*
X154536201Y-88127399D01*
X154536201Y-88127399D02*
X155190196Y-87473404D01*
D15*
X157192568Y-68392956D02*
X157433397Y-68465667D01*
X157655519Y-68583771D01*
X157850466Y-68742766D01*
X158010824Y-68936606D01*
X158130476Y-69157896D01*
X158204865Y-69398212D01*
X158232201Y-69658299D01*
X158232200Y-97647127D01*
X158206644Y-97907768D01*
X158133933Y-98148597D01*
X158015829Y-98370719D01*
X157856834Y-98565666D01*
X157662994Y-98726024D01*
X157441704Y-98845676D01*
X157201392Y-98920065D01*
X156941311Y-98947400D01*
X140952473Y-98947400D01*
X140691832Y-98921844D01*
X140451003Y-98849133D01*
X140228881Y-98731029D01*
X140033934Y-98572034D01*
X139873576Y-98378194D01*
X139753924Y-98156904D01*
X139679535Y-97916592D01*
X139652200Y-97656511D01*
X139652200Y-94627490D01*
X141673200Y-94627490D01*
X141673200Y-94887310D01*
X141723889Y-95142138D01*
X141823317Y-95382181D01*
X141967666Y-95598213D01*
X142151387Y-95781934D01*
X142367419Y-95926283D01*
X142607462Y-96025711D01*
X142862290Y-96076400D01*
X143122110Y-96076400D01*
X143376938Y-96025711D01*
X143616981Y-95926283D01*
X143833013Y-95781934D01*
X144016734Y-95598213D01*
X144161083Y-95382181D01*
X144260511Y-95142138D01*
X144311200Y-94887310D01*
X144311200Y-94886585D01*
X145223200Y-94886585D01*
X145223200Y-95028215D01*
X145250831Y-95167125D01*
X145305030Y-95297974D01*
X145383716Y-95415736D01*
X145483864Y-95515884D01*
X145601626Y-95594570D01*
X145732475Y-95648769D01*
X145871385Y-95676400D01*
X146013015Y-95676400D01*
X146151925Y-95648769D01*
X146282774Y-95594570D01*
X146383166Y-95527490D01*
X147623200Y-95527490D01*
X147623200Y-95787310D01*
X147673889Y-96042138D01*
X147773317Y-96282181D01*
X147917666Y-96498213D01*
X148101387Y-96681934D01*
X148317419Y-96826283D01*
X148557462Y-96925711D01*
X148812290Y-96976400D01*
X149072110Y-96976400D01*
X149326938Y-96925711D01*
X149566981Y-96826283D01*
X149783013Y-96681934D01*
X149966734Y-96498213D01*
X150111083Y-96282181D01*
X150210511Y-96042138D01*
X150261200Y-95787310D01*
X150261200Y-95527490D01*
X150210511Y-95272662D01*
X150111083Y-95032619D01*
X149966734Y-94816587D01*
X149783013Y-94632866D01*
X149774968Y-94627490D01*
X153573200Y-94627490D01*
X153573200Y-94887310D01*
X153623889Y-95142138D01*
X153723317Y-95382181D01*
X153867666Y-95598213D01*
X154051387Y-95781934D01*
X154267419Y-95926283D01*
X154507462Y-96025711D01*
X154762290Y-96076400D01*
X155022110Y-96076400D01*
X155276938Y-96025711D01*
X155516981Y-95926283D01*
X155733013Y-95781934D01*
X155916734Y-95598213D01*
X156061083Y-95382181D01*
X156160511Y-95142138D01*
X156211200Y-94887310D01*
X156211200Y-94627490D01*
X156160511Y-94372662D01*
X156061083Y-94132619D01*
X155916734Y-93916587D01*
X155733013Y-93732866D01*
X155516981Y-93588517D01*
X155276938Y-93489089D01*
X155022110Y-93438400D01*
X154762290Y-93438400D01*
X154507462Y-93489089D01*
X154267419Y-93588517D01*
X154051387Y-93732866D01*
X153867666Y-93916587D01*
X153723317Y-94132619D01*
X153623889Y-94372662D01*
X153573200Y-94627490D01*
X149774968Y-94627490D01*
X149566981Y-94488517D01*
X149326938Y-94389089D01*
X149072110Y-94338400D01*
X148812290Y-94338400D01*
X148557462Y-94389089D01*
X148317419Y-94488517D01*
X148101387Y-94632866D01*
X147917666Y-94816587D01*
X147773317Y-95032619D01*
X147673889Y-95272662D01*
X147623200Y-95527490D01*
X146383166Y-95527490D01*
X146400536Y-95515884D01*
X146500684Y-95415736D01*
X146579370Y-95297974D01*
X146633569Y-95167125D01*
X146661200Y-95028215D01*
X146661200Y-94886585D01*
X146633569Y-94747675D01*
X146579370Y-94616826D01*
X146500684Y-94499064D01*
X146400536Y-94398916D01*
X146282774Y-94320230D01*
X146151925Y-94266031D01*
X146013015Y-94238400D01*
X145871385Y-94238400D01*
X145732475Y-94266031D01*
X145601626Y-94320230D01*
X145483864Y-94398916D01*
X145383716Y-94499064D01*
X145305030Y-94616826D01*
X145250831Y-94747675D01*
X145223200Y-94886585D01*
X144311200Y-94886585D01*
X144311200Y-94627490D01*
X144260511Y-94372662D01*
X144161083Y-94132619D01*
X144016734Y-93916587D01*
X143833013Y-93732866D01*
X143616981Y-93588517D01*
X143376938Y-93489089D01*
X143122110Y-93438400D01*
X142862290Y-93438400D01*
X142607462Y-93489089D01*
X142367419Y-93588517D01*
X142151387Y-93732866D01*
X141967666Y-93916587D01*
X141823317Y-94132619D01*
X141723889Y-94372662D01*
X141673200Y-94627490D01*
X139652200Y-94627490D01*
X139652200Y-87128888D01*
X146585200Y-87128888D01*
X146585200Y-87309916D01*
X146620516Y-87487465D01*
X146689792Y-87654712D01*
X146790366Y-87805231D01*
X146918371Y-87933236D01*
X147068890Y-88033810D01*
X147236137Y-88103086D01*
X147413686Y-88138402D01*
X147594714Y-88138402D01*
X147614564Y-88134454D01*
X147990094Y-88509984D01*
X148007907Y-88531689D01*
X148029612Y-88549502D01*
X148029618Y-88549508D01*
X148094547Y-88602794D01*
X148147383Y-88631035D01*
X148193397Y-88655630D01*
X148268117Y-88678296D01*
X148300653Y-88688166D01*
X148310359Y-88689122D01*
X148384245Y-88696399D01*
X148384253Y-88696399D01*
X148412197Y-88699151D01*
X148440141Y-88696399D01*
X154508259Y-88696399D01*
X154536201Y-88699151D01*
X154564143Y-88696399D01*
X154564153Y-88696399D01*
X154647744Y-88688166D01*
X154755001Y-88655630D01*
X154853850Y-88602794D01*
X154940491Y-88531689D01*
X154958312Y-88509974D01*
X155079831Y-88388455D01*
X155099682Y-88392404D01*
X155280710Y-88392404D01*
X155458259Y-88357088D01*
X155625506Y-88287812D01*
X155776025Y-88187238D01*
X155904030Y-88059233D01*
X156004604Y-87908714D01*
X156073880Y-87741467D01*
X156109196Y-87563918D01*
X156109196Y-87382890D01*
X156073880Y-87205341D01*
X156004604Y-87038094D01*
X155904030Y-86887575D01*
X155776025Y-86759570D01*
X155625506Y-86658996D01*
X155458259Y-86589720D01*
X155280710Y-86554404D01*
X155099682Y-86554404D01*
X154922133Y-86589720D01*
X154754886Y-86658996D01*
X154604367Y-86759570D01*
X154476362Y-86887575D01*
X154375788Y-87038094D01*
X154306512Y-87205341D01*
X154271196Y-87382890D01*
X154271196Y-87558399D01*
X152568210Y-87558399D01*
X152661065Y-87508767D01*
X152816228Y-87381428D01*
X152943567Y-87226265D01*
X153038188Y-87049241D01*
X153096455Y-86857159D01*
X153116130Y-86657400D01*
X153096455Y-86457641D01*
X153038188Y-86265559D01*
X152943567Y-86088535D01*
X152816228Y-85933372D01*
X152661065Y-85806033D01*
X152484041Y-85711412D01*
X152296872Y-85654635D01*
X152330424Y-85649997D01*
X152519493Y-85584449D01*
X152692141Y-85483275D01*
X152841734Y-85350363D01*
X152962522Y-85190821D01*
X153049864Y-85010780D01*
X153092609Y-84856348D01*
X153031349Y-84697400D01*
X151732200Y-84697400D01*
X151732200Y-84717400D01*
X151652200Y-84717400D01*
X151652200Y-84697400D01*
X150353051Y-84697400D01*
X150291791Y-84856348D01*
X150334536Y-85010780D01*
X150421878Y-85190821D01*
X150542666Y-85350363D01*
X150692259Y-85483275D01*
X150864907Y-85584449D01*
X151053976Y-85649997D01*
X151087528Y-85654635D01*
X150900359Y-85711412D01*
X150723335Y-85806033D01*
X150568172Y-85933372D01*
X150440833Y-86088535D01*
X150346212Y-86265559D01*
X150287945Y-86457641D01*
X150268270Y-86657400D01*
X150287945Y-86857159D01*
X150346212Y-87049241D01*
X150440833Y-87226265D01*
X150568172Y-87381428D01*
X150723335Y-87508767D01*
X150816190Y-87558399D01*
X148647885Y-87558399D01*
X148419252Y-87329766D01*
X148423200Y-87309916D01*
X148423200Y-87128888D01*
X148387884Y-86951339D01*
X148318608Y-86784092D01*
X148218034Y-86633573D01*
X148090029Y-86505568D01*
X147939510Y-86404994D01*
X147772263Y-86335718D01*
X147594714Y-86300402D01*
X147413686Y-86300402D01*
X147236137Y-86335718D01*
X147068890Y-86404994D01*
X146918371Y-86505568D01*
X146790366Y-86633573D01*
X146689792Y-86784092D01*
X146620516Y-86951339D01*
X146585200Y-87128888D01*
X139652200Y-87128888D01*
X139652200Y-80657400D01*
X150268270Y-80657400D01*
X150287945Y-80857159D01*
X150346212Y-81049241D01*
X150440833Y-81226265D01*
X150568172Y-81381428D01*
X150723335Y-81508767D01*
X150900359Y-81603388D01*
X151078414Y-81657400D01*
X150900359Y-81711412D01*
X150723335Y-81806033D01*
X150568172Y-81933372D01*
X150440833Y-82088535D01*
X150346212Y-82265559D01*
X150287945Y-82457641D01*
X150268270Y-82657400D01*
X150287945Y-82857159D01*
X150346212Y-83049241D01*
X150440833Y-83226265D01*
X150568172Y-83381428D01*
X150723335Y-83508767D01*
X150900359Y-83603388D01*
X151087528Y-83660165D01*
X151053976Y-83664803D01*
X150864907Y-83730351D01*
X150692259Y-83831525D01*
X150542666Y-83964437D01*
X150421878Y-84123979D01*
X150334536Y-84304020D01*
X150291791Y-84458452D01*
X150353051Y-84617400D01*
X151652200Y-84617400D01*
X151652200Y-84597400D01*
X151732200Y-84597400D01*
X151732200Y-84617400D01*
X153031349Y-84617400D01*
X153092609Y-84458452D01*
X153049864Y-84304020D01*
X152962522Y-84123979D01*
X152841734Y-83964437D01*
X152692141Y-83831525D01*
X152519493Y-83730351D01*
X152330424Y-83664803D01*
X152296872Y-83660165D01*
X152484041Y-83603388D01*
X152661065Y-83508767D01*
X152816228Y-83381428D01*
X152943567Y-83226265D01*
X153038188Y-83049241D01*
X153096455Y-82857159D01*
X153116130Y-82657400D01*
X153096455Y-82457641D01*
X153038188Y-82265559D01*
X152943567Y-82088535D01*
X152816228Y-81933372D01*
X152661065Y-81806033D01*
X152484041Y-81711412D01*
X152305986Y-81657400D01*
X152484041Y-81603388D01*
X152661065Y-81508767D01*
X152816228Y-81381428D01*
X152943567Y-81226265D01*
X153038188Y-81049241D01*
X153096455Y-80857159D01*
X153116130Y-80657400D01*
X153096455Y-80457641D01*
X153038188Y-80265559D01*
X152943567Y-80088535D01*
X152816228Y-79933372D01*
X152661065Y-79806033D01*
X152484041Y-79711412D01*
X152291959Y-79653145D01*
X152142254Y-79638400D01*
X151242146Y-79638400D01*
X151092441Y-79653145D01*
X150900359Y-79711412D01*
X150723335Y-79806033D01*
X150568172Y-79933372D01*
X150440833Y-80088535D01*
X150346212Y-80265559D01*
X150287945Y-80457641D01*
X150268270Y-80657400D01*
X139652200Y-80657400D01*
X139652200Y-72427490D01*
X143173200Y-72427490D01*
X143173200Y-72687310D01*
X143223889Y-72942138D01*
X143323317Y-73182181D01*
X143467666Y-73398213D01*
X143651387Y-73581934D01*
X143867419Y-73726283D01*
X144107462Y-73825711D01*
X144362290Y-73876400D01*
X144622110Y-73876400D01*
X144876938Y-73825711D01*
X145116981Y-73726283D01*
X145333013Y-73581934D01*
X145516734Y-73398213D01*
X145661083Y-73182181D01*
X145760511Y-72942138D01*
X145811200Y-72687310D01*
X145811200Y-72427490D01*
X145760511Y-72172662D01*
X145661083Y-71932619D01*
X145516734Y-71716587D01*
X145333013Y-71532866D01*
X145324968Y-71527490D01*
X147623200Y-71527490D01*
X147623200Y-71787310D01*
X147673889Y-72042138D01*
X147773317Y-72282181D01*
X147917666Y-72498213D01*
X148101387Y-72681934D01*
X148317419Y-72826283D01*
X148557462Y-72925711D01*
X148812290Y-72976400D01*
X149072110Y-72976400D01*
X149326938Y-72925711D01*
X149566981Y-72826283D01*
X149783013Y-72681934D01*
X149966734Y-72498213D01*
X150108140Y-72286585D01*
X151223200Y-72286585D01*
X151223200Y-72428215D01*
X151250831Y-72567125D01*
X151305030Y-72697974D01*
X151383716Y-72815736D01*
X151483864Y-72915884D01*
X151601626Y-72994570D01*
X151732475Y-73048769D01*
X151871385Y-73076400D01*
X152013015Y-73076400D01*
X152151925Y-73048769D01*
X152282774Y-72994570D01*
X152400536Y-72915884D01*
X152500684Y-72815736D01*
X152579370Y-72697974D01*
X152633569Y-72567125D01*
X152661200Y-72428215D01*
X152661200Y-72427490D01*
X153573200Y-72427490D01*
X153573200Y-72687310D01*
X153623889Y-72942138D01*
X153723317Y-73182181D01*
X153867666Y-73398213D01*
X154051387Y-73581934D01*
X154267419Y-73726283D01*
X154507462Y-73825711D01*
X154762290Y-73876400D01*
X155022110Y-73876400D01*
X155276938Y-73825711D01*
X155516981Y-73726283D01*
X155733013Y-73581934D01*
X155916734Y-73398213D01*
X156061083Y-73182181D01*
X156160511Y-72942138D01*
X156211200Y-72687310D01*
X156211200Y-72427490D01*
X156160511Y-72172662D01*
X156061083Y-71932619D01*
X155916734Y-71716587D01*
X155733013Y-71532866D01*
X155516981Y-71388517D01*
X155276938Y-71289089D01*
X155022110Y-71238400D01*
X154762290Y-71238400D01*
X154507462Y-71289089D01*
X154267419Y-71388517D01*
X154051387Y-71532866D01*
X153867666Y-71716587D01*
X153723317Y-71932619D01*
X153623889Y-72172662D01*
X153573200Y-72427490D01*
X152661200Y-72427490D01*
X152661200Y-72286585D01*
X152633569Y-72147675D01*
X152579370Y-72016826D01*
X152500684Y-71899064D01*
X152400536Y-71798916D01*
X152282774Y-71720230D01*
X152151925Y-71666031D01*
X152013015Y-71638400D01*
X151871385Y-71638400D01*
X151732475Y-71666031D01*
X151601626Y-71720230D01*
X151483864Y-71798916D01*
X151383716Y-71899064D01*
X151305030Y-72016826D01*
X151250831Y-72147675D01*
X151223200Y-72286585D01*
X150108140Y-72286585D01*
X150111083Y-72282181D01*
X150210511Y-72042138D01*
X150261200Y-71787310D01*
X150261200Y-71527490D01*
X150210511Y-71272662D01*
X150111083Y-71032619D01*
X149966734Y-70816587D01*
X149783013Y-70632866D01*
X149566981Y-70488517D01*
X149326938Y-70389089D01*
X149072110Y-70338400D01*
X148812290Y-70338400D01*
X148557462Y-70389089D01*
X148317419Y-70488517D01*
X148101387Y-70632866D01*
X147917666Y-70816587D01*
X147773317Y-71032619D01*
X147673889Y-71272662D01*
X147623200Y-71527490D01*
X145324968Y-71527490D01*
X145116981Y-71388517D01*
X144876938Y-71289089D01*
X144622110Y-71238400D01*
X144362290Y-71238400D01*
X144107462Y-71289089D01*
X143867419Y-71388517D01*
X143651387Y-71532866D01*
X143467666Y-71716587D01*
X143323317Y-71932619D01*
X143223889Y-72172662D01*
X143173200Y-72427490D01*
X139652200Y-72427490D01*
X139652200Y-69667673D01*
X139677756Y-69407032D01*
X139750467Y-69166203D01*
X139868571Y-68944081D01*
X140027566Y-68749134D01*
X140221406Y-68588776D01*
X140442696Y-68469124D01*
X140683012Y-68394735D01*
X140943089Y-68367400D01*
X156931927Y-68367400D01*
X157192568Y-68392956D01*
G04 #@! TA.AperFunction,Conductor*
D16*
G36*
X157192568Y-68392956D02*
G01*
X157433397Y-68465667D01*
X157655519Y-68583771D01*
X157850466Y-68742766D01*
X158010824Y-68936606D01*
X158130476Y-69157896D01*
X158204865Y-69398212D01*
X158232201Y-69658299D01*
X158232200Y-97647127D01*
X158206644Y-97907768D01*
X158133933Y-98148597D01*
X158015829Y-98370719D01*
X157856834Y-98565666D01*
X157662994Y-98726024D01*
X157441704Y-98845676D01*
X157201392Y-98920065D01*
X156941311Y-98947400D01*
X140952473Y-98947400D01*
X140691832Y-98921844D01*
X140451003Y-98849133D01*
X140228881Y-98731029D01*
X140033934Y-98572034D01*
X139873576Y-98378194D01*
X139753924Y-98156904D01*
X139679535Y-97916592D01*
X139652200Y-97656511D01*
X139652200Y-94627490D01*
X141673200Y-94627490D01*
X141673200Y-94887310D01*
X141723889Y-95142138D01*
X141823317Y-95382181D01*
X141967666Y-95598213D01*
X142151387Y-95781934D01*
X142367419Y-95926283D01*
X142607462Y-96025711D01*
X142862290Y-96076400D01*
X143122110Y-96076400D01*
X143376938Y-96025711D01*
X143616981Y-95926283D01*
X143833013Y-95781934D01*
X144016734Y-95598213D01*
X144161083Y-95382181D01*
X144260511Y-95142138D01*
X144311200Y-94887310D01*
X144311200Y-94886585D01*
X145223200Y-94886585D01*
X145223200Y-95028215D01*
X145250831Y-95167125D01*
X145305030Y-95297974D01*
X145383716Y-95415736D01*
X145483864Y-95515884D01*
X145601626Y-95594570D01*
X145732475Y-95648769D01*
X145871385Y-95676400D01*
X146013015Y-95676400D01*
X146151925Y-95648769D01*
X146282774Y-95594570D01*
X146383166Y-95527490D01*
X147623200Y-95527490D01*
X147623200Y-95787310D01*
X147673889Y-96042138D01*
X147773317Y-96282181D01*
X147917666Y-96498213D01*
X148101387Y-96681934D01*
X148317419Y-96826283D01*
X148557462Y-96925711D01*
X148812290Y-96976400D01*
X149072110Y-96976400D01*
X149326938Y-96925711D01*
X149566981Y-96826283D01*
X149783013Y-96681934D01*
X149966734Y-96498213D01*
X150111083Y-96282181D01*
X150210511Y-96042138D01*
X150261200Y-95787310D01*
X150261200Y-95527490D01*
X150210511Y-95272662D01*
X150111083Y-95032619D01*
X149966734Y-94816587D01*
X149783013Y-94632866D01*
X149774968Y-94627490D01*
X153573200Y-94627490D01*
X153573200Y-94887310D01*
X153623889Y-95142138D01*
X153723317Y-95382181D01*
X153867666Y-95598213D01*
X154051387Y-95781934D01*
X154267419Y-95926283D01*
X154507462Y-96025711D01*
X154762290Y-96076400D01*
X155022110Y-96076400D01*
X155276938Y-96025711D01*
X155516981Y-95926283D01*
X155733013Y-95781934D01*
X155916734Y-95598213D01*
X156061083Y-95382181D01*
X156160511Y-95142138D01*
X156211200Y-94887310D01*
X156211200Y-94627490D01*
X156160511Y-94372662D01*
X156061083Y-94132619D01*
X155916734Y-93916587D01*
X155733013Y-93732866D01*
X155516981Y-93588517D01*
X155276938Y-93489089D01*
X155022110Y-93438400D01*
X154762290Y-93438400D01*
X154507462Y-93489089D01*
X154267419Y-93588517D01*
X154051387Y-93732866D01*
X153867666Y-93916587D01*
X153723317Y-94132619D01*
X153623889Y-94372662D01*
X153573200Y-94627490D01*
X149774968Y-94627490D01*
X149566981Y-94488517D01*
X149326938Y-94389089D01*
X149072110Y-94338400D01*
X148812290Y-94338400D01*
X148557462Y-94389089D01*
X148317419Y-94488517D01*
X148101387Y-94632866D01*
X147917666Y-94816587D01*
X147773317Y-95032619D01*
X147673889Y-95272662D01*
X147623200Y-95527490D01*
X146383166Y-95527490D01*
X146400536Y-95515884D01*
X146500684Y-95415736D01*
X146579370Y-95297974D01*
X146633569Y-95167125D01*
X146661200Y-95028215D01*
X146661200Y-94886585D01*
X146633569Y-94747675D01*
X146579370Y-94616826D01*
X146500684Y-94499064D01*
X146400536Y-94398916D01*
X146282774Y-94320230D01*
X146151925Y-94266031D01*
X146013015Y-94238400D01*
X145871385Y-94238400D01*
X145732475Y-94266031D01*
X145601626Y-94320230D01*
X145483864Y-94398916D01*
X145383716Y-94499064D01*
X145305030Y-94616826D01*
X145250831Y-94747675D01*
X145223200Y-94886585D01*
X144311200Y-94886585D01*
X144311200Y-94627490D01*
X144260511Y-94372662D01*
X144161083Y-94132619D01*
X144016734Y-93916587D01*
X143833013Y-93732866D01*
X143616981Y-93588517D01*
X143376938Y-93489089D01*
X143122110Y-93438400D01*
X142862290Y-93438400D01*
X142607462Y-93489089D01*
X142367419Y-93588517D01*
X142151387Y-93732866D01*
X141967666Y-93916587D01*
X141823317Y-94132619D01*
X141723889Y-94372662D01*
X141673200Y-94627490D01*
X139652200Y-94627490D01*
X139652200Y-87128888D01*
X146585200Y-87128888D01*
X146585200Y-87309916D01*
X146620516Y-87487465D01*
X146689792Y-87654712D01*
X146790366Y-87805231D01*
X146918371Y-87933236D01*
X147068890Y-88033810D01*
X147236137Y-88103086D01*
X147413686Y-88138402D01*
X147594714Y-88138402D01*
X147614564Y-88134454D01*
X147990094Y-88509984D01*
X148007907Y-88531689D01*
X148029612Y-88549502D01*
X148029618Y-88549508D01*
X148094547Y-88602794D01*
X148147383Y-88631035D01*
X148193397Y-88655630D01*
X148268117Y-88678296D01*
X148300653Y-88688166D01*
X148310359Y-88689122D01*
X148384245Y-88696399D01*
X148384253Y-88696399D01*
X148412197Y-88699151D01*
X148440141Y-88696399D01*
X154508259Y-88696399D01*
X154536201Y-88699151D01*
X154564143Y-88696399D01*
X154564153Y-88696399D01*
X154647744Y-88688166D01*
X154755001Y-88655630D01*
X154853850Y-88602794D01*
X154940491Y-88531689D01*
X154958312Y-88509974D01*
X155079831Y-88388455D01*
X155099682Y-88392404D01*
X155280710Y-88392404D01*
X155458259Y-88357088D01*
X155625506Y-88287812D01*
X155776025Y-88187238D01*
X155904030Y-88059233D01*
X156004604Y-87908714D01*
X156073880Y-87741467D01*
X156109196Y-87563918D01*
X156109196Y-87382890D01*
X156073880Y-87205341D01*
X156004604Y-87038094D01*
X155904030Y-86887575D01*
X155776025Y-86759570D01*
X155625506Y-86658996D01*
X155458259Y-86589720D01*
X155280710Y-86554404D01*
X155099682Y-86554404D01*
X154922133Y-86589720D01*
X154754886Y-86658996D01*
X154604367Y-86759570D01*
X154476362Y-86887575D01*
X154375788Y-87038094D01*
X154306512Y-87205341D01*
X154271196Y-87382890D01*
X154271196Y-87558399D01*
X152568210Y-87558399D01*
X152661065Y-87508767D01*
X152816228Y-87381428D01*
X152943567Y-87226265D01*
X153038188Y-87049241D01*
X153096455Y-86857159D01*
X153116130Y-86657400D01*
X153096455Y-86457641D01*
X153038188Y-86265559D01*
X152943567Y-86088535D01*
X152816228Y-85933372D01*
X152661065Y-85806033D01*
X152484041Y-85711412D01*
X152296872Y-85654635D01*
X152330424Y-85649997D01*
X152519493Y-85584449D01*
X152692141Y-85483275D01*
X152841734Y-85350363D01*
X152962522Y-85190821D01*
X153049864Y-85010780D01*
X153092609Y-84856348D01*
X153031349Y-84697400D01*
X151732200Y-84697400D01*
X151732200Y-84717400D01*
X151652200Y-84717400D01*
X151652200Y-84697400D01*
X150353051Y-84697400D01*
X150291791Y-84856348D01*
X150334536Y-85010780D01*
X150421878Y-85190821D01*
X150542666Y-85350363D01*
X150692259Y-85483275D01*
X150864907Y-85584449D01*
X151053976Y-85649997D01*
X151087528Y-85654635D01*
X150900359Y-85711412D01*
X150723335Y-85806033D01*
X150568172Y-85933372D01*
X150440833Y-86088535D01*
X150346212Y-86265559D01*
X150287945Y-86457641D01*
X150268270Y-86657400D01*
X150287945Y-86857159D01*
X150346212Y-87049241D01*
X150440833Y-87226265D01*
X150568172Y-87381428D01*
X150723335Y-87508767D01*
X150816190Y-87558399D01*
X148647885Y-87558399D01*
X148419252Y-87329766D01*
X148423200Y-87309916D01*
X148423200Y-87128888D01*
X148387884Y-86951339D01*
X148318608Y-86784092D01*
X148218034Y-86633573D01*
X148090029Y-86505568D01*
X147939510Y-86404994D01*
X147772263Y-86335718D01*
X147594714Y-86300402D01*
X147413686Y-86300402D01*
X147236137Y-86335718D01*
X147068890Y-86404994D01*
X146918371Y-86505568D01*
X146790366Y-86633573D01*
X146689792Y-86784092D01*
X146620516Y-86951339D01*
X146585200Y-87128888D01*
X139652200Y-87128888D01*
X139652200Y-80657400D01*
X150268270Y-80657400D01*
X150287945Y-80857159D01*
X150346212Y-81049241D01*
X150440833Y-81226265D01*
X150568172Y-81381428D01*
X150723335Y-81508767D01*
X150900359Y-81603388D01*
X151078414Y-81657400D01*
X150900359Y-81711412D01*
X150723335Y-81806033D01*
X150568172Y-81933372D01*
X150440833Y-82088535D01*
X150346212Y-82265559D01*
X150287945Y-82457641D01*
X150268270Y-82657400D01*
X150287945Y-82857159D01*
X150346212Y-83049241D01*
X150440833Y-83226265D01*
X150568172Y-83381428D01*
X150723335Y-83508767D01*
X150900359Y-83603388D01*
X151087528Y-83660165D01*
X151053976Y-83664803D01*
X150864907Y-83730351D01*
X150692259Y-83831525D01*
X150542666Y-83964437D01*
X150421878Y-84123979D01*
X150334536Y-84304020D01*
X150291791Y-84458452D01*
X150353051Y-84617400D01*
X151652200Y-84617400D01*
X151652200Y-84597400D01*
X151732200Y-84597400D01*
X151732200Y-84617400D01*
X153031349Y-84617400D01*
X153092609Y-84458452D01*
X153049864Y-84304020D01*
X152962522Y-84123979D01*
X152841734Y-83964437D01*
X152692141Y-83831525D01*
X152519493Y-83730351D01*
X152330424Y-83664803D01*
X152296872Y-83660165D01*
X152484041Y-83603388D01*
X152661065Y-83508767D01*
X152816228Y-83381428D01*
X152943567Y-83226265D01*
X153038188Y-83049241D01*
X153096455Y-82857159D01*
X153116130Y-82657400D01*
X153096455Y-82457641D01*
X153038188Y-82265559D01*
X152943567Y-82088535D01*
X152816228Y-81933372D01*
X152661065Y-81806033D01*
X152484041Y-81711412D01*
X152305986Y-81657400D01*
X152484041Y-81603388D01*
X152661065Y-81508767D01*
X152816228Y-81381428D01*
X152943567Y-81226265D01*
X153038188Y-81049241D01*
X153096455Y-80857159D01*
X153116130Y-80657400D01*
X153096455Y-80457641D01*
X153038188Y-80265559D01*
X152943567Y-80088535D01*
X152816228Y-79933372D01*
X152661065Y-79806033D01*
X152484041Y-79711412D01*
X152291959Y-79653145D01*
X152142254Y-79638400D01*
X151242146Y-79638400D01*
X151092441Y-79653145D01*
X150900359Y-79711412D01*
X150723335Y-79806033D01*
X150568172Y-79933372D01*
X150440833Y-80088535D01*
X150346212Y-80265559D01*
X150287945Y-80457641D01*
X150268270Y-80657400D01*
X139652200Y-80657400D01*
X139652200Y-72427490D01*
X143173200Y-72427490D01*
X143173200Y-72687310D01*
X143223889Y-72942138D01*
X143323317Y-73182181D01*
X143467666Y-73398213D01*
X143651387Y-73581934D01*
X143867419Y-73726283D01*
X144107462Y-73825711D01*
X144362290Y-73876400D01*
X144622110Y-73876400D01*
X144876938Y-73825711D01*
X145116981Y-73726283D01*
X145333013Y-73581934D01*
X145516734Y-73398213D01*
X145661083Y-73182181D01*
X145760511Y-72942138D01*
X145811200Y-72687310D01*
X145811200Y-72427490D01*
X145760511Y-72172662D01*
X145661083Y-71932619D01*
X145516734Y-71716587D01*
X145333013Y-71532866D01*
X145324968Y-71527490D01*
X147623200Y-71527490D01*
X147623200Y-71787310D01*
X147673889Y-72042138D01*
X147773317Y-72282181D01*
X147917666Y-72498213D01*
X148101387Y-72681934D01*
X148317419Y-72826283D01*
X148557462Y-72925711D01*
X148812290Y-72976400D01*
X149072110Y-72976400D01*
X149326938Y-72925711D01*
X149566981Y-72826283D01*
X149783013Y-72681934D01*
X149966734Y-72498213D01*
X150108140Y-72286585D01*
X151223200Y-72286585D01*
X151223200Y-72428215D01*
X151250831Y-72567125D01*
X151305030Y-72697974D01*
X151383716Y-72815736D01*
X151483864Y-72915884D01*
X151601626Y-72994570D01*
X151732475Y-73048769D01*
X151871385Y-73076400D01*
X152013015Y-73076400D01*
X152151925Y-73048769D01*
X152282774Y-72994570D01*
X152400536Y-72915884D01*
X152500684Y-72815736D01*
X152579370Y-72697974D01*
X152633569Y-72567125D01*
X152661200Y-72428215D01*
X152661200Y-72427490D01*
X153573200Y-72427490D01*
X153573200Y-72687310D01*
X153623889Y-72942138D01*
X153723317Y-73182181D01*
X153867666Y-73398213D01*
X154051387Y-73581934D01*
X154267419Y-73726283D01*
X154507462Y-73825711D01*
X154762290Y-73876400D01*
X155022110Y-73876400D01*
X155276938Y-73825711D01*
X155516981Y-73726283D01*
X155733013Y-73581934D01*
X155916734Y-73398213D01*
X156061083Y-73182181D01*
X156160511Y-72942138D01*
X156211200Y-72687310D01*
X156211200Y-72427490D01*
X156160511Y-72172662D01*
X156061083Y-71932619D01*
X155916734Y-71716587D01*
X155733013Y-71532866D01*
X155516981Y-71388517D01*
X155276938Y-71289089D01*
X155022110Y-71238400D01*
X154762290Y-71238400D01*
X154507462Y-71289089D01*
X154267419Y-71388517D01*
X154051387Y-71532866D01*
X153867666Y-71716587D01*
X153723317Y-71932619D01*
X153623889Y-72172662D01*
X153573200Y-72427490D01*
X152661200Y-72427490D01*
X152661200Y-72286585D01*
X152633569Y-72147675D01*
X152579370Y-72016826D01*
X152500684Y-71899064D01*
X152400536Y-71798916D01*
X152282774Y-71720230D01*
X152151925Y-71666031D01*
X152013015Y-71638400D01*
X151871385Y-71638400D01*
X151732475Y-71666031D01*
X151601626Y-71720230D01*
X151483864Y-71798916D01*
X151383716Y-71899064D01*
X151305030Y-72016826D01*
X151250831Y-72147675D01*
X151223200Y-72286585D01*
X150108140Y-72286585D01*
X150111083Y-72282181D01*
X150210511Y-72042138D01*
X150261200Y-71787310D01*
X150261200Y-71527490D01*
X150210511Y-71272662D01*
X150111083Y-71032619D01*
X149966734Y-70816587D01*
X149783013Y-70632866D01*
X149566981Y-70488517D01*
X149326938Y-70389089D01*
X149072110Y-70338400D01*
X148812290Y-70338400D01*
X148557462Y-70389089D01*
X148317419Y-70488517D01*
X148101387Y-70632866D01*
X147917666Y-70816587D01*
X147773317Y-71032619D01*
X147673889Y-71272662D01*
X147623200Y-71527490D01*
X145324968Y-71527490D01*
X145116981Y-71388517D01*
X144876938Y-71289089D01*
X144622110Y-71238400D01*
X144362290Y-71238400D01*
X144107462Y-71289089D01*
X143867419Y-71388517D01*
X143651387Y-71532866D01*
X143467666Y-71716587D01*
X143323317Y-71932619D01*
X143223889Y-72172662D01*
X143173200Y-72427490D01*
X139652200Y-72427490D01*
X139652200Y-69667673D01*
X139677756Y-69407032D01*
X139750467Y-69166203D01*
X139868571Y-68944081D01*
X140027566Y-68749134D01*
X140221406Y-68588776D01*
X140442696Y-68469124D01*
X140683012Y-68394735D01*
X140943089Y-68367400D01*
X156931927Y-68367400D01*
X157192568Y-68392956D01*
G37*
G04 #@! TD.AperFunction*
M02*
