G04 #@! TF.GenerationSoftware,KiCad,Pcbnew,5.1.9*
G04 #@! TF.CreationDate,2021-04-02T13:00:30+02:00*
G04 #@! TF.ProjectId,pressureSensorHolder,70726573-7375-4726-9553-656e736f7248,rev?*
G04 #@! TF.SameCoordinates,Original*
G04 #@! TF.FileFunction,Legend,Bot*
G04 #@! TF.FilePolarity,Positive*
%FSLAX46Y46*%
G04 Gerber Fmt 4.6, Leading zero omitted, Abs format (unit mm)*
G04 Created by KiCad (PCBNEW 5.1.9) date 2021-04-02 13:00:30*
%MOMM*%
%LPD*%
G01*
G04 APERTURE LIST*
G04 #@! TA.AperFunction,Profile*
%ADD10C,0.050000*%
G04 #@! TD*
%ADD11C,0.120000*%
%ADD12C,0.150000*%
G04 APERTURE END LIST*
D10*
X140942200Y-99157400D02*
G75*
G02*
X139442200Y-97657400I0J1500000D01*
G01*
X139442200Y-69657400D02*
G75*
G02*
X140942200Y-68157400I1500000J0D01*
G01*
X158442200Y-97657400D02*
G75*
G02*
X156942200Y-99157400I-1500000J0D01*
G01*
X156942200Y-68157400D02*
G75*
G02*
X158442200Y-69657400I0J-1500000D01*
G01*
X158442200Y-97657400D02*
X158442200Y-69657400D01*
X140942200Y-99157400D02*
X156942200Y-99157400D01*
X139442200Y-69657400D02*
X139442200Y-97657400D01*
X156942200Y-68157400D02*
X140942200Y-68157400D01*
D11*
X139942200Y-68657400D02*
X139942200Y-98657400D01*
X157942200Y-68657400D02*
X139942200Y-68657400D01*
X157942200Y-98657400D02*
X157942200Y-68657400D01*
X139942200Y-98657400D02*
X157942200Y-98657400D01*
X150192200Y-81657400D02*
X153192200Y-81657400D01*
X153192200Y-79557400D02*
X150192200Y-79557400D01*
X153192200Y-87757400D02*
X153192200Y-79557400D01*
X150192200Y-87757400D02*
X153192200Y-87757400D01*
X150192200Y-79557400D02*
X150192200Y-87757400D01*
D12*
X153394580Y-86395495D02*
X154204104Y-86395495D01*
X154299342Y-86443114D01*
X154346961Y-86490733D01*
X154394580Y-86585971D01*
X154394580Y-86776447D01*
X154346961Y-86871685D01*
X154299342Y-86919304D01*
X154204104Y-86966923D01*
X153394580Y-86966923D01*
X154394580Y-87966923D02*
X154394580Y-87395495D01*
X154394580Y-87681209D02*
X153394580Y-87681209D01*
X153537438Y-87585971D01*
X153632676Y-87490733D01*
X153680295Y-87395495D01*
M02*
