G04 #@! TF.GenerationSoftware,KiCad,Pcbnew,5.1.9*
G04 #@! TF.CreationDate,2021-04-02T13:00:30+02:00*
G04 #@! TF.ProjectId,pressureSensorHolder,70726573-7375-4726-9553-656e736f7248,rev?*
G04 #@! TF.SameCoordinates,Original*
G04 #@! TF.FileFunction,Copper,L1,Top*
G04 #@! TF.FilePolarity,Positive*
%FSLAX46Y46*%
G04 Gerber Fmt 4.6, Leading zero omitted, Abs format (unit mm)*
G04 Created by KiCad (PCBNEW 5.1.9) date 2021-04-02 13:00:30*
%MOMM*%
%LPD*%
G01*
G04 APERTURE LIST*
G04 #@! TA.AperFunction,Profile*
%ADD10C,0.050000*%
G04 #@! TD*
G04 #@! TA.AperFunction,ComponentPad*
%ADD11O,2.200000X1.400000*%
G04 #@! TD*
G04 #@! TA.AperFunction,SMDPad,CuDef*
%ADD12C,0.100000*%
G04 #@! TD*
G04 #@! TA.AperFunction,ViaPad*
%ADD13C,0.800000*%
G04 #@! TD*
G04 #@! TA.AperFunction,ViaPad*
%ADD14C,1.200000*%
G04 #@! TD*
G04 #@! TA.AperFunction,Conductor*
%ADD15C,0.254000*%
G04 #@! TD*
G04 #@! TA.AperFunction,Conductor*
%ADD16C,0.500000*%
G04 #@! TD*
G04 #@! TA.AperFunction,Conductor*
%ADD17C,0.120000*%
G04 #@! TD*
G04 #@! TA.AperFunction,Conductor*
%ADD18C,0.100000*%
G04 #@! TD*
G04 APERTURE END LIST*
D10*
X140942200Y-99157400D02*
G75*
G02*
X139442200Y-97657400I0J1500000D01*
G01*
X139442200Y-69657400D02*
G75*
G02*
X140942200Y-68157400I1500000J0D01*
G01*
X158442200Y-97657400D02*
G75*
G02*
X156942200Y-99157400I-1500000J0D01*
G01*
X156942200Y-68157400D02*
G75*
G02*
X158442200Y-69657400I0J-1500000D01*
G01*
X158442200Y-97657400D02*
X158442200Y-69657400D01*
X140942200Y-99157400D02*
X156942200Y-99157400D01*
X139442200Y-69657400D02*
X139442200Y-97657400D01*
X156942200Y-68157400D02*
X140942200Y-68157400D01*
G04 #@! TA.AperFunction,SMDPad,CuDef*
G36*
G01*
X152338200Y-89472400D02*
X152338200Y-88522400D01*
G75*
G02*
X152588200Y-88272400I250000J0D01*
G01*
X153088200Y-88272400D01*
G75*
G02*
X153338200Y-88522400I0J-250000D01*
G01*
X153338200Y-89472400D01*
G75*
G02*
X153088200Y-89722400I-250000J0D01*
G01*
X152588200Y-89722400D01*
G75*
G02*
X152338200Y-89472400I0J250000D01*
G01*
G37*
G04 #@! TD.AperFunction*
G04 #@! TA.AperFunction,SMDPad,CuDef*
G36*
G01*
X150438200Y-89472400D02*
X150438200Y-88522400D01*
G75*
G02*
X150688200Y-88272400I250000J0D01*
G01*
X151188200Y-88272400D01*
G75*
G02*
X151438200Y-88522400I0J-250000D01*
G01*
X151438200Y-89472400D01*
G75*
G02*
X151188200Y-89722400I-250000J0D01*
G01*
X150688200Y-89722400D01*
G75*
G02*
X150438200Y-89472400I0J250000D01*
G01*
G37*
G04 #@! TD.AperFunction*
G04 #@! TA.AperFunction,SMDPad,CuDef*
G36*
G01*
X154540199Y-88578400D02*
X155840201Y-88578400D01*
G75*
G02*
X156090200Y-88828399I0J-249999D01*
G01*
X156090200Y-89478401D01*
G75*
G02*
X155840201Y-89728400I-249999J0D01*
G01*
X154540199Y-89728400D01*
G75*
G02*
X154290200Y-89478401I0J249999D01*
G01*
X154290200Y-88828399D01*
G75*
G02*
X154540199Y-88578400I249999J0D01*
G01*
G37*
G04 #@! TD.AperFunction*
G04 #@! TA.AperFunction,SMDPad,CuDef*
G36*
G01*
X154540199Y-85628400D02*
X155840201Y-85628400D01*
G75*
G02*
X156090200Y-85878399I0J-249999D01*
G01*
X156090200Y-86528401D01*
G75*
G02*
X155840201Y-86778400I-249999J0D01*
G01*
X154540199Y-86778400D01*
G75*
G02*
X154290200Y-86528401I0J249999D01*
G01*
X154290200Y-85878399D01*
G75*
G02*
X154540199Y-85628400I249999J0D01*
G01*
G37*
G04 #@! TD.AperFunction*
G04 #@! TA.AperFunction,SMDPad,CuDef*
G36*
G01*
X144942200Y-80057400D02*
X142442200Y-80057400D01*
G75*
G02*
X142192200Y-79807400I0J250000D01*
G01*
X142192200Y-78707400D01*
G75*
G02*
X142442200Y-78457400I250000J0D01*
G01*
X144942200Y-78457400D01*
G75*
G02*
X145192200Y-78707400I0J-250000D01*
G01*
X145192200Y-79807400D01*
G75*
G02*
X144942200Y-80057400I-250000J0D01*
G01*
G37*
G04 #@! TD.AperFunction*
G04 #@! TA.AperFunction,SMDPad,CuDef*
G36*
G01*
X144942200Y-88857400D02*
X142442200Y-88857400D01*
G75*
G02*
X142192200Y-88607400I0J250000D01*
G01*
X142192200Y-87507400D01*
G75*
G02*
X142442200Y-87257400I250000J0D01*
G01*
X144942200Y-87257400D01*
G75*
G02*
X145192200Y-87507400I0J-250000D01*
G01*
X145192200Y-88607400D01*
G75*
G02*
X144942200Y-88857400I-250000J0D01*
G01*
G37*
G04 #@! TD.AperFunction*
G04 #@! TA.AperFunction,SMDPad,CuDef*
G36*
G01*
X148442200Y-82157400D02*
X143442200Y-82157400D01*
G75*
G02*
X143192200Y-81907400I0J250000D01*
G01*
X143192200Y-81407400D01*
G75*
G02*
X143442200Y-81157400I250000J0D01*
G01*
X148442200Y-81157400D01*
G75*
G02*
X148692200Y-81407400I0J-250000D01*
G01*
X148692200Y-81907400D01*
G75*
G02*
X148442200Y-82157400I-250000J0D01*
G01*
G37*
G04 #@! TD.AperFunction*
G04 #@! TA.AperFunction,SMDPad,CuDef*
G36*
G01*
X148442200Y-84157400D02*
X143442200Y-84157400D01*
G75*
G02*
X143192200Y-83907400I0J250000D01*
G01*
X143192200Y-83407400D01*
G75*
G02*
X143442200Y-83157400I250000J0D01*
G01*
X148442200Y-83157400D01*
G75*
G02*
X148692200Y-83407400I0J-250000D01*
G01*
X148692200Y-83907400D01*
G75*
G02*
X148442200Y-84157400I-250000J0D01*
G01*
G37*
G04 #@! TD.AperFunction*
G04 #@! TA.AperFunction,SMDPad,CuDef*
G36*
G01*
X148442200Y-86157400D02*
X143442200Y-86157400D01*
G75*
G02*
X143192200Y-85907400I0J250000D01*
G01*
X143192200Y-85407400D01*
G75*
G02*
X143442200Y-85157400I250000J0D01*
G01*
X148442200Y-85157400D01*
G75*
G02*
X148692200Y-85407400I0J-250000D01*
G01*
X148692200Y-85907400D01*
G75*
G02*
X148442200Y-86157400I-250000J0D01*
G01*
G37*
G04 #@! TD.AperFunction*
G04 #@! TA.AperFunction,SMDPad,CuDef*
G36*
G01*
X151985700Y-75731402D02*
X151985700Y-74831398D01*
G75*
G02*
X152235698Y-74581400I249998J0D01*
G01*
X152760702Y-74581400D01*
G75*
G02*
X153010700Y-74831398I0J-249998D01*
G01*
X153010700Y-75731402D01*
G75*
G02*
X152760702Y-75981400I-249998J0D01*
G01*
X152235698Y-75981400D01*
G75*
G02*
X151985700Y-75731402I0J249998D01*
G01*
G37*
G04 #@! TD.AperFunction*
G04 #@! TA.AperFunction,SMDPad,CuDef*
G36*
G01*
X150160700Y-75731402D02*
X150160700Y-74831398D01*
G75*
G02*
X150410698Y-74581400I249998J0D01*
G01*
X150935702Y-74581400D01*
G75*
G02*
X151185700Y-74831398I0J-249998D01*
G01*
X151185700Y-75731402D01*
G75*
G02*
X150935702Y-75981400I-249998J0D01*
G01*
X150410698Y-75981400D01*
G75*
G02*
X150160700Y-75731402I0J249998D01*
G01*
G37*
G04 #@! TD.AperFunction*
G04 #@! TA.AperFunction,SMDPad,CuDef*
G36*
G01*
X152035700Y-77896650D02*
X152035700Y-76984150D01*
G75*
G02*
X152279450Y-76740400I243750J0D01*
G01*
X152766950Y-76740400D01*
G75*
G02*
X153010700Y-76984150I0J-243750D01*
G01*
X153010700Y-77896650D01*
G75*
G02*
X152766950Y-78140400I-243750J0D01*
G01*
X152279450Y-78140400D01*
G75*
G02*
X152035700Y-77896650I0J243750D01*
G01*
G37*
G04 #@! TD.AperFunction*
G04 #@! TA.AperFunction,SMDPad,CuDef*
G36*
G01*
X150160700Y-77896650D02*
X150160700Y-76984150D01*
G75*
G02*
X150404450Y-76740400I243750J0D01*
G01*
X150891950Y-76740400D01*
G75*
G02*
X151135700Y-76984150I0J-243750D01*
G01*
X151135700Y-77896650D01*
G75*
G02*
X150891950Y-78140400I-243750J0D01*
G01*
X150404450Y-78140400D01*
G75*
G02*
X150160700Y-77896650I0J243750D01*
G01*
G37*
G04 #@! TD.AperFunction*
D11*
X151692200Y-80657400D03*
X151692200Y-82657400D03*
X151692200Y-84657400D03*
X151692200Y-86657400D03*
G04 #@! TA.AperFunction,SMDPad,CuDef*
D12*
G36*
X154942200Y-81907400D02*
G01*
X155692200Y-82407400D01*
X155692200Y-83407400D01*
X154192200Y-83407400D01*
X154192200Y-82407400D01*
X154942200Y-81907400D01*
G37*
G04 #@! TD.AperFunction*
G04 #@! TA.AperFunction,SMDPad,CuDef*
G36*
X154942200Y-80207400D02*
G01*
X155692200Y-79707400D01*
X155692200Y-82107400D01*
X154942200Y-81607400D01*
X154192200Y-82107400D01*
X154192200Y-79707400D01*
X154942200Y-80207400D01*
G37*
G04 #@! TD.AperFunction*
G04 #@! TA.AperFunction,SMDPad,CuDef*
G36*
X154942200Y-79907400D02*
G01*
X154192200Y-79407400D01*
X154192200Y-78407400D01*
X155692200Y-78407400D01*
X155692200Y-79407400D01*
X154942200Y-79907400D01*
G37*
G04 #@! TD.AperFunction*
D13*
X146808200Y-76043400D03*
X153793200Y-84806400D03*
D14*
X147504200Y-87219402D03*
X155190196Y-87473404D03*
D15*
X149342200Y-83657400D02*
X145942200Y-83657400D01*
X149602200Y-83917400D02*
X149342200Y-83657400D01*
X149602200Y-88489400D02*
X149602200Y-83917400D01*
X150110200Y-88997400D02*
X149602200Y-88489400D01*
X150938200Y-88997400D02*
X150110200Y-88997400D01*
X151634200Y-88997400D02*
X150938200Y-88997400D01*
X151888200Y-88743400D02*
X151634200Y-88997400D01*
X151888200Y-86853400D02*
X151888200Y-88743400D01*
X151692200Y-86657400D02*
X151888200Y-86853400D01*
X151692200Y-80657400D02*
X153114200Y-80657400D01*
X153364200Y-80907400D02*
X154942200Y-80907400D01*
X153114200Y-80657400D02*
X153364200Y-80907400D01*
X154942200Y-78907400D02*
X154942200Y-76303400D01*
X153920200Y-75281400D02*
X152498200Y-75281400D01*
X154942200Y-76303400D02*
X153920200Y-75281400D01*
X154942200Y-82907400D02*
X153586200Y-82907400D01*
X153336200Y-82657400D02*
X151692200Y-82657400D01*
X153586200Y-82907400D02*
X153336200Y-82657400D01*
D16*
X155190200Y-86203400D02*
X155190200Y-84425400D01*
X154942200Y-84177400D02*
X154942200Y-82907400D01*
X155190200Y-84425400D02*
X154942200Y-84177400D01*
X142904190Y-85657400D02*
X145942200Y-85657400D01*
X142688190Y-85441400D02*
X142904190Y-85657400D01*
X142688190Y-81095076D02*
X142688190Y-85441400D01*
X143221856Y-80561410D02*
X142688190Y-81095076D01*
X150793483Y-79453390D02*
X149685463Y-80561410D01*
X151526210Y-79453390D02*
X150793483Y-79453390D01*
X152523200Y-78456400D02*
X151526210Y-79453390D01*
X149685463Y-80561410D02*
X143221856Y-80561410D01*
X152523200Y-77440400D02*
X152523200Y-78456400D01*
X146904201Y-86619403D02*
X147504200Y-87219402D01*
X145942200Y-85657400D02*
X146904201Y-86619403D01*
X155190200Y-86203400D02*
X155190200Y-87473400D01*
X155190200Y-87473400D02*
X155190196Y-87473404D01*
D15*
X150673200Y-77415400D02*
X150648200Y-77440400D01*
X150673200Y-75281400D02*
X150673200Y-77415400D01*
D17*
X157191590Y-68397884D02*
X157431482Y-68470312D01*
X157652739Y-68587956D01*
X157846929Y-68746333D01*
X158006657Y-68939412D01*
X158125844Y-69159842D01*
X158199945Y-69399224D01*
X158227201Y-69658555D01*
X158227200Y-97646884D01*
X158201716Y-97906790D01*
X158129288Y-98146682D01*
X158011644Y-98367938D01*
X157853269Y-98562126D01*
X157660187Y-98721858D01*
X157439758Y-98841044D01*
X157200376Y-98915145D01*
X156941055Y-98942400D01*
X140952716Y-98942400D01*
X140692810Y-98916916D01*
X140452918Y-98844488D01*
X140231662Y-98726844D01*
X140037474Y-98568469D01*
X139877742Y-98375387D01*
X139758556Y-98154958D01*
X139684455Y-97915576D01*
X139657200Y-97656255D01*
X139657200Y-94627982D01*
X141678200Y-94627982D01*
X141678200Y-94886818D01*
X141728696Y-95140680D01*
X141827748Y-95379812D01*
X141971549Y-95595026D01*
X142154574Y-95778051D01*
X142369788Y-95921852D01*
X142608920Y-96020904D01*
X142862782Y-96071400D01*
X143121618Y-96071400D01*
X143375480Y-96020904D01*
X143614612Y-95921852D01*
X143829826Y-95778051D01*
X144012851Y-95595026D01*
X144156652Y-95379812D01*
X144255704Y-95140680D01*
X144306148Y-94887077D01*
X145228200Y-94887077D01*
X145228200Y-95027723D01*
X145255638Y-95165666D01*
X145309461Y-95295606D01*
X145387600Y-95412549D01*
X145487051Y-95512000D01*
X145603994Y-95590139D01*
X145733934Y-95643962D01*
X145871877Y-95671400D01*
X146012523Y-95671400D01*
X146150466Y-95643962D01*
X146280406Y-95590139D01*
X146373430Y-95527982D01*
X147628200Y-95527982D01*
X147628200Y-95786818D01*
X147678696Y-96040680D01*
X147777748Y-96279812D01*
X147921549Y-96495026D01*
X148104574Y-96678051D01*
X148319788Y-96821852D01*
X148558920Y-96920904D01*
X148812782Y-96971400D01*
X149071618Y-96971400D01*
X149325480Y-96920904D01*
X149564612Y-96821852D01*
X149779826Y-96678051D01*
X149962851Y-96495026D01*
X150106652Y-96279812D01*
X150205704Y-96040680D01*
X150256200Y-95786818D01*
X150256200Y-95527982D01*
X150205704Y-95274120D01*
X150106652Y-95034988D01*
X149962851Y-94819774D01*
X149779826Y-94636749D01*
X149766706Y-94627982D01*
X153578200Y-94627982D01*
X153578200Y-94886818D01*
X153628696Y-95140680D01*
X153727748Y-95379812D01*
X153871549Y-95595026D01*
X154054574Y-95778051D01*
X154269788Y-95921852D01*
X154508920Y-96020904D01*
X154762782Y-96071400D01*
X155021618Y-96071400D01*
X155275480Y-96020904D01*
X155514612Y-95921852D01*
X155729826Y-95778051D01*
X155912851Y-95595026D01*
X156056652Y-95379812D01*
X156155704Y-95140680D01*
X156206200Y-94886818D01*
X156206200Y-94627982D01*
X156155704Y-94374120D01*
X156056652Y-94134988D01*
X155912851Y-93919774D01*
X155729826Y-93736749D01*
X155514612Y-93592948D01*
X155275480Y-93493896D01*
X155021618Y-93443400D01*
X154762782Y-93443400D01*
X154508920Y-93493896D01*
X154269788Y-93592948D01*
X154054574Y-93736749D01*
X153871549Y-93919774D01*
X153727748Y-94134988D01*
X153628696Y-94374120D01*
X153578200Y-94627982D01*
X149766706Y-94627982D01*
X149564612Y-94492948D01*
X149325480Y-94393896D01*
X149071618Y-94343400D01*
X148812782Y-94343400D01*
X148558920Y-94393896D01*
X148319788Y-94492948D01*
X148104574Y-94636749D01*
X147921549Y-94819774D01*
X147777748Y-95034988D01*
X147678696Y-95274120D01*
X147628200Y-95527982D01*
X146373430Y-95527982D01*
X146397349Y-95512000D01*
X146496800Y-95412549D01*
X146574939Y-95295606D01*
X146628762Y-95165666D01*
X146656200Y-95027723D01*
X146656200Y-94887077D01*
X146628762Y-94749134D01*
X146574939Y-94619194D01*
X146496800Y-94502251D01*
X146397349Y-94402800D01*
X146280406Y-94324661D01*
X146150466Y-94270838D01*
X146012523Y-94243400D01*
X145871877Y-94243400D01*
X145733934Y-94270838D01*
X145603994Y-94324661D01*
X145487051Y-94402800D01*
X145387600Y-94502251D01*
X145309461Y-94619194D01*
X145255638Y-94749134D01*
X145228200Y-94887077D01*
X144306148Y-94887077D01*
X144306200Y-94886818D01*
X144306200Y-94627982D01*
X144255704Y-94374120D01*
X144156652Y-94134988D01*
X144012851Y-93919774D01*
X143829826Y-93736749D01*
X143614612Y-93592948D01*
X143375480Y-93493896D01*
X143121618Y-93443400D01*
X142862782Y-93443400D01*
X142608920Y-93493896D01*
X142369788Y-93592948D01*
X142154574Y-93736749D01*
X141971549Y-93919774D01*
X141827748Y-94134988D01*
X141728696Y-94374120D01*
X141678200Y-94627982D01*
X139657200Y-94627982D01*
X139657200Y-87507400D01*
X141876681Y-87507400D01*
X141876681Y-88607400D01*
X141887547Y-88717727D01*
X141919729Y-88823815D01*
X141971988Y-88921586D01*
X142042318Y-89007282D01*
X142128014Y-89077612D01*
X142225785Y-89129871D01*
X142331873Y-89162053D01*
X142442200Y-89172919D01*
X144942200Y-89172919D01*
X145052527Y-89162053D01*
X145158615Y-89129871D01*
X145256386Y-89077612D01*
X145342082Y-89007282D01*
X145412412Y-88921586D01*
X145464671Y-88823815D01*
X145496853Y-88717727D01*
X145507719Y-88607400D01*
X145507719Y-87507400D01*
X145496853Y-87397073D01*
X145464671Y-87290985D01*
X145412412Y-87193214D01*
X145342082Y-87107518D01*
X145256386Y-87037188D01*
X145158615Y-86984929D01*
X145052527Y-86952747D01*
X144942200Y-86941881D01*
X142442200Y-86941881D01*
X142331873Y-86952747D01*
X142225785Y-86984929D01*
X142128014Y-87037188D01*
X142042318Y-87107518D01*
X141971988Y-87193214D01*
X141919729Y-87290985D01*
X141887547Y-87397073D01*
X141876681Y-87507400D01*
X139657200Y-87507400D01*
X139657200Y-78707400D01*
X141876681Y-78707400D01*
X141876681Y-79807400D01*
X141887547Y-79917727D01*
X141919729Y-80023815D01*
X141971988Y-80121586D01*
X142042318Y-80207282D01*
X142128014Y-80277612D01*
X142225785Y-80329871D01*
X142331873Y-80362053D01*
X142442200Y-80372919D01*
X142612731Y-80372919D01*
X142308972Y-80676678D01*
X142287453Y-80694339D01*
X142216973Y-80780219D01*
X142164602Y-80878200D01*
X142132352Y-80984514D01*
X142124190Y-81067380D01*
X142124190Y-81067387D01*
X142121463Y-81095076D01*
X142124190Y-81122765D01*
X142124191Y-85413701D01*
X142121463Y-85441400D01*
X142132352Y-85551963D01*
X142158049Y-85636672D01*
X142164603Y-85658277D01*
X142216974Y-85756257D01*
X142287454Y-85842137D01*
X142308969Y-85859794D01*
X142485792Y-86036617D01*
X142503453Y-86058137D01*
X142589333Y-86128617D01*
X142687313Y-86180988D01*
X142768882Y-86205732D01*
X142793626Y-86213238D01*
X142803959Y-86214256D01*
X142876493Y-86221400D01*
X142876500Y-86221400D01*
X142904189Y-86224127D01*
X142931878Y-86221400D01*
X142971889Y-86221400D01*
X142971988Y-86221586D01*
X143042318Y-86307282D01*
X143128014Y-86377612D01*
X143225785Y-86429871D01*
X143331873Y-86462053D01*
X143442200Y-86472919D01*
X145960102Y-86472919D01*
X146524976Y-87037795D01*
X146524986Y-87037804D01*
X146594574Y-87107391D01*
X146590200Y-87129381D01*
X146590200Y-87309423D01*
X146625325Y-87486006D01*
X146694224Y-87652343D01*
X146794250Y-87802043D01*
X146921559Y-87929352D01*
X147071259Y-88029378D01*
X147237596Y-88098277D01*
X147414179Y-88133402D01*
X147594221Y-88133402D01*
X147770804Y-88098277D01*
X147937141Y-88029378D01*
X148086841Y-87929352D01*
X148214150Y-87802043D01*
X148314176Y-87652343D01*
X148383075Y-87486006D01*
X148418200Y-87309423D01*
X148418200Y-87129381D01*
X148383075Y-86952798D01*
X148314176Y-86786461D01*
X148214150Y-86636761D01*
X148086841Y-86509452D01*
X148032165Y-86472919D01*
X148442200Y-86472919D01*
X148552527Y-86462053D01*
X148658615Y-86429871D01*
X148756386Y-86377612D01*
X148842082Y-86307282D01*
X148912412Y-86221586D01*
X148964671Y-86123815D01*
X148996853Y-86017727D01*
X149007719Y-85907400D01*
X149007719Y-85407400D01*
X148996853Y-85297073D01*
X148964671Y-85190985D01*
X148912412Y-85093214D01*
X148842082Y-85007518D01*
X148756386Y-84937188D01*
X148658615Y-84884929D01*
X148552527Y-84852747D01*
X148442200Y-84841881D01*
X143442200Y-84841881D01*
X143331873Y-84852747D01*
X143252190Y-84876919D01*
X143252190Y-84437881D01*
X143331873Y-84462053D01*
X143442200Y-84472919D01*
X148442200Y-84472919D01*
X148552527Y-84462053D01*
X148658615Y-84429871D01*
X148756386Y-84377612D01*
X148842082Y-84307282D01*
X148912412Y-84221586D01*
X148964671Y-84123815D01*
X148972381Y-84098400D01*
X149159533Y-84098400D01*
X149161201Y-84100068D01*
X149161200Y-88467752D01*
X149159068Y-88489400D01*
X149161200Y-88511048D01*
X149161200Y-88511055D01*
X149167582Y-88575850D01*
X149192798Y-88658979D01*
X149233748Y-88735591D01*
X149288858Y-88802742D01*
X149305684Y-88816551D01*
X149783053Y-89293921D01*
X149796858Y-89310742D01*
X149864008Y-89365852D01*
X149940620Y-89406802D01*
X149998532Y-89424369D01*
X150023748Y-89432018D01*
X150032152Y-89432846D01*
X150088544Y-89438400D01*
X150088551Y-89438400D01*
X150110199Y-89440532D01*
X150122681Y-89439303D01*
X150122681Y-89472400D01*
X150133547Y-89582727D01*
X150165729Y-89688815D01*
X150217988Y-89786586D01*
X150288318Y-89872282D01*
X150374014Y-89942612D01*
X150471785Y-89994871D01*
X150577873Y-90027053D01*
X150688200Y-90037919D01*
X151188200Y-90037919D01*
X151298527Y-90027053D01*
X151404615Y-89994871D01*
X151502386Y-89942612D01*
X151588082Y-89872282D01*
X151658412Y-89786586D01*
X151710671Y-89688815D01*
X151742853Y-89582727D01*
X151753719Y-89472400D01*
X151753719Y-89421987D01*
X151803780Y-89406802D01*
X151880392Y-89365852D01*
X151947542Y-89310742D01*
X151961351Y-89293916D01*
X152022838Y-89232430D01*
X152021676Y-89722400D01*
X152027758Y-89784151D01*
X152045770Y-89843528D01*
X152075020Y-89898251D01*
X152114384Y-89946216D01*
X152162349Y-89985580D01*
X152217072Y-90014830D01*
X152276449Y-90032842D01*
X152338200Y-90038924D01*
X152755950Y-90037400D01*
X152834700Y-89958650D01*
X152834700Y-89000900D01*
X152841700Y-89000900D01*
X152841700Y-89958650D01*
X152920450Y-90037400D01*
X153338200Y-90038924D01*
X153399951Y-90032842D01*
X153459328Y-90014830D01*
X153514051Y-89985580D01*
X153562016Y-89946216D01*
X153601380Y-89898251D01*
X153630630Y-89843528D01*
X153648642Y-89784151D01*
X153654133Y-89728400D01*
X153973676Y-89728400D01*
X153979758Y-89790151D01*
X153997770Y-89849528D01*
X154027020Y-89904251D01*
X154066384Y-89952216D01*
X154114349Y-89991580D01*
X154169072Y-90020830D01*
X154228449Y-90038842D01*
X154290200Y-90044924D01*
X155107950Y-90043400D01*
X155186700Y-89964650D01*
X155186700Y-89156900D01*
X155193700Y-89156900D01*
X155193700Y-89964650D01*
X155272450Y-90043400D01*
X156090200Y-90044924D01*
X156151951Y-90038842D01*
X156211328Y-90020830D01*
X156266051Y-89991580D01*
X156314016Y-89952216D01*
X156353380Y-89904251D01*
X156382630Y-89849528D01*
X156400642Y-89790151D01*
X156406724Y-89728400D01*
X156405200Y-89235650D01*
X156326450Y-89156900D01*
X155193700Y-89156900D01*
X155186700Y-89156900D01*
X154053950Y-89156900D01*
X153975200Y-89235650D01*
X153973676Y-89728400D01*
X153654133Y-89728400D01*
X153654724Y-89722400D01*
X153653200Y-89079650D01*
X153574450Y-89000900D01*
X152841700Y-89000900D01*
X152834700Y-89000900D01*
X152814700Y-89000900D01*
X152814700Y-88993900D01*
X152834700Y-88993900D01*
X152834700Y-88036150D01*
X152841700Y-88036150D01*
X152841700Y-88993900D01*
X153574450Y-88993900D01*
X153653200Y-88915150D01*
X153654724Y-88272400D01*
X153648642Y-88210649D01*
X153630630Y-88151272D01*
X153601380Y-88096549D01*
X153562016Y-88048584D01*
X153514051Y-88009220D01*
X153459328Y-87979970D01*
X153399951Y-87961958D01*
X153338200Y-87955876D01*
X152920450Y-87957400D01*
X152841700Y-88036150D01*
X152834700Y-88036150D01*
X152755950Y-87957400D01*
X152338200Y-87955876D01*
X152329200Y-87956762D01*
X152329200Y-87645134D01*
X152482118Y-87598746D01*
X152658274Y-87504589D01*
X152812675Y-87377875D01*
X152939389Y-87223474D01*
X153033546Y-87047318D01*
X153091528Y-86856179D01*
X153111106Y-86657400D01*
X153091528Y-86458621D01*
X153033546Y-86267482D01*
X152939389Y-86091326D01*
X152812675Y-85936925D01*
X152658274Y-85810211D01*
X152482118Y-85716054D01*
X152290979Y-85658072D01*
X152263115Y-85655328D01*
X152293649Y-85652214D01*
X152483857Y-85593798D01*
X152659014Y-85499397D01*
X152812388Y-85372638D01*
X152938086Y-85218393D01*
X153031277Y-85042590D01*
X153088380Y-84851984D01*
X153094150Y-84819637D01*
X153028443Y-84660900D01*
X151695700Y-84660900D01*
X151695700Y-84680900D01*
X151688700Y-84680900D01*
X151688700Y-84660900D01*
X150355957Y-84660900D01*
X150290250Y-84819637D01*
X150296020Y-84851984D01*
X150353123Y-85042590D01*
X150446314Y-85218393D01*
X150572012Y-85372638D01*
X150725386Y-85499397D01*
X150900543Y-85593798D01*
X151090751Y-85652214D01*
X151121285Y-85655328D01*
X151093421Y-85658072D01*
X150902282Y-85716054D01*
X150726126Y-85810211D01*
X150571725Y-85936925D01*
X150445011Y-86091326D01*
X150350854Y-86267482D01*
X150292872Y-86458621D01*
X150273294Y-86657400D01*
X150292872Y-86856179D01*
X150350854Y-87047318D01*
X150445011Y-87223474D01*
X150571725Y-87377875D01*
X150726126Y-87504589D01*
X150902282Y-87598746D01*
X151093421Y-87656728D01*
X151242388Y-87671400D01*
X151447200Y-87671400D01*
X151447201Y-88022691D01*
X151404615Y-87999929D01*
X151298527Y-87967747D01*
X151188200Y-87956881D01*
X150688200Y-87956881D01*
X150577873Y-87967747D01*
X150471785Y-87999929D01*
X150374014Y-88052188D01*
X150288318Y-88122518D01*
X150217988Y-88208214D01*
X150165729Y-88305985D01*
X150137037Y-88400569D01*
X150043200Y-88306733D01*
X150043200Y-83939051D01*
X150045332Y-83917400D01*
X150043200Y-83895749D01*
X150043200Y-83895744D01*
X150039549Y-83858672D01*
X150036819Y-83830949D01*
X150011602Y-83747820D01*
X149970652Y-83671208D01*
X149915542Y-83604058D01*
X149898715Y-83590248D01*
X149669352Y-83360885D01*
X149655542Y-83344058D01*
X149588392Y-83288948D01*
X149511780Y-83247998D01*
X149428651Y-83222782D01*
X149363856Y-83216400D01*
X149363848Y-83216400D01*
X149342200Y-83214268D01*
X149320552Y-83216400D01*
X148972381Y-83216400D01*
X148964671Y-83190985D01*
X148912412Y-83093214D01*
X148842082Y-83007518D01*
X148756386Y-82937188D01*
X148658615Y-82884929D01*
X148552527Y-82852747D01*
X148442200Y-82841881D01*
X143442200Y-82841881D01*
X143331873Y-82852747D01*
X143252190Y-82876919D01*
X143252190Y-82473890D01*
X145859950Y-82472400D01*
X145938700Y-82393650D01*
X145938700Y-81660900D01*
X145945700Y-81660900D01*
X145945700Y-82393650D01*
X146024450Y-82472400D01*
X148692200Y-82473924D01*
X148753951Y-82467842D01*
X148813328Y-82449830D01*
X148868051Y-82420580D01*
X148916016Y-82381216D01*
X148955380Y-82333251D01*
X148984630Y-82278528D01*
X149002642Y-82219151D01*
X149008724Y-82157400D01*
X149007200Y-81739650D01*
X148928450Y-81660900D01*
X145945700Y-81660900D01*
X145938700Y-81660900D01*
X145918700Y-81660900D01*
X145918700Y-81653900D01*
X145938700Y-81653900D01*
X145938700Y-81633900D01*
X145945700Y-81633900D01*
X145945700Y-81653900D01*
X148928450Y-81653900D01*
X149007200Y-81575150D01*
X149008724Y-81157400D01*
X149005573Y-81125410D01*
X149657774Y-81125410D01*
X149685463Y-81128137D01*
X149713152Y-81125410D01*
X149713160Y-81125410D01*
X149796026Y-81117248D01*
X149902340Y-81084998D01*
X150000320Y-81032627D01*
X150086200Y-80962147D01*
X150103861Y-80940627D01*
X150283497Y-80760992D01*
X150292872Y-80856179D01*
X150350854Y-81047318D01*
X150445011Y-81223474D01*
X150571725Y-81377875D01*
X150726126Y-81504589D01*
X150902282Y-81598746D01*
X151093421Y-81656728D01*
X151100244Y-81657400D01*
X151093421Y-81658072D01*
X150902282Y-81716054D01*
X150726126Y-81810211D01*
X150571725Y-81936925D01*
X150445011Y-82091326D01*
X150350854Y-82267482D01*
X150292872Y-82458621D01*
X150273294Y-82657400D01*
X150292872Y-82856179D01*
X150350854Y-83047318D01*
X150445011Y-83223474D01*
X150571725Y-83377875D01*
X150726126Y-83504589D01*
X150902282Y-83598746D01*
X151093421Y-83656728D01*
X151121285Y-83659472D01*
X151090751Y-83662586D01*
X150900543Y-83721002D01*
X150725386Y-83815403D01*
X150572012Y-83942162D01*
X150446314Y-84096407D01*
X150353123Y-84272210D01*
X150296020Y-84462816D01*
X150290250Y-84495163D01*
X150355957Y-84653900D01*
X151688700Y-84653900D01*
X151688700Y-84633900D01*
X151695700Y-84633900D01*
X151695700Y-84653900D01*
X153028443Y-84653900D01*
X153094150Y-84495163D01*
X153088380Y-84462816D01*
X153031277Y-84272210D01*
X152938086Y-84096407D01*
X152812388Y-83942162D01*
X152659014Y-83815403D01*
X152483857Y-83721002D01*
X152293649Y-83662586D01*
X152263115Y-83659472D01*
X152290979Y-83656728D01*
X152482118Y-83598746D01*
X152658274Y-83504589D01*
X152812675Y-83377875D01*
X152939389Y-83223474D01*
X153006242Y-83098400D01*
X153153533Y-83098400D01*
X153259048Y-83203915D01*
X153272858Y-83220742D01*
X153340008Y-83275852D01*
X153416620Y-83316802D01*
X153460964Y-83330253D01*
X153499748Y-83342018D01*
X153508152Y-83342846D01*
X153564544Y-83348400D01*
X153564551Y-83348400D01*
X153586199Y-83350532D01*
X153607847Y-83348400D01*
X153876681Y-83348400D01*
X153876681Y-83407400D01*
X153882744Y-83468955D01*
X153900698Y-83528144D01*
X153929856Y-83582693D01*
X153969094Y-83630506D01*
X154016907Y-83669744D01*
X154071456Y-83698902D01*
X154130645Y-83716856D01*
X154192200Y-83722919D01*
X154378200Y-83722919D01*
X154378200Y-84149711D01*
X154375473Y-84177400D01*
X154378200Y-84205089D01*
X154378200Y-84205096D01*
X154386362Y-84287962D01*
X154418612Y-84394276D01*
X154470983Y-84492257D01*
X154541463Y-84578137D01*
X154562983Y-84595798D01*
X154626201Y-84659016D01*
X154626201Y-85312881D01*
X154540199Y-85312881D01*
X154429872Y-85323747D01*
X154323785Y-85355928D01*
X154226014Y-85408188D01*
X154140317Y-85478517D01*
X154069988Y-85564214D01*
X154017728Y-85661985D01*
X153985547Y-85768072D01*
X153974681Y-85878399D01*
X153974681Y-86528401D01*
X153985547Y-86638728D01*
X154017728Y-86744815D01*
X154069988Y-86842586D01*
X154140317Y-86928283D01*
X154226014Y-86998612D01*
X154323785Y-87050872D01*
X154370090Y-87064918D01*
X154311321Y-87206800D01*
X154276196Y-87383383D01*
X154276196Y-87563425D01*
X154311321Y-87740008D01*
X154380220Y-87906345D01*
X154480246Y-88056045D01*
X154607555Y-88183354D01*
X154726288Y-88262689D01*
X154290200Y-88261876D01*
X154228449Y-88267958D01*
X154169072Y-88285970D01*
X154114349Y-88315220D01*
X154066384Y-88354584D01*
X154027020Y-88402549D01*
X153997770Y-88457272D01*
X153979758Y-88516649D01*
X153973676Y-88578400D01*
X153975200Y-89071150D01*
X154053950Y-89149900D01*
X155186700Y-89149900D01*
X155186700Y-89129900D01*
X155193700Y-89129900D01*
X155193700Y-89149900D01*
X156326450Y-89149900D01*
X156405200Y-89071150D01*
X156406724Y-88578400D01*
X156400642Y-88516649D01*
X156382630Y-88457272D01*
X156353380Y-88402549D01*
X156314016Y-88354584D01*
X156266051Y-88315220D01*
X156211328Y-88285970D01*
X156151951Y-88267958D01*
X156090200Y-88261876D01*
X155654104Y-88262689D01*
X155772837Y-88183354D01*
X155900146Y-88056045D01*
X156000172Y-87906345D01*
X156069071Y-87740008D01*
X156104196Y-87563425D01*
X156104196Y-87383383D01*
X156069071Y-87206800D01*
X156010303Y-87064921D01*
X156056615Y-87050872D01*
X156154386Y-86998612D01*
X156240083Y-86928283D01*
X156310412Y-86842586D01*
X156362672Y-86744815D01*
X156394853Y-86638728D01*
X156405719Y-86528401D01*
X156405719Y-85878399D01*
X156394853Y-85768072D01*
X156362672Y-85661985D01*
X156310412Y-85564214D01*
X156240083Y-85478517D01*
X156154386Y-85408188D01*
X156056615Y-85355928D01*
X155950528Y-85323747D01*
X155840201Y-85312881D01*
X155754200Y-85312881D01*
X155754200Y-84453089D01*
X155756927Y-84425400D01*
X155754200Y-84397711D01*
X155754200Y-84397703D01*
X155746038Y-84314837D01*
X155713788Y-84208523D01*
X155661417Y-84110543D01*
X155590937Y-84024663D01*
X155569417Y-84007002D01*
X155506200Y-83943785D01*
X155506200Y-83722919D01*
X155692200Y-83722919D01*
X155753755Y-83716856D01*
X155812944Y-83698902D01*
X155867493Y-83669744D01*
X155915306Y-83630506D01*
X155954544Y-83582693D01*
X155983702Y-83528144D01*
X156001656Y-83468955D01*
X156007719Y-83407400D01*
X156007719Y-82407400D01*
X156001592Y-82345522D01*
X155983575Y-82286351D01*
X155968063Y-82257402D01*
X155983702Y-82228144D01*
X156001656Y-82168955D01*
X156007719Y-82107400D01*
X156007719Y-79707400D01*
X156001721Y-79646169D01*
X155983828Y-79586961D01*
X155968632Y-79558459D01*
X155984630Y-79528528D01*
X156002642Y-79469151D01*
X156008724Y-79407400D01*
X156008724Y-78407400D01*
X156002642Y-78345649D01*
X155984630Y-78286272D01*
X155955380Y-78231549D01*
X155916016Y-78183584D01*
X155868051Y-78144220D01*
X155813328Y-78114970D01*
X155753951Y-78096958D01*
X155692200Y-78090876D01*
X154192200Y-78090876D01*
X154130449Y-78096958D01*
X154071072Y-78114970D01*
X154016349Y-78144220D01*
X153968384Y-78183584D01*
X153929020Y-78231549D01*
X153899770Y-78286272D01*
X153881758Y-78345649D01*
X153875676Y-78407400D01*
X153875676Y-79407400D01*
X153881823Y-79469475D01*
X153899897Y-79528834D01*
X153915771Y-79558458D01*
X153900698Y-79586656D01*
X153882744Y-79645845D01*
X153876681Y-79707400D01*
X153876681Y-80466400D01*
X153546867Y-80466400D01*
X153441352Y-80360885D01*
X153427542Y-80344058D01*
X153360392Y-80288948D01*
X153283780Y-80247998D01*
X153200651Y-80222782D01*
X153135856Y-80216400D01*
X153135848Y-80216400D01*
X153114200Y-80214268D01*
X153092552Y-80216400D01*
X153006242Y-80216400D01*
X152939389Y-80091326D01*
X152812675Y-79936925D01*
X152658274Y-79810211D01*
X152482118Y-79716054D01*
X152290979Y-79658072D01*
X152142012Y-79643400D01*
X152133815Y-79643400D01*
X152902428Y-78874789D01*
X152923937Y-78857137D01*
X152941589Y-78835628D01*
X152941593Y-78835624D01*
X152963539Y-78808882D01*
X152994417Y-78771257D01*
X153046788Y-78673277D01*
X153079038Y-78566963D01*
X153087200Y-78484097D01*
X153087200Y-78484089D01*
X153089927Y-78456400D01*
X153087200Y-78428711D01*
X153087200Y-78353838D01*
X153162413Y-78292113D01*
X153231965Y-78207363D01*
X153283647Y-78110673D01*
X153315473Y-78005758D01*
X153326219Y-77896650D01*
X153326219Y-76984150D01*
X153315473Y-76875042D01*
X153283647Y-76770127D01*
X153231965Y-76673437D01*
X153162413Y-76588687D01*
X153077663Y-76519135D01*
X152980973Y-76467453D01*
X152876058Y-76435627D01*
X152766950Y-76424881D01*
X152279450Y-76424881D01*
X152170342Y-76435627D01*
X152065427Y-76467453D01*
X151968737Y-76519135D01*
X151883987Y-76588687D01*
X151814435Y-76673437D01*
X151762753Y-76770127D01*
X151730927Y-76875042D01*
X151720181Y-76984150D01*
X151720181Y-77896650D01*
X151730927Y-78005758D01*
X151762753Y-78110673D01*
X151814435Y-78207363D01*
X151883987Y-78292113D01*
X151887218Y-78294765D01*
X151292595Y-78889390D01*
X150821172Y-78889390D01*
X150793483Y-78886663D01*
X150765794Y-78889390D01*
X150765786Y-78889390D01*
X150692369Y-78896621D01*
X150682919Y-78897552D01*
X150650669Y-78907335D01*
X150576606Y-78929802D01*
X150478626Y-78982173D01*
X150441992Y-79012238D01*
X150414259Y-79034997D01*
X150414255Y-79035001D01*
X150392746Y-79052653D01*
X150375094Y-79074162D01*
X149451848Y-79997410D01*
X145472681Y-79997410D01*
X145496853Y-79917727D01*
X145507719Y-79807400D01*
X145507719Y-78707400D01*
X145496853Y-78597073D01*
X145464671Y-78490985D01*
X145412412Y-78393214D01*
X145342082Y-78307518D01*
X145256386Y-78237188D01*
X145158615Y-78184929D01*
X145052527Y-78152747D01*
X144942200Y-78141881D01*
X142442200Y-78141881D01*
X142331873Y-78152747D01*
X142225785Y-78184929D01*
X142128014Y-78237188D01*
X142042318Y-78307518D01*
X141971988Y-78393214D01*
X141919729Y-78490985D01*
X141887547Y-78597073D01*
X141876681Y-78707400D01*
X139657200Y-78707400D01*
X139657200Y-74831398D01*
X149845181Y-74831398D01*
X149845181Y-75731402D01*
X149856047Y-75841729D01*
X149888228Y-75947816D01*
X149940488Y-76045586D01*
X150010817Y-76131283D01*
X150096514Y-76201612D01*
X150194284Y-76253872D01*
X150232200Y-76265374D01*
X150232201Y-76454781D01*
X150190427Y-76467453D01*
X150093737Y-76519135D01*
X150008987Y-76588687D01*
X149939435Y-76673437D01*
X149887753Y-76770127D01*
X149855927Y-76875042D01*
X149845181Y-76984150D01*
X149845181Y-77896650D01*
X149855927Y-78005758D01*
X149887753Y-78110673D01*
X149939435Y-78207363D01*
X150008987Y-78292113D01*
X150093737Y-78361665D01*
X150190427Y-78413347D01*
X150295342Y-78445173D01*
X150404450Y-78455919D01*
X150891950Y-78455919D01*
X151001058Y-78445173D01*
X151105973Y-78413347D01*
X151202663Y-78361665D01*
X151287413Y-78292113D01*
X151356965Y-78207363D01*
X151408647Y-78110673D01*
X151440473Y-78005758D01*
X151451219Y-77896650D01*
X151451219Y-76984150D01*
X151440473Y-76875042D01*
X151408647Y-76770127D01*
X151356965Y-76673437D01*
X151287413Y-76588687D01*
X151202663Y-76519135D01*
X151114200Y-76471850D01*
X151114200Y-76265374D01*
X151152116Y-76253872D01*
X151249886Y-76201612D01*
X151335583Y-76131283D01*
X151405912Y-76045586D01*
X151440220Y-75981400D01*
X151669176Y-75981400D01*
X151675258Y-76043151D01*
X151693270Y-76102528D01*
X151722520Y-76157251D01*
X151761884Y-76205216D01*
X151809849Y-76244580D01*
X151864572Y-76273830D01*
X151923949Y-76291842D01*
X151985700Y-76297924D01*
X152415950Y-76296400D01*
X152494700Y-76217650D01*
X152494700Y-75284900D01*
X152501700Y-75284900D01*
X152501700Y-76217650D01*
X152580450Y-76296400D01*
X153010700Y-76297924D01*
X153072451Y-76291842D01*
X153131828Y-76273830D01*
X153186551Y-76244580D01*
X153234516Y-76205216D01*
X153273880Y-76157251D01*
X153303130Y-76102528D01*
X153321142Y-76043151D01*
X153327224Y-75981400D01*
X153325700Y-75363650D01*
X153246950Y-75284900D01*
X152501700Y-75284900D01*
X152494700Y-75284900D01*
X151749450Y-75284900D01*
X151670700Y-75363650D01*
X151669176Y-75981400D01*
X151440220Y-75981400D01*
X151458172Y-75947816D01*
X151490353Y-75841729D01*
X151501219Y-75731402D01*
X151501219Y-74831398D01*
X151490353Y-74721071D01*
X151458172Y-74614984D01*
X151440221Y-74581400D01*
X151669176Y-74581400D01*
X151670700Y-75199150D01*
X151749450Y-75277900D01*
X152494700Y-75277900D01*
X152494700Y-74345150D01*
X152501700Y-74345150D01*
X152501700Y-75277900D01*
X153246950Y-75277900D01*
X153325700Y-75199150D01*
X153327224Y-74581400D01*
X153321142Y-74519649D01*
X153303130Y-74460272D01*
X153273880Y-74405549D01*
X153234516Y-74357584D01*
X153186551Y-74318220D01*
X153131828Y-74288970D01*
X153072451Y-74270958D01*
X153010700Y-74264876D01*
X152580450Y-74266400D01*
X152501700Y-74345150D01*
X152494700Y-74345150D01*
X152415950Y-74266400D01*
X151985700Y-74264876D01*
X151923949Y-74270958D01*
X151864572Y-74288970D01*
X151809849Y-74318220D01*
X151761884Y-74357584D01*
X151722520Y-74405549D01*
X151693270Y-74460272D01*
X151675258Y-74519649D01*
X151669176Y-74581400D01*
X151440221Y-74581400D01*
X151405912Y-74517214D01*
X151335583Y-74431517D01*
X151249886Y-74361188D01*
X151152116Y-74308928D01*
X151046029Y-74276747D01*
X150935702Y-74265881D01*
X150410698Y-74265881D01*
X150300371Y-74276747D01*
X150194284Y-74308928D01*
X150096514Y-74361188D01*
X150010817Y-74431517D01*
X149940488Y-74517214D01*
X149888228Y-74614984D01*
X149856047Y-74721071D01*
X149845181Y-74831398D01*
X139657200Y-74831398D01*
X139657200Y-72427982D01*
X143178200Y-72427982D01*
X143178200Y-72686818D01*
X143228696Y-72940680D01*
X143327748Y-73179812D01*
X143471549Y-73395026D01*
X143654574Y-73578051D01*
X143869788Y-73721852D01*
X144108920Y-73820904D01*
X144362782Y-73871400D01*
X144621618Y-73871400D01*
X144875480Y-73820904D01*
X145114612Y-73721852D01*
X145329826Y-73578051D01*
X145512851Y-73395026D01*
X145656652Y-73179812D01*
X145755704Y-72940680D01*
X145806200Y-72686818D01*
X145806200Y-72427982D01*
X145755704Y-72174120D01*
X145656652Y-71934988D01*
X145512851Y-71719774D01*
X145329826Y-71536749D01*
X145316706Y-71527982D01*
X147628200Y-71527982D01*
X147628200Y-71786818D01*
X147678696Y-72040680D01*
X147777748Y-72279812D01*
X147921549Y-72495026D01*
X148104574Y-72678051D01*
X148319788Y-72821852D01*
X148558920Y-72920904D01*
X148812782Y-72971400D01*
X149071618Y-72971400D01*
X149325480Y-72920904D01*
X149564612Y-72821852D01*
X149779826Y-72678051D01*
X149962851Y-72495026D01*
X150101797Y-72287077D01*
X151228200Y-72287077D01*
X151228200Y-72427723D01*
X151255638Y-72565666D01*
X151309461Y-72695606D01*
X151387600Y-72812549D01*
X151487051Y-72912000D01*
X151603994Y-72990139D01*
X151733934Y-73043962D01*
X151871877Y-73071400D01*
X152012523Y-73071400D01*
X152150466Y-73043962D01*
X152280406Y-72990139D01*
X152397349Y-72912000D01*
X152496800Y-72812549D01*
X152574939Y-72695606D01*
X152628762Y-72565666D01*
X152656148Y-72427982D01*
X153578200Y-72427982D01*
X153578200Y-72686818D01*
X153628696Y-72940680D01*
X153727748Y-73179812D01*
X153871549Y-73395026D01*
X154054574Y-73578051D01*
X154269788Y-73721852D01*
X154508920Y-73820904D01*
X154762782Y-73871400D01*
X155021618Y-73871400D01*
X155275480Y-73820904D01*
X155514612Y-73721852D01*
X155729826Y-73578051D01*
X155912851Y-73395026D01*
X156056652Y-73179812D01*
X156155704Y-72940680D01*
X156206200Y-72686818D01*
X156206200Y-72427982D01*
X156155704Y-72174120D01*
X156056652Y-71934988D01*
X155912851Y-71719774D01*
X155729826Y-71536749D01*
X155514612Y-71392948D01*
X155275480Y-71293896D01*
X155021618Y-71243400D01*
X154762782Y-71243400D01*
X154508920Y-71293896D01*
X154269788Y-71392948D01*
X154054574Y-71536749D01*
X153871549Y-71719774D01*
X153727748Y-71934988D01*
X153628696Y-72174120D01*
X153578200Y-72427982D01*
X152656148Y-72427982D01*
X152656200Y-72427723D01*
X152656200Y-72287077D01*
X152628762Y-72149134D01*
X152574939Y-72019194D01*
X152496800Y-71902251D01*
X152397349Y-71802800D01*
X152280406Y-71724661D01*
X152150466Y-71670838D01*
X152012523Y-71643400D01*
X151871877Y-71643400D01*
X151733934Y-71670838D01*
X151603994Y-71724661D01*
X151487051Y-71802800D01*
X151387600Y-71902251D01*
X151309461Y-72019194D01*
X151255638Y-72149134D01*
X151228200Y-72287077D01*
X150101797Y-72287077D01*
X150106652Y-72279812D01*
X150205704Y-72040680D01*
X150256200Y-71786818D01*
X150256200Y-71527982D01*
X150205704Y-71274120D01*
X150106652Y-71034988D01*
X149962851Y-70819774D01*
X149779826Y-70636749D01*
X149564612Y-70492948D01*
X149325480Y-70393896D01*
X149071618Y-70343400D01*
X148812782Y-70343400D01*
X148558920Y-70393896D01*
X148319788Y-70492948D01*
X148104574Y-70636749D01*
X147921549Y-70819774D01*
X147777748Y-71034988D01*
X147678696Y-71274120D01*
X147628200Y-71527982D01*
X145316706Y-71527982D01*
X145114612Y-71392948D01*
X144875480Y-71293896D01*
X144621618Y-71243400D01*
X144362782Y-71243400D01*
X144108920Y-71293896D01*
X143869788Y-71392948D01*
X143654574Y-71536749D01*
X143471549Y-71719774D01*
X143327748Y-71934988D01*
X143228696Y-72174120D01*
X143178200Y-72427982D01*
X139657200Y-72427982D01*
X139657200Y-69667916D01*
X139682684Y-69408010D01*
X139755112Y-69168118D01*
X139872756Y-68946861D01*
X140031133Y-68752671D01*
X140224212Y-68592943D01*
X140444642Y-68473756D01*
X140684024Y-68399655D01*
X140943346Y-68372400D01*
X156931684Y-68372400D01*
X157191590Y-68397884D01*
G04 #@! TA.AperFunction,Conductor*
D18*
G36*
X157191590Y-68397884D02*
G01*
X157431482Y-68470312D01*
X157652739Y-68587956D01*
X157846929Y-68746333D01*
X158006657Y-68939412D01*
X158125844Y-69159842D01*
X158199945Y-69399224D01*
X158227201Y-69658555D01*
X158227200Y-97646884D01*
X158201716Y-97906790D01*
X158129288Y-98146682D01*
X158011644Y-98367938D01*
X157853269Y-98562126D01*
X157660187Y-98721858D01*
X157439758Y-98841044D01*
X157200376Y-98915145D01*
X156941055Y-98942400D01*
X140952716Y-98942400D01*
X140692810Y-98916916D01*
X140452918Y-98844488D01*
X140231662Y-98726844D01*
X140037474Y-98568469D01*
X139877742Y-98375387D01*
X139758556Y-98154958D01*
X139684455Y-97915576D01*
X139657200Y-97656255D01*
X139657200Y-94627982D01*
X141678200Y-94627982D01*
X141678200Y-94886818D01*
X141728696Y-95140680D01*
X141827748Y-95379812D01*
X141971549Y-95595026D01*
X142154574Y-95778051D01*
X142369788Y-95921852D01*
X142608920Y-96020904D01*
X142862782Y-96071400D01*
X143121618Y-96071400D01*
X143375480Y-96020904D01*
X143614612Y-95921852D01*
X143829826Y-95778051D01*
X144012851Y-95595026D01*
X144156652Y-95379812D01*
X144255704Y-95140680D01*
X144306148Y-94887077D01*
X145228200Y-94887077D01*
X145228200Y-95027723D01*
X145255638Y-95165666D01*
X145309461Y-95295606D01*
X145387600Y-95412549D01*
X145487051Y-95512000D01*
X145603994Y-95590139D01*
X145733934Y-95643962D01*
X145871877Y-95671400D01*
X146012523Y-95671400D01*
X146150466Y-95643962D01*
X146280406Y-95590139D01*
X146373430Y-95527982D01*
X147628200Y-95527982D01*
X147628200Y-95786818D01*
X147678696Y-96040680D01*
X147777748Y-96279812D01*
X147921549Y-96495026D01*
X148104574Y-96678051D01*
X148319788Y-96821852D01*
X148558920Y-96920904D01*
X148812782Y-96971400D01*
X149071618Y-96971400D01*
X149325480Y-96920904D01*
X149564612Y-96821852D01*
X149779826Y-96678051D01*
X149962851Y-96495026D01*
X150106652Y-96279812D01*
X150205704Y-96040680D01*
X150256200Y-95786818D01*
X150256200Y-95527982D01*
X150205704Y-95274120D01*
X150106652Y-95034988D01*
X149962851Y-94819774D01*
X149779826Y-94636749D01*
X149766706Y-94627982D01*
X153578200Y-94627982D01*
X153578200Y-94886818D01*
X153628696Y-95140680D01*
X153727748Y-95379812D01*
X153871549Y-95595026D01*
X154054574Y-95778051D01*
X154269788Y-95921852D01*
X154508920Y-96020904D01*
X154762782Y-96071400D01*
X155021618Y-96071400D01*
X155275480Y-96020904D01*
X155514612Y-95921852D01*
X155729826Y-95778051D01*
X155912851Y-95595026D01*
X156056652Y-95379812D01*
X156155704Y-95140680D01*
X156206200Y-94886818D01*
X156206200Y-94627982D01*
X156155704Y-94374120D01*
X156056652Y-94134988D01*
X155912851Y-93919774D01*
X155729826Y-93736749D01*
X155514612Y-93592948D01*
X155275480Y-93493896D01*
X155021618Y-93443400D01*
X154762782Y-93443400D01*
X154508920Y-93493896D01*
X154269788Y-93592948D01*
X154054574Y-93736749D01*
X153871549Y-93919774D01*
X153727748Y-94134988D01*
X153628696Y-94374120D01*
X153578200Y-94627982D01*
X149766706Y-94627982D01*
X149564612Y-94492948D01*
X149325480Y-94393896D01*
X149071618Y-94343400D01*
X148812782Y-94343400D01*
X148558920Y-94393896D01*
X148319788Y-94492948D01*
X148104574Y-94636749D01*
X147921549Y-94819774D01*
X147777748Y-95034988D01*
X147678696Y-95274120D01*
X147628200Y-95527982D01*
X146373430Y-95527982D01*
X146397349Y-95512000D01*
X146496800Y-95412549D01*
X146574939Y-95295606D01*
X146628762Y-95165666D01*
X146656200Y-95027723D01*
X146656200Y-94887077D01*
X146628762Y-94749134D01*
X146574939Y-94619194D01*
X146496800Y-94502251D01*
X146397349Y-94402800D01*
X146280406Y-94324661D01*
X146150466Y-94270838D01*
X146012523Y-94243400D01*
X145871877Y-94243400D01*
X145733934Y-94270838D01*
X145603994Y-94324661D01*
X145487051Y-94402800D01*
X145387600Y-94502251D01*
X145309461Y-94619194D01*
X145255638Y-94749134D01*
X145228200Y-94887077D01*
X144306148Y-94887077D01*
X144306200Y-94886818D01*
X144306200Y-94627982D01*
X144255704Y-94374120D01*
X144156652Y-94134988D01*
X144012851Y-93919774D01*
X143829826Y-93736749D01*
X143614612Y-93592948D01*
X143375480Y-93493896D01*
X143121618Y-93443400D01*
X142862782Y-93443400D01*
X142608920Y-93493896D01*
X142369788Y-93592948D01*
X142154574Y-93736749D01*
X141971549Y-93919774D01*
X141827748Y-94134988D01*
X141728696Y-94374120D01*
X141678200Y-94627982D01*
X139657200Y-94627982D01*
X139657200Y-87507400D01*
X141876681Y-87507400D01*
X141876681Y-88607400D01*
X141887547Y-88717727D01*
X141919729Y-88823815D01*
X141971988Y-88921586D01*
X142042318Y-89007282D01*
X142128014Y-89077612D01*
X142225785Y-89129871D01*
X142331873Y-89162053D01*
X142442200Y-89172919D01*
X144942200Y-89172919D01*
X145052527Y-89162053D01*
X145158615Y-89129871D01*
X145256386Y-89077612D01*
X145342082Y-89007282D01*
X145412412Y-88921586D01*
X145464671Y-88823815D01*
X145496853Y-88717727D01*
X145507719Y-88607400D01*
X145507719Y-87507400D01*
X145496853Y-87397073D01*
X145464671Y-87290985D01*
X145412412Y-87193214D01*
X145342082Y-87107518D01*
X145256386Y-87037188D01*
X145158615Y-86984929D01*
X145052527Y-86952747D01*
X144942200Y-86941881D01*
X142442200Y-86941881D01*
X142331873Y-86952747D01*
X142225785Y-86984929D01*
X142128014Y-87037188D01*
X142042318Y-87107518D01*
X141971988Y-87193214D01*
X141919729Y-87290985D01*
X141887547Y-87397073D01*
X141876681Y-87507400D01*
X139657200Y-87507400D01*
X139657200Y-78707400D01*
X141876681Y-78707400D01*
X141876681Y-79807400D01*
X141887547Y-79917727D01*
X141919729Y-80023815D01*
X141971988Y-80121586D01*
X142042318Y-80207282D01*
X142128014Y-80277612D01*
X142225785Y-80329871D01*
X142331873Y-80362053D01*
X142442200Y-80372919D01*
X142612731Y-80372919D01*
X142308972Y-80676678D01*
X142287453Y-80694339D01*
X142216973Y-80780219D01*
X142164602Y-80878200D01*
X142132352Y-80984514D01*
X142124190Y-81067380D01*
X142124190Y-81067387D01*
X142121463Y-81095076D01*
X142124190Y-81122765D01*
X142124191Y-85413701D01*
X142121463Y-85441400D01*
X142132352Y-85551963D01*
X142158049Y-85636672D01*
X142164603Y-85658277D01*
X142216974Y-85756257D01*
X142287454Y-85842137D01*
X142308969Y-85859794D01*
X142485792Y-86036617D01*
X142503453Y-86058137D01*
X142589333Y-86128617D01*
X142687313Y-86180988D01*
X142768882Y-86205732D01*
X142793626Y-86213238D01*
X142803959Y-86214256D01*
X142876493Y-86221400D01*
X142876500Y-86221400D01*
X142904189Y-86224127D01*
X142931878Y-86221400D01*
X142971889Y-86221400D01*
X142971988Y-86221586D01*
X143042318Y-86307282D01*
X143128014Y-86377612D01*
X143225785Y-86429871D01*
X143331873Y-86462053D01*
X143442200Y-86472919D01*
X145960102Y-86472919D01*
X146524976Y-87037795D01*
X146524986Y-87037804D01*
X146594574Y-87107391D01*
X146590200Y-87129381D01*
X146590200Y-87309423D01*
X146625325Y-87486006D01*
X146694224Y-87652343D01*
X146794250Y-87802043D01*
X146921559Y-87929352D01*
X147071259Y-88029378D01*
X147237596Y-88098277D01*
X147414179Y-88133402D01*
X147594221Y-88133402D01*
X147770804Y-88098277D01*
X147937141Y-88029378D01*
X148086841Y-87929352D01*
X148214150Y-87802043D01*
X148314176Y-87652343D01*
X148383075Y-87486006D01*
X148418200Y-87309423D01*
X148418200Y-87129381D01*
X148383075Y-86952798D01*
X148314176Y-86786461D01*
X148214150Y-86636761D01*
X148086841Y-86509452D01*
X148032165Y-86472919D01*
X148442200Y-86472919D01*
X148552527Y-86462053D01*
X148658615Y-86429871D01*
X148756386Y-86377612D01*
X148842082Y-86307282D01*
X148912412Y-86221586D01*
X148964671Y-86123815D01*
X148996853Y-86017727D01*
X149007719Y-85907400D01*
X149007719Y-85407400D01*
X148996853Y-85297073D01*
X148964671Y-85190985D01*
X148912412Y-85093214D01*
X148842082Y-85007518D01*
X148756386Y-84937188D01*
X148658615Y-84884929D01*
X148552527Y-84852747D01*
X148442200Y-84841881D01*
X143442200Y-84841881D01*
X143331873Y-84852747D01*
X143252190Y-84876919D01*
X143252190Y-84437881D01*
X143331873Y-84462053D01*
X143442200Y-84472919D01*
X148442200Y-84472919D01*
X148552527Y-84462053D01*
X148658615Y-84429871D01*
X148756386Y-84377612D01*
X148842082Y-84307282D01*
X148912412Y-84221586D01*
X148964671Y-84123815D01*
X148972381Y-84098400D01*
X149159533Y-84098400D01*
X149161201Y-84100068D01*
X149161200Y-88467752D01*
X149159068Y-88489400D01*
X149161200Y-88511048D01*
X149161200Y-88511055D01*
X149167582Y-88575850D01*
X149192798Y-88658979D01*
X149233748Y-88735591D01*
X149288858Y-88802742D01*
X149305684Y-88816551D01*
X149783053Y-89293921D01*
X149796858Y-89310742D01*
X149864008Y-89365852D01*
X149940620Y-89406802D01*
X149998532Y-89424369D01*
X150023748Y-89432018D01*
X150032152Y-89432846D01*
X150088544Y-89438400D01*
X150088551Y-89438400D01*
X150110199Y-89440532D01*
X150122681Y-89439303D01*
X150122681Y-89472400D01*
X150133547Y-89582727D01*
X150165729Y-89688815D01*
X150217988Y-89786586D01*
X150288318Y-89872282D01*
X150374014Y-89942612D01*
X150471785Y-89994871D01*
X150577873Y-90027053D01*
X150688200Y-90037919D01*
X151188200Y-90037919D01*
X151298527Y-90027053D01*
X151404615Y-89994871D01*
X151502386Y-89942612D01*
X151588082Y-89872282D01*
X151658412Y-89786586D01*
X151710671Y-89688815D01*
X151742853Y-89582727D01*
X151753719Y-89472400D01*
X151753719Y-89421987D01*
X151803780Y-89406802D01*
X151880392Y-89365852D01*
X151947542Y-89310742D01*
X151961351Y-89293916D01*
X152022838Y-89232430D01*
X152021676Y-89722400D01*
X152027758Y-89784151D01*
X152045770Y-89843528D01*
X152075020Y-89898251D01*
X152114384Y-89946216D01*
X152162349Y-89985580D01*
X152217072Y-90014830D01*
X152276449Y-90032842D01*
X152338200Y-90038924D01*
X152755950Y-90037400D01*
X152834700Y-89958650D01*
X152834700Y-89000900D01*
X152841700Y-89000900D01*
X152841700Y-89958650D01*
X152920450Y-90037400D01*
X153338200Y-90038924D01*
X153399951Y-90032842D01*
X153459328Y-90014830D01*
X153514051Y-89985580D01*
X153562016Y-89946216D01*
X153601380Y-89898251D01*
X153630630Y-89843528D01*
X153648642Y-89784151D01*
X153654133Y-89728400D01*
X153973676Y-89728400D01*
X153979758Y-89790151D01*
X153997770Y-89849528D01*
X154027020Y-89904251D01*
X154066384Y-89952216D01*
X154114349Y-89991580D01*
X154169072Y-90020830D01*
X154228449Y-90038842D01*
X154290200Y-90044924D01*
X155107950Y-90043400D01*
X155186700Y-89964650D01*
X155186700Y-89156900D01*
X155193700Y-89156900D01*
X155193700Y-89964650D01*
X155272450Y-90043400D01*
X156090200Y-90044924D01*
X156151951Y-90038842D01*
X156211328Y-90020830D01*
X156266051Y-89991580D01*
X156314016Y-89952216D01*
X156353380Y-89904251D01*
X156382630Y-89849528D01*
X156400642Y-89790151D01*
X156406724Y-89728400D01*
X156405200Y-89235650D01*
X156326450Y-89156900D01*
X155193700Y-89156900D01*
X155186700Y-89156900D01*
X154053950Y-89156900D01*
X153975200Y-89235650D01*
X153973676Y-89728400D01*
X153654133Y-89728400D01*
X153654724Y-89722400D01*
X153653200Y-89079650D01*
X153574450Y-89000900D01*
X152841700Y-89000900D01*
X152834700Y-89000900D01*
X152814700Y-89000900D01*
X152814700Y-88993900D01*
X152834700Y-88993900D01*
X152834700Y-88036150D01*
X152841700Y-88036150D01*
X152841700Y-88993900D01*
X153574450Y-88993900D01*
X153653200Y-88915150D01*
X153654724Y-88272400D01*
X153648642Y-88210649D01*
X153630630Y-88151272D01*
X153601380Y-88096549D01*
X153562016Y-88048584D01*
X153514051Y-88009220D01*
X153459328Y-87979970D01*
X153399951Y-87961958D01*
X153338200Y-87955876D01*
X152920450Y-87957400D01*
X152841700Y-88036150D01*
X152834700Y-88036150D01*
X152755950Y-87957400D01*
X152338200Y-87955876D01*
X152329200Y-87956762D01*
X152329200Y-87645134D01*
X152482118Y-87598746D01*
X152658274Y-87504589D01*
X152812675Y-87377875D01*
X152939389Y-87223474D01*
X153033546Y-87047318D01*
X153091528Y-86856179D01*
X153111106Y-86657400D01*
X153091528Y-86458621D01*
X153033546Y-86267482D01*
X152939389Y-86091326D01*
X152812675Y-85936925D01*
X152658274Y-85810211D01*
X152482118Y-85716054D01*
X152290979Y-85658072D01*
X152263115Y-85655328D01*
X152293649Y-85652214D01*
X152483857Y-85593798D01*
X152659014Y-85499397D01*
X152812388Y-85372638D01*
X152938086Y-85218393D01*
X153031277Y-85042590D01*
X153088380Y-84851984D01*
X153094150Y-84819637D01*
X153028443Y-84660900D01*
X151695700Y-84660900D01*
X151695700Y-84680900D01*
X151688700Y-84680900D01*
X151688700Y-84660900D01*
X150355957Y-84660900D01*
X150290250Y-84819637D01*
X150296020Y-84851984D01*
X150353123Y-85042590D01*
X150446314Y-85218393D01*
X150572012Y-85372638D01*
X150725386Y-85499397D01*
X150900543Y-85593798D01*
X151090751Y-85652214D01*
X151121285Y-85655328D01*
X151093421Y-85658072D01*
X150902282Y-85716054D01*
X150726126Y-85810211D01*
X150571725Y-85936925D01*
X150445011Y-86091326D01*
X150350854Y-86267482D01*
X150292872Y-86458621D01*
X150273294Y-86657400D01*
X150292872Y-86856179D01*
X150350854Y-87047318D01*
X150445011Y-87223474D01*
X150571725Y-87377875D01*
X150726126Y-87504589D01*
X150902282Y-87598746D01*
X151093421Y-87656728D01*
X151242388Y-87671400D01*
X151447200Y-87671400D01*
X151447201Y-88022691D01*
X151404615Y-87999929D01*
X151298527Y-87967747D01*
X151188200Y-87956881D01*
X150688200Y-87956881D01*
X150577873Y-87967747D01*
X150471785Y-87999929D01*
X150374014Y-88052188D01*
X150288318Y-88122518D01*
X150217988Y-88208214D01*
X150165729Y-88305985D01*
X150137037Y-88400569D01*
X150043200Y-88306733D01*
X150043200Y-83939051D01*
X150045332Y-83917400D01*
X150043200Y-83895749D01*
X150043200Y-83895744D01*
X150039549Y-83858672D01*
X150036819Y-83830949D01*
X150011602Y-83747820D01*
X149970652Y-83671208D01*
X149915542Y-83604058D01*
X149898715Y-83590248D01*
X149669352Y-83360885D01*
X149655542Y-83344058D01*
X149588392Y-83288948D01*
X149511780Y-83247998D01*
X149428651Y-83222782D01*
X149363856Y-83216400D01*
X149363848Y-83216400D01*
X149342200Y-83214268D01*
X149320552Y-83216400D01*
X148972381Y-83216400D01*
X148964671Y-83190985D01*
X148912412Y-83093214D01*
X148842082Y-83007518D01*
X148756386Y-82937188D01*
X148658615Y-82884929D01*
X148552527Y-82852747D01*
X148442200Y-82841881D01*
X143442200Y-82841881D01*
X143331873Y-82852747D01*
X143252190Y-82876919D01*
X143252190Y-82473890D01*
X145859950Y-82472400D01*
X145938700Y-82393650D01*
X145938700Y-81660900D01*
X145945700Y-81660900D01*
X145945700Y-82393650D01*
X146024450Y-82472400D01*
X148692200Y-82473924D01*
X148753951Y-82467842D01*
X148813328Y-82449830D01*
X148868051Y-82420580D01*
X148916016Y-82381216D01*
X148955380Y-82333251D01*
X148984630Y-82278528D01*
X149002642Y-82219151D01*
X149008724Y-82157400D01*
X149007200Y-81739650D01*
X148928450Y-81660900D01*
X145945700Y-81660900D01*
X145938700Y-81660900D01*
X145918700Y-81660900D01*
X145918700Y-81653900D01*
X145938700Y-81653900D01*
X145938700Y-81633900D01*
X145945700Y-81633900D01*
X145945700Y-81653900D01*
X148928450Y-81653900D01*
X149007200Y-81575150D01*
X149008724Y-81157400D01*
X149005573Y-81125410D01*
X149657774Y-81125410D01*
X149685463Y-81128137D01*
X149713152Y-81125410D01*
X149713160Y-81125410D01*
X149796026Y-81117248D01*
X149902340Y-81084998D01*
X150000320Y-81032627D01*
X150086200Y-80962147D01*
X150103861Y-80940627D01*
X150283497Y-80760992D01*
X150292872Y-80856179D01*
X150350854Y-81047318D01*
X150445011Y-81223474D01*
X150571725Y-81377875D01*
X150726126Y-81504589D01*
X150902282Y-81598746D01*
X151093421Y-81656728D01*
X151100244Y-81657400D01*
X151093421Y-81658072D01*
X150902282Y-81716054D01*
X150726126Y-81810211D01*
X150571725Y-81936925D01*
X150445011Y-82091326D01*
X150350854Y-82267482D01*
X150292872Y-82458621D01*
X150273294Y-82657400D01*
X150292872Y-82856179D01*
X150350854Y-83047318D01*
X150445011Y-83223474D01*
X150571725Y-83377875D01*
X150726126Y-83504589D01*
X150902282Y-83598746D01*
X151093421Y-83656728D01*
X151121285Y-83659472D01*
X151090751Y-83662586D01*
X150900543Y-83721002D01*
X150725386Y-83815403D01*
X150572012Y-83942162D01*
X150446314Y-84096407D01*
X150353123Y-84272210D01*
X150296020Y-84462816D01*
X150290250Y-84495163D01*
X150355957Y-84653900D01*
X151688700Y-84653900D01*
X151688700Y-84633900D01*
X151695700Y-84633900D01*
X151695700Y-84653900D01*
X153028443Y-84653900D01*
X153094150Y-84495163D01*
X153088380Y-84462816D01*
X153031277Y-84272210D01*
X152938086Y-84096407D01*
X152812388Y-83942162D01*
X152659014Y-83815403D01*
X152483857Y-83721002D01*
X152293649Y-83662586D01*
X152263115Y-83659472D01*
X152290979Y-83656728D01*
X152482118Y-83598746D01*
X152658274Y-83504589D01*
X152812675Y-83377875D01*
X152939389Y-83223474D01*
X153006242Y-83098400D01*
X153153533Y-83098400D01*
X153259048Y-83203915D01*
X153272858Y-83220742D01*
X153340008Y-83275852D01*
X153416620Y-83316802D01*
X153460964Y-83330253D01*
X153499748Y-83342018D01*
X153508152Y-83342846D01*
X153564544Y-83348400D01*
X153564551Y-83348400D01*
X153586199Y-83350532D01*
X153607847Y-83348400D01*
X153876681Y-83348400D01*
X153876681Y-83407400D01*
X153882744Y-83468955D01*
X153900698Y-83528144D01*
X153929856Y-83582693D01*
X153969094Y-83630506D01*
X154016907Y-83669744D01*
X154071456Y-83698902D01*
X154130645Y-83716856D01*
X154192200Y-83722919D01*
X154378200Y-83722919D01*
X154378200Y-84149711D01*
X154375473Y-84177400D01*
X154378200Y-84205089D01*
X154378200Y-84205096D01*
X154386362Y-84287962D01*
X154418612Y-84394276D01*
X154470983Y-84492257D01*
X154541463Y-84578137D01*
X154562983Y-84595798D01*
X154626201Y-84659016D01*
X154626201Y-85312881D01*
X154540199Y-85312881D01*
X154429872Y-85323747D01*
X154323785Y-85355928D01*
X154226014Y-85408188D01*
X154140317Y-85478517D01*
X154069988Y-85564214D01*
X154017728Y-85661985D01*
X153985547Y-85768072D01*
X153974681Y-85878399D01*
X153974681Y-86528401D01*
X153985547Y-86638728D01*
X154017728Y-86744815D01*
X154069988Y-86842586D01*
X154140317Y-86928283D01*
X154226014Y-86998612D01*
X154323785Y-87050872D01*
X154370090Y-87064918D01*
X154311321Y-87206800D01*
X154276196Y-87383383D01*
X154276196Y-87563425D01*
X154311321Y-87740008D01*
X154380220Y-87906345D01*
X154480246Y-88056045D01*
X154607555Y-88183354D01*
X154726288Y-88262689D01*
X154290200Y-88261876D01*
X154228449Y-88267958D01*
X154169072Y-88285970D01*
X154114349Y-88315220D01*
X154066384Y-88354584D01*
X154027020Y-88402549D01*
X153997770Y-88457272D01*
X153979758Y-88516649D01*
X153973676Y-88578400D01*
X153975200Y-89071150D01*
X154053950Y-89149900D01*
X155186700Y-89149900D01*
X155186700Y-89129900D01*
X155193700Y-89129900D01*
X155193700Y-89149900D01*
X156326450Y-89149900D01*
X156405200Y-89071150D01*
X156406724Y-88578400D01*
X156400642Y-88516649D01*
X156382630Y-88457272D01*
X156353380Y-88402549D01*
X156314016Y-88354584D01*
X156266051Y-88315220D01*
X156211328Y-88285970D01*
X156151951Y-88267958D01*
X156090200Y-88261876D01*
X155654104Y-88262689D01*
X155772837Y-88183354D01*
X155900146Y-88056045D01*
X156000172Y-87906345D01*
X156069071Y-87740008D01*
X156104196Y-87563425D01*
X156104196Y-87383383D01*
X156069071Y-87206800D01*
X156010303Y-87064921D01*
X156056615Y-87050872D01*
X156154386Y-86998612D01*
X156240083Y-86928283D01*
X156310412Y-86842586D01*
X156362672Y-86744815D01*
X156394853Y-86638728D01*
X156405719Y-86528401D01*
X156405719Y-85878399D01*
X156394853Y-85768072D01*
X156362672Y-85661985D01*
X156310412Y-85564214D01*
X156240083Y-85478517D01*
X156154386Y-85408188D01*
X156056615Y-85355928D01*
X155950528Y-85323747D01*
X155840201Y-85312881D01*
X155754200Y-85312881D01*
X155754200Y-84453089D01*
X155756927Y-84425400D01*
X155754200Y-84397711D01*
X155754200Y-84397703D01*
X155746038Y-84314837D01*
X155713788Y-84208523D01*
X155661417Y-84110543D01*
X155590937Y-84024663D01*
X155569417Y-84007002D01*
X155506200Y-83943785D01*
X155506200Y-83722919D01*
X155692200Y-83722919D01*
X155753755Y-83716856D01*
X155812944Y-83698902D01*
X155867493Y-83669744D01*
X155915306Y-83630506D01*
X155954544Y-83582693D01*
X155983702Y-83528144D01*
X156001656Y-83468955D01*
X156007719Y-83407400D01*
X156007719Y-82407400D01*
X156001592Y-82345522D01*
X155983575Y-82286351D01*
X155968063Y-82257402D01*
X155983702Y-82228144D01*
X156001656Y-82168955D01*
X156007719Y-82107400D01*
X156007719Y-79707400D01*
X156001721Y-79646169D01*
X155983828Y-79586961D01*
X155968632Y-79558459D01*
X155984630Y-79528528D01*
X156002642Y-79469151D01*
X156008724Y-79407400D01*
X156008724Y-78407400D01*
X156002642Y-78345649D01*
X155984630Y-78286272D01*
X155955380Y-78231549D01*
X155916016Y-78183584D01*
X155868051Y-78144220D01*
X155813328Y-78114970D01*
X155753951Y-78096958D01*
X155692200Y-78090876D01*
X154192200Y-78090876D01*
X154130449Y-78096958D01*
X154071072Y-78114970D01*
X154016349Y-78144220D01*
X153968384Y-78183584D01*
X153929020Y-78231549D01*
X153899770Y-78286272D01*
X153881758Y-78345649D01*
X153875676Y-78407400D01*
X153875676Y-79407400D01*
X153881823Y-79469475D01*
X153899897Y-79528834D01*
X153915771Y-79558458D01*
X153900698Y-79586656D01*
X153882744Y-79645845D01*
X153876681Y-79707400D01*
X153876681Y-80466400D01*
X153546867Y-80466400D01*
X153441352Y-80360885D01*
X153427542Y-80344058D01*
X153360392Y-80288948D01*
X153283780Y-80247998D01*
X153200651Y-80222782D01*
X153135856Y-80216400D01*
X153135848Y-80216400D01*
X153114200Y-80214268D01*
X153092552Y-80216400D01*
X153006242Y-80216400D01*
X152939389Y-80091326D01*
X152812675Y-79936925D01*
X152658274Y-79810211D01*
X152482118Y-79716054D01*
X152290979Y-79658072D01*
X152142012Y-79643400D01*
X152133815Y-79643400D01*
X152902428Y-78874789D01*
X152923937Y-78857137D01*
X152941589Y-78835628D01*
X152941593Y-78835624D01*
X152963539Y-78808882D01*
X152994417Y-78771257D01*
X153046788Y-78673277D01*
X153079038Y-78566963D01*
X153087200Y-78484097D01*
X153087200Y-78484089D01*
X153089927Y-78456400D01*
X153087200Y-78428711D01*
X153087200Y-78353838D01*
X153162413Y-78292113D01*
X153231965Y-78207363D01*
X153283647Y-78110673D01*
X153315473Y-78005758D01*
X153326219Y-77896650D01*
X153326219Y-76984150D01*
X153315473Y-76875042D01*
X153283647Y-76770127D01*
X153231965Y-76673437D01*
X153162413Y-76588687D01*
X153077663Y-76519135D01*
X152980973Y-76467453D01*
X152876058Y-76435627D01*
X152766950Y-76424881D01*
X152279450Y-76424881D01*
X152170342Y-76435627D01*
X152065427Y-76467453D01*
X151968737Y-76519135D01*
X151883987Y-76588687D01*
X151814435Y-76673437D01*
X151762753Y-76770127D01*
X151730927Y-76875042D01*
X151720181Y-76984150D01*
X151720181Y-77896650D01*
X151730927Y-78005758D01*
X151762753Y-78110673D01*
X151814435Y-78207363D01*
X151883987Y-78292113D01*
X151887218Y-78294765D01*
X151292595Y-78889390D01*
X150821172Y-78889390D01*
X150793483Y-78886663D01*
X150765794Y-78889390D01*
X150765786Y-78889390D01*
X150692369Y-78896621D01*
X150682919Y-78897552D01*
X150650669Y-78907335D01*
X150576606Y-78929802D01*
X150478626Y-78982173D01*
X150441992Y-79012238D01*
X150414259Y-79034997D01*
X150414255Y-79035001D01*
X150392746Y-79052653D01*
X150375094Y-79074162D01*
X149451848Y-79997410D01*
X145472681Y-79997410D01*
X145496853Y-79917727D01*
X145507719Y-79807400D01*
X145507719Y-78707400D01*
X145496853Y-78597073D01*
X145464671Y-78490985D01*
X145412412Y-78393214D01*
X145342082Y-78307518D01*
X145256386Y-78237188D01*
X145158615Y-78184929D01*
X145052527Y-78152747D01*
X144942200Y-78141881D01*
X142442200Y-78141881D01*
X142331873Y-78152747D01*
X142225785Y-78184929D01*
X142128014Y-78237188D01*
X142042318Y-78307518D01*
X141971988Y-78393214D01*
X141919729Y-78490985D01*
X141887547Y-78597073D01*
X141876681Y-78707400D01*
X139657200Y-78707400D01*
X139657200Y-74831398D01*
X149845181Y-74831398D01*
X149845181Y-75731402D01*
X149856047Y-75841729D01*
X149888228Y-75947816D01*
X149940488Y-76045586D01*
X150010817Y-76131283D01*
X150096514Y-76201612D01*
X150194284Y-76253872D01*
X150232200Y-76265374D01*
X150232201Y-76454781D01*
X150190427Y-76467453D01*
X150093737Y-76519135D01*
X150008987Y-76588687D01*
X149939435Y-76673437D01*
X149887753Y-76770127D01*
X149855927Y-76875042D01*
X149845181Y-76984150D01*
X149845181Y-77896650D01*
X149855927Y-78005758D01*
X149887753Y-78110673D01*
X149939435Y-78207363D01*
X150008987Y-78292113D01*
X150093737Y-78361665D01*
X150190427Y-78413347D01*
X150295342Y-78445173D01*
X150404450Y-78455919D01*
X150891950Y-78455919D01*
X151001058Y-78445173D01*
X151105973Y-78413347D01*
X151202663Y-78361665D01*
X151287413Y-78292113D01*
X151356965Y-78207363D01*
X151408647Y-78110673D01*
X151440473Y-78005758D01*
X151451219Y-77896650D01*
X151451219Y-76984150D01*
X151440473Y-76875042D01*
X151408647Y-76770127D01*
X151356965Y-76673437D01*
X151287413Y-76588687D01*
X151202663Y-76519135D01*
X151114200Y-76471850D01*
X151114200Y-76265374D01*
X151152116Y-76253872D01*
X151249886Y-76201612D01*
X151335583Y-76131283D01*
X151405912Y-76045586D01*
X151440220Y-75981400D01*
X151669176Y-75981400D01*
X151675258Y-76043151D01*
X151693270Y-76102528D01*
X151722520Y-76157251D01*
X151761884Y-76205216D01*
X151809849Y-76244580D01*
X151864572Y-76273830D01*
X151923949Y-76291842D01*
X151985700Y-76297924D01*
X152415950Y-76296400D01*
X152494700Y-76217650D01*
X152494700Y-75284900D01*
X152501700Y-75284900D01*
X152501700Y-76217650D01*
X152580450Y-76296400D01*
X153010700Y-76297924D01*
X153072451Y-76291842D01*
X153131828Y-76273830D01*
X153186551Y-76244580D01*
X153234516Y-76205216D01*
X153273880Y-76157251D01*
X153303130Y-76102528D01*
X153321142Y-76043151D01*
X153327224Y-75981400D01*
X153325700Y-75363650D01*
X153246950Y-75284900D01*
X152501700Y-75284900D01*
X152494700Y-75284900D01*
X151749450Y-75284900D01*
X151670700Y-75363650D01*
X151669176Y-75981400D01*
X151440220Y-75981400D01*
X151458172Y-75947816D01*
X151490353Y-75841729D01*
X151501219Y-75731402D01*
X151501219Y-74831398D01*
X151490353Y-74721071D01*
X151458172Y-74614984D01*
X151440221Y-74581400D01*
X151669176Y-74581400D01*
X151670700Y-75199150D01*
X151749450Y-75277900D01*
X152494700Y-75277900D01*
X152494700Y-74345150D01*
X152501700Y-74345150D01*
X152501700Y-75277900D01*
X153246950Y-75277900D01*
X153325700Y-75199150D01*
X153327224Y-74581400D01*
X153321142Y-74519649D01*
X153303130Y-74460272D01*
X153273880Y-74405549D01*
X153234516Y-74357584D01*
X153186551Y-74318220D01*
X153131828Y-74288970D01*
X153072451Y-74270958D01*
X153010700Y-74264876D01*
X152580450Y-74266400D01*
X152501700Y-74345150D01*
X152494700Y-74345150D01*
X152415950Y-74266400D01*
X151985700Y-74264876D01*
X151923949Y-74270958D01*
X151864572Y-74288970D01*
X151809849Y-74318220D01*
X151761884Y-74357584D01*
X151722520Y-74405549D01*
X151693270Y-74460272D01*
X151675258Y-74519649D01*
X151669176Y-74581400D01*
X151440221Y-74581400D01*
X151405912Y-74517214D01*
X151335583Y-74431517D01*
X151249886Y-74361188D01*
X151152116Y-74308928D01*
X151046029Y-74276747D01*
X150935702Y-74265881D01*
X150410698Y-74265881D01*
X150300371Y-74276747D01*
X150194284Y-74308928D01*
X150096514Y-74361188D01*
X150010817Y-74431517D01*
X149940488Y-74517214D01*
X149888228Y-74614984D01*
X149856047Y-74721071D01*
X149845181Y-74831398D01*
X139657200Y-74831398D01*
X139657200Y-72427982D01*
X143178200Y-72427982D01*
X143178200Y-72686818D01*
X143228696Y-72940680D01*
X143327748Y-73179812D01*
X143471549Y-73395026D01*
X143654574Y-73578051D01*
X143869788Y-73721852D01*
X144108920Y-73820904D01*
X144362782Y-73871400D01*
X144621618Y-73871400D01*
X144875480Y-73820904D01*
X145114612Y-73721852D01*
X145329826Y-73578051D01*
X145512851Y-73395026D01*
X145656652Y-73179812D01*
X145755704Y-72940680D01*
X145806200Y-72686818D01*
X145806200Y-72427982D01*
X145755704Y-72174120D01*
X145656652Y-71934988D01*
X145512851Y-71719774D01*
X145329826Y-71536749D01*
X145316706Y-71527982D01*
X147628200Y-71527982D01*
X147628200Y-71786818D01*
X147678696Y-72040680D01*
X147777748Y-72279812D01*
X147921549Y-72495026D01*
X148104574Y-72678051D01*
X148319788Y-72821852D01*
X148558920Y-72920904D01*
X148812782Y-72971400D01*
X149071618Y-72971400D01*
X149325480Y-72920904D01*
X149564612Y-72821852D01*
X149779826Y-72678051D01*
X149962851Y-72495026D01*
X150101797Y-72287077D01*
X151228200Y-72287077D01*
X151228200Y-72427723D01*
X151255638Y-72565666D01*
X151309461Y-72695606D01*
X151387600Y-72812549D01*
X151487051Y-72912000D01*
X151603994Y-72990139D01*
X151733934Y-73043962D01*
X151871877Y-73071400D01*
X152012523Y-73071400D01*
X152150466Y-73043962D01*
X152280406Y-72990139D01*
X152397349Y-72912000D01*
X152496800Y-72812549D01*
X152574939Y-72695606D01*
X152628762Y-72565666D01*
X152656148Y-72427982D01*
X153578200Y-72427982D01*
X153578200Y-72686818D01*
X153628696Y-72940680D01*
X153727748Y-73179812D01*
X153871549Y-73395026D01*
X154054574Y-73578051D01*
X154269788Y-73721852D01*
X154508920Y-73820904D01*
X154762782Y-73871400D01*
X155021618Y-73871400D01*
X155275480Y-73820904D01*
X155514612Y-73721852D01*
X155729826Y-73578051D01*
X155912851Y-73395026D01*
X156056652Y-73179812D01*
X156155704Y-72940680D01*
X156206200Y-72686818D01*
X156206200Y-72427982D01*
X156155704Y-72174120D01*
X156056652Y-71934988D01*
X155912851Y-71719774D01*
X155729826Y-71536749D01*
X155514612Y-71392948D01*
X155275480Y-71293896D01*
X155021618Y-71243400D01*
X154762782Y-71243400D01*
X154508920Y-71293896D01*
X154269788Y-71392948D01*
X154054574Y-71536749D01*
X153871549Y-71719774D01*
X153727748Y-71934988D01*
X153628696Y-72174120D01*
X153578200Y-72427982D01*
X152656148Y-72427982D01*
X152656200Y-72427723D01*
X152656200Y-72287077D01*
X152628762Y-72149134D01*
X152574939Y-72019194D01*
X152496800Y-71902251D01*
X152397349Y-71802800D01*
X152280406Y-71724661D01*
X152150466Y-71670838D01*
X152012523Y-71643400D01*
X151871877Y-71643400D01*
X151733934Y-71670838D01*
X151603994Y-71724661D01*
X151487051Y-71802800D01*
X151387600Y-71902251D01*
X151309461Y-72019194D01*
X151255638Y-72149134D01*
X151228200Y-72287077D01*
X150101797Y-72287077D01*
X150106652Y-72279812D01*
X150205704Y-72040680D01*
X150256200Y-71786818D01*
X150256200Y-71527982D01*
X150205704Y-71274120D01*
X150106652Y-71034988D01*
X149962851Y-70819774D01*
X149779826Y-70636749D01*
X149564612Y-70492948D01*
X149325480Y-70393896D01*
X149071618Y-70343400D01*
X148812782Y-70343400D01*
X148558920Y-70393896D01*
X148319788Y-70492948D01*
X148104574Y-70636749D01*
X147921549Y-70819774D01*
X147777748Y-71034988D01*
X147678696Y-71274120D01*
X147628200Y-71527982D01*
X145316706Y-71527982D01*
X145114612Y-71392948D01*
X144875480Y-71293896D01*
X144621618Y-71243400D01*
X144362782Y-71243400D01*
X144108920Y-71293896D01*
X143869788Y-71392948D01*
X143654574Y-71536749D01*
X143471549Y-71719774D01*
X143327748Y-71934988D01*
X143228696Y-72174120D01*
X143178200Y-72427982D01*
X139657200Y-72427982D01*
X139657200Y-69667916D01*
X139682684Y-69408010D01*
X139755112Y-69168118D01*
X139872756Y-68946861D01*
X140031133Y-68752671D01*
X140224212Y-68592943D01*
X140444642Y-68473756D01*
X140684024Y-68399655D01*
X140943346Y-68372400D01*
X156931684Y-68372400D01*
X157191590Y-68397884D01*
G37*
G04 #@! TD.AperFunction*
M02*
