<?xml version="1.0" standalone="no"?>
 <!DOCTYPE svg PUBLIC "-//W3C//DTD SVG 1.1//EN" 
 "http://www.w3.org/Graphics/SVG/1.1/DTD/svg11.dtd"> 
<svg xmlns="http://www.w3.org/2000/svg" version="1.1" 
    width="29.7002cm" height="21.0007cm" viewBox="0 0 116930 82680 ">
<title>SVG Picture created as pressureSensorHolder-Edge_Cuts.svg date 2019/09/24 10:41:30 </title>
  <desc>Picture generated by PCBNEW </desc>
<g style="fill:#000000; fill-opacity:1;stroke:#000000; stroke-opacity:1;
stroke-linecap:round; stroke-linejoin:round; "
 transform="translate(0 0) scale(1 1)">
</g>
<g style="fill:#000000; fill-opacity:0.0; 
stroke:#000000; stroke-width:-0.000393701; stroke-opacity:1; 
stroke-linecap:round; stroke-linejoin:round;">
</g>
<g style="fill:#000000; fill-opacity:0.0; 
stroke:#000000; stroke-width:19.685; stroke-opacity:1; 
stroke-linecap:round; stroke-linejoin:round;">
<path d="M67445 40373
L51894 40373
" />
<path d="M67445 32893
L67445 40373
" />
<path d="M51894 40373
L51894 32893
" />
<path d="M51894 32893
L67445 32893
" />
<path d="M69926 41387
L77407 41387
" />
<path d="M60871 41387
L68352 41387
" />
<path d="M77407 41387
L77407 56938
" />
<path d="M68352 41387
L68352 56938
" />
<path d="M69926 56938
L69926 41387
" />
<path d="M60871 56938
L60871 41387
" />
<path d="M77407 56938
L69926 56938
" />
<path d="M68352 56938
L60871 56938
" />
<path d="M51816 56938
L51816 41387
" />
<path d="M51816 41387
L59296 41387
" />
<path d="M59296 41387
L59296 56938
" />
<path d="M59296 56938
L51816 56938
" />
<g >
</g>
<g >
</g>
<g >
</g>
<g >
</g>
<g >
</g>
<g >
</g>
<g >
</g>
<g >
</g>
<g >
</g>
<g >
</g>
<g >
</g>
<g >
</g>
<g >
</g>
</g> 
</svg>
