<?xml version="1.0" standalone="no"?>
 <!DOCTYPE svg PUBLIC "-//W3C//DTD SVG 1.1//EN" 
 "http://www.w3.org/Graphics/SVG/1.1/DTD/svg11.dtd"> 
<svg xmlns="http://www.w3.org/2000/svg" version="1.1" 
    width="29.7002cm" height="21.0007cm" viewBox="0 0 116930 82680 ">
<title>SVG Picture created as pressureSensorHolder-F_Cu.svg date 2019/09/24 10:41:30 </title>
  <desc>Picture generated by PCBNEW </desc>
<g style="fill:#000000; fill-opacity:1;stroke:#000000; stroke-opacity:1;
stroke-linecap:round; stroke-linejoin:round; "
 transform="translate(0 0) scale(1 1)">
</g>
<g style="fill:#000000; fill-opacity:0.0; 
stroke:#000000; stroke-width:-0.000393701; stroke-opacity:1; 
stroke-linecap:round; stroke-linejoin:round;">
</g>
<g style="fill:#000000; fill-opacity:0.0; 
stroke:#000000; stroke-width:19.685; stroke-opacity:1; 
stroke-linecap:round; stroke-linejoin:round;">
<path d="M67445 40373
L51894 40373
" />
<path d="M67445 32893
L67445 40373
" />
<path d="M51894 40373
L51894 32893
" />
<path d="M51894 32893
L67445 32893
" />
<path d="M69926 41387
L77407 41387
" />
<path d="M60871 41387
L68352 41387
" />
<path d="M77407 41387
L77407 56938
" />
<path d="M68352 41387
L68352 56938
" />
<path d="M69926 56938
L69926 41387
" />
<path d="M60871 56938
L60871 41387
" />
<path d="M77407 56938
L69926 56938
" />
<path d="M68352 56938
L60871 56938
" />
<path d="M51816 56938
L51816 41387
" />
<path d="M51816 41387
L59296 41387
" />
<path d="M59296 41387
L59296 56938
" />
<path d="M59296 56938
L51816 56938
" />
<g >
</g>
<g style="fill:#000000; fill-opacity:1.0; 
stroke:#000000; stroke-width:0; stroke-opacity:1; 
stroke-linecap:round; stroke-linejoin:round;">
<circle cx="50801.3" cy="55394.3" r="492" /> 
</g>
<g style="fill:#000000; fill-opacity:1.0; 
stroke:#000000; stroke-width:39.3701; stroke-opacity:1; 
stroke-linecap:round; stroke-linejoin:round;">
</g>
<g >
</g>
<g style="fill:#000000; fill-opacity:1.0; 
stroke:#000000; stroke-width:39.3701; stroke-opacity:1; 
stroke-linecap:round; stroke-linejoin:round;">
</g>
<g style="fill:#000000; fill-opacity:1.0; 
stroke:#000000; stroke-width:0; stroke-opacity:1; 
stroke-linecap:round; stroke-linejoin:round;">
<circle cx="50801.3" cy="35644.3" r="492" /> 
</g>
<g style="fill:#000000; fill-opacity:1.0; 
stroke:#000000; stroke-width:39.3701; stroke-opacity:1; 
stroke-linecap:round; stroke-linejoin:round;">
</g>
<g >
</g>
<g style="fill:#000000; fill-opacity:1.0; 
stroke:#000000; stroke-width:39.3701; stroke-opacity:1; 
stroke-linecap:round; stroke-linejoin:round;">
</g>
<g style="fill:#000000; fill-opacity:1.0; 
stroke:#000000; stroke-width:0; stroke-opacity:1; 
stroke-linecap:round; stroke-linejoin:round;">
<circle cx="79901.3" cy="33944.3" r="492" /> 
</g>
<g style="fill:#000000; fill-opacity:1.0; 
stroke:#000000; stroke-width:39.3701; stroke-opacity:1; 
stroke-linecap:round; stroke-linejoin:round;">
</g>
<g >
</g>
<g style="fill:#000000; fill-opacity:1.0; 
stroke:#000000; stroke-width:39.3701; stroke-opacity:1; 
stroke-linecap:round; stroke-linejoin:round;">
</g>
<g style="fill:#000000; fill-opacity:1.0; 
stroke:#000000; stroke-width:0; stroke-opacity:1; 
stroke-linecap:round; stroke-linejoin:round;">
<circle cx="78901.3" cy="55994.3" r="492" /> 
</g>
<g style="fill:#000000; fill-opacity:1.0; 
stroke:#000000; stroke-width:39.3701; stroke-opacity:1; 
stroke-linecap:round; stroke-linejoin:round;">
</g>
<g >
</g>
<g style="fill:#000000; fill-opacity:1.0; 
stroke:#000000; stroke-width:39.3701; stroke-opacity:1; 
stroke-linecap:round; stroke-linejoin:round;">
</g>
<g style="fill:#000000; fill-opacity:1.0; 
stroke:#000000; stroke-width:551.181; stroke-opacity:1; 
stroke-linecap:round; stroke-linejoin:round;">
</g>
<g style="fill:#000000; fill-opacity:0.0; 
stroke:#000000; stroke-width:551.181; stroke-opacity:1; 
stroke-linecap:round; stroke-linejoin:round;">
<path d="M59177 35708
L59177 35393
" />
<path d="M58390 35708
L58390 35393
" />
<path d="M57602 35708
L57602 35393
" />
<path d="M56815 35708
L56815 35393
" />
</g>
<g >
</g>
<g style="fill:#000000; fill-opacity:0.0; 
stroke:#000000; stroke-width:551.181; stroke-opacity:1; 
stroke-linecap:round; stroke-linejoin:round;">
</g>
<g style="fill:#000000; fill-opacity:0.0; 
stroke:#000000; stroke-width:0; stroke-opacity:1; 
stroke-linecap:round; stroke-linejoin:round;">
</g>
<g style="fill:#000000; fill-opacity:1.0; 
stroke:#000000; stroke-width:0; stroke-opacity:1; 
stroke-linecap:round; stroke-linejoin:round;">
<path style="fill:#000000; fill-opacity:1.0; 
stroke:#000000; stroke-width:0; stroke-opacity:1; 
stroke-linecap:round; stroke-linejoin:round;fill-rule:evenodd;"
d="M 64883,37268
64891,37269
64898,37271
64906,37274
64913,37277
64919,37281
64926,37286
64931,37291
64936,37297
64941,37303
64945,37309
64948,37316
64951,37324
64953,37331
64954,37339
64954,37347
64954,37504
64954,37512
64953,37519
64951,37527
64948,37534
64945,37541
64941,37548
64936,37554
64931,37560
64926,37565
64919,37569
64913,37573
64906,37577
64898,37579
64891,37581
64883,37582
64876,37583
64521,37583
64514,37582
64506,37581
64498,37579
64491,37577
64484,37573
64477,37569
64471,37565
64466,37560
64460,37554
64456,37548
64452,37541
64448,37534
64446,37527
64444,37519
64443,37512
64442,37504
64442,37347
64443,37339
64444,37331
64446,37324
64448,37316
64452,37309
64456,37303
64460,37297
64466,37291
64471,37286
64477,37281
64484,37277
64491,37274
64498,37271
64506,37269
64514,37268
64521,37268
64876,37268
64883,37268
Z" /> 
<path style="fill:#000000; fill-opacity:1.0; 
stroke:#000000; stroke-width:0; stroke-opacity:1; 
stroke-linecap:round; stroke-linejoin:round;fill-rule:evenodd;"
d="M 64883,36776
64891,36777
64898,36779
64906,36782
64913,36785
64919,36789
64926,36794
64931,36799
64936,36804
64941,36811
64945,36817
64948,36824
64951,36832
64953,36839
64954,36847
64954,36854
64954,37012
64954,37020
64953,37027
64951,37035
64948,37042
64945,37049
64941,37056
64936,37062
64931,37068
64926,37073
64919,37077
64913,37081
64906,37085
64898,37087
64891,37089
64883,37090
64876,37091
64521,37091
64514,37090
64506,37089
64498,37087
64491,37085
64484,37081
64477,37077
64471,37073
64466,37068
64460,37062
64456,37056
64452,37049
64448,37042
64446,37035
64444,37027
64443,37020
64442,37012
64442,36854
64443,36847
64444,36839
64446,36832
64448,36824
64452,36817
64456,36811
64460,36804
64466,36799
64471,36794
64477,36789
64484,36785
64491,36782
64498,36779
64506,36777
64514,36776
64521,36776
64876,36776
64883,36776
Z" /> 
<path style="fill:#000000; fill-opacity:1.0; 
stroke:#000000; stroke-width:0; stroke-opacity:1; 
stroke-linecap:round; stroke-linejoin:round;fill-rule:evenodd;"
d="M 64883,36284
64891,36285
64898,36287
64906,36290
64913,36293
64919,36297
64926,36301
64931,36307
64936,36312
64941,36319
64945,36325
64948,36332
64951,36339
64953,36347
64954,36355
64954,36362
64954,36520
64954,36527
64953,36535
64951,36543
64948,36550
64945,36557
64941,36563
64936,36570
64931,36575
64926,36581
64919,36585
64913,36589
64906,36592
64898,36595
64891,36597
64883,36598
64876,36598
64521,36598
64514,36598
64506,36597
64498,36595
64491,36592
64484,36589
64477,36585
64471,36581
64466,36575
64460,36570
64456,36563
64452,36557
64448,36550
64446,36543
64444,36535
64443,36527
64442,36520
64442,36362
64443,36355
64444,36347
64446,36339
64448,36332
64452,36325
64456,36319
64460,36312
64466,36307
64471,36301
64477,36297
64484,36293
64491,36290
64498,36287
64506,36285
64514,36284
64521,36284
64876,36284
64883,36284
Z" /> 
<path style="fill:#000000; fill-opacity:1.0; 
stroke:#000000; stroke-width:0; stroke-opacity:1; 
stroke-linecap:round; stroke-linejoin:round;fill-rule:evenodd;"
d="M 64883,35792
64891,35793
64898,35795
64906,35797
64913,35801
64919,35805
64926,35809
64931,35814
64936,35820
64941,35826
64945,35833
64948,35840
64951,35847
64953,35855
64954,35862
64954,35870
64954,36028
64954,36035
64953,36043
64951,36050
64948,36058
64945,36065
64941,36071
64936,36078
64931,36083
64926,36088
64919,36093
64913,36097
64906,36100
64898,36103
64891,36105
64883,36106
64876,36106
64521,36106
64514,36106
64506,36105
64498,36103
64491,36100
64484,36097
64477,36093
64471,36088
64466,36083
64460,36078
64456,36071
64452,36065
64448,36058
64446,36050
64444,36043
64443,36035
64442,36028
64442,35870
64443,35862
64444,35855
64446,35847
64448,35840
64452,35833
64456,35826
64460,35820
64466,35814
64471,35809
64477,35805
64484,35801
64491,35797
64498,35795
64506,35793
64514,35792
64521,35791
64876,35791
64883,35792
Z" /> 
<path style="fill:#000000; fill-opacity:1.0; 
stroke:#000000; stroke-width:0; stroke-opacity:1; 
stroke-linecap:round; stroke-linejoin:round;fill-rule:evenodd;"
d="M 66283,38016
66292,38018
66302,38020
66311,38023
66320,38027
66328,38032
66336,38038
66343,38045
66349,38052
66355,38060
66360,38068
66364,38077
66367,38086
66370,38095
66371,38105
66372,38114
66372,38744
66371,38754
66370,38763
66367,38773
66364,38782
66360,38791
66355,38799
66349,38807
66343,38814
66336,38820
66328,38826
66320,38831
66311,38835
66302,38838
66292,38841
66283,38842
66273,38843
65289,38843
65279,38842
65270,38841
65260,38838
65251,38835
65243,38831
65234,38826
65227,38820
65219,38814
65213,38807
65207,38799
65202,38791
65198,38782
65195,38773
65192,38763
65191,38754
65191,38744
65191,38114
65191,38105
65192,38095
65195,38086
65198,38077
65202,38068
65207,38060
65213,38052
65219,38045
65227,38038
65234,38032
65243,38027
65251,38023
65260,38020
65270,38018
65279,38016
65289,38016
66273,38016
66283,38016
Z" /> 
<path style="fill:#000000; fill-opacity:1.0; 
stroke:#000000; stroke-width:0; stroke-opacity:1; 
stroke-linecap:round; stroke-linejoin:round;fill-rule:evenodd;"
d="M 66283,34532
66292,34533
66302,34536
66311,34539
66320,34543
66328,34548
66336,34554
66343,34560
66349,34568
66355,34575
66360,34584
66364,34592
66367,34601
66370,34611
66371,34620
66372,34630
66372,35260
66371,35270
66370,35279
66367,35288
66364,35298
66360,35306
66355,35315
66349,35322
66343,35329
66336,35336
66328,35342
66320,35347
66311,35351
66302,35354
66292,35356
66283,35358
66273,35358
65289,35358
65279,35358
65270,35356
65260,35354
65251,35351
65243,35347
65234,35342
65227,35336
65219,35329
65213,35322
65207,35315
65202,35306
65198,35298
65195,35288
65192,35279
65191,35270
65191,35260
65191,34630
65191,34620
65192,34611
65195,34601
65198,34592
65202,34584
65207,34575
65213,34568
65219,34560
65227,34554
65234,34548
65243,34543
65251,34539
65260,34536
65270,34533
65279,34532
65289,34532
66273,34532
66283,34532
Z" /> 
</g>
<g >
</g>
<g style="fill:#000000; fill-opacity:1.0; 
stroke:#000000; stroke-width:0; stroke-opacity:1; 
stroke-linecap:round; stroke-linejoin:round;">
<path style="fill:#000000; fill-opacity:1.0; 
stroke:#000000; stroke-width:0; stroke-opacity:1; 
stroke-linecap:round; stroke-linejoin:round;fill-rule:evenodd;"
d="M 75679,54684
75689,54685
75698,54688
75707,54691
75716,54695
75724,54700
75732,54706
75739,54712
75746,54720
75751,54727
75756,54736
75761,54744
75764,54753
75766,54763
75768,54772
75768,54782
75768,55766
75768,55776
75766,55785
75764,55795
75761,55804
75756,55813
75751,55821
75746,55829
75739,55836
75732,55842
75724,55848
75716,55853
75707,55857
75698,55860
75689,55863
75679,55864
75670,55865
75040,55865
75030,55864
75021,55863
75011,55860
75002,55857
74993,55853
74985,55848
74977,55842
74970,55836
74964,55829
74958,55821
74953,55813
74949,55804
74946,55795
74943,55785
74942,55776
74941,55766
74941,54782
74942,54772
74943,54763
74946,54753
74949,54744
74953,54736
74958,54727
74964,54720
74970,54712
74977,54706
74985,54700
74993,54695
75002,54691
75011,54688
75021,54685
75030,54684
75040,54684
75670,54684
75679,54684
Z" /> 
<path style="fill:#000000; fill-opacity:1.0; 
stroke:#000000; stroke-width:0; stroke-opacity:1; 
stroke-linecap:round; stroke-linejoin:round;fill-rule:evenodd;"
d="M 72195,54684
72205,54685
72214,54688
72223,54691
72232,54695
72240,54700
72248,54706
72255,54712
72261,54720
72267,54727
72272,54736
72276,54744
72280,54753
72282,54763
72283,54772
72284,54782
72284,55766
72283,55776
72282,55785
72280,55795
72276,55804
72272,55813
72267,55821
72261,55829
72255,55836
72248,55842
72240,55848
72232,55853
72223,55857
72214,55860
72205,55863
72195,55864
72185,55865
71555,55865
71546,55864
71536,55863
71527,55860
71518,55857
71509,55853
71501,55848
71493,55842
71486,55836
71479,55829
71474,55821
71469,55813
71465,55804
71461,55795
71459,55785
71458,55776
71457,55766
71457,54782
71458,54772
71459,54763
71461,54753
71465,54744
71469,54736
71474,54727
71479,54720
71486,54712
71493,54706
71501,54700
71509,54695
71518,54691
71527,54688
71536,54685
71546,54684
71555,54684
72185,54684
72195,54684
Z" /> 
<path style="fill:#000000; fill-opacity:1.0; 
stroke:#000000; stroke-width:0; stroke-opacity:1; 
stroke-linecap:round; stroke-linejoin:round;fill-rule:evenodd;"
d="M 74437,53936
74445,53937
74452,53939
74460,53941
74467,53945
74473,53949
74479,53953
74485,53959
74490,53964
74495,53970
74499,53977
74502,53984
74505,53991
74507,53999
74508,54007
74508,54014
74508,54369
74508,54376
74507,54384
74505,54391
74502,54399
74499,54406
74495,54412
74490,54419
74485,54424
74479,54429
74473,54434
74467,54438
74460,54441
74452,54444
74445,54446
74437,54447
74430,54447
74272,54447
74264,54447
74257,54446
74249,54444
74242,54441
74235,54438
74228,54434
74222,54429
74216,54424
74211,54419
74207,54412
74203,54406
74199,54399
74197,54391
74195,54384
74194,54376
74193,54369
74193,54014
74194,54007
74195,53999
74197,53991
74199,53984
74203,53977
74207,53970
74211,53964
74216,53959
74222,53953
74228,53949
74235,53945
74242,53941
74249,53939
74257,53937
74264,53936
74272,53935
74430,53935
74437,53936
Z" /> 
<path style="fill:#000000; fill-opacity:1.0; 
stroke:#000000; stroke-width:0; stroke-opacity:1; 
stroke-linecap:round; stroke-linejoin:round;fill-rule:evenodd;"
d="M 73945,53936
73953,53937
73960,53939
73968,53941
73974,53945
73981,53949
73987,53953
73993,53959
73998,53964
74003,53970
74007,53977
74010,53984
74013,53991
74015,53999
74016,54007
74016,54014
74016,54369
74016,54376
74015,54384
74013,54391
74010,54399
74007,54406
74003,54412
73998,54419
73993,54424
73987,54429
73981,54434
73974,54438
73968,54441
73960,54444
73953,54446
73945,54447
73937,54447
73780,54447
73772,54447
73765,54446
73757,54444
73750,54441
73743,54438
73736,54434
73730,54429
73724,54424
73719,54419
73714,54412
73710,54406
73707,54399
73705,54391
73703,54384
73702,54376
73701,54369
73701,54014
73702,54007
73703,53999
73705,53991
73707,53984
73710,53977
73714,53970
73719,53964
73724,53959
73730,53953
73736,53949
73743,53945
73750,53941
73757,53939
73765,53937
73772,53936
73780,53935
73937,53935
73945,53936
Z" /> 
<path style="fill:#000000; fill-opacity:1.0; 
stroke:#000000; stroke-width:0; stroke-opacity:1; 
stroke-linecap:round; stroke-linejoin:round;fill-rule:evenodd;"
d="M 73453,53936
73461,53937
73468,53939
73475,53941
73482,53945
73489,53949
73495,53953
73501,53959
73506,53964
73511,53970
73515,53977
73518,53984
73521,53991
73522,53999
73524,54007
73524,54014
73524,54369
73524,54376
73522,54384
73521,54391
73518,54399
73515,54406
73511,54412
73506,54419
73501,54424
73495,54429
73489,54434
73482,54438
73475,54441
73468,54444
73461,54446
73453,54447
73445,54447
73288,54447
73280,54447
73272,54446
73265,54444
73258,54441
73251,54438
73244,54434
73238,54429
73232,54424
73227,54419
73222,54412
73218,54406
73215,54399
73212,54391
73211,54384
73209,54376
73209,54369
73209,54014
73209,54007
73211,53999
73212,53991
73215,53984
73218,53977
73222,53970
73227,53964
73232,53959
73238,53953
73244,53949
73251,53945
73258,53941
73265,53939
73272,53937
73280,53936
73288,53935
73445,53935
73453,53936
Z" /> 
<path style="fill:#000000; fill-opacity:1.0; 
stroke:#000000; stroke-width:0; stroke-opacity:1; 
stroke-linecap:round; stroke-linejoin:round;fill-rule:evenodd;"
d="M 72961,53936
72968,53937
72976,53939
72983,53941
72990,53945
72997,53949
73003,53953
73009,53959
73014,53964
73019,53970
73023,53977
73026,53984
73028,53991
73030,53999
73031,54007
73032,54014
73032,54369
73031,54376
73030,54384
73028,54391
73026,54399
73023,54406
73019,54412
73014,54419
73009,54424
73003,54429
72997,54434
72990,54438
72983,54441
72976,54444
72968,54446
72961,54447
72953,54447
72796,54447
72788,54447
72780,54446
72773,54444
72766,54441
72759,54438
72752,54434
72746,54429
72740,54424
72735,54419
72730,54412
72726,54406
72723,54399
72720,54391
72718,54384
72717,54376
72717,54369
72717,54014
72717,54007
72718,53999
72720,53991
72723,53984
72726,53977
72730,53970
72735,53964
72740,53959
72746,53953
72752,53949
72759,53945
72766,53941
72773,53939
72780,53937
72788,53936
72796,53935
72953,53935
72961,53936
Z" /> 
</g>
<g >
</g>
<g style="fill:#000000; fill-opacity:1.0; 
stroke:#000000; stroke-width:0; stroke-opacity:1; 
stroke-linecap:round; stroke-linejoin:round;">
<path style="fill:#000000; fill-opacity:1.0; 
stroke:#000000; stroke-width:0; stroke-opacity:1; 
stroke-linecap:round; stroke-linejoin:round;fill-rule:evenodd;"
d="M 66624,54684
66634,54685
66643,54688
66652,54691
66661,54695
66669,54700
66677,54706
66684,54712
66691,54720
66696,54727
66701,54736
66705,54744
66709,54753
66711,54763
66712,54772
66713,54782
66713,55766
66712,55776
66711,55785
66709,55795
66705,55804
66701,55813
66696,55821
66691,55829
66684,55836
66677,55842
66669,55848
66661,55853
66652,55857
66643,55860
66634,55863
66624,55864
66615,55865
65985,55865
65975,55864
65965,55863
65956,55860
65947,55857
65938,55853
65930,55848
65922,55842
65915,55836
65909,55829
65903,55821
65898,55813
65894,55804
65890,55795
65888,55785
65887,55776
65886,55766
65886,54782
65887,54772
65888,54763
65890,54753
65894,54744
65898,54736
65903,54727
65909,54720
65915,54712
65922,54706
65930,54700
65938,54695
65947,54691
65956,54688
65965,54685
65975,54684
65985,54684
66615,54684
66624,54684
Z" /> 
<path style="fill:#000000; fill-opacity:1.0; 
stroke:#000000; stroke-width:0; stroke-opacity:1; 
stroke-linecap:round; stroke-linejoin:round;fill-rule:evenodd;"
d="M 63140,54684
63149,54685
63159,54688
63168,54691
63177,54695
63185,54700
63193,54706
63200,54712
63206,54720
63212,54727
63217,54736
63221,54744
63224,54753
63227,54763
63228,54772
63229,54782
63229,55766
63228,55776
63227,55785
63224,55795
63221,55804
63217,55813
63212,55821
63206,55829
63200,55836
63193,55842
63185,55848
63177,55853
63168,55857
63159,55860
63149,55863
63140,55864
63130,55865
62500,55865
62491,55864
62481,55863
62472,55860
62463,55857
62454,55853
62446,55848
62438,55842
62431,55836
62424,55829
62419,55821
62414,55813
62409,55804
62406,55795
62404,55785
62402,55776
62402,55766
62402,54782
62402,54772
62404,54763
62406,54753
62409,54744
62414,54736
62419,54727
62424,54720
62431,54712
62438,54706
62446,54700
62454,54695
62463,54691
62472,54688
62481,54685
62491,54684
62500,54684
63130,54684
63140,54684
Z" /> 
<path style="fill:#000000; fill-opacity:1.0; 
stroke:#000000; stroke-width:0; stroke-opacity:1; 
stroke-linecap:round; stroke-linejoin:round;fill-rule:evenodd;"
d="M 65382,53936
65390,53937
65397,53939
65405,53941
65411,53945
65418,53949
65424,53953
65430,53959
65435,53964
65440,53970
65444,53977
65447,53984
65450,53991
65452,53999
65453,54007
65453,54014
65453,54369
65453,54376
65452,54384
65450,54391
65447,54399
65444,54406
65440,54412
65435,54419
65430,54424
65424,54429
65418,54434
65411,54438
65405,54441
65397,54444
65390,54446
65382,54447
65374,54447
65217,54447
65209,54447
65202,54446
65194,54444
65187,54441
65180,54438
65173,54434
65167,54429
65161,54424
65156,54419
65151,54412
65147,54406
65144,54399
65142,54391
65140,54384
65139,54376
65138,54369
65138,54014
65139,54007
65140,53999
65142,53991
65144,53984
65147,53977
65151,53970
65156,53964
65161,53959
65167,53953
65173,53949
65180,53945
65187,53941
65194,53939
65202,53937
65209,53936
65217,53935
65374,53935
65382,53936
Z" /> 
<path style="fill:#000000; fill-opacity:1.0; 
stroke:#000000; stroke-width:0; stroke-opacity:1; 
stroke-linecap:round; stroke-linejoin:round;fill-rule:evenodd;"
d="M 64890,53936
64898,53937
64905,53939
64912,53941
64919,53945
64926,53949
64932,53953
64938,53959
64943,53964
64948,53970
64952,53977
64955,53984
64958,53991
64959,53999
64961,54007
64961,54014
64961,54369
64961,54376
64959,54384
64958,54391
64955,54399
64952,54406
64948,54412
64943,54419
64938,54424
64932,54429
64926,54434
64919,54438
64912,54441
64905,54444
64898,54446
64890,54447
64882,54447
64725,54447
64717,54447
64709,54446
64702,54444
64695,54441
64688,54438
64681,54434
64675,54429
64669,54424
64664,54419
64659,54412
64655,54406
64652,54399
64649,54391
64648,54384
64646,54376
64646,54369
64646,54014
64646,54007
64648,53999
64649,53991
64652,53984
64655,53977
64659,53970
64664,53964
64669,53959
64675,53953
64681,53949
64688,53945
64695,53941
64702,53939
64709,53937
64717,53936
64725,53935
64882,53935
64890,53936
Z" /> 
<path style="fill:#000000; fill-opacity:1.0; 
stroke:#000000; stroke-width:0; stroke-opacity:1; 
stroke-linecap:round; stroke-linejoin:round;fill-rule:evenodd;"
d="M 64398,53936
64405,53937
64413,53939
64420,53941
64427,53945
64434,53949
64440,53953
64446,53959
64451,53964
64456,53970
64460,53977
64463,53984
64465,53991
64467,53999
64468,54007
64469,54014
64469,54369
64468,54376
64467,54384
64465,54391
64463,54399
64460,54406
64456,54412
64451,54419
64446,54424
64440,54429
64434,54434
64427,54438
64420,54441
64413,54444
64405,54446
64398,54447
64390,54447
64233,54447
64225,54447
64217,54446
64210,54444
64203,54441
64196,54438
64189,54434
64183,54429
64177,54424
64172,54419
64167,54412
64163,54406
64160,54399
64157,54391
64155,54384
64154,54376
64154,54369
64154,54014
64154,54007
64155,53999
64157,53991
64160,53984
64163,53977
64167,53970
64172,53964
64177,53959
64183,53953
64189,53949
64196,53945
64203,53941
64210,53939
64217,53937
64225,53936
64233,53935
64390,53935
64398,53936
Z" /> 
<path style="fill:#000000; fill-opacity:1.0; 
stroke:#000000; stroke-width:0; stroke-opacity:1; 
stroke-linecap:round; stroke-linejoin:round;fill-rule:evenodd;"
d="M 63906,53936
63913,53937
63921,53939
63928,53941
63935,53945
63942,53949
63948,53953
63954,53959
63959,53964
63963,53970
63967,53977
63971,53984
63973,53991
63975,53999
63976,54007
63977,54014
63977,54369
63976,54376
63975,54384
63973,54391
63971,54399
63967,54406
63963,54412
63959,54419
63954,54424
63948,54429
63942,54434
63935,54438
63928,54441
63921,54444
63913,54446
63906,54447
63898,54447
63741,54447
63733,54447
63725,54446
63718,54444
63710,54441
63703,54438
63697,54434
63691,54429
63685,54424
63680,54419
63675,54412
63671,54406
63668,54399
63665,54391
63663,54384
63662,54376
63662,54369
63662,54014
63662,54007
63663,53999
63665,53991
63668,53984
63671,53977
63675,53970
63680,53964
63685,53959
63691,53953
63697,53949
63703,53945
63710,53941
63718,53939
63725,53937
63733,53936
63741,53935
63898,53935
63906,53936
Z" /> 
</g>
<g >
</g>
<g style="fill:#000000; fill-opacity:1.0; 
stroke:#000000; stroke-width:0; stroke-opacity:1; 
stroke-linecap:round; stroke-linejoin:round;">
</g>
<g style="fill:#000000; fill-opacity:1.0; 
stroke:#000000; stroke-width:551.181; stroke-opacity:1; 
stroke-linecap:round; stroke-linejoin:round;">
</g>
<g style="fill:#000000; fill-opacity:0.0; 
stroke:#000000; stroke-width:551.181; stroke-opacity:1; 
stroke-linecap:round; stroke-linejoin:round;">
<path d="M74592 46308
L74907 46308
" />
<path d="M74592 47095
L74907 47095
" />
<path d="M74592 47883
L74907 47883
" />
<path d="M74592 48670
L74907 48670
" />
</g>
<g >
</g>
<g style="fill:#000000; fill-opacity:0.0; 
stroke:#000000; stroke-width:551.181; stroke-opacity:1; 
stroke-linecap:round; stroke-linejoin:round;">
<path d="M65537 46308
L65852 46308
" />
<path d="M65537 47095
L65852 47095
" />
<path d="M65537 47883
L65852 47883
" />
<path d="M65537 48670
L65852 48670
" />
</g>
<g >
</g>
<g style="fill:#000000; fill-opacity:0.0; 
stroke:#000000; stroke-width:551.181; stroke-opacity:1; 
stroke-linecap:round; stroke-linejoin:round;">
<path d="M56481 48670
L56796 48670
" />
<path d="M56481 47883
L56796 47883
" />
<path d="M56481 47095
L56796 47095
" />
<path d="M56481 46308
L56796 46308
" />
</g>
<g >
</g>
<g style="fill:#000000; fill-opacity:0.0; 
stroke:#000000; stroke-width:551.181; stroke-opacity:1; 
stroke-linecap:round; stroke-linejoin:round;">
</g>
<g style="fill:#000000; fill-opacity:0.0; 
stroke:#000000; stroke-width:0; stroke-opacity:1; 
stroke-linecap:round; stroke-linejoin:round;">
</g>
<g style="fill:#000000; fill-opacity:1.0; 
stroke:#000000; stroke-width:0; stroke-opacity:1; 
stroke-linecap:round; stroke-linejoin:round;">
<path style="fill:#000000; fill-opacity:1.0; 
stroke:#000000; stroke-width:0; stroke-opacity:1; 
stroke-linecap:round; stroke-linejoin:round;fill-rule:evenodd;"
d="M 54851,53936
54858,53937
54866,53939
54873,53941
54880,53945
54887,53949
54893,53953
54899,53959
54904,53964
54908,53970
54912,53977
54916,53984
54918,53991
54920,53999
54921,54007
54922,54014
54922,54369
54921,54376
54920,54384
54918,54391
54916,54399
54912,54406
54908,54412
54904,54419
54899,54424
54893,54429
54887,54434
54880,54438
54873,54441
54866,54444
54858,54446
54851,54447
54843,54447
54685,54447
54678,54447
54670,54446
54663,54444
54655,54441
54648,54438
54642,54434
54635,54429
54630,54424
54625,54419
54620,54412
54616,54406
54613,54399
54610,54391
54608,54384
54607,54376
54607,54369
54607,54014
54607,54007
54608,53999
54610,53991
54613,53984
54616,53977
54620,53970
54625,53964
54630,53959
54635,53953
54642,53949
54648,53945
54655,53941
54663,53939
54670,53937
54678,53936
54685,53935
54843,53935
54851,53936
Z" /> 
<path style="fill:#000000; fill-opacity:1.0; 
stroke:#000000; stroke-width:0; stroke-opacity:1; 
stroke-linecap:round; stroke-linejoin:round;fill-rule:evenodd;"
d="M 55343,53936
55350,53937
55358,53939
55365,53941
55372,53945
55379,53949
55385,53953
55391,53959
55396,53964
55400,53970
55404,53977
55408,53984
55410,53991
55412,53999
55413,54007
55414,54014
55414,54369
55413,54376
55412,54384
55410,54391
55408,54399
55404,54406
55400,54412
55396,54419
55391,54424
55385,54429
55379,54434
55372,54438
55365,54441
55358,54444
55350,54446
55343,54447
55335,54447
55178,54447
55170,54447
55162,54446
55155,54444
55147,54441
55140,54438
55134,54434
55128,54429
55122,54424
55117,54419
55112,54412
55108,54406
55105,54399
55102,54391
55100,54384
55099,54376
55099,54369
55099,54014
55099,54007
55100,53999
55102,53991
55105,53984
55108,53977
55112,53970
55117,53964
55122,53959
55128,53953
55134,53949
55140,53945
55147,53941
55155,53939
55162,53937
55170,53936
55178,53935
55335,53935
55343,53936
Z" /> 
<path style="fill:#000000; fill-opacity:1.0; 
stroke:#000000; stroke-width:0; stroke-opacity:1; 
stroke-linecap:round; stroke-linejoin:round;fill-rule:evenodd;"
d="M 55835,53936
55842,53937
55850,53939
55857,53941
55864,53945
55871,53949
55877,53953
55883,53959
55888,53964
55893,53970
55897,53977
55900,53984
55902,53991
55904,53999
55905,54007
55906,54014
55906,54369
55905,54376
55904,54384
55902,54391
55900,54399
55897,54406
55893,54412
55888,54419
55883,54424
55877,54429
55871,54434
55864,54438
55857,54441
55850,54444
55842,54446
55835,54447
55827,54447
55670,54447
55662,54447
55654,54446
55647,54444
55640,54441
55633,54438
55626,54434
55620,54429
55614,54424
55609,54419
55604,54412
55600,54406
55597,54399
55594,54391
55592,54384
55591,54376
55591,54369
55591,54014
55591,54007
55592,53999
55594,53991
55597,53984
55600,53977
55604,53970
55609,53964
55614,53959
55620,53953
55626,53949
55633,53945
55640,53941
55647,53939
55654,53937
55662,53936
55670,53935
55827,53935
55835,53936
Z" /> 
<path style="fill:#000000; fill-opacity:1.0; 
stroke:#000000; stroke-width:0; stroke-opacity:1; 
stroke-linecap:round; stroke-linejoin:round;fill-rule:evenodd;"
d="M 56327,53936
56335,53937
56342,53939
56349,53941
56356,53945
56363,53949
56369,53953
56375,53959
56380,53964
56385,53970
56389,53977
56392,53984
56395,53991
56396,53999
56398,54007
56398,54014
56398,54369
56398,54376
56396,54384
56395,54391
56392,54399
56389,54406
56385,54412
56380,54419
56375,54424
56369,54429
56363,54434
56356,54438
56349,54441
56342,54444
56335,54446
56327,54447
56319,54447
56162,54447
56154,54447
56146,54446
56139,54444
56132,54441
56125,54438
56118,54434
56112,54429
56106,54424
56101,54419
56096,54412
56092,54406
56089,54399
56086,54391
56085,54384
56083,54376
56083,54369
56083,54014
56083,54007
56085,53999
56086,53991
56089,53984
56092,53977
56096,53970
56101,53964
56106,53959
56112,53953
56118,53949
56125,53945
56132,53941
56139,53939
56146,53937
56154,53936
56162,53935
56319,53935
56327,53936
Z" /> 
<path style="fill:#000000; fill-opacity:1.0; 
stroke:#000000; stroke-width:0; stroke-opacity:1; 
stroke-linecap:round; stroke-linejoin:round;fill-rule:evenodd;"
d="M 54085,54684
54094,54685
54104,54688
54113,54691
54122,54695
54130,54700
54138,54706
54145,54712
54151,54720
54157,54727
54162,54736
54166,54744
54169,54753
54172,54763
54173,54772
54174,54782
54174,55766
54173,55776
54172,55785
54169,55795
54166,55804
54162,55813
54157,55821
54151,55829
54145,55836
54138,55842
54130,55848
54122,55853
54113,55857
54104,55860
54094,55863
54085,55864
54075,55865
53445,55865
53436,55864
53426,55863
53417,55860
53408,55857
53399,55853
53391,55848
53383,55842
53376,55836
53369,55829
53363,55821
53358,55813
53354,55804
53351,55795
53349,55785
53347,55776
53347,55766
53347,54782
53347,54772
53349,54763
53351,54753
53354,54744
53358,54736
53363,54727
53369,54720
53376,54712
53383,54706
53391,54700
53399,54695
53408,54691
53417,54688
53426,54685
53436,54684
53445,54684
54075,54684
54085,54684
Z" /> 
<path style="fill:#000000; fill-opacity:1.0; 
stroke:#000000; stroke-width:0; stroke-opacity:1; 
stroke-linecap:round; stroke-linejoin:round;fill-rule:evenodd;"
d="M 57569,54684
57579,54685
57588,54688
57597,54691
57606,54695
57614,54700
57622,54706
57629,54712
57636,54720
57641,54727
57646,54736
57650,54744
57654,54753
57656,54763
57657,54772
57658,54782
57658,55766
57657,55776
57656,55785
57654,55795
57650,55804
57646,55813
57641,55821
57636,55829
57629,55836
57622,55842
57614,55848
57606,55853
57597,55857
57588,55860
57579,55863
57569,55864
57559,55865
56930,55865
56920,55864
56910,55863
56901,55860
56892,55857
56883,55853
56875,55848
56867,55842
56860,55836
56853,55829
56848,55821
56843,55813
56839,55804
56835,55795
56833,55785
56832,55776
56831,55766
56831,54782
56832,54772
56833,54763
56835,54753
56839,54744
56843,54736
56848,54727
56853,54720
56860,54712
56867,54706
56875,54700
56883,54695
56892,54691
56901,54688
56910,54685
56920,54684
56930,54684
57559,54684
57569,54684
Z" /> 
</g>
<g >
</g>
<g >
</g>
<g style="fill:#000000; fill-opacity:1.0; 
stroke:#000000; stroke-width:0; stroke-opacity:1; 
stroke-linecap:round; stroke-linejoin:round;">
</g>
<g style="fill:#000000; fill-opacity:1.0; 
stroke:#000000; stroke-width:98.4252; stroke-opacity:1; 
stroke-linecap:round; stroke-linejoin:round;">
</g>
<g style="fill:#000000; fill-opacity:0.0; 
stroke:#000000; stroke-width:98.4252; stroke-opacity:1; 
stroke-linecap:round; stroke-linejoin:round;">
<path d="M55751 51144
L55751 48613
" />
<path d="M54764 54191
L54764 52130
" />
<path d="M56481 47883
L56639 47883
" />
<path d="M55751 48613
L56481 47883
" />
<path d="M54764 52130
L55751 51144
" />
<path d="M64806 51144
L64806 48613
" />
<path d="M73861 51144
L73861 48613
" />
<path d="M64806 48613
L65537 47883
" />
<path d="M73861 48613
L74592 47883
" />
<path d="M65537 47883
L65694 47883
" />
<path d="M74592 47883
L74749 47883
" />
<path d="M63819 52130
L64806 51144
" />
<path d="M72874 52130
L73861 51144
" />
<path d="M63819 54191
L63819 52130
" />
<path d="M72874 54191
L72874 52130
" />
<path d="M64698 37425
L62637 37425
" />
<path d="M61651 36439
L59120 36439
" />
<path d="M58390 35708
L58390 35550
" />
<path d="M59120 36439
L58390 35708
" />
<path d="M62637 37425
L61651 36439
" />
<path d="M57200 46711
L56796 46308
" />
<path d="M57200 52445
L57200 46711
" />
<path d="M55748 53896
L57200 52445
" />
<path d="M56796 46308
L56639 46308
" />
<path d="M55748 54191
L55748 53896
" />
<path d="M65852 46308
L65694 46308
" />
<path d="M74907 46308
L74749 46308
" />
<path d="M64804 53896
L66255 52445
" />
<path d="M73859 53896
L75310 52445
" />
<path d="M64804 54191
L64804 53896
" />
<path d="M73859 54191
L73859 53896
" />
<path d="M66255 46711
L65852 46308
" />
<path d="M75310 46711
L74907 46308
" />
<path d="M66255 52445
L66255 46711
" />
<path d="M75310 52445
L75310 46711
" />
<path d="M56815 35393
L56815 35550
" />
<path d="M64403 36441
L62952 34989
" />
<path d="M62952 34989
L57218 34989
" />
<path d="M57218 34989
L56815 35393
" />
<path d="M64698 36441
L64403 36441
" />
<path d="M55256 53841
L56252 52845
" />
<path d="M55256 54191
L55256 53841
" />
<path d="M56252 52845
L56252 49584
" />
<path d="M56639 49197
L56639 48670
" />
<path d="M56252 49584
L56639 49197
" />
<path d="M65307 49584
L65694 49197
" />
<path d="M74363 49584
L74749 49197
" />
<path d="M65307 52845
L65307 49584
" />
<path d="M74363 52845
L74363 49584
" />
<path d="M64311 54191
L64311 53841
" />
<path d="M73367 54191
L73367 53841
" />
<path d="M65694 49197
L65694 48670
" />
<path d="M74749 49197
L74749 48670
" />
<path d="M64311 53841
L65307 52845
" />
<path d="M73367 53841
L74363 52845
" />
<path d="M59704 35550
L59177 35550
" />
<path d="M60091 35937
L59704 35550
" />
<path d="M63352 35937
L60091 35937
" />
<path d="M64348 36933
L63352 35937
" />
<path d="M64698 36933
L64348 36933
" />
</g>
<g >
</g>
<g style="fill:#000000; fill-opacity:0.0; 
stroke:#000000; stroke-width:98.4252; stroke-opacity:1; 
stroke-linecap:round; stroke-linejoin:round;">
</g>
<g style="fill:#000000; fill-opacity:1.0; 
stroke:#000000; stroke-width:100; stroke-opacity:1; 
stroke-linecap:round; stroke-linejoin:round;">
<path style="fill:#000000; fill-opacity:1.0; 
stroke:#000000; stroke-width:100; stroke-opacity:1; 
stroke-linecap:round; stroke-linejoin:round;fill-rule:evenodd;"
d="M 59037,56678
52076,56678
52076,54782
53096,54782
53096,55766
53102,55834
53122,55900
53155,55960
53198,56013
53251,56057
53311,56089
53377,56109
53445,56116
54075,56116
54143,56109
54209,56089
54269,56057
54322,56013
54366,55960
54398,55900
54418,55834
54425,55766
54425,54782
56580,54782
56580,55766
56587,55834
56606,55900
56639,55960
56682,56013
56735,56057
56796,56089
56861,56109
56930,56116
57559,56116
57628,56109
57693,56089
57754,56057
57807,56013
57850,55960
57882,55900
57902,55834
57909,55766
57909,54782
57902,54714
57882,54648
57850,54588
57807,54535
57754,54491
57693,54459
57628,54439
57559,54432
56930,54432
56861,54439
56796,54459
56735,54491
56682,54535
56639,54588
56606,54648
56587,54714
56580,54782
54425,54782
54418,54714
54398,54648
54366,54588
54322,54535
54269,54491
54209,54459
54143,54439
54075,54432
53445,54432
53377,54439
53311,54459
53251,54491
53198,54535
53155,54588
53122,54648
53102,54714
53096,54782
52076,54782
52076,54014
54355,54014
54355,54369
54362,54433
54381,54495
54411,54552
54452,54602
54502,54643
54559,54673
54621,54692
54685,54699
54843,54699
54907,54692
54969,54673
55010,54651
55051,54673
55113,54692
55178,54699
55335,54699
55399,54692
55461,54673
55502,54651
55543,54673
55605,54692
55670,54699
55827,54699
55892,54692
55953,54673
55965,54667
55987,54679
56034,54694
56083,54699
56128,54697
56191,54635
56191,54241
56291,54241
56291,54635
56353,54697
56398,54699
56447,54694
56494,54679
56538,54656
56576,54625
56607,54587
56630,54543
56644,54496
56649,54447
56648,54304
56586,54241
56291,54241
56191,54241
56183,54241
56183,54141
56191,54141
56191,54134
56291,54134
56291,54141
56586,54141
56648,54079
56649,53935
56644,53886
56630,53839
56607,53796
56576,53758
56538,53727
56494,53703
56447,53689
56398,53684
56383,53685
57401,52667
57413,52657
57450,52612
57478,52560
57495,52503
57499,52459
57499,52459
57501,52445
57499,52430
57499,52366
57594,52430
57711,52478
57835,52503
57962,52503
58087,52478
58204,52430
58309,52359
58399,52269
58469,52164
58518,52047
58542,51923
58542,51796
58518,51671
58469,51554
58399,51449
58309,51359
58204,51289
58087,51240
57962,51215
57835,51215
57711,51240
57594,51289
57499,51352
57499,46726
57501,46711
57499,46697
57499,46697
57495,46653
57478,46596
57472,46586
57450,46544
57422,46510
57413,46499
57401,46490
57315,46403
57325,46308
57314,46205
57284,46106
57236,46015
57170,45934
57090,45869
56999,45820
56899,45790
56822,45782
56456,45782
56378,45790
56279,45820
56188,45869
56108,45934
56042,46015
55994,46106
55963,46205
55953,46308
55963,46411
55994,46510
56042,46601
56108,46681
56132,46701
56074,46759
56017,46845
55977,46940
55973,46964
56021,47045
56589,47045
56589,47037
56689,47037
56689,47045
56697,47045
56697,47145
56689,47145
56689,47153
56589,47153
56589,47145
56021,47145
55973,47227
55977,47250
56017,47346
56074,47432
56132,47489
56108,47509
56042,47589
55994,47681
55963,47780
55953,47883
55963,47978
55550,48391
55538,48401
55529,48412
55529,48412
55501,48446
55473,48498
55456,48555
55450,48613
55452,48628
55452,51020
54563,51908
54552,51918
54542,51929
54542,51929
54514,51963
54486,52015
54469,52072
54463,52130
54465,52145
54465,53770
54452,53781
54411,53831
54381,53888
54362,53950
54355,54014
52076,54014
52076,51796
53161,51796
53161,51923
53185,52047
53234,52164
53304,52269
53394,52359
53499,52430
53617,52478
53741,52503
53868,52503
53992,52478
54109,52430
54215,52359
54304,52269
54375,52164
54423,52047
54448,51923
54448,51796
54423,51671
54375,51554
54304,51449
54215,51359
54109,51289
53992,51240
53868,51215
53741,51215
53617,51240
53499,51289
53394,51359
53304,51449
53234,51554
53185,51671
53161,51796
52076,51796
52076,43056
52570,43056
52570,43182
52595,43307
52643,43424
52714,43529
52803,43619
52909,43689
53026,43738
53150,43763
53277,43763
53402,43738
53519,43689
53624,43619
53714,43529
53784,43424
53833,43307
53857,43182
53857,43056
53846,43000
53968,43000
53968,43080
53983,43159
54014,43233
54059,43300
54115,43357
54182,43401
54256,43432
54335,43448
54415,43448
54494,43432
54568,43401
54635,43357
54692,43300
54736,43233
54767,43159
54783,43080
54783,43000
54767,42921
54736,42847
54692,42780
54635,42724
54601,42701
54913,42701
54913,42828
54937,42952
54986,43070
55056,43175
55146,43265
55251,43335
55369,43384
55493,43408
55620,43408
55744,43384
55861,43335
55967,43265
56056,43175
56127,43070
56133,43056
57255,43056
57255,43182
57280,43307
57328,43424
57399,43529
57488,43619
57594,43689
57711,43738
57835,43763
57962,43763
58087,43738
58204,43689
58309,43619
58399,43529
58469,43424
58518,43307
58542,43182
58542,43056
58518,42931
58469,42814
58399,42709
58309,42619
58204,42549
58087,42500
57962,42475
57835,42475
57711,42500
57594,42549
57488,42619
57399,42709
57328,42814
57280,42931
57255,43056
56133,43056
56175,42952
56200,42828
56200,42701
56175,42577
56127,42460
56056,42354
55967,42265
55861,42194
55744,42146
55620,42121
55493,42121
55369,42146
55251,42194
55146,42265
55056,42354
54986,42460
54937,42577
54913,42701
54601,42701
54568,42679
54494,42648
54415,42633
54335,42633
54256,42648
54182,42679
54115,42724
54059,42780
54014,42847
53983,42921
53968,43000
53846,43000
53833,42931
53784,42814
53714,42709
53624,42619
53519,42549
53402,42500
53277,42475
53150,42475
53026,42500
52909,42549
52803,42619
52714,42709
52643,42814
52595,42931
52570,43056
52076,43056
52076,41647
59037,41647
59037,56678
Z" /> 
<path style="fill:#000000; fill-opacity:1.0; 
stroke:#000000; stroke-width:100; stroke-opacity:1; 
stroke-linecap:round; stroke-linejoin:round;fill-rule:evenodd;"
d="M 68092,56678
61131,56678
61131,54782
62151,54782
62151,55766
62157,55834
62177,55900
62210,55960
62253,56013
62306,56057
62367,56089
62432,56109
62500,56116
63130,56116
63198,56109
63264,56089
63325,56057
63378,56013
63421,55960
63453,55900
63473,55834
63480,55766
63480,54782
65635,54782
65635,55766
65642,55834
65662,55900
65694,55960
65737,56013
65790,56057
65851,56089
65916,56109
65985,56116
66615,56116
66683,56109
66748,56089
66809,56057
66862,56013
66905,55960
66938,55900
66957,55834
66964,55766
66964,54782
66957,54714
66938,54648
66905,54588
66862,54535
66809,54491
66748,54459
66683,54439
66615,54432
65985,54432
65916,54439
65851,54459
65790,54491
65737,54535
65694,54588
65662,54648
65642,54714
65635,54782
63480,54782
63473,54714
63453,54648
63421,54588
63378,54535
63325,54491
63264,54459
63198,54439
63130,54432
62500,54432
62432,54439
62367,54459
62306,54491
62253,54535
62210,54588
62177,54648
62157,54714
62151,54782
61131,54782
61131,54014
63411,54014
63411,54369
63417,54433
63436,54495
63466,54552
63507,54602
63557,54643
63614,54673
63676,54692
63741,54699
63898,54699
63962,54692
64024,54673
64065,54651
64106,54673
64168,54692
64233,54699
64390,54699
64455,54692
64516,54673
64557,54651
64599,54673
64660,54692
64725,54699
64882,54699
64947,54692
65009,54673
65020,54667
65042,54679
65089,54694
65138,54699
65183,54697
65246,54635
65246,54241
65346,54241
65346,54635
65408,54697
65453,54699
65502,54694
65549,54679
65593,54656
65631,54625
65662,54587
65685,54543
65700,54496
65704,54447
65703,54304
65641,54241
65346,54241
65246,54241
65238,54241
65238,54141
65246,54141
65246,54134
65346,54134
65346,54141
65641,54141
65703,54079
65704,53935
65700,53886
65685,53839
65662,53796
65631,53758
65593,53727
65549,53703
65502,53689
65453,53684
65438,53685
66456,52667
66468,52657
66505,52612
66533,52560
66550,52503
66554,52459
66554,52459
66556,52445
66554,52430
66554,52366
66649,52430
66766,52478
66891,52503
67017,52503
67142,52478
67259,52430
67364,52359
67454,52269
67524,52164
67573,52047
67598,51923
67598,51796
67573,51671
67524,51554
67454,51449
67364,51359
67259,51289
67142,51240
67017,51215
66891,51215
66766,51240
66649,51289
66554,51352
66554,46726
66556,46711
66554,46697
66554,46697
66550,46653
66533,46596
66527,46586
66505,46544
66477,46510
66468,46499
66456,46490
66370,46403
66380,46308
66370,46205
66339,46106
66291,46015
66225,45934
66145,45869
66054,45820
65955,45790
65877,45782
65511,45782
65434,45790
65334,45820
65243,45869
65163,45934
65097,46015
65049,46106
65019,46205
65008,46308
65019,46411
65049,46510
65097,46601
65163,46681
65188,46701
65130,46759
65072,46845
65032,46940
65028,46964
65076,47045
65644,47045
65644,47037
65744,47037
65744,47045
65752,47045
65752,47145
65744,47145
65744,47153
65644,47153
65644,47145
65076,47145
65028,47227
65032,47250
65072,47346
65130,47432
65188,47489
65163,47509
65097,47589
65049,47681
65019,47780
65008,47883
65018,47978
64605,48391
64593,48401
64584,48412
64584,48412
64556,48446
64528,48498
64511,48555
64505,48613
64507,48628
64507,51020
63618,51908
63607,51918
63597,51929
63597,51929
63569,51963
63541,52015
63524,52072
63519,52130
63520,52145
63520,53770
63507,53781
63466,53831
63436,53888
63417,53950
63411,54014
61131,54014
61131,51796
62216,51796
62216,51923
62240,52047
62289,52164
62359,52269
62449,52359
62555,52430
62672,52478
62796,52503
62923,52503
63047,52478
63164,52430
63270,52359
63359,52269
63430,52164
63478,52047
63503,51923
63503,51796
63478,51671
63430,51554
63359,51449
63270,51359
63164,51289
63047,51240
62923,51215
62796,51215
62672,51240
62555,51289
62449,51359
62359,51449
62289,51554
62240,51671
62216,51796
61131,51796
61131,43056
61625,43056
61625,43182
61650,43307
61698,43424
61769,43529
61859,43619
61964,43689
62081,43738
62205,43763
62332,43763
62457,43738
62574,43689
62679,43619
62769,43529
62839,43424
62888,43307
62913,43182
62913,43056
62902,43000
63023,43000
63023,43080
63038,43159
63069,43233
63114,43300
63171,43357
63237,43401
63311,43432
63390,43448
63470,43448
63549,43432
63623,43401
63690,43357
63747,43300
63791,43233
63822,43159
63838,43080
63838,43000
63822,42921
63791,42847
63747,42780
63690,42724
63656,42701
63968,42701
63968,42828
63992,42952
64041,43070
64111,43175
64201,43265
64306,43335
64424,43384
64548,43408
64675,43408
64799,43384
64916,43335
65022,43265
65111,43175
65182,43070
65188,43056
66310,43056
66310,43182
66335,43307
66383,43424
66454,43529
66544,43619
66649,43689
66766,43738
66891,43763
67017,43763
67142,43738
67259,43689
67364,43619
67454,43529
67524,43424
67573,43307
67598,43182
67598,43056
67573,42931
67524,42814
67454,42709
67364,42619
67259,42549
67142,42500
67017,42475
66891,42475
66766,42500
66649,42549
66544,42619
66454,42709
66383,42814
66335,42931
66310,43056
65188,43056
65230,42952
65255,42828
65255,42701
65230,42577
65182,42460
65111,42354
65022,42265
64916,42194
64799,42146
64675,42121
64548,42121
64424,42146
64306,42194
64201,42265
64111,42354
64041,42460
63992,42577
63968,42701
63656,42701
63623,42679
63549,42648
63470,42633
63390,42633
63311,42648
63237,42679
63171,42724
63114,42780
63069,42847
63038,42921
63023,43000
62902,43000
62888,42931
62839,42814
62769,42709
62679,42619
62574,42549
62457,42500
62332,42475
62205,42475
62081,42500
61964,42549
61859,42619
61769,42709
61698,42814
61650,42931
61625,43056
61131,43056
61131,41647
68092,41647
68092,56678
Z" /> 
<path style="fill:#000000; fill-opacity:1.0; 
stroke:#000000; stroke-width:100; stroke-opacity:1; 
stroke-linecap:round; stroke-linejoin:round;fill-rule:evenodd;"
d="M 77147,56678
70186,56678
70186,54782
71206,54782
71206,55766
71213,55834
71232,55900
71265,55960
71308,56013
71361,56057
71422,56089
71487,56109
71555,56116
72185,56116
72254,56109
72319,56089
72380,56057
72433,56013
72476,55960
72508,55900
72528,55834
72535,55766
72535,54782
74690,54782
74690,55766
74697,55834
74717,55900
74749,55960
74793,56013
74845,56057
74906,56089
74972,56109
75040,56116
75670,56116
75738,56109
75803,56089
75864,56057
75917,56013
75960,55960
75993,55900
76013,55834
76019,55766
76019,54782
76013,54714
75993,54648
75960,54588
75917,54535
75864,54491
75803,54459
75738,54439
75670,54432
75040,54432
74972,54439
74906,54459
74845,54491
74793,54535
74749,54588
74717,54648
74697,54714
74690,54782
72535,54782
72528,54714
72508,54648
72476,54588
72433,54535
72380,54491
72319,54459
72254,54439
72185,54432
71555,54432
71487,54439
71422,54459
71361,54491
71308,54535
71265,54588
71232,54648
71213,54714
71206,54782
70186,54782
70186,54014
72466,54014
72466,54369
72472,54433
72491,54495
72521,54552
72562,54602
72612,54643
72669,54673
72731,54692
72796,54699
72953,54699
73017,54692
73079,54673
73120,54651
73162,54673
73223,54692
73288,54699
73445,54699
73510,54692
73572,54673
73613,54651
73654,54673
73716,54692
73780,54699
73937,54699
74002,54692
74064,54673
74075,54667
74097,54679
74144,54694
74193,54699
74238,54697
74301,54635
74301,54241
74401,54241
74401,54635
74463,54697
74508,54699
74557,54694
74604,54679
74648,54656
74686,54625
74717,54587
74740,54543
74755,54496
74759,54447
74758,54304
74696,54241
74401,54241
74301,54241
74293,54241
74293,54141
74301,54141
74301,54134
74401,54134
74401,54141
74696,54141
74758,54079
74759,53935
74755,53886
74740,53839
74717,53796
74686,53758
74648,53727
74604,53703
74557,53689
74508,53684
74493,53685
75511,52667
75523,52657
75560,52612
75588,52560
75605,52503
75609,52459
75609,52459
75611,52445
75609,52430
75609,52366
75704,52430
75821,52478
75946,52503
76072,52503
76197,52478
76314,52430
76419,52359
76509,52269
76579,52164
76628,52047
76653,51923
76653,51796
76628,51671
76579,51554
76509,51449
76419,51359
76314,51289
76197,51240
76072,51215
75946,51215
75821,51240
75704,51289
75609,51352
75609,46726
75611,46711
75609,46697
75609,46697
75605,46653
75588,46596
75582,46586
75560,46544
75532,46510
75523,46499
75511,46490
75425,46403
75435,46308
75425,46205
75395,46106
75346,46015
75280,45934
75200,45869
75109,45820
75010,45790
74932,45782
74566,45782
74489,45790
74390,45820
74298,45869
74218,45934
74153,46015
74104,46106
74074,46205
74064,46308
74074,46411
74104,46510
74153,46601
74218,46681
74243,46701
74185,46759
74127,46845
74087,46940
74083,46964
74131,47045
74699,47045
74699,47037
74799,47037
74799,47045
74807,47045
74807,47145
74799,47145
74799,47153
74699,47153
74699,47145
74131,47145
74083,47227
74087,47250
74127,47346
74185,47432
74243,47489
74218,47509
74153,47589
74104,47681
74074,47780
74064,47883
74073,47978
73660,48391
73648,48401
73639,48412
73639,48412
73611,48446
73583,48498
73566,48555
73560,48613
73562,48628
73562,51020
72673,51908
72662,51918
72652,51929
72652,51929
72624,51963
72597,52015
72579,52072
72574,52130
72575,52145
72575,53770
72562,53781
72521,53831
72491,53888
72472,53950
72466,54014
70186,54014
70186,51796
71271,51796
71271,51923
71296,52047
71344,52164
71415,52269
71504,52359
71610,52430
71727,52478
71851,52503
71978,52503
72102,52478
72219,52430
72325,52359
72415,52269
72485,52164
72534,52047
72558,51923
72558,51796
72534,51671
72485,51554
72415,51449
72325,51359
72219,51289
72102,51240
71978,51215
71851,51215
71727,51240
71610,51289
71504,51359
71415,51449
71344,51554
71296,51671
71271,51796
70186,51796
70186,43056
70680,43056
70680,43182
70705,43307
70754,43424
70824,43529
70914,43619
71019,43689
71136,43738
71261,43763
71387,43763
71512,43738
71629,43689
71734,43619
71824,43529
71894,43424
71943,43307
71968,43182
71968,43056
71957,43000
72078,43000
72078,43080
72094,43159
72124,43233
72169,43300
72226,43357
72292,43401
72367,43432
72445,43448
72526,43448
72604,43432
72678,43401
72745,43357
72802,43300
72847,43233
72877,43159
72893,43080
72893,43000
72877,42921
72847,42847
72802,42780
72745,42724
72712,42701
73023,42701
73023,42828
73048,42952
73096,43070
73167,43175
73256,43265
73362,43335
73479,43384
73603,43408
73730,43408
73854,43384
73971,43335
74077,43265
74167,43175
74237,43070
74243,43056
75365,43056
75365,43182
75390,43307
75439,43424
75509,43529
75599,43619
75704,43689
75821,43738
75946,43763
76072,43763
76197,43738
76314,43689
76419,43619
76509,43529
76579,43424
76628,43307
76653,43182
76653,43056
76628,42931
76579,42814
76509,42709
76419,42619
76314,42549
76197,42500
76072,42475
75946,42475
75821,42500
75704,42549
75599,42619
75509,42709
75439,42814
75390,42931
75365,43056
74243,43056
74285,42952
74310,42828
74310,42701
74285,42577
74237,42460
74167,42354
74077,42265
73971,42194
73854,42146
73730,42121
73603,42121
73479,42146
73362,42194
73256,42265
73167,42354
73096,42460
73048,42577
73023,42701
72712,42701
72678,42679
72604,42648
72526,42633
72445,42633
72367,42648
72292,42679
72226,42724
72169,42780
72124,42847
72094,42921
72078,43000
71957,43000
71943,42931
71894,42814
71824,42709
71734,42619
71629,42549
71512,42500
71387,42475
71261,42475
71136,42500
71019,42549
70914,42619
70824,42709
70754,42814
70705,42931
70680,43056
70186,43056
70186,41647
77147,41647
77147,56678
Z" /> 
<path style="fill:#000000; fill-opacity:1.0; 
stroke:#000000; stroke-width:100; stroke-opacity:1; 
stroke-linecap:round; stroke-linejoin:round;fill-rule:evenodd;"
d="M 67185,40113
52154,40113
52154,38912
52982,38912
52982,39039
53007,39163
53056,39281
53126,39386
53216,39476
53321,39546
53438,39595
53563,39619
53689,39619
53814,39595
53931,39546
54036,39476
54126,39386
54196,39281
54245,39163
54270,39039
54270,38912
54245,38788
54196,38671
54126,38565
54036,38476
53931,38405
53814,38357
53689,38332
53563,38332
53438,38357
53321,38405
53216,38476
53126,38565
53056,38671
53007,38788
52982,38912
52154,38912
52154,38322
61722,38322
61722,38448
61747,38573
61796,38690
61866,38795
61956,38885
62061,38956
62178,39004
62303,39029
62430,39029
62554,39004
62671,38956
62776,38885
62866,38795
62937,38690
62985,38573
63010,38448
63010,38322
62985,38197
62951,38114
64939,38114
64939,38744
64946,38812
64966,38878
64998,38938
65042,38991
65095,39035
65155,39067
65221,39087
65289,39094
66273,39094
66341,39087
66407,39067
66467,39035
66520,38991
66564,38938
66596,38878
66616,38812
66623,38744
66623,38114
66616,38046
66596,37980
66564,37920
66520,37867
66467,37824
66407,37791
66341,37771
66273,37765
65289,37765
65221,37771
65155,37791
65095,37824
65042,37867
64998,37920
64966,37980
64946,38046
64939,38114
62951,38114
62937,38080
62866,37975
62776,37885
62671,37815
62554,37766
62430,37741
62303,37741
62178,37766
62061,37815
61956,37885
61866,37975
61796,38080
61747,38197
61722,38322
52154,38322
52154,37774
53140,37774
53140,37854
53155,37933
53186,38007
53231,38074
53287,38131
53354,38175
53428,38206
53507,38222
53587,38222
53666,38206
53740,38175
53807,38131
53864,38074
53908,38007
53939,37933
53955,37854
53955,37774
53939,37695
53908,37621
53864,37554
53807,37498
53740,37453
53666,37422
53587,37407
53507,37407
53428,37422
53354,37453
53287,37498
53231,37554
53186,37621
53155,37695
53140,37774
52154,37774
52154,36570
52628,36570
52628,36697
52653,36821
52701,36938
52772,37043
52861,37133
52967,37204
53084,37252
53208,37277
53335,37277
53459,37252
53577,37204
53682,37133
53772,37043
53842,36938
53891,36821
53915,36697
53915,36570
53891,36445
53842,36328
53772,36223
53682,36133
53577,36063
53459,36014
53335,35989
53208,35989
53084,36014
52967,36063
52861,36133
52772,36223
52701,36328
52653,36445
52628,36570
52154,36570
52154,35367
56289,35367
56289,35734
56297,35811
56327,35910
56376,36001
56441,36081
56522,36147
56613,36196
56712,36226
56815,36236
56918,36226
57017,36196
57108,36147
57188,36081
57208,36057
57266,36115
57352,36173
57447,36213
57471,36217
57552,36168
57552,35600
57544,35600
57544,35500
57552,35500
57552,35493
57652,35493
57652,35500
57660,35500
57660,35600
57652,35600
57652,36168
57734,36217
57757,36213
57853,36173
57939,36115
57996,36057
58016,36081
58096,36147
58188,36196
58287,36226
58390,36236
58485,36227
58898,36640
58908,36651
58953,36689
59005,36716
59062,36734
59106,36738
59106,36738
59120,36739
59135,36738
61527,36738
62415,37626
62425,37638
62470,37675
62522,37703
62579,37720
62623,37724
62623,37724
62637,37726
62652,37724
64277,37724
64288,37737
64338,37778
64395,37809
64457,37828
64521,37834
64876,37834
64940,37828
65002,37809
65059,37778
65109,37737
65150,37687
65180,37630
65199,37568
65206,37504
65206,37347
65199,37282
65180,37220
65158,37179
65180,37138
65199,37076
65206,37012
65206,36854
65199,36790
65180,36728
65158,36687
65180,36646
65199,36584
65206,36520
65206,36362
65199,36298
65180,36236
65174,36225
65186,36202
65201,36155
65206,36106
65204,36061
65142,35999
64748,35999
64748,36007
64648,36007
64648,35999
64641,35999
64641,35899
64648,35899
64648,35604
64748,35604
64748,35899
65142,35899
65204,35836
65206,35791
65201,35742
65186,35695
65163,35652
65132,35614
65094,35583
65050,35559
65003,35545
64954,35540
64811,35541
64748,35604
64648,35604
64586,35541
64442,35540
64393,35545
64346,35559
64303,35583
64265,35614
64234,35652
64210,35695
64196,35742
64191,35791
64192,35806
63174,34788
63164,34777
63119,34739
63067,34712
63010,34695
62966,34690
62966,34690
62952,34689
62937,34690
62873,34690
62914,34630
64939,34630
64939,35260
64946,35328
64966,35394
64998,35454
65042,35507
65095,35551
65155,35583
65221,35603
65289,35610
66273,35610
66341,35603
66407,35583
66467,35551
66520,35507
66564,35454
66596,35394
66616,35328
66623,35260
66623,34630
66616,34562
66596,34496
66564,34436
66520,34383
66467,34339
66407,34307
66341,34287
66273,34280
65289,34280
65221,34287
65155,34307
65095,34339
65042,34383
64998,34436
64966,34496
64946,34562
64939,34630
62914,34630
62937,34596
62985,34478
63010,34354
63010,34227
62985,34103
62937,33986
62866,33880
62776,33791
62671,33720
62554,33672
62430,33647
62303,33647
62178,33672
62061,33720
61956,33791
61866,33880
61796,33986
61747,34103
61722,34227
61722,34354
61747,34478
61796,34596
61859,34690
57233,34690
57218,34689
57204,34690
57204,34690
57160,34695
57103,34712
57051,34739
57019,34766
57006,34777
56997,34788
56911,34874
56815,34865
56712,34875
56613,34905
56522,34954
56441,35020
56376,35100
56327,35191
56297,35290
56289,35367
52154,35367
52154,34227
52982,34227
52982,34354
53007,34478
53056,34596
53126,34701
53216,34791
53321,34861
53438,34910
53563,34934
53689,34934
53814,34910
53931,34861
54036,34791
54126,34701
54196,34596
54245,34478
54270,34354
54270,34227
54245,34103
54196,33986
54126,33880
54036,33791
53931,33720
53814,33672
53689,33647
53563,33647
53438,33672
53321,33720
53216,33791
53126,33880
53056,33986
53007,34103
52982,34227
52154,34227
52154,33153
67185,33153
67185,40113
Z" /> 
</g>
</g>
<g style="fill:#FFFFFF; fill-opacity:1.0; 
stroke:#FFFFFF; stroke-width:100; stroke-opacity:1; 
stroke-linecap:round; stroke-linejoin:round;">
</g>
<g style="fill:#FFFFFF; fill-opacity:1.0; 
stroke:#FFFFFF; stroke-width:0; stroke-opacity:1; 
stroke-linecap:round; stroke-linejoin:round;">
<circle cx="50801.3" cy="55394.3" r="197" /> 
</g>
<g style="fill:#FFFFFF; fill-opacity:1.0; 
stroke:#FFFFFF; stroke-width:39.3701; stroke-opacity:1; 
stroke-linecap:round; stroke-linejoin:round;">
</g>
<g style="fill:#FFFFFF; fill-opacity:1.0; 
stroke:#FFFFFF; stroke-width:0; stroke-opacity:1; 
stroke-linecap:round; stroke-linejoin:round;">
<circle cx="50801.3" cy="35644.3" r="197" /> 
</g>
<g style="fill:#FFFFFF; fill-opacity:1.0; 
stroke:#FFFFFF; stroke-width:39.3701; stroke-opacity:1; 
stroke-linecap:round; stroke-linejoin:round;">
</g>
<g style="fill:#FFFFFF; fill-opacity:1.0; 
stroke:#FFFFFF; stroke-width:0; stroke-opacity:1; 
stroke-linecap:round; stroke-linejoin:round;">
<circle cx="79901.3" cy="33944.3" r="197" /> 
</g>
<g style="fill:#FFFFFF; fill-opacity:1.0; 
stroke:#FFFFFF; stroke-width:39.3701; stroke-opacity:1; 
stroke-linecap:round; stroke-linejoin:round;">
</g>
<g style="fill:#FFFFFF; fill-opacity:1.0; 
stroke:#FFFFFF; stroke-width:0; stroke-opacity:1; 
stroke-linecap:round; stroke-linejoin:round;">
<circle cx="78901.3" cy="55994.3" r="197" /> 
</g>
<g style="fill:#FFFFFF; fill-opacity:1.0; 
stroke:#FFFFFF; stroke-width:39.3701; stroke-opacity:1; 
stroke-linecap:round; stroke-linejoin:round;">
</g>
<g style="fill:#FFFFFF; fill-opacity:1.0; 
stroke:#FFFFFF; stroke-width:0; stroke-opacity:1; 
stroke-linecap:round; stroke-linejoin:round;">
<circle cx="59177.6" cy="35550.9" r="196.85" /> 
</g>
<g style="fill:#FFFFFF; fill-opacity:1.0; 
stroke:#FFFFFF; stroke-width:39.3701; stroke-opacity:1; 
stroke-linecap:round; stroke-linejoin:round;">
</g>
<g style="fill:#FFFFFF; fill-opacity:1.0; 
stroke:#FFFFFF; stroke-width:0; stroke-opacity:1; 
stroke-linecap:round; stroke-linejoin:round;">
<circle cx="58390.2" cy="35550.9" r="196.85" /> 
</g>
<g style="fill:#FFFFFF; fill-opacity:1.0; 
stroke:#FFFFFF; stroke-width:39.3701; stroke-opacity:1; 
stroke-linecap:round; stroke-linejoin:round;">
</g>
<g style="fill:#FFFFFF; fill-opacity:1.0; 
stroke:#FFFFFF; stroke-width:0; stroke-opacity:1; 
stroke-linecap:round; stroke-linejoin:round;">
<circle cx="57602.8" cy="35550.9" r="196.85" /> 
</g>
<g style="fill:#FFFFFF; fill-opacity:1.0; 
stroke:#FFFFFF; stroke-width:39.3701; stroke-opacity:1; 
stroke-linecap:round; stroke-linejoin:round;">
</g>
<g style="fill:#FFFFFF; fill-opacity:1.0; 
stroke:#FFFFFF; stroke-width:0; stroke-opacity:1; 
stroke-linecap:round; stroke-linejoin:round;">
<circle cx="56815.4" cy="35550.9" r="196.85" /> 
</g>
<g style="fill:#FFFFFF; fill-opacity:1.0; 
stroke:#FFFFFF; stroke-width:39.3701; stroke-opacity:1; 
stroke-linecap:round; stroke-linejoin:round;">
</g>
<g style="fill:#FFFFFF; fill-opacity:1.0; 
stroke:#FFFFFF; stroke-width:0; stroke-opacity:1; 
stroke-linecap:round; stroke-linejoin:round;">
<circle cx="62366.6" cy="34291.1" r="393.701" /> 
</g>
<g style="fill:#FFFFFF; fill-opacity:1.0; 
stroke:#FFFFFF; stroke-width:39.3701; stroke-opacity:1; 
stroke-linecap:round; stroke-linejoin:round;">
</g>
<g style="fill:#FFFFFF; fill-opacity:1.0; 
stroke:#FFFFFF; stroke-width:0; stroke-opacity:1; 
stroke-linecap:round; stroke-linejoin:round;">
<circle cx="62366.6" cy="38385.6" r="393.701" /> 
</g>
<g style="fill:#FFFFFF; fill-opacity:1.0; 
stroke:#FFFFFF; stroke-width:39.3701; stroke-opacity:1; 
stroke-linecap:round; stroke-linejoin:round;">
</g>
<g style="fill:#FFFFFF; fill-opacity:1.0; 
stroke:#FFFFFF; stroke-width:0; stroke-opacity:1; 
stroke-linecap:round; stroke-linejoin:round;">
<circle cx="53626.5" cy="38976.1" r="393.701" /> 
</g>
<g style="fill:#FFFFFF; fill-opacity:1.0; 
stroke:#FFFFFF; stroke-width:39.3701; stroke-opacity:1; 
stroke-linecap:round; stroke-linejoin:round;">
</g>
<g style="fill:#FFFFFF; fill-opacity:1.0; 
stroke:#FFFFFF; stroke-width:0; stroke-opacity:1; 
stroke-linecap:round; stroke-linejoin:round;">
<circle cx="53626.5" cy="34291.1" r="393.701" /> 
</g>
<g style="fill:#FFFFFF; fill-opacity:1.0; 
stroke:#FFFFFF; stroke-width:39.3701; stroke-opacity:1; 
stroke-linecap:round; stroke-linejoin:round;">
</g>
<g style="fill:#FFFFFF; fill-opacity:1.0; 
stroke:#FFFFFF; stroke-width:0; stroke-opacity:1; 
stroke-linecap:round; stroke-linejoin:round;">
<circle cx="62445.4" cy="35452.5" r="157.48" /> 
</g>
<g style="fill:#FFFFFF; fill-opacity:1.0; 
stroke:#FFFFFF; stroke-width:39.3701; stroke-opacity:1; 
stroke-linecap:round; stroke-linejoin:round;">
</g>
<g style="fill:#FFFFFF; fill-opacity:1.0; 
stroke:#FFFFFF; stroke-width:0; stroke-opacity:1; 
stroke-linecap:round; stroke-linejoin:round;">
<circle cx="62720.9" cy="36633.6" r="393.701" /> 
</g>
<g style="fill:#FFFFFF; fill-opacity:1.0; 
stroke:#FFFFFF; stroke-width:39.3701; stroke-opacity:1; 
stroke-linecap:round; stroke-linejoin:round;">
</g>
<g style="fill:#FFFFFF; fill-opacity:1.0; 
stroke:#FFFFFF; stroke-width:0; stroke-opacity:1; 
stroke-linecap:round; stroke-linejoin:round;">
<circle cx="53547.7" cy="37814.7" r="157.48" /> 
</g>
<g style="fill:#FFFFFF; fill-opacity:1.0; 
stroke:#FFFFFF; stroke-width:39.3701; stroke-opacity:1; 
stroke-linecap:round; stroke-linejoin:round;">
</g>
<g style="fill:#FFFFFF; fill-opacity:1.0; 
stroke:#FFFFFF; stroke-width:0; stroke-opacity:1; 
stroke-linecap:round; stroke-linejoin:round;">
<circle cx="53272.1" cy="36633.6" r="393.701" /> 
</g>
<g style="fill:#FFFFFF; fill-opacity:1.0; 
stroke:#FFFFFF; stroke-width:39.3701; stroke-opacity:1; 
stroke-linecap:round; stroke-linejoin:round;">
</g>
<g style="fill:#FFFFFF; fill-opacity:1.0; 
stroke:#FFFFFF; stroke-width:0; stroke-opacity:1; 
stroke-linecap:round; stroke-linejoin:round;">
<circle cx="73667" cy="42765.1" r="393.701" /> 
</g>
<g style="fill:#FFFFFF; fill-opacity:1.0; 
stroke:#FFFFFF; stroke-width:39.3701; stroke-opacity:1; 
stroke-linecap:round; stroke-linejoin:round;">
</g>
<g style="fill:#FFFFFF; fill-opacity:1.0; 
stroke:#FFFFFF; stroke-width:0; stroke-opacity:1; 
stroke-linecap:round; stroke-linejoin:round;">
<circle cx="72485.9" cy="43040.7" r="157.48" /> 
</g>
<g style="fill:#FFFFFF; fill-opacity:1.0; 
stroke:#FFFFFF; stroke-width:39.3701; stroke-opacity:1; 
stroke-linecap:round; stroke-linejoin:round;">
</g>
<g style="fill:#FFFFFF; fill-opacity:1.0; 
stroke:#FFFFFF; stroke-width:0; stroke-opacity:1; 
stroke-linecap:round; stroke-linejoin:round;">
<circle cx="73667" cy="52213.9" r="393.701" /> 
</g>
<g style="fill:#FFFFFF; fill-opacity:1.0; 
stroke:#FFFFFF; stroke-width:39.3701; stroke-opacity:1; 
stroke-linecap:round; stroke-linejoin:round;">
</g>
<g style="fill:#FFFFFF; fill-opacity:1.0; 
stroke:#FFFFFF; stroke-width:0; stroke-opacity:1; 
stroke-linecap:round; stroke-linejoin:round;">
<circle cx="74848.1" cy="51938.3" r="157.48" /> 
</g>
<g style="fill:#FFFFFF; fill-opacity:1.0; 
stroke:#FFFFFF; stroke-width:39.3701; stroke-opacity:1; 
stroke-linecap:round; stroke-linejoin:round;">
</g>
<g style="fill:#FFFFFF; fill-opacity:1.0; 
stroke:#FFFFFF; stroke-width:0; stroke-opacity:1; 
stroke-linecap:round; stroke-linejoin:round;">
<circle cx="76009.5" cy="43119.4" r="393.701" /> 
</g>
<g style="fill:#FFFFFF; fill-opacity:1.0; 
stroke:#FFFFFF; stroke-width:39.3701; stroke-opacity:1; 
stroke-linecap:round; stroke-linejoin:round;">
</g>
<g style="fill:#FFFFFF; fill-opacity:1.0; 
stroke:#FFFFFF; stroke-width:0; stroke-opacity:1; 
stroke-linecap:round; stroke-linejoin:round;">
<circle cx="71324.5" cy="43119.4" r="393.701" /> 
</g>
<g style="fill:#FFFFFF; fill-opacity:1.0; 
stroke:#FFFFFF; stroke-width:39.3701; stroke-opacity:1; 
stroke-linecap:round; stroke-linejoin:round;">
</g>
<g style="fill:#FFFFFF; fill-opacity:1.0; 
stroke:#FFFFFF; stroke-width:0; stroke-opacity:1; 
stroke-linecap:round; stroke-linejoin:round;">
<circle cx="71915" cy="51859.6" r="393.701" /> 
</g>
<g style="fill:#FFFFFF; fill-opacity:1.0; 
stroke:#FFFFFF; stroke-width:39.3701; stroke-opacity:1; 
stroke-linecap:round; stroke-linejoin:round;">
</g>
<g style="fill:#FFFFFF; fill-opacity:1.0; 
stroke:#FFFFFF; stroke-width:0; stroke-opacity:1; 
stroke-linecap:round; stroke-linejoin:round;">
<circle cx="76009.5" cy="51859.6" r="393.701" /> 
</g>
<g style="fill:#FFFFFF; fill-opacity:1.0; 
stroke:#FFFFFF; stroke-width:39.3701; stroke-opacity:1; 
stroke-linecap:round; stroke-linejoin:round;">
</g>
<g style="fill:#FFFFFF; fill-opacity:1.0; 
stroke:#FFFFFF; stroke-width:0; stroke-opacity:1; 
stroke-linecap:round; stroke-linejoin:round;">
<circle cx="74749.7" cy="46308.4" r="196.85" /> 
</g>
<g style="fill:#FFFFFF; fill-opacity:1.0; 
stroke:#FFFFFF; stroke-width:39.3701; stroke-opacity:1; 
stroke-linecap:round; stroke-linejoin:round;">
</g>
<g style="fill:#FFFFFF; fill-opacity:1.0; 
stroke:#FFFFFF; stroke-width:0; stroke-opacity:1; 
stroke-linecap:round; stroke-linejoin:round;">
<circle cx="74749.7" cy="47095.8" r="196.85" /> 
</g>
<g style="fill:#FFFFFF; fill-opacity:1.0; 
stroke:#FFFFFF; stroke-width:39.3701; stroke-opacity:1; 
stroke-linecap:round; stroke-linejoin:round;">
</g>
<g style="fill:#FFFFFF; fill-opacity:1.0; 
stroke:#FFFFFF; stroke-width:0; stroke-opacity:1; 
stroke-linecap:round; stroke-linejoin:round;">
<circle cx="74749.7" cy="47883.2" r="196.85" /> 
</g>
<g style="fill:#FFFFFF; fill-opacity:1.0; 
stroke:#FFFFFF; stroke-width:39.3701; stroke-opacity:1; 
stroke-linecap:round; stroke-linejoin:round;">
</g>
<g style="fill:#FFFFFF; fill-opacity:1.0; 
stroke:#FFFFFF; stroke-width:0; stroke-opacity:1; 
stroke-linecap:round; stroke-linejoin:round;">
<circle cx="74749.7" cy="48670.6" r="196.85" /> 
</g>
<g style="fill:#FFFFFF; fill-opacity:1.0; 
stroke:#FFFFFF; stroke-width:39.3701; stroke-opacity:1; 
stroke-linecap:round; stroke-linejoin:round;">
</g>
<g style="fill:#FFFFFF; fill-opacity:1.0; 
stroke:#FFFFFF; stroke-width:0; stroke-opacity:1; 
stroke-linecap:round; stroke-linejoin:round;">
<circle cx="64611.9" cy="42765.1" r="393.701" /> 
</g>
<g style="fill:#FFFFFF; fill-opacity:1.0; 
stroke:#FFFFFF; stroke-width:39.3701; stroke-opacity:1; 
stroke-linecap:round; stroke-linejoin:round;">
</g>
<g style="fill:#FFFFFF; fill-opacity:1.0; 
stroke:#FFFFFF; stroke-width:0; stroke-opacity:1; 
stroke-linecap:round; stroke-linejoin:round;">
<circle cx="63430.8" cy="43040.7" r="157.48" /> 
</g>
<g style="fill:#FFFFFF; fill-opacity:1.0; 
stroke:#FFFFFF; stroke-width:39.3701; stroke-opacity:1; 
stroke-linecap:round; stroke-linejoin:round;">
</g>
<g style="fill:#FFFFFF; fill-opacity:1.0; 
stroke:#FFFFFF; stroke-width:0; stroke-opacity:1; 
stroke-linecap:round; stroke-linejoin:round;">
<circle cx="64611.9" cy="52213.9" r="393.701" /> 
</g>
<g style="fill:#FFFFFF; fill-opacity:1.0; 
stroke:#FFFFFF; stroke-width:39.3701; stroke-opacity:1; 
stroke-linecap:round; stroke-linejoin:round;">
</g>
<g style="fill:#FFFFFF; fill-opacity:1.0; 
stroke:#FFFFFF; stroke-width:0; stroke-opacity:1; 
stroke-linecap:round; stroke-linejoin:round;">
<circle cx="65793" cy="51938.3" r="157.48" /> 
</g>
<g style="fill:#FFFFFF; fill-opacity:1.0; 
stroke:#FFFFFF; stroke-width:39.3701; stroke-opacity:1; 
stroke-linecap:round; stroke-linejoin:round;">
</g>
<g style="fill:#FFFFFF; fill-opacity:1.0; 
stroke:#FFFFFF; stroke-width:0; stroke-opacity:1; 
stroke-linecap:round; stroke-linejoin:round;">
<circle cx="66954.4" cy="43119.4" r="393.701" /> 
</g>
<g style="fill:#FFFFFF; fill-opacity:1.0; 
stroke:#FFFFFF; stroke-width:39.3701; stroke-opacity:1; 
stroke-linecap:round; stroke-linejoin:round;">
</g>
<g style="fill:#FFFFFF; fill-opacity:1.0; 
stroke:#FFFFFF; stroke-width:0; stroke-opacity:1; 
stroke-linecap:round; stroke-linejoin:round;">
<circle cx="62269.4" cy="43119.4" r="393.701" /> 
</g>
<g style="fill:#FFFFFF; fill-opacity:1.0; 
stroke:#FFFFFF; stroke-width:39.3701; stroke-opacity:1; 
stroke-linecap:round; stroke-linejoin:round;">
</g>
<g style="fill:#FFFFFF; fill-opacity:1.0; 
stroke:#FFFFFF; stroke-width:0; stroke-opacity:1; 
stroke-linecap:round; stroke-linejoin:round;">
<circle cx="62859.9" cy="51859.6" r="393.701" /> 
</g>
<g style="fill:#FFFFFF; fill-opacity:1.0; 
stroke:#FFFFFF; stroke-width:39.3701; stroke-opacity:1; 
stroke-linecap:round; stroke-linejoin:round;">
</g>
<g style="fill:#FFFFFF; fill-opacity:1.0; 
stroke:#FFFFFF; stroke-width:0; stroke-opacity:1; 
stroke-linecap:round; stroke-linejoin:round;">
<circle cx="66954.4" cy="51859.6" r="393.701" /> 
</g>
<g style="fill:#FFFFFF; fill-opacity:1.0; 
stroke:#FFFFFF; stroke-width:39.3701; stroke-opacity:1; 
stroke-linecap:round; stroke-linejoin:round;">
</g>
<g style="fill:#FFFFFF; fill-opacity:1.0; 
stroke:#FFFFFF; stroke-width:0; stroke-opacity:1; 
stroke-linecap:round; stroke-linejoin:round;">
<circle cx="65694.6" cy="46308.4" r="196.85" /> 
</g>
<g style="fill:#FFFFFF; fill-opacity:1.0; 
stroke:#FFFFFF; stroke-width:39.3701; stroke-opacity:1; 
stroke-linecap:round; stroke-linejoin:round;">
</g>
<g style="fill:#FFFFFF; fill-opacity:1.0; 
stroke:#FFFFFF; stroke-width:0; stroke-opacity:1; 
stroke-linecap:round; stroke-linejoin:round;">
<circle cx="65694.6" cy="47095.8" r="196.85" /> 
</g>
<g style="fill:#FFFFFF; fill-opacity:1.0; 
stroke:#FFFFFF; stroke-width:39.3701; stroke-opacity:1; 
stroke-linecap:round; stroke-linejoin:round;">
</g>
<g style="fill:#FFFFFF; fill-opacity:1.0; 
stroke:#FFFFFF; stroke-width:0; stroke-opacity:1; 
stroke-linecap:round; stroke-linejoin:round;">
<circle cx="65694.6" cy="47883.2" r="196.85" /> 
</g>
<g style="fill:#FFFFFF; fill-opacity:1.0; 
stroke:#FFFFFF; stroke-width:39.3701; stroke-opacity:1; 
stroke-linecap:round; stroke-linejoin:round;">
</g>
<g style="fill:#FFFFFF; fill-opacity:1.0; 
stroke:#FFFFFF; stroke-width:0; stroke-opacity:1; 
stroke-linecap:round; stroke-linejoin:round;">
<circle cx="65694.6" cy="48670.6" r="196.85" /> 
</g>
<g style="fill:#FFFFFF; fill-opacity:1.0; 
stroke:#FFFFFF; stroke-width:39.3701; stroke-opacity:1; 
stroke-linecap:round; stroke-linejoin:round;">
</g>
<g style="fill:#FFFFFF; fill-opacity:1.0; 
stroke:#FFFFFF; stroke-width:0; stroke-opacity:1; 
stroke-linecap:round; stroke-linejoin:round;">
<circle cx="56639.4" cy="48670.6" r="196.85" /> 
</g>
<g style="fill:#FFFFFF; fill-opacity:1.0; 
stroke:#FFFFFF; stroke-width:39.3701; stroke-opacity:1; 
stroke-linecap:round; stroke-linejoin:round;">
</g>
<g style="fill:#FFFFFF; fill-opacity:1.0; 
stroke:#FFFFFF; stroke-width:0; stroke-opacity:1; 
stroke-linecap:round; stroke-linejoin:round;">
<circle cx="56639.4" cy="47883.2" r="196.85" /> 
</g>
<g style="fill:#FFFFFF; fill-opacity:1.0; 
stroke:#FFFFFF; stroke-width:39.3701; stroke-opacity:1; 
stroke-linecap:round; stroke-linejoin:round;">
</g>
<g style="fill:#FFFFFF; fill-opacity:1.0; 
stroke:#FFFFFF; stroke-width:0; stroke-opacity:1; 
stroke-linecap:round; stroke-linejoin:round;">
<circle cx="56639.4" cy="47095.8" r="196.85" /> 
</g>
<g style="fill:#FFFFFF; fill-opacity:1.0; 
stroke:#FFFFFF; stroke-width:39.3701; stroke-opacity:1; 
stroke-linecap:round; stroke-linejoin:round;">
</g>
<g style="fill:#FFFFFF; fill-opacity:1.0; 
stroke:#FFFFFF; stroke-width:0; stroke-opacity:1; 
stroke-linecap:round; stroke-linejoin:round;">
<circle cx="56639.4" cy="46308.4" r="196.85" /> 
</g>
<g style="fill:#FFFFFF; fill-opacity:1.0; 
stroke:#FFFFFF; stroke-width:39.3701; stroke-opacity:1; 
stroke-linecap:round; stroke-linejoin:round;">
</g>
<g style="fill:#FFFFFF; fill-opacity:1.0; 
stroke:#FFFFFF; stroke-width:0; stroke-opacity:1; 
stroke-linecap:round; stroke-linejoin:round;">
<circle cx="57899.3" cy="51859.6" r="393.701" /> 
</g>
<g style="fill:#FFFFFF; fill-opacity:1.0; 
stroke:#FFFFFF; stroke-width:39.3701; stroke-opacity:1; 
stroke-linecap:round; stroke-linejoin:round;">
</g>
<g style="fill:#FFFFFF; fill-opacity:1.0; 
stroke:#FFFFFF; stroke-width:0; stroke-opacity:1; 
stroke-linecap:round; stroke-linejoin:round;">
<circle cx="53804.8" cy="51859.6" r="393.701" /> 
</g>
<g style="fill:#FFFFFF; fill-opacity:1.0; 
stroke:#FFFFFF; stroke-width:39.3701; stroke-opacity:1; 
stroke-linecap:round; stroke-linejoin:round;">
</g>
<g style="fill:#FFFFFF; fill-opacity:1.0; 
stroke:#FFFFFF; stroke-width:0; stroke-opacity:1; 
stroke-linecap:round; stroke-linejoin:round;">
<circle cx="53214.3" cy="43119.4" r="393.701" /> 
</g>
<g style="fill:#FFFFFF; fill-opacity:1.0; 
stroke:#FFFFFF; stroke-width:39.3701; stroke-opacity:1; 
stroke-linecap:round; stroke-linejoin:round;">
</g>
<g style="fill:#FFFFFF; fill-opacity:1.0; 
stroke:#FFFFFF; stroke-width:0; stroke-opacity:1; 
stroke-linecap:round; stroke-linejoin:round;">
<circle cx="57899.3" cy="43119.4" r="393.701" /> 
</g>
<g style="fill:#FFFFFF; fill-opacity:1.0; 
stroke:#FFFFFF; stroke-width:39.3701; stroke-opacity:1; 
stroke-linecap:round; stroke-linejoin:round;">
</g>
<g style="fill:#FFFFFF; fill-opacity:1.0; 
stroke:#FFFFFF; stroke-width:0; stroke-opacity:1; 
stroke-linecap:round; stroke-linejoin:round;">
<circle cx="56737.9" cy="51938.3" r="157.48" /> 
</g>
<g style="fill:#FFFFFF; fill-opacity:1.0; 
stroke:#FFFFFF; stroke-width:39.3701; stroke-opacity:1; 
stroke-linecap:round; stroke-linejoin:round;">
</g>
<g style="fill:#FFFFFF; fill-opacity:1.0; 
stroke:#FFFFFF; stroke-width:0; stroke-opacity:1; 
stroke-linecap:round; stroke-linejoin:round;">
<circle cx="55556.8" cy="52213.9" r="393.701" /> 
</g>
<g style="fill:#FFFFFF; fill-opacity:1.0; 
stroke:#FFFFFF; stroke-width:39.3701; stroke-opacity:1; 
stroke-linecap:round; stroke-linejoin:round;">
</g>
<g style="fill:#FFFFFF; fill-opacity:1.0; 
stroke:#FFFFFF; stroke-width:0; stroke-opacity:1; 
stroke-linecap:round; stroke-linejoin:round;">
<circle cx="54375.7" cy="43040.7" r="157.48" /> 
</g>
<g style="fill:#FFFFFF; fill-opacity:1.0; 
stroke:#FFFFFF; stroke-width:39.3701; stroke-opacity:1; 
stroke-linecap:round; stroke-linejoin:round;">
</g>
<g style="fill:#FFFFFF; fill-opacity:1.0; 
stroke:#FFFFFF; stroke-width:0; stroke-opacity:1; 
stroke-linecap:round; stroke-linejoin:round;">
<circle cx="55556.8" cy="42765.1" r="393.701" /> 
</g>
<g style="fill:#FFFFFF; fill-opacity:1.0; 
stroke:#FFFFFF; stroke-width:39.3701; stroke-opacity:1; 
stroke-linecap:round; stroke-linejoin:round;">
</g>
<g style="fill:#000000; fill-opacity:1.0; 
stroke:#000000; stroke-width:39.3701; stroke-opacity:1; 
stroke-linecap:round; stroke-linejoin:round;">
</g> 
</svg>
