G04 #@! TF.GenerationSoftware,KiCad,Pcbnew,5.1.10*
G04 #@! TF.CreationDate,2021-09-16T01:02:32+02:00*
G04 #@! TF.ProjectId,pressureSensorHolder,70726573-7375-4726-9553-656e736f7248,rev?*
G04 #@! TF.SameCoordinates,Original*
G04 #@! TF.FileFunction,Copper,L1,Top*
G04 #@! TF.FilePolarity,Positive*
%FSLAX46Y46*%
G04 Gerber Fmt 4.6, Leading zero omitted, Abs format (unit mm)*
G04 Created by KiCad (PCBNEW 5.1.10) date 2021-09-16 01:02:32*
%MOMM*%
%LPD*%
G01*
G04 APERTURE LIST*
G04 #@! TA.AperFunction,Profile*
%ADD10C,0.050000*%
G04 #@! TD*
G04 #@! TA.AperFunction,ComponentPad*
%ADD11O,2.200000X1.400000*%
G04 #@! TD*
G04 #@! TA.AperFunction,ComponentPad*
%ADD12C,0.800000*%
G04 #@! TD*
G04 #@! TA.AperFunction,ComponentPad*
%ADD13C,6.400000*%
G04 #@! TD*
G04 #@! TA.AperFunction,SMDPad,CuDef*
%ADD14C,0.100000*%
G04 #@! TD*
G04 #@! TA.AperFunction,Conductor*
%ADD15C,0.254000*%
G04 #@! TD*
G04 #@! TA.AperFunction,Conductor*
%ADD16C,0.400000*%
G04 #@! TD*
G04 #@! TA.AperFunction,Conductor*
%ADD17C,0.120000*%
G04 #@! TD*
G04 #@! TA.AperFunction,Conductor*
%ADD18C,0.100000*%
G04 #@! TD*
G04 APERTURE END LIST*
D10*
X128942200Y-99157400D02*
G75*
G02*
X127942200Y-98157400I0J1000000D01*
G01*
X127942200Y-69157400D02*
G75*
G02*
X128942200Y-68157400I1000000J0D01*
G01*
X158442200Y-97657400D02*
G75*
G02*
X156942200Y-99157400I-1500000J0D01*
G01*
X156942200Y-68157400D02*
G75*
G02*
X158442200Y-69657400I0J-1500000D01*
G01*
X158442200Y-97657400D02*
X158442200Y-69657400D01*
X128942200Y-99157400D02*
X156942200Y-99157400D01*
X127942200Y-69157400D02*
X127942200Y-98157400D01*
X156942200Y-68157400D02*
X128942200Y-68157400D01*
D11*
X151692200Y-80657400D03*
X151692200Y-82657400D03*
X151692200Y-84657400D03*
X151692200Y-86657400D03*
D12*
X134099256Y-92460344D03*
X132402200Y-91757400D03*
X130705144Y-92460344D03*
X130002200Y-94157400D03*
X130705144Y-95854456D03*
X132402200Y-96557400D03*
X134099256Y-95854456D03*
X134802200Y-94157400D03*
D13*
X132402200Y-94157400D03*
D12*
X134099256Y-71460344D03*
X132402200Y-70757400D03*
X130705144Y-71460344D03*
X130002200Y-73157400D03*
X130705144Y-74854456D03*
X132402200Y-75557400D03*
X134099256Y-74854456D03*
X134802200Y-73157400D03*
D13*
X132402200Y-73157400D03*
G04 #@! TA.AperFunction,SMDPad,CuDef*
D14*
G36*
X154942200Y-81907400D02*
G01*
X155692200Y-82407400D01*
X155692200Y-83407400D01*
X154192200Y-83407400D01*
X154192200Y-82407400D01*
X154942200Y-81907400D01*
G37*
G04 #@! TD.AperFunction*
G04 #@! TA.AperFunction,SMDPad,CuDef*
G36*
X154942200Y-80207400D02*
G01*
X155692200Y-79707400D01*
X155692200Y-82107400D01*
X154942200Y-81607400D01*
X154192200Y-82107400D01*
X154192200Y-79707400D01*
X154942200Y-80207400D01*
G37*
G04 #@! TD.AperFunction*
G04 #@! TA.AperFunction,SMDPad,CuDef*
G36*
X154942200Y-79907400D02*
G01*
X154192200Y-79407400D01*
X154192200Y-78407400D01*
X155692200Y-78407400D01*
X155692200Y-79407400D01*
X154942200Y-79907400D01*
G37*
G04 #@! TD.AperFunction*
D15*
X153692200Y-80907400D02*
X154942200Y-80907400D01*
X153442200Y-80657400D02*
X153692200Y-80907400D01*
X151692200Y-80657400D02*
X153442200Y-80657400D01*
X154942200Y-78907400D02*
X154942200Y-77657400D01*
X154942200Y-78907400D02*
X153442200Y-78907400D01*
X154942200Y-78907400D02*
X156442200Y-78907400D01*
D16*
X151692200Y-82657400D02*
X153442200Y-82657400D01*
X153692200Y-82907400D02*
X154942200Y-82907400D01*
X153442200Y-82657400D02*
X153692200Y-82907400D01*
D17*
X157167192Y-68521091D02*
X157383622Y-68586435D01*
X157583231Y-68692568D01*
X157758425Y-68835454D01*
X157902533Y-69009650D01*
X158010057Y-69208512D01*
X158076910Y-69424477D01*
X158102201Y-69665104D01*
X158102200Y-97640775D01*
X158078509Y-97882396D01*
X158013166Y-98098821D01*
X157907030Y-98298432D01*
X157764146Y-98473625D01*
X157589950Y-98617733D01*
X157391088Y-98725257D01*
X157175123Y-98792110D01*
X156934497Y-98817400D01*
X128958826Y-98817400D01*
X128814326Y-98803231D01*
X128691312Y-98766091D01*
X128577864Y-98705770D01*
X128478291Y-98624561D01*
X128396387Y-98525556D01*
X128335274Y-98412529D01*
X128297277Y-98289781D01*
X128282200Y-98146336D01*
X128282200Y-95280798D01*
X128305910Y-95399996D01*
X128627037Y-96175267D01*
X129093242Y-96872992D01*
X129686608Y-97466358D01*
X130384333Y-97932563D01*
X131159604Y-98253690D01*
X131982627Y-98417400D01*
X132821773Y-98417400D01*
X133644796Y-98253690D01*
X134420067Y-97932563D01*
X135117792Y-97466358D01*
X135711158Y-96872992D01*
X136177363Y-96175267D01*
X136498490Y-95399996D01*
X136652073Y-94627884D01*
X141677200Y-94627884D01*
X141677200Y-94886916D01*
X141727734Y-95140971D01*
X141826862Y-95380286D01*
X141970773Y-95595664D01*
X142153936Y-95778827D01*
X142369314Y-95922738D01*
X142608629Y-96021866D01*
X142862684Y-96072400D01*
X143121716Y-96072400D01*
X143375771Y-96021866D01*
X143615086Y-95922738D01*
X143830464Y-95778827D01*
X144013627Y-95595664D01*
X144157538Y-95380286D01*
X144256666Y-95140971D01*
X144307187Y-94886979D01*
X145227200Y-94886979D01*
X145227200Y-95027821D01*
X145254677Y-95165958D01*
X145308575Y-95296080D01*
X145386823Y-95413186D01*
X145486414Y-95512777D01*
X145603520Y-95591025D01*
X145733642Y-95644923D01*
X145871779Y-95672400D01*
X146012621Y-95672400D01*
X146150758Y-95644923D01*
X146280880Y-95591025D01*
X146375376Y-95527884D01*
X147627200Y-95527884D01*
X147627200Y-95786916D01*
X147677734Y-96040971D01*
X147776862Y-96280286D01*
X147920773Y-96495664D01*
X148103936Y-96678827D01*
X148319314Y-96822738D01*
X148558629Y-96921866D01*
X148812684Y-96972400D01*
X149071716Y-96972400D01*
X149325771Y-96921866D01*
X149565086Y-96822738D01*
X149780464Y-96678827D01*
X149963627Y-96495664D01*
X150107538Y-96280286D01*
X150206666Y-96040971D01*
X150257200Y-95786916D01*
X150257200Y-95527884D01*
X150206666Y-95273829D01*
X150107538Y-95034514D01*
X149963627Y-94819136D01*
X149780464Y-94635973D01*
X149768358Y-94627884D01*
X153577200Y-94627884D01*
X153577200Y-94886916D01*
X153627734Y-95140971D01*
X153726862Y-95380286D01*
X153870773Y-95595664D01*
X154053936Y-95778827D01*
X154269314Y-95922738D01*
X154508629Y-96021866D01*
X154762684Y-96072400D01*
X155021716Y-96072400D01*
X155275771Y-96021866D01*
X155515086Y-95922738D01*
X155730464Y-95778827D01*
X155913627Y-95595664D01*
X156057538Y-95380286D01*
X156156666Y-95140971D01*
X156207200Y-94886916D01*
X156207200Y-94627884D01*
X156156666Y-94373829D01*
X156057538Y-94134514D01*
X155913627Y-93919136D01*
X155730464Y-93735973D01*
X155515086Y-93592062D01*
X155275771Y-93492934D01*
X155021716Y-93442400D01*
X154762684Y-93442400D01*
X154508629Y-93492934D01*
X154269314Y-93592062D01*
X154053936Y-93735973D01*
X153870773Y-93919136D01*
X153726862Y-94134514D01*
X153627734Y-94373829D01*
X153577200Y-94627884D01*
X149768358Y-94627884D01*
X149565086Y-94492062D01*
X149325771Y-94392934D01*
X149071716Y-94342400D01*
X148812684Y-94342400D01*
X148558629Y-94392934D01*
X148319314Y-94492062D01*
X148103936Y-94635973D01*
X147920773Y-94819136D01*
X147776862Y-95034514D01*
X147677734Y-95273829D01*
X147627200Y-95527884D01*
X146375376Y-95527884D01*
X146397986Y-95512777D01*
X146497577Y-95413186D01*
X146575825Y-95296080D01*
X146629723Y-95165958D01*
X146657200Y-95027821D01*
X146657200Y-94886979D01*
X146629723Y-94748842D01*
X146575825Y-94618720D01*
X146497577Y-94501614D01*
X146397986Y-94402023D01*
X146280880Y-94323775D01*
X146150758Y-94269877D01*
X146012621Y-94242400D01*
X145871779Y-94242400D01*
X145733642Y-94269877D01*
X145603520Y-94323775D01*
X145486414Y-94402023D01*
X145386823Y-94501614D01*
X145308575Y-94618720D01*
X145254677Y-94748842D01*
X145227200Y-94886979D01*
X144307187Y-94886979D01*
X144307200Y-94886916D01*
X144307200Y-94627884D01*
X144256666Y-94373829D01*
X144157538Y-94134514D01*
X144013627Y-93919136D01*
X143830464Y-93735973D01*
X143615086Y-93592062D01*
X143375771Y-93492934D01*
X143121716Y-93442400D01*
X142862684Y-93442400D01*
X142608629Y-93492934D01*
X142369314Y-93592062D01*
X142153936Y-93735973D01*
X141970773Y-93919136D01*
X141826862Y-94134514D01*
X141727734Y-94373829D01*
X141677200Y-94627884D01*
X136652073Y-94627884D01*
X136662200Y-94576973D01*
X136662200Y-93737827D01*
X136498490Y-92914804D01*
X136177363Y-92139533D01*
X135711158Y-91441808D01*
X135117792Y-90848442D01*
X134420067Y-90382237D01*
X133644796Y-90061110D01*
X132821773Y-89897400D01*
X131982627Y-89897400D01*
X131159604Y-90061110D01*
X130384333Y-90382237D01*
X129686608Y-90848442D01*
X129093242Y-91441808D01*
X128627037Y-92139533D01*
X128305910Y-92914804D01*
X128282200Y-93034002D01*
X128282200Y-86657400D01*
X150272289Y-86657400D01*
X150291886Y-86856375D01*
X150349925Y-87047703D01*
X150444175Y-87224032D01*
X150571014Y-87378586D01*
X150725568Y-87505425D01*
X150901897Y-87599675D01*
X151093225Y-87657714D01*
X151242337Y-87672400D01*
X152142063Y-87672400D01*
X152291175Y-87657714D01*
X152482503Y-87599675D01*
X152658832Y-87505425D01*
X152813386Y-87378586D01*
X152940225Y-87224032D01*
X153034475Y-87047703D01*
X153092514Y-86856375D01*
X153112111Y-86657400D01*
X153092514Y-86458425D01*
X153034475Y-86267097D01*
X152940225Y-86090768D01*
X152813386Y-85936214D01*
X152658832Y-85809375D01*
X152482503Y-85715125D01*
X152291175Y-85657086D01*
X152268130Y-85654816D01*
X152293649Y-85652214D01*
X152483857Y-85593798D01*
X152659014Y-85499397D01*
X152812388Y-85372638D01*
X152938086Y-85218393D01*
X153031277Y-85042590D01*
X153088380Y-84851984D01*
X153094150Y-84819637D01*
X153028443Y-84660900D01*
X151695700Y-84660900D01*
X151695700Y-84680900D01*
X151688700Y-84680900D01*
X151688700Y-84660900D01*
X150355957Y-84660900D01*
X150290250Y-84819637D01*
X150296020Y-84851984D01*
X150353123Y-85042590D01*
X150446314Y-85218393D01*
X150572012Y-85372638D01*
X150725386Y-85499397D01*
X150900543Y-85593798D01*
X151090751Y-85652214D01*
X151116270Y-85654816D01*
X151093225Y-85657086D01*
X150901897Y-85715125D01*
X150725568Y-85809375D01*
X150571014Y-85936214D01*
X150444175Y-86090768D01*
X150349925Y-86267097D01*
X150291886Y-86458425D01*
X150272289Y-86657400D01*
X128282200Y-86657400D01*
X128282200Y-80657400D01*
X150272289Y-80657400D01*
X150291886Y-80856375D01*
X150349925Y-81047703D01*
X150444175Y-81224032D01*
X150571014Y-81378586D01*
X150725568Y-81505425D01*
X150901897Y-81599675D01*
X151092190Y-81657400D01*
X150901897Y-81715125D01*
X150725568Y-81809375D01*
X150571014Y-81936214D01*
X150444175Y-82090768D01*
X150349925Y-82267097D01*
X150291886Y-82458425D01*
X150272289Y-82657400D01*
X150291886Y-82856375D01*
X150349925Y-83047703D01*
X150444175Y-83224032D01*
X150571014Y-83378586D01*
X150725568Y-83505425D01*
X150901897Y-83599675D01*
X151093225Y-83657714D01*
X151116270Y-83659984D01*
X151090751Y-83662586D01*
X150900543Y-83721002D01*
X150725386Y-83815403D01*
X150572012Y-83942162D01*
X150446314Y-84096407D01*
X150353123Y-84272210D01*
X150296020Y-84462816D01*
X150290250Y-84495163D01*
X150355957Y-84653900D01*
X151688700Y-84653900D01*
X151688700Y-84633900D01*
X151695700Y-84633900D01*
X151695700Y-84653900D01*
X153028443Y-84653900D01*
X153094150Y-84495163D01*
X153088380Y-84462816D01*
X153031277Y-84272210D01*
X152938086Y-84096407D01*
X152812388Y-83942162D01*
X152659014Y-83815403D01*
X152483857Y-83721002D01*
X152293649Y-83662586D01*
X152268130Y-83659984D01*
X152291175Y-83657714D01*
X152482503Y-83599675D01*
X152658832Y-83505425D01*
X152813386Y-83378586D01*
X152940225Y-83224032D01*
X152967823Y-83172400D01*
X153228881Y-83172400D01*
X153310154Y-83253673D01*
X153326279Y-83273321D01*
X153404697Y-83337678D01*
X153494165Y-83385499D01*
X153591243Y-83414948D01*
X153666907Y-83422400D01*
X153666917Y-83422400D01*
X153692199Y-83424890D01*
X153717481Y-83422400D01*
X153877153Y-83422400D01*
X153881758Y-83469151D01*
X153899770Y-83528528D01*
X153929020Y-83583251D01*
X153968384Y-83631216D01*
X154016349Y-83670580D01*
X154071072Y-83699830D01*
X154130449Y-83717842D01*
X154192200Y-83723924D01*
X155692200Y-83723924D01*
X155753951Y-83717842D01*
X155813328Y-83699830D01*
X155868051Y-83670580D01*
X155916016Y-83631216D01*
X155955380Y-83583251D01*
X155984630Y-83528528D01*
X156002642Y-83469151D01*
X156008724Y-83407400D01*
X156008724Y-82407400D01*
X156002577Y-82345325D01*
X155984503Y-82285966D01*
X155969197Y-82257401D01*
X155984630Y-82228528D01*
X156002642Y-82169151D01*
X156008724Y-82107400D01*
X156008724Y-79707400D01*
X156002707Y-79645974D01*
X155984757Y-79586577D01*
X155969199Y-79557397D01*
X155984630Y-79528528D01*
X156002642Y-79469151D01*
X156008724Y-79407400D01*
X156008724Y-78407400D01*
X156002642Y-78345649D01*
X155984630Y-78286272D01*
X155955380Y-78231549D01*
X155916016Y-78183584D01*
X155868051Y-78144220D01*
X155813328Y-78114970D01*
X155753951Y-78096958D01*
X155692200Y-78090876D01*
X154192200Y-78090876D01*
X154130449Y-78096958D01*
X154071072Y-78114970D01*
X154016349Y-78144220D01*
X153968384Y-78183584D01*
X153929020Y-78231549D01*
X153899770Y-78286272D01*
X153881758Y-78345649D01*
X153875676Y-78407400D01*
X153875676Y-79407400D01*
X153881823Y-79469475D01*
X153899897Y-79528834D01*
X153915203Y-79557399D01*
X153899770Y-79586272D01*
X153881758Y-79645649D01*
X153875676Y-79707400D01*
X153875676Y-80465400D01*
X153875282Y-80465400D01*
X153770092Y-80360210D01*
X153756253Y-80343347D01*
X153688950Y-80288113D01*
X153612164Y-80247070D01*
X153528847Y-80221796D01*
X153463907Y-80215400D01*
X153463905Y-80215400D01*
X153442200Y-80213262D01*
X153420495Y-80215400D01*
X153006842Y-80215400D01*
X152940225Y-80090768D01*
X152813386Y-79936214D01*
X152658832Y-79809375D01*
X152482503Y-79715125D01*
X152291175Y-79657086D01*
X152142063Y-79642400D01*
X151242337Y-79642400D01*
X151093225Y-79657086D01*
X150901897Y-79715125D01*
X150725568Y-79809375D01*
X150571014Y-79936214D01*
X150444175Y-80090768D01*
X150349925Y-80267097D01*
X150291886Y-80458425D01*
X150272289Y-80657400D01*
X128282200Y-80657400D01*
X128282200Y-74280798D01*
X128305910Y-74399996D01*
X128627037Y-75175267D01*
X129093242Y-75872992D01*
X129686608Y-76466358D01*
X130384333Y-76932563D01*
X131159604Y-77253690D01*
X131982627Y-77417400D01*
X132821773Y-77417400D01*
X133644796Y-77253690D01*
X134420067Y-76932563D01*
X135117792Y-76466358D01*
X135711158Y-75872992D01*
X136177363Y-75175267D01*
X136498490Y-74399996D01*
X136662200Y-73576973D01*
X136662200Y-72737827D01*
X136600549Y-72427884D01*
X143177200Y-72427884D01*
X143177200Y-72686916D01*
X143227734Y-72940971D01*
X143326862Y-73180286D01*
X143470773Y-73395664D01*
X143653936Y-73578827D01*
X143869314Y-73722738D01*
X144108629Y-73821866D01*
X144362684Y-73872400D01*
X144621716Y-73872400D01*
X144875771Y-73821866D01*
X145115086Y-73722738D01*
X145330464Y-73578827D01*
X145513627Y-73395664D01*
X145657538Y-73180286D01*
X145756666Y-72940971D01*
X145807200Y-72686916D01*
X145807200Y-72427884D01*
X145756666Y-72173829D01*
X145657538Y-71934514D01*
X145513627Y-71719136D01*
X145330464Y-71535973D01*
X145318358Y-71527884D01*
X147627200Y-71527884D01*
X147627200Y-71786916D01*
X147677734Y-72040971D01*
X147776862Y-72280286D01*
X147920773Y-72495664D01*
X148103936Y-72678827D01*
X148319314Y-72822738D01*
X148558629Y-72921866D01*
X148812684Y-72972400D01*
X149071716Y-72972400D01*
X149325771Y-72921866D01*
X149565086Y-72822738D01*
X149780464Y-72678827D01*
X149963627Y-72495664D01*
X150103065Y-72286979D01*
X151227200Y-72286979D01*
X151227200Y-72427821D01*
X151254677Y-72565958D01*
X151308575Y-72696080D01*
X151386823Y-72813186D01*
X151486414Y-72912777D01*
X151603520Y-72991025D01*
X151733642Y-73044923D01*
X151871779Y-73072400D01*
X152012621Y-73072400D01*
X152150758Y-73044923D01*
X152280880Y-72991025D01*
X152397986Y-72912777D01*
X152497577Y-72813186D01*
X152575825Y-72696080D01*
X152629723Y-72565958D01*
X152657187Y-72427884D01*
X153577200Y-72427884D01*
X153577200Y-72686916D01*
X153627734Y-72940971D01*
X153726862Y-73180286D01*
X153870773Y-73395664D01*
X154053936Y-73578827D01*
X154269314Y-73722738D01*
X154508629Y-73821866D01*
X154762684Y-73872400D01*
X155021716Y-73872400D01*
X155275771Y-73821866D01*
X155515086Y-73722738D01*
X155730464Y-73578827D01*
X155913627Y-73395664D01*
X156057538Y-73180286D01*
X156156666Y-72940971D01*
X156207200Y-72686916D01*
X156207200Y-72427884D01*
X156156666Y-72173829D01*
X156057538Y-71934514D01*
X155913627Y-71719136D01*
X155730464Y-71535973D01*
X155515086Y-71392062D01*
X155275771Y-71292934D01*
X155021716Y-71242400D01*
X154762684Y-71242400D01*
X154508629Y-71292934D01*
X154269314Y-71392062D01*
X154053936Y-71535973D01*
X153870773Y-71719136D01*
X153726862Y-71934514D01*
X153627734Y-72173829D01*
X153577200Y-72427884D01*
X152657187Y-72427884D01*
X152657200Y-72427821D01*
X152657200Y-72286979D01*
X152629723Y-72148842D01*
X152575825Y-72018720D01*
X152497577Y-71901614D01*
X152397986Y-71802023D01*
X152280880Y-71723775D01*
X152150758Y-71669877D01*
X152012621Y-71642400D01*
X151871779Y-71642400D01*
X151733642Y-71669877D01*
X151603520Y-71723775D01*
X151486414Y-71802023D01*
X151386823Y-71901614D01*
X151308575Y-72018720D01*
X151254677Y-72148842D01*
X151227200Y-72286979D01*
X150103065Y-72286979D01*
X150107538Y-72280286D01*
X150206666Y-72040971D01*
X150257200Y-71786916D01*
X150257200Y-71527884D01*
X150206666Y-71273829D01*
X150107538Y-71034514D01*
X149963627Y-70819136D01*
X149780464Y-70635973D01*
X149565086Y-70492062D01*
X149325771Y-70392934D01*
X149071716Y-70342400D01*
X148812684Y-70342400D01*
X148558629Y-70392934D01*
X148319314Y-70492062D01*
X148103936Y-70635973D01*
X147920773Y-70819136D01*
X147776862Y-71034514D01*
X147677734Y-71273829D01*
X147627200Y-71527884D01*
X145318358Y-71527884D01*
X145115086Y-71392062D01*
X144875771Y-71292934D01*
X144621716Y-71242400D01*
X144362684Y-71242400D01*
X144108629Y-71292934D01*
X143869314Y-71392062D01*
X143653936Y-71535973D01*
X143470773Y-71719136D01*
X143326862Y-71934514D01*
X143227734Y-72173829D01*
X143177200Y-72427884D01*
X136600549Y-72427884D01*
X136498490Y-71914804D01*
X136177363Y-71139533D01*
X135711158Y-70441808D01*
X135117792Y-69848442D01*
X134420067Y-69382237D01*
X133644796Y-69061110D01*
X132821773Y-68897400D01*
X131982627Y-68897400D01*
X131159604Y-69061110D01*
X130384333Y-69382237D01*
X129686608Y-69848442D01*
X129093242Y-70441808D01*
X128627037Y-71139533D01*
X128305910Y-71914804D01*
X128282200Y-72034002D01*
X128282200Y-69174027D01*
X128296369Y-69029525D01*
X128333508Y-68906513D01*
X128393832Y-68793061D01*
X128475040Y-68693491D01*
X128574042Y-68611588D01*
X128687070Y-68550474D01*
X128809819Y-68512477D01*
X128953263Y-68497400D01*
X156925575Y-68497400D01*
X157167192Y-68521091D01*
G04 #@! TA.AperFunction,Conductor*
D18*
G36*
X157167192Y-68521091D02*
G01*
X157383622Y-68586435D01*
X157583231Y-68692568D01*
X157758425Y-68835454D01*
X157902533Y-69009650D01*
X158010057Y-69208512D01*
X158076910Y-69424477D01*
X158102201Y-69665104D01*
X158102200Y-97640775D01*
X158078509Y-97882396D01*
X158013166Y-98098821D01*
X157907030Y-98298432D01*
X157764146Y-98473625D01*
X157589950Y-98617733D01*
X157391088Y-98725257D01*
X157175123Y-98792110D01*
X156934497Y-98817400D01*
X128958826Y-98817400D01*
X128814326Y-98803231D01*
X128691312Y-98766091D01*
X128577864Y-98705770D01*
X128478291Y-98624561D01*
X128396387Y-98525556D01*
X128335274Y-98412529D01*
X128297277Y-98289781D01*
X128282200Y-98146336D01*
X128282200Y-95280798D01*
X128305910Y-95399996D01*
X128627037Y-96175267D01*
X129093242Y-96872992D01*
X129686608Y-97466358D01*
X130384333Y-97932563D01*
X131159604Y-98253690D01*
X131982627Y-98417400D01*
X132821773Y-98417400D01*
X133644796Y-98253690D01*
X134420067Y-97932563D01*
X135117792Y-97466358D01*
X135711158Y-96872992D01*
X136177363Y-96175267D01*
X136498490Y-95399996D01*
X136652073Y-94627884D01*
X141677200Y-94627884D01*
X141677200Y-94886916D01*
X141727734Y-95140971D01*
X141826862Y-95380286D01*
X141970773Y-95595664D01*
X142153936Y-95778827D01*
X142369314Y-95922738D01*
X142608629Y-96021866D01*
X142862684Y-96072400D01*
X143121716Y-96072400D01*
X143375771Y-96021866D01*
X143615086Y-95922738D01*
X143830464Y-95778827D01*
X144013627Y-95595664D01*
X144157538Y-95380286D01*
X144256666Y-95140971D01*
X144307187Y-94886979D01*
X145227200Y-94886979D01*
X145227200Y-95027821D01*
X145254677Y-95165958D01*
X145308575Y-95296080D01*
X145386823Y-95413186D01*
X145486414Y-95512777D01*
X145603520Y-95591025D01*
X145733642Y-95644923D01*
X145871779Y-95672400D01*
X146012621Y-95672400D01*
X146150758Y-95644923D01*
X146280880Y-95591025D01*
X146375376Y-95527884D01*
X147627200Y-95527884D01*
X147627200Y-95786916D01*
X147677734Y-96040971D01*
X147776862Y-96280286D01*
X147920773Y-96495664D01*
X148103936Y-96678827D01*
X148319314Y-96822738D01*
X148558629Y-96921866D01*
X148812684Y-96972400D01*
X149071716Y-96972400D01*
X149325771Y-96921866D01*
X149565086Y-96822738D01*
X149780464Y-96678827D01*
X149963627Y-96495664D01*
X150107538Y-96280286D01*
X150206666Y-96040971D01*
X150257200Y-95786916D01*
X150257200Y-95527884D01*
X150206666Y-95273829D01*
X150107538Y-95034514D01*
X149963627Y-94819136D01*
X149780464Y-94635973D01*
X149768358Y-94627884D01*
X153577200Y-94627884D01*
X153577200Y-94886916D01*
X153627734Y-95140971D01*
X153726862Y-95380286D01*
X153870773Y-95595664D01*
X154053936Y-95778827D01*
X154269314Y-95922738D01*
X154508629Y-96021866D01*
X154762684Y-96072400D01*
X155021716Y-96072400D01*
X155275771Y-96021866D01*
X155515086Y-95922738D01*
X155730464Y-95778827D01*
X155913627Y-95595664D01*
X156057538Y-95380286D01*
X156156666Y-95140971D01*
X156207200Y-94886916D01*
X156207200Y-94627884D01*
X156156666Y-94373829D01*
X156057538Y-94134514D01*
X155913627Y-93919136D01*
X155730464Y-93735973D01*
X155515086Y-93592062D01*
X155275771Y-93492934D01*
X155021716Y-93442400D01*
X154762684Y-93442400D01*
X154508629Y-93492934D01*
X154269314Y-93592062D01*
X154053936Y-93735973D01*
X153870773Y-93919136D01*
X153726862Y-94134514D01*
X153627734Y-94373829D01*
X153577200Y-94627884D01*
X149768358Y-94627884D01*
X149565086Y-94492062D01*
X149325771Y-94392934D01*
X149071716Y-94342400D01*
X148812684Y-94342400D01*
X148558629Y-94392934D01*
X148319314Y-94492062D01*
X148103936Y-94635973D01*
X147920773Y-94819136D01*
X147776862Y-95034514D01*
X147677734Y-95273829D01*
X147627200Y-95527884D01*
X146375376Y-95527884D01*
X146397986Y-95512777D01*
X146497577Y-95413186D01*
X146575825Y-95296080D01*
X146629723Y-95165958D01*
X146657200Y-95027821D01*
X146657200Y-94886979D01*
X146629723Y-94748842D01*
X146575825Y-94618720D01*
X146497577Y-94501614D01*
X146397986Y-94402023D01*
X146280880Y-94323775D01*
X146150758Y-94269877D01*
X146012621Y-94242400D01*
X145871779Y-94242400D01*
X145733642Y-94269877D01*
X145603520Y-94323775D01*
X145486414Y-94402023D01*
X145386823Y-94501614D01*
X145308575Y-94618720D01*
X145254677Y-94748842D01*
X145227200Y-94886979D01*
X144307187Y-94886979D01*
X144307200Y-94886916D01*
X144307200Y-94627884D01*
X144256666Y-94373829D01*
X144157538Y-94134514D01*
X144013627Y-93919136D01*
X143830464Y-93735973D01*
X143615086Y-93592062D01*
X143375771Y-93492934D01*
X143121716Y-93442400D01*
X142862684Y-93442400D01*
X142608629Y-93492934D01*
X142369314Y-93592062D01*
X142153936Y-93735973D01*
X141970773Y-93919136D01*
X141826862Y-94134514D01*
X141727734Y-94373829D01*
X141677200Y-94627884D01*
X136652073Y-94627884D01*
X136662200Y-94576973D01*
X136662200Y-93737827D01*
X136498490Y-92914804D01*
X136177363Y-92139533D01*
X135711158Y-91441808D01*
X135117792Y-90848442D01*
X134420067Y-90382237D01*
X133644796Y-90061110D01*
X132821773Y-89897400D01*
X131982627Y-89897400D01*
X131159604Y-90061110D01*
X130384333Y-90382237D01*
X129686608Y-90848442D01*
X129093242Y-91441808D01*
X128627037Y-92139533D01*
X128305910Y-92914804D01*
X128282200Y-93034002D01*
X128282200Y-86657400D01*
X150272289Y-86657400D01*
X150291886Y-86856375D01*
X150349925Y-87047703D01*
X150444175Y-87224032D01*
X150571014Y-87378586D01*
X150725568Y-87505425D01*
X150901897Y-87599675D01*
X151093225Y-87657714D01*
X151242337Y-87672400D01*
X152142063Y-87672400D01*
X152291175Y-87657714D01*
X152482503Y-87599675D01*
X152658832Y-87505425D01*
X152813386Y-87378586D01*
X152940225Y-87224032D01*
X153034475Y-87047703D01*
X153092514Y-86856375D01*
X153112111Y-86657400D01*
X153092514Y-86458425D01*
X153034475Y-86267097D01*
X152940225Y-86090768D01*
X152813386Y-85936214D01*
X152658832Y-85809375D01*
X152482503Y-85715125D01*
X152291175Y-85657086D01*
X152268130Y-85654816D01*
X152293649Y-85652214D01*
X152483857Y-85593798D01*
X152659014Y-85499397D01*
X152812388Y-85372638D01*
X152938086Y-85218393D01*
X153031277Y-85042590D01*
X153088380Y-84851984D01*
X153094150Y-84819637D01*
X153028443Y-84660900D01*
X151695700Y-84660900D01*
X151695700Y-84680900D01*
X151688700Y-84680900D01*
X151688700Y-84660900D01*
X150355957Y-84660900D01*
X150290250Y-84819637D01*
X150296020Y-84851984D01*
X150353123Y-85042590D01*
X150446314Y-85218393D01*
X150572012Y-85372638D01*
X150725386Y-85499397D01*
X150900543Y-85593798D01*
X151090751Y-85652214D01*
X151116270Y-85654816D01*
X151093225Y-85657086D01*
X150901897Y-85715125D01*
X150725568Y-85809375D01*
X150571014Y-85936214D01*
X150444175Y-86090768D01*
X150349925Y-86267097D01*
X150291886Y-86458425D01*
X150272289Y-86657400D01*
X128282200Y-86657400D01*
X128282200Y-80657400D01*
X150272289Y-80657400D01*
X150291886Y-80856375D01*
X150349925Y-81047703D01*
X150444175Y-81224032D01*
X150571014Y-81378586D01*
X150725568Y-81505425D01*
X150901897Y-81599675D01*
X151092190Y-81657400D01*
X150901897Y-81715125D01*
X150725568Y-81809375D01*
X150571014Y-81936214D01*
X150444175Y-82090768D01*
X150349925Y-82267097D01*
X150291886Y-82458425D01*
X150272289Y-82657400D01*
X150291886Y-82856375D01*
X150349925Y-83047703D01*
X150444175Y-83224032D01*
X150571014Y-83378586D01*
X150725568Y-83505425D01*
X150901897Y-83599675D01*
X151093225Y-83657714D01*
X151116270Y-83659984D01*
X151090751Y-83662586D01*
X150900543Y-83721002D01*
X150725386Y-83815403D01*
X150572012Y-83942162D01*
X150446314Y-84096407D01*
X150353123Y-84272210D01*
X150296020Y-84462816D01*
X150290250Y-84495163D01*
X150355957Y-84653900D01*
X151688700Y-84653900D01*
X151688700Y-84633900D01*
X151695700Y-84633900D01*
X151695700Y-84653900D01*
X153028443Y-84653900D01*
X153094150Y-84495163D01*
X153088380Y-84462816D01*
X153031277Y-84272210D01*
X152938086Y-84096407D01*
X152812388Y-83942162D01*
X152659014Y-83815403D01*
X152483857Y-83721002D01*
X152293649Y-83662586D01*
X152268130Y-83659984D01*
X152291175Y-83657714D01*
X152482503Y-83599675D01*
X152658832Y-83505425D01*
X152813386Y-83378586D01*
X152940225Y-83224032D01*
X152967823Y-83172400D01*
X153228881Y-83172400D01*
X153310154Y-83253673D01*
X153326279Y-83273321D01*
X153404697Y-83337678D01*
X153494165Y-83385499D01*
X153591243Y-83414948D01*
X153666907Y-83422400D01*
X153666917Y-83422400D01*
X153692199Y-83424890D01*
X153717481Y-83422400D01*
X153877153Y-83422400D01*
X153881758Y-83469151D01*
X153899770Y-83528528D01*
X153929020Y-83583251D01*
X153968384Y-83631216D01*
X154016349Y-83670580D01*
X154071072Y-83699830D01*
X154130449Y-83717842D01*
X154192200Y-83723924D01*
X155692200Y-83723924D01*
X155753951Y-83717842D01*
X155813328Y-83699830D01*
X155868051Y-83670580D01*
X155916016Y-83631216D01*
X155955380Y-83583251D01*
X155984630Y-83528528D01*
X156002642Y-83469151D01*
X156008724Y-83407400D01*
X156008724Y-82407400D01*
X156002577Y-82345325D01*
X155984503Y-82285966D01*
X155969197Y-82257401D01*
X155984630Y-82228528D01*
X156002642Y-82169151D01*
X156008724Y-82107400D01*
X156008724Y-79707400D01*
X156002707Y-79645974D01*
X155984757Y-79586577D01*
X155969199Y-79557397D01*
X155984630Y-79528528D01*
X156002642Y-79469151D01*
X156008724Y-79407400D01*
X156008724Y-78407400D01*
X156002642Y-78345649D01*
X155984630Y-78286272D01*
X155955380Y-78231549D01*
X155916016Y-78183584D01*
X155868051Y-78144220D01*
X155813328Y-78114970D01*
X155753951Y-78096958D01*
X155692200Y-78090876D01*
X154192200Y-78090876D01*
X154130449Y-78096958D01*
X154071072Y-78114970D01*
X154016349Y-78144220D01*
X153968384Y-78183584D01*
X153929020Y-78231549D01*
X153899770Y-78286272D01*
X153881758Y-78345649D01*
X153875676Y-78407400D01*
X153875676Y-79407400D01*
X153881823Y-79469475D01*
X153899897Y-79528834D01*
X153915203Y-79557399D01*
X153899770Y-79586272D01*
X153881758Y-79645649D01*
X153875676Y-79707400D01*
X153875676Y-80465400D01*
X153875282Y-80465400D01*
X153770092Y-80360210D01*
X153756253Y-80343347D01*
X153688950Y-80288113D01*
X153612164Y-80247070D01*
X153528847Y-80221796D01*
X153463907Y-80215400D01*
X153463905Y-80215400D01*
X153442200Y-80213262D01*
X153420495Y-80215400D01*
X153006842Y-80215400D01*
X152940225Y-80090768D01*
X152813386Y-79936214D01*
X152658832Y-79809375D01*
X152482503Y-79715125D01*
X152291175Y-79657086D01*
X152142063Y-79642400D01*
X151242337Y-79642400D01*
X151093225Y-79657086D01*
X150901897Y-79715125D01*
X150725568Y-79809375D01*
X150571014Y-79936214D01*
X150444175Y-80090768D01*
X150349925Y-80267097D01*
X150291886Y-80458425D01*
X150272289Y-80657400D01*
X128282200Y-80657400D01*
X128282200Y-74280798D01*
X128305910Y-74399996D01*
X128627037Y-75175267D01*
X129093242Y-75872992D01*
X129686608Y-76466358D01*
X130384333Y-76932563D01*
X131159604Y-77253690D01*
X131982627Y-77417400D01*
X132821773Y-77417400D01*
X133644796Y-77253690D01*
X134420067Y-76932563D01*
X135117792Y-76466358D01*
X135711158Y-75872992D01*
X136177363Y-75175267D01*
X136498490Y-74399996D01*
X136662200Y-73576973D01*
X136662200Y-72737827D01*
X136600549Y-72427884D01*
X143177200Y-72427884D01*
X143177200Y-72686916D01*
X143227734Y-72940971D01*
X143326862Y-73180286D01*
X143470773Y-73395664D01*
X143653936Y-73578827D01*
X143869314Y-73722738D01*
X144108629Y-73821866D01*
X144362684Y-73872400D01*
X144621716Y-73872400D01*
X144875771Y-73821866D01*
X145115086Y-73722738D01*
X145330464Y-73578827D01*
X145513627Y-73395664D01*
X145657538Y-73180286D01*
X145756666Y-72940971D01*
X145807200Y-72686916D01*
X145807200Y-72427884D01*
X145756666Y-72173829D01*
X145657538Y-71934514D01*
X145513627Y-71719136D01*
X145330464Y-71535973D01*
X145318358Y-71527884D01*
X147627200Y-71527884D01*
X147627200Y-71786916D01*
X147677734Y-72040971D01*
X147776862Y-72280286D01*
X147920773Y-72495664D01*
X148103936Y-72678827D01*
X148319314Y-72822738D01*
X148558629Y-72921866D01*
X148812684Y-72972400D01*
X149071716Y-72972400D01*
X149325771Y-72921866D01*
X149565086Y-72822738D01*
X149780464Y-72678827D01*
X149963627Y-72495664D01*
X150103065Y-72286979D01*
X151227200Y-72286979D01*
X151227200Y-72427821D01*
X151254677Y-72565958D01*
X151308575Y-72696080D01*
X151386823Y-72813186D01*
X151486414Y-72912777D01*
X151603520Y-72991025D01*
X151733642Y-73044923D01*
X151871779Y-73072400D01*
X152012621Y-73072400D01*
X152150758Y-73044923D01*
X152280880Y-72991025D01*
X152397986Y-72912777D01*
X152497577Y-72813186D01*
X152575825Y-72696080D01*
X152629723Y-72565958D01*
X152657187Y-72427884D01*
X153577200Y-72427884D01*
X153577200Y-72686916D01*
X153627734Y-72940971D01*
X153726862Y-73180286D01*
X153870773Y-73395664D01*
X154053936Y-73578827D01*
X154269314Y-73722738D01*
X154508629Y-73821866D01*
X154762684Y-73872400D01*
X155021716Y-73872400D01*
X155275771Y-73821866D01*
X155515086Y-73722738D01*
X155730464Y-73578827D01*
X155913627Y-73395664D01*
X156057538Y-73180286D01*
X156156666Y-72940971D01*
X156207200Y-72686916D01*
X156207200Y-72427884D01*
X156156666Y-72173829D01*
X156057538Y-71934514D01*
X155913627Y-71719136D01*
X155730464Y-71535973D01*
X155515086Y-71392062D01*
X155275771Y-71292934D01*
X155021716Y-71242400D01*
X154762684Y-71242400D01*
X154508629Y-71292934D01*
X154269314Y-71392062D01*
X154053936Y-71535973D01*
X153870773Y-71719136D01*
X153726862Y-71934514D01*
X153627734Y-72173829D01*
X153577200Y-72427884D01*
X152657187Y-72427884D01*
X152657200Y-72427821D01*
X152657200Y-72286979D01*
X152629723Y-72148842D01*
X152575825Y-72018720D01*
X152497577Y-71901614D01*
X152397986Y-71802023D01*
X152280880Y-71723775D01*
X152150758Y-71669877D01*
X152012621Y-71642400D01*
X151871779Y-71642400D01*
X151733642Y-71669877D01*
X151603520Y-71723775D01*
X151486414Y-71802023D01*
X151386823Y-71901614D01*
X151308575Y-72018720D01*
X151254677Y-72148842D01*
X151227200Y-72286979D01*
X150103065Y-72286979D01*
X150107538Y-72280286D01*
X150206666Y-72040971D01*
X150257200Y-71786916D01*
X150257200Y-71527884D01*
X150206666Y-71273829D01*
X150107538Y-71034514D01*
X149963627Y-70819136D01*
X149780464Y-70635973D01*
X149565086Y-70492062D01*
X149325771Y-70392934D01*
X149071716Y-70342400D01*
X148812684Y-70342400D01*
X148558629Y-70392934D01*
X148319314Y-70492062D01*
X148103936Y-70635973D01*
X147920773Y-70819136D01*
X147776862Y-71034514D01*
X147677734Y-71273829D01*
X147627200Y-71527884D01*
X145318358Y-71527884D01*
X145115086Y-71392062D01*
X144875771Y-71292934D01*
X144621716Y-71242400D01*
X144362684Y-71242400D01*
X144108629Y-71292934D01*
X143869314Y-71392062D01*
X143653936Y-71535973D01*
X143470773Y-71719136D01*
X143326862Y-71934514D01*
X143227734Y-72173829D01*
X143177200Y-72427884D01*
X136600549Y-72427884D01*
X136498490Y-71914804D01*
X136177363Y-71139533D01*
X135711158Y-70441808D01*
X135117792Y-69848442D01*
X134420067Y-69382237D01*
X133644796Y-69061110D01*
X132821773Y-68897400D01*
X131982627Y-68897400D01*
X131159604Y-69061110D01*
X130384333Y-69382237D01*
X129686608Y-69848442D01*
X129093242Y-70441808D01*
X128627037Y-71139533D01*
X128305910Y-71914804D01*
X128282200Y-72034002D01*
X128282200Y-69174027D01*
X128296369Y-69029525D01*
X128333508Y-68906513D01*
X128393832Y-68793061D01*
X128475040Y-68693491D01*
X128574042Y-68611588D01*
X128687070Y-68550474D01*
X128809819Y-68512477D01*
X128953263Y-68497400D01*
X156925575Y-68497400D01*
X157167192Y-68521091D01*
G37*
G04 #@! TD.AperFunction*
M02*
