G04 #@! TF.GenerationSoftware,KiCad,Pcbnew,5.1.10*
G04 #@! TF.CreationDate,2021-09-16T01:02:32+02:00*
G04 #@! TF.ProjectId,pressureSensorHolder,70726573-7375-4726-9553-656e736f7248,rev?*
G04 #@! TF.SameCoordinates,Original*
G04 #@! TF.FileFunction,Soldermask,Top*
G04 #@! TF.FilePolarity,Negative*
%FSLAX46Y46*%
G04 Gerber Fmt 4.6, Leading zero omitted, Abs format (unit mm)*
G04 Created by KiCad (PCBNEW 5.1.10) date 2021-09-16 01:02:32*
%MOMM*%
%LPD*%
G01*
G04 APERTURE LIST*
G04 #@! TA.AperFunction,Profile*
%ADD10C,0.050000*%
G04 #@! TD*
%ADD11O,2.302000X1.502000*%
%ADD12C,2.102000*%
%ADD13C,0.902000*%
%ADD14C,6.502000*%
%ADD15R,1.500000X1.500000*%
%ADD16C,0.100000*%
G04 APERTURE END LIST*
D10*
X128942200Y-99157400D02*
G75*
G02*
X127942200Y-98157400I0J1000000D01*
G01*
X127942200Y-69157400D02*
G75*
G02*
X128942200Y-68157400I1000000J0D01*
G01*
X158442200Y-97657400D02*
G75*
G02*
X156942200Y-99157400I-1500000J0D01*
G01*
X156942200Y-68157400D02*
G75*
G02*
X158442200Y-69657400I0J-1500000D01*
G01*
X158442200Y-97657400D02*
X158442200Y-69657400D01*
X128942200Y-99157400D02*
X156942200Y-99157400D01*
X127942200Y-69157400D02*
X127942200Y-98157400D01*
X156942200Y-68157400D02*
X128942200Y-68157400D01*
X128942200Y-99157400D02*
G75*
G02*
X127942200Y-98157400I0J1000000D01*
G01*
X127942200Y-69157400D02*
G75*
G02*
X128942200Y-68157400I1000000J0D01*
G01*
X158442200Y-97657400D02*
G75*
G02*
X156942200Y-99157400I-1500000J0D01*
G01*
X156942200Y-68157400D02*
G75*
G02*
X158442200Y-69657400I0J-1500000D01*
G01*
X158442200Y-97657400D02*
X158442200Y-69657400D01*
X128942200Y-99157400D02*
X156942200Y-99157400D01*
X127942200Y-69157400D02*
X127942200Y-98157400D01*
X156942200Y-68157400D02*
X128942200Y-68157400D01*
D11*
X151692200Y-80657400D03*
X151692200Y-82657400D03*
X151692200Y-84657400D03*
X151692200Y-86657400D03*
D12*
X154892200Y-72557400D03*
X144492200Y-72557400D03*
X142992200Y-94757400D03*
X154892200Y-94757400D03*
D13*
X151942200Y-72357400D03*
D12*
X148942200Y-71657400D03*
D13*
X145942200Y-94957400D03*
D12*
X148942200Y-95657400D03*
D13*
X134099256Y-92460344D03*
X132402200Y-91757400D03*
X130705144Y-92460344D03*
X130002200Y-94157400D03*
X130705144Y-95854456D03*
X132402200Y-96557400D03*
X134099256Y-95854456D03*
X134802200Y-94157400D03*
D14*
X132402200Y-94157400D03*
D13*
X134099256Y-71460344D03*
X132402200Y-70757400D03*
X130705144Y-71460344D03*
X130002200Y-73157400D03*
X130705144Y-74854456D03*
X132402200Y-75557400D03*
X134099256Y-74854456D03*
X134802200Y-73157400D03*
D14*
X132402200Y-73157400D03*
D15*
X154942200Y-79707400D03*
X154942200Y-82107400D03*
D16*
G36*
X154142180Y-82397450D02*
G01*
X154145082Y-82387883D01*
X154149795Y-82379066D01*
X154156138Y-82371338D01*
X154163910Y-82364965D01*
X154913910Y-81864965D01*
X154922732Y-81860262D01*
X154932303Y-81857370D01*
X154942253Y-81856400D01*
X154952202Y-81857390D01*
X154961766Y-81860303D01*
X154970490Y-81864965D01*
X155720490Y-82364965D01*
X155728225Y-82371300D01*
X155734575Y-82379022D01*
X155739297Y-82387834D01*
X155742210Y-82397398D01*
X155743200Y-82407400D01*
X155743200Y-83407400D01*
X155742220Y-83417350D01*
X155739318Y-83426917D01*
X155734605Y-83435734D01*
X155728262Y-83443462D01*
X155720534Y-83449805D01*
X155711717Y-83454518D01*
X155702150Y-83457420D01*
X155692200Y-83458400D01*
X154192200Y-83458400D01*
X154182250Y-83457420D01*
X154172683Y-83454518D01*
X154163866Y-83449805D01*
X154156138Y-83443462D01*
X154149795Y-83435734D01*
X154145082Y-83426917D01*
X154142180Y-83417350D01*
X154141200Y-83407400D01*
X154141200Y-82407400D01*
X154142180Y-82397450D01*
G37*
G36*
X155742220Y-79417350D02*
G01*
X155739318Y-79426917D01*
X155734605Y-79435734D01*
X155728262Y-79443462D01*
X155720490Y-79449835D01*
X154970490Y-79949835D01*
X154961668Y-79954538D01*
X154952097Y-79957430D01*
X154942147Y-79958400D01*
X154932198Y-79957410D01*
X154922634Y-79954497D01*
X154913910Y-79949835D01*
X154163910Y-79449835D01*
X154156175Y-79443500D01*
X154149825Y-79435778D01*
X154145103Y-79426966D01*
X154142190Y-79417402D01*
X154141200Y-79407400D01*
X154141200Y-78407400D01*
X154142180Y-78397450D01*
X154145082Y-78387883D01*
X154149795Y-78379066D01*
X154156138Y-78371338D01*
X154163866Y-78364995D01*
X154172683Y-78360282D01*
X154182250Y-78357380D01*
X154192200Y-78356400D01*
X155692200Y-78356400D01*
X155702150Y-78357380D01*
X155711717Y-78360282D01*
X155720534Y-78364995D01*
X155728262Y-78371338D01*
X155734605Y-78379066D01*
X155739318Y-78387883D01*
X155742220Y-78397450D01*
X155743200Y-78407400D01*
X155743200Y-79407400D01*
X155742220Y-79417350D01*
G37*
M02*
