M48
; DRILL file {KiCad 5.1.10} date Thu Sep 16 01:02:34 2021
; FORMAT={-:-/ absolute / metric / decimal}
; #@! TF.CreationDate,2021-09-16T01:02:34+02:00
; #@! TF.GenerationSoftware,Kicad,Pcbnew,5.1.10
; #@! TF.FileFunction,Plated,1,2,PTH
FMAT,2
METRIC
T1C0.500
T2C1.000
T3C3.200
%
G90
G05
T1
X130.002Y-73.157
X130.002Y-94.157
X130.705Y-71.46
X130.705Y-74.854
X130.705Y-92.46
X130.705Y-95.854
X132.402Y-70.757
X132.402Y-75.557
X132.402Y-91.757
X132.402Y-96.557
X134.099Y-71.46
X134.099Y-74.854
X134.099Y-92.46
X134.099Y-95.854
X134.802Y-73.157
X134.802Y-94.157
T2
X151.692Y-80.657
X151.692Y-82.657
X151.692Y-84.657
X151.692Y-86.657
T3
X132.402Y-73.157
X132.402Y-94.157
T0
M30
