G04 #@! TF.GenerationSoftware,KiCad,Pcbnew,5.1.10*
G04 #@! TF.CreationDate,2021-09-16T01:02:32+02:00*
G04 #@! TF.ProjectId,pressureSensorHolder,70726573-7375-4726-9553-656e736f7248,rev?*
G04 #@! TF.SameCoordinates,Original*
G04 #@! TF.FileFunction,Copper,L2,Bot*
G04 #@! TF.FilePolarity,Positive*
%FSLAX46Y46*%
G04 Gerber Fmt 4.6, Leading zero omitted, Abs format (unit mm)*
G04 Created by KiCad (PCBNEW 5.1.10) date 2021-09-16 01:02:32*
%MOMM*%
%LPD*%
G01*
G04 APERTURE LIST*
G04 #@! TA.AperFunction,Profile*
%ADD10C,0.050000*%
G04 #@! TD*
G04 #@! TA.AperFunction,ComponentPad*
%ADD11O,2.200000X1.400000*%
G04 #@! TD*
G04 #@! TA.AperFunction,ComponentPad*
%ADD12C,0.800000*%
G04 #@! TD*
G04 #@! TA.AperFunction,ComponentPad*
%ADD13C,6.400000*%
G04 #@! TD*
G04 #@! TA.AperFunction,Conductor*
%ADD14C,0.254000*%
G04 #@! TD*
G04 #@! TA.AperFunction,Conductor*
%ADD15C,0.400000*%
G04 #@! TD*
G04 #@! TA.AperFunction,Conductor*
%ADD16C,0.200000*%
G04 #@! TD*
G04 #@! TA.AperFunction,Conductor*
%ADD17C,0.100000*%
G04 #@! TD*
G04 APERTURE END LIST*
D10*
X128942200Y-99157400D02*
G75*
G02*
X127942200Y-98157400I0J1000000D01*
G01*
X127942200Y-69157400D02*
G75*
G02*
X128942200Y-68157400I1000000J0D01*
G01*
X158442200Y-97657400D02*
G75*
G02*
X156942200Y-99157400I-1500000J0D01*
G01*
X156942200Y-68157400D02*
G75*
G02*
X158442200Y-69657400I0J-1500000D01*
G01*
X158442200Y-97657400D02*
X158442200Y-69657400D01*
X128942200Y-99157400D02*
X156942200Y-99157400D01*
X127942200Y-69157400D02*
X127942200Y-98157400D01*
X156942200Y-68157400D02*
X128942200Y-68157400D01*
G04 #@! TA.AperFunction,SMDPad,CuDef*
G36*
G01*
X130514200Y-87009400D02*
X133014200Y-87009400D01*
G75*
G02*
X133264200Y-87259400I0J-250000D01*
G01*
X133264200Y-88359400D01*
G75*
G02*
X133014200Y-88609400I-250000J0D01*
G01*
X130514200Y-88609400D01*
G75*
G02*
X130264200Y-88359400I0J250000D01*
G01*
X130264200Y-87259400D01*
G75*
G02*
X130514200Y-87009400I250000J0D01*
G01*
G37*
G04 #@! TD.AperFunction*
G04 #@! TA.AperFunction,SMDPad,CuDef*
G36*
G01*
X130514200Y-78209400D02*
X133014200Y-78209400D01*
G75*
G02*
X133264200Y-78459400I0J-250000D01*
G01*
X133264200Y-79559400D01*
G75*
G02*
X133014200Y-79809400I-250000J0D01*
G01*
X130514200Y-79809400D01*
G75*
G02*
X130264200Y-79559400I0J250000D01*
G01*
X130264200Y-78459400D01*
G75*
G02*
X130514200Y-78209400I250000J0D01*
G01*
G37*
G04 #@! TD.AperFunction*
G04 #@! TA.AperFunction,SMDPad,CuDef*
G36*
G01*
X131514200Y-84909400D02*
X136514200Y-84909400D01*
G75*
G02*
X136764200Y-85159400I0J-250000D01*
G01*
X136764200Y-85659400D01*
G75*
G02*
X136514200Y-85909400I-250000J0D01*
G01*
X131514200Y-85909400D01*
G75*
G02*
X131264200Y-85659400I0J250000D01*
G01*
X131264200Y-85159400D01*
G75*
G02*
X131514200Y-84909400I250000J0D01*
G01*
G37*
G04 #@! TD.AperFunction*
G04 #@! TA.AperFunction,SMDPad,CuDef*
G36*
G01*
X131514200Y-82909400D02*
X136514200Y-82909400D01*
G75*
G02*
X136764200Y-83159400I0J-250000D01*
G01*
X136764200Y-83659400D01*
G75*
G02*
X136514200Y-83909400I-250000J0D01*
G01*
X131514200Y-83909400D01*
G75*
G02*
X131264200Y-83659400I0J250000D01*
G01*
X131264200Y-83159400D01*
G75*
G02*
X131514200Y-82909400I250000J0D01*
G01*
G37*
G04 #@! TD.AperFunction*
G04 #@! TA.AperFunction,SMDPad,CuDef*
G36*
G01*
X131514200Y-80909400D02*
X136514200Y-80909400D01*
G75*
G02*
X136764200Y-81159400I0J-250000D01*
G01*
X136764200Y-81659400D01*
G75*
G02*
X136514200Y-81909400I-250000J0D01*
G01*
X131514200Y-81909400D01*
G75*
G02*
X131264200Y-81659400I0J250000D01*
G01*
X131264200Y-81159400D01*
G75*
G02*
X131514200Y-80909400I250000J0D01*
G01*
G37*
G04 #@! TD.AperFunction*
G04 #@! TA.AperFunction,SMDPad,CuDef*
G36*
G01*
X137877198Y-87057400D02*
X138777202Y-87057400D01*
G75*
G02*
X139027200Y-87307398I0J-249998D01*
G01*
X139027200Y-87832402D01*
G75*
G02*
X138777202Y-88082400I-249998J0D01*
G01*
X137877198Y-88082400D01*
G75*
G02*
X137627200Y-87832402I0J249998D01*
G01*
X137627200Y-87307398D01*
G75*
G02*
X137877198Y-87057400I249998J0D01*
G01*
G37*
G04 #@! TD.AperFunction*
G04 #@! TA.AperFunction,SMDPad,CuDef*
G36*
G01*
X137877198Y-85232400D02*
X138777202Y-85232400D01*
G75*
G02*
X139027200Y-85482398I0J-249998D01*
G01*
X139027200Y-86007402D01*
G75*
G02*
X138777202Y-86257400I-249998J0D01*
G01*
X137877198Y-86257400D01*
G75*
G02*
X137627200Y-86007402I0J249998D01*
G01*
X137627200Y-85482398D01*
G75*
G02*
X137877198Y-85232400I249998J0D01*
G01*
G37*
G04 #@! TD.AperFunction*
G04 #@! TA.AperFunction,SMDPad,CuDef*
G36*
G01*
X138783450Y-82207400D02*
X137870950Y-82207400D01*
G75*
G02*
X137627200Y-81963650I0J243750D01*
G01*
X137627200Y-81476150D01*
G75*
G02*
X137870950Y-81232400I243750J0D01*
G01*
X138783450Y-81232400D01*
G75*
G02*
X139027200Y-81476150I0J-243750D01*
G01*
X139027200Y-81963650D01*
G75*
G02*
X138783450Y-82207400I-243750J0D01*
G01*
G37*
G04 #@! TD.AperFunction*
G04 #@! TA.AperFunction,SMDPad,CuDef*
G36*
G01*
X138783450Y-84082400D02*
X137870950Y-84082400D01*
G75*
G02*
X137627200Y-83838650I0J243750D01*
G01*
X137627200Y-83351150D01*
G75*
G02*
X137870950Y-83107400I243750J0D01*
G01*
X138783450Y-83107400D01*
G75*
G02*
X139027200Y-83351150I0J-243750D01*
G01*
X139027200Y-83838650D01*
G75*
G02*
X138783450Y-84082400I-243750J0D01*
G01*
G37*
G04 #@! TD.AperFunction*
D11*
X151692200Y-80657400D03*
X151692200Y-82657400D03*
X151692200Y-84657400D03*
X151692200Y-86657400D03*
D12*
X134099256Y-92460344D03*
X132402200Y-91757400D03*
X130705144Y-92460344D03*
X130002200Y-94157400D03*
X130705144Y-95854456D03*
X132402200Y-96557400D03*
X134099256Y-95854456D03*
X134802200Y-94157400D03*
D13*
X132402200Y-94157400D03*
D12*
X134099256Y-71460344D03*
X132402200Y-70757400D03*
X130705144Y-71460344D03*
X130002200Y-73157400D03*
X130705144Y-74854456D03*
X132402200Y-75557400D03*
X134099256Y-74854456D03*
X134802200Y-73157400D03*
D13*
X132402200Y-73157400D03*
G04 #@! TA.AperFunction,SMDPad,CuDef*
G36*
G01*
X138736201Y-74381400D02*
X137436199Y-74381400D01*
G75*
G02*
X137186200Y-74131401I0J249999D01*
G01*
X137186200Y-73481399D01*
G75*
G02*
X137436199Y-73231400I249999J0D01*
G01*
X138736201Y-73231400D01*
G75*
G02*
X138986200Y-73481399I0J-249999D01*
G01*
X138986200Y-74131401D01*
G75*
G02*
X138736201Y-74381400I-249999J0D01*
G01*
G37*
G04 #@! TD.AperFunction*
G04 #@! TA.AperFunction,SMDPad,CuDef*
G36*
G01*
X138736201Y-77331400D02*
X137436199Y-77331400D01*
G75*
G02*
X137186200Y-77081401I0J249999D01*
G01*
X137186200Y-76431399D01*
G75*
G02*
X137436199Y-76181400I249999J0D01*
G01*
X138736201Y-76181400D01*
G75*
G02*
X138986200Y-76431399I0J-249999D01*
G01*
X138986200Y-77081401D01*
G75*
G02*
X138736201Y-77331400I-249999J0D01*
G01*
G37*
G04 #@! TD.AperFunction*
D14*
X142973246Y-86657400D02*
X151692200Y-86657400D01*
X138963246Y-82647400D02*
X142973246Y-86657400D01*
X134776200Y-82647400D02*
X138963246Y-82647400D01*
X134014200Y-83409400D02*
X134776200Y-82647400D01*
D15*
X134014200Y-81409400D02*
X136975200Y-81409400D01*
X137285700Y-81719900D02*
X138327200Y-81719900D01*
X136975200Y-81409400D02*
X137285700Y-81719900D01*
X145692200Y-82657400D02*
X151692200Y-82657400D01*
X144754700Y-81719900D02*
X145692200Y-82657400D01*
X138428700Y-81719900D02*
X144754700Y-81719900D01*
X138213200Y-81504400D02*
X138428700Y-81719900D01*
X138213200Y-79980400D02*
X138213200Y-81504400D01*
X138086200Y-79853400D02*
X138213200Y-79980400D01*
X138086200Y-76678400D02*
X138086200Y-79853400D01*
D14*
X138327200Y-83594900D02*
X138327200Y-85744900D01*
D16*
X157159389Y-68560517D02*
X157368303Y-68623592D01*
X157560989Y-68726045D01*
X157730106Y-68863974D01*
X157869211Y-69032123D01*
X157973007Y-69224088D01*
X158037540Y-69432562D01*
X158062201Y-69667200D01*
X158062200Y-97638820D01*
X158039083Y-97874588D01*
X157976008Y-98083504D01*
X157873555Y-98276189D01*
X157735626Y-98445306D01*
X157567477Y-98584411D01*
X157375512Y-98688207D01*
X157167038Y-98752740D01*
X156932409Y-98777400D01*
X128960781Y-98777400D01*
X128822129Y-98763805D01*
X128706632Y-98728934D01*
X128600106Y-98672294D01*
X128506610Y-98596041D01*
X128429707Y-98503080D01*
X128372325Y-98396953D01*
X128336648Y-98281700D01*
X128322200Y-98144239D01*
X128322200Y-95543852D01*
X128591589Y-96194214D01*
X129062172Y-96898490D01*
X129661110Y-97497428D01*
X130365386Y-97968011D01*
X131147936Y-98292154D01*
X131978687Y-98457400D01*
X132825713Y-98457400D01*
X133656464Y-98292154D01*
X134439014Y-97968011D01*
X135143290Y-97497428D01*
X135742228Y-96898490D01*
X136212811Y-96194214D01*
X136536954Y-95411664D01*
X136693640Y-94623944D01*
X141637200Y-94623944D01*
X141637200Y-94890856D01*
X141689272Y-95152639D01*
X141791415Y-95399233D01*
X141939703Y-95621162D01*
X142128438Y-95809897D01*
X142350367Y-95958185D01*
X142596961Y-96060328D01*
X142858744Y-96112400D01*
X143125656Y-96112400D01*
X143387439Y-96060328D01*
X143634033Y-95958185D01*
X143855962Y-95809897D01*
X144044697Y-95621162D01*
X144192985Y-95399233D01*
X144295128Y-95152639D01*
X144347200Y-94890856D01*
X144347200Y-94883039D01*
X145187200Y-94883039D01*
X145187200Y-95031761D01*
X145216214Y-95177625D01*
X145273128Y-95315027D01*
X145355753Y-95438684D01*
X145460916Y-95543847D01*
X145584573Y-95626472D01*
X145721975Y-95683386D01*
X145867839Y-95712400D01*
X146016561Y-95712400D01*
X146162425Y-95683386D01*
X146299827Y-95626472D01*
X146423484Y-95543847D01*
X146443387Y-95523944D01*
X147587200Y-95523944D01*
X147587200Y-95790856D01*
X147639272Y-96052639D01*
X147741415Y-96299233D01*
X147889703Y-96521162D01*
X148078438Y-96709897D01*
X148300367Y-96858185D01*
X148546961Y-96960328D01*
X148808744Y-97012400D01*
X149075656Y-97012400D01*
X149337439Y-96960328D01*
X149584033Y-96858185D01*
X149805962Y-96709897D01*
X149994697Y-96521162D01*
X150142985Y-96299233D01*
X150245128Y-96052639D01*
X150297200Y-95790856D01*
X150297200Y-95523944D01*
X150245128Y-95262161D01*
X150142985Y-95015567D01*
X149994697Y-94793638D01*
X149825003Y-94623944D01*
X153537200Y-94623944D01*
X153537200Y-94890856D01*
X153589272Y-95152639D01*
X153691415Y-95399233D01*
X153839703Y-95621162D01*
X154028438Y-95809897D01*
X154250367Y-95958185D01*
X154496961Y-96060328D01*
X154758744Y-96112400D01*
X155025656Y-96112400D01*
X155287439Y-96060328D01*
X155534033Y-95958185D01*
X155755962Y-95809897D01*
X155944697Y-95621162D01*
X156092985Y-95399233D01*
X156195128Y-95152639D01*
X156247200Y-94890856D01*
X156247200Y-94623944D01*
X156195128Y-94362161D01*
X156092985Y-94115567D01*
X155944697Y-93893638D01*
X155755962Y-93704903D01*
X155534033Y-93556615D01*
X155287439Y-93454472D01*
X155025656Y-93402400D01*
X154758744Y-93402400D01*
X154496961Y-93454472D01*
X154250367Y-93556615D01*
X154028438Y-93704903D01*
X153839703Y-93893638D01*
X153691415Y-94115567D01*
X153589272Y-94362161D01*
X153537200Y-94623944D01*
X149825003Y-94623944D01*
X149805962Y-94604903D01*
X149584033Y-94456615D01*
X149337439Y-94354472D01*
X149075656Y-94302400D01*
X148808744Y-94302400D01*
X148546961Y-94354472D01*
X148300367Y-94456615D01*
X148078438Y-94604903D01*
X147889703Y-94793638D01*
X147741415Y-95015567D01*
X147639272Y-95262161D01*
X147587200Y-95523944D01*
X146443387Y-95523944D01*
X146528647Y-95438684D01*
X146611272Y-95315027D01*
X146668186Y-95177625D01*
X146697200Y-95031761D01*
X146697200Y-94883039D01*
X146668186Y-94737175D01*
X146611272Y-94599773D01*
X146528647Y-94476116D01*
X146423484Y-94370953D01*
X146299827Y-94288328D01*
X146162425Y-94231414D01*
X146016561Y-94202400D01*
X145867839Y-94202400D01*
X145721975Y-94231414D01*
X145584573Y-94288328D01*
X145460916Y-94370953D01*
X145355753Y-94476116D01*
X145273128Y-94599773D01*
X145216214Y-94737175D01*
X145187200Y-94883039D01*
X144347200Y-94883039D01*
X144347200Y-94623944D01*
X144295128Y-94362161D01*
X144192985Y-94115567D01*
X144044697Y-93893638D01*
X143855962Y-93704903D01*
X143634033Y-93556615D01*
X143387439Y-93454472D01*
X143125656Y-93402400D01*
X142858744Y-93402400D01*
X142596961Y-93454472D01*
X142350367Y-93556615D01*
X142128438Y-93704903D01*
X141939703Y-93893638D01*
X141791415Y-94115567D01*
X141689272Y-94362161D01*
X141637200Y-94623944D01*
X136693640Y-94623944D01*
X136702200Y-94580913D01*
X136702200Y-93733887D01*
X136536954Y-92903136D01*
X136212811Y-92120586D01*
X135742228Y-91416310D01*
X135143290Y-90817372D01*
X134439014Y-90346789D01*
X133656464Y-90022646D01*
X132825713Y-89857400D01*
X131978687Y-89857400D01*
X131147936Y-90022646D01*
X130365386Y-90346789D01*
X129661110Y-90817372D01*
X129062172Y-91416310D01*
X128591589Y-92120586D01*
X128322200Y-92770948D01*
X128322200Y-87259400D01*
X129907483Y-87259400D01*
X129907483Y-88359400D01*
X129919141Y-88477765D01*
X129953667Y-88591581D01*
X130009733Y-88696474D01*
X130085186Y-88788414D01*
X130177126Y-88863867D01*
X130282019Y-88919933D01*
X130395835Y-88954459D01*
X130514200Y-88966117D01*
X133014200Y-88966117D01*
X133132565Y-88954459D01*
X133246381Y-88919933D01*
X133351274Y-88863867D01*
X133443214Y-88788414D01*
X133518667Y-88696474D01*
X133574733Y-88591581D01*
X133609259Y-88477765D01*
X133620917Y-88359400D01*
X133620917Y-88082400D01*
X137270482Y-88082400D01*
X137277336Y-88151992D01*
X137297636Y-88218910D01*
X137330600Y-88280582D01*
X137374962Y-88334638D01*
X137429018Y-88379000D01*
X137490690Y-88411964D01*
X137557608Y-88432264D01*
X137627200Y-88439118D01*
X138233450Y-88437400D01*
X138322200Y-88348650D01*
X138322200Y-87574900D01*
X138332200Y-87574900D01*
X138332200Y-88348650D01*
X138420950Y-88437400D01*
X139027200Y-88439118D01*
X139096792Y-88432264D01*
X139163710Y-88411964D01*
X139225382Y-88379000D01*
X139279438Y-88334638D01*
X139323800Y-88280582D01*
X139356764Y-88218910D01*
X139377064Y-88151992D01*
X139383918Y-88082400D01*
X139382200Y-87663650D01*
X139293450Y-87574900D01*
X138332200Y-87574900D01*
X138322200Y-87574900D01*
X137360950Y-87574900D01*
X137272200Y-87663650D01*
X137270482Y-88082400D01*
X133620917Y-88082400D01*
X133620917Y-87259400D01*
X133609259Y-87141035D01*
X133583889Y-87057400D01*
X137270482Y-87057400D01*
X137272200Y-87476150D01*
X137360950Y-87564900D01*
X138322200Y-87564900D01*
X138322200Y-86791150D01*
X138332200Y-86791150D01*
X138332200Y-87564900D01*
X139293450Y-87564900D01*
X139382200Y-87476150D01*
X139383918Y-87057400D01*
X139377064Y-86987808D01*
X139356764Y-86920890D01*
X139323800Y-86859218D01*
X139279438Y-86805162D01*
X139225382Y-86760800D01*
X139163710Y-86727836D01*
X139096792Y-86707536D01*
X139027200Y-86700682D01*
X138420950Y-86702400D01*
X138332200Y-86791150D01*
X138322200Y-86791150D01*
X138233450Y-86702400D01*
X137627200Y-86700682D01*
X137557608Y-86707536D01*
X137490690Y-86727836D01*
X137429018Y-86760800D01*
X137374962Y-86805162D01*
X137330600Y-86859218D01*
X137297636Y-86920890D01*
X137277336Y-86987808D01*
X137270482Y-87057400D01*
X133583889Y-87057400D01*
X133574733Y-87027219D01*
X133518667Y-86922326D01*
X133443214Y-86830386D01*
X133351274Y-86754933D01*
X133246381Y-86698867D01*
X133132565Y-86664341D01*
X133014200Y-86652683D01*
X130514200Y-86652683D01*
X130395835Y-86664341D01*
X130282019Y-86698867D01*
X130177126Y-86754933D01*
X130085186Y-86830386D01*
X130009733Y-86922326D01*
X129953667Y-87027219D01*
X129919141Y-87141035D01*
X129907483Y-87259400D01*
X128322200Y-87259400D01*
X128322200Y-85909400D01*
X130907482Y-85909400D01*
X130914336Y-85978992D01*
X130934636Y-86045910D01*
X130967600Y-86107582D01*
X131011962Y-86161638D01*
X131066018Y-86206000D01*
X131127690Y-86238964D01*
X131194608Y-86259264D01*
X131264200Y-86266118D01*
X133920450Y-86264400D01*
X134009200Y-86175650D01*
X134009200Y-85414400D01*
X134019200Y-85414400D01*
X134019200Y-86175650D01*
X134107950Y-86264400D01*
X136764200Y-86266118D01*
X136833792Y-86259264D01*
X136900710Y-86238964D01*
X136962382Y-86206000D01*
X137016438Y-86161638D01*
X137060800Y-86107582D01*
X137093764Y-86045910D01*
X137114064Y-85978992D01*
X137120918Y-85909400D01*
X137119200Y-85503150D01*
X137030450Y-85414400D01*
X134019200Y-85414400D01*
X134009200Y-85414400D01*
X130997950Y-85414400D01*
X130909200Y-85503150D01*
X130907482Y-85909400D01*
X128322200Y-85909400D01*
X128322200Y-84909400D01*
X130907482Y-84909400D01*
X130909200Y-85315650D01*
X130997950Y-85404400D01*
X134009200Y-85404400D01*
X134009200Y-84643150D01*
X134019200Y-84643150D01*
X134019200Y-85404400D01*
X137030450Y-85404400D01*
X137119200Y-85315650D01*
X137120918Y-84909400D01*
X137114064Y-84839808D01*
X137093764Y-84772890D01*
X137060800Y-84711218D01*
X137016438Y-84657162D01*
X136962382Y-84612800D01*
X136900710Y-84579836D01*
X136833792Y-84559536D01*
X136764200Y-84552682D01*
X134107950Y-84554400D01*
X134019200Y-84643150D01*
X134009200Y-84643150D01*
X133920450Y-84554400D01*
X131264200Y-84552682D01*
X131194608Y-84559536D01*
X131127690Y-84579836D01*
X131066018Y-84612800D01*
X131011962Y-84657162D01*
X130967600Y-84711218D01*
X130934636Y-84772890D01*
X130914336Y-84839808D01*
X130907482Y-84909400D01*
X128322200Y-84909400D01*
X128322200Y-81159400D01*
X130907483Y-81159400D01*
X130907483Y-81659400D01*
X130919141Y-81777765D01*
X130953667Y-81891581D01*
X131009733Y-81996474D01*
X131085186Y-82088414D01*
X131177126Y-82163867D01*
X131282019Y-82219933D01*
X131395835Y-82254459D01*
X131514200Y-82266117D01*
X134481014Y-82266117D01*
X134452117Y-82289832D01*
X134452112Y-82289837D01*
X134433726Y-82304926D01*
X134418637Y-82323312D01*
X134189266Y-82552683D01*
X131514200Y-82552683D01*
X131395835Y-82564341D01*
X131282019Y-82598867D01*
X131177126Y-82654933D01*
X131085186Y-82730386D01*
X131009733Y-82822326D01*
X130953667Y-82927219D01*
X130919141Y-83041035D01*
X130907483Y-83159400D01*
X130907483Y-83659400D01*
X130919141Y-83777765D01*
X130953667Y-83891581D01*
X131009733Y-83996474D01*
X131085186Y-84088414D01*
X131177126Y-84163867D01*
X131282019Y-84219933D01*
X131395835Y-84254459D01*
X131514200Y-84266117D01*
X136514200Y-84266117D01*
X136632565Y-84254459D01*
X136746381Y-84219933D01*
X136851274Y-84163867D01*
X136943214Y-84088414D01*
X137018667Y-83996474D01*
X137074733Y-83891581D01*
X137109259Y-83777765D01*
X137120917Y-83659400D01*
X137120917Y-83159400D01*
X137117962Y-83129400D01*
X137313752Y-83129400D01*
X137282021Y-83234005D01*
X137270483Y-83351150D01*
X137270483Y-83838650D01*
X137282021Y-83955795D01*
X137316191Y-84068439D01*
X137371680Y-84172252D01*
X137446356Y-84263244D01*
X137537348Y-84337920D01*
X137641161Y-84393409D01*
X137753805Y-84427579D01*
X137845200Y-84436581D01*
X137845201Y-84878835D01*
X137758834Y-84887341D01*
X137645018Y-84921866D01*
X137540125Y-84977933D01*
X137448186Y-85053386D01*
X137372733Y-85145325D01*
X137316666Y-85250218D01*
X137282141Y-85364034D01*
X137270483Y-85482398D01*
X137270483Y-86007402D01*
X137282141Y-86125766D01*
X137316666Y-86239582D01*
X137372733Y-86344475D01*
X137448186Y-86436414D01*
X137540125Y-86511867D01*
X137645018Y-86567934D01*
X137758834Y-86602459D01*
X137877198Y-86614117D01*
X138777202Y-86614117D01*
X138895566Y-86602459D01*
X139009382Y-86567934D01*
X139114275Y-86511867D01*
X139206214Y-86436414D01*
X139281667Y-86344475D01*
X139337734Y-86239582D01*
X139372259Y-86125766D01*
X139383917Y-86007402D01*
X139383917Y-85482398D01*
X139372259Y-85364034D01*
X139337734Y-85250218D01*
X139281667Y-85145325D01*
X139206214Y-85053386D01*
X139114275Y-84977933D01*
X139009382Y-84921866D01*
X138895566Y-84887341D01*
X138809200Y-84878835D01*
X138809200Y-84436581D01*
X138900595Y-84427579D01*
X139013239Y-84393409D01*
X139117052Y-84337920D01*
X139208044Y-84263244D01*
X139282720Y-84172252D01*
X139338209Y-84068439D01*
X139372379Y-83955795D01*
X139383917Y-83838650D01*
X139383917Y-83749721D01*
X142615683Y-86981488D01*
X142630772Y-86999874D01*
X142649158Y-87014963D01*
X142649163Y-87014968D01*
X142704164Y-87060106D01*
X142704166Y-87060107D01*
X142787900Y-87104864D01*
X142878758Y-87132426D01*
X142949568Y-87139400D01*
X142949580Y-87139400D01*
X142973245Y-87141731D01*
X142996910Y-87139400D01*
X150353584Y-87139400D01*
X150410756Y-87246362D01*
X150542593Y-87407007D01*
X150703238Y-87538844D01*
X150886516Y-87636808D01*
X151085384Y-87697134D01*
X151240379Y-87712400D01*
X152144021Y-87712400D01*
X152299016Y-87697134D01*
X152497884Y-87636808D01*
X152681162Y-87538844D01*
X152841807Y-87407007D01*
X152973644Y-87246362D01*
X153071608Y-87063084D01*
X153131934Y-86864216D01*
X153152304Y-86657400D01*
X153131934Y-86450584D01*
X153071608Y-86251716D01*
X152973644Y-86068438D01*
X152841807Y-85907793D01*
X152681162Y-85775956D01*
X152497884Y-85677992D01*
X152421088Y-85654696D01*
X152500550Y-85630180D01*
X152682484Y-85531823D01*
X152841733Y-85399863D01*
X152972178Y-85239370D01*
X153068806Y-85056512D01*
X153127904Y-84858317D01*
X153133417Y-84827375D01*
X153058437Y-84662400D01*
X151697200Y-84662400D01*
X151697200Y-84682400D01*
X151687200Y-84682400D01*
X151687200Y-84662400D01*
X150325963Y-84662400D01*
X150250983Y-84827375D01*
X150256496Y-84858317D01*
X150315594Y-85056512D01*
X150412222Y-85239370D01*
X150542667Y-85399863D01*
X150701916Y-85531823D01*
X150883850Y-85630180D01*
X150963312Y-85654696D01*
X150886516Y-85677992D01*
X150703238Y-85775956D01*
X150542593Y-85907793D01*
X150410756Y-86068438D01*
X150353584Y-86175400D01*
X143172897Y-86175400D01*
X139320814Y-82323318D01*
X139305720Y-82304926D01*
X139287328Y-82289832D01*
X139286882Y-82289466D01*
X139294667Y-82274900D01*
X144524813Y-82274900D01*
X145280476Y-83030564D01*
X145297857Y-83051743D01*
X145382367Y-83121098D01*
X145478783Y-83172634D01*
X145583401Y-83204369D01*
X145664939Y-83212400D01*
X145664941Y-83212400D01*
X145692199Y-83215085D01*
X145719457Y-83212400D01*
X150392603Y-83212400D01*
X150410756Y-83246362D01*
X150542593Y-83407007D01*
X150703238Y-83538844D01*
X150886516Y-83636808D01*
X150963312Y-83660104D01*
X150883850Y-83684620D01*
X150701916Y-83782977D01*
X150542667Y-83914937D01*
X150412222Y-84075430D01*
X150315594Y-84258288D01*
X150256496Y-84456483D01*
X150250983Y-84487425D01*
X150325963Y-84652400D01*
X151687200Y-84652400D01*
X151687200Y-84632400D01*
X151697200Y-84632400D01*
X151697200Y-84652400D01*
X153058437Y-84652400D01*
X153133417Y-84487425D01*
X153127904Y-84456483D01*
X153068806Y-84258288D01*
X152972178Y-84075430D01*
X152841733Y-83914937D01*
X152682484Y-83782977D01*
X152500550Y-83684620D01*
X152421088Y-83660104D01*
X152497884Y-83636808D01*
X152681162Y-83538844D01*
X152841807Y-83407007D01*
X152973644Y-83246362D01*
X153071608Y-83063084D01*
X153131934Y-82864216D01*
X153152304Y-82657400D01*
X153131934Y-82450584D01*
X153071608Y-82251716D01*
X152973644Y-82068438D01*
X152841807Y-81907793D01*
X152681162Y-81775956D01*
X152497884Y-81677992D01*
X152430001Y-81657400D01*
X152497884Y-81636808D01*
X152681162Y-81538844D01*
X152841807Y-81407007D01*
X152973644Y-81246362D01*
X153071608Y-81063084D01*
X153131934Y-80864216D01*
X153152304Y-80657400D01*
X153131934Y-80450584D01*
X153071608Y-80251716D01*
X152973644Y-80068438D01*
X152841807Y-79907793D01*
X152681162Y-79775956D01*
X152497884Y-79677992D01*
X152299016Y-79617666D01*
X152144021Y-79602400D01*
X151240379Y-79602400D01*
X151085384Y-79617666D01*
X150886516Y-79677992D01*
X150703238Y-79775956D01*
X150542593Y-79907793D01*
X150410756Y-80068438D01*
X150312792Y-80251716D01*
X150252466Y-80450584D01*
X150232096Y-80657400D01*
X150252466Y-80864216D01*
X150312792Y-81063084D01*
X150410756Y-81246362D01*
X150542593Y-81407007D01*
X150703238Y-81538844D01*
X150886516Y-81636808D01*
X150954399Y-81657400D01*
X150886516Y-81677992D01*
X150703238Y-81775956D01*
X150542593Y-81907793D01*
X150410756Y-82068438D01*
X150392603Y-82102400D01*
X145922088Y-82102400D01*
X145166428Y-81346741D01*
X145149043Y-81325557D01*
X145064533Y-81256202D01*
X144968117Y-81204666D01*
X144863499Y-81172931D01*
X144781961Y-81164900D01*
X144781960Y-81164900D01*
X144754700Y-81162215D01*
X144727440Y-81164900D01*
X139294667Y-81164900D01*
X139282720Y-81142548D01*
X139208044Y-81051556D01*
X139117052Y-80976880D01*
X139013239Y-80921391D01*
X138900595Y-80887221D01*
X138783450Y-80875683D01*
X138768200Y-80875683D01*
X138768200Y-80007657D01*
X138770885Y-79980399D01*
X138768200Y-79953139D01*
X138760169Y-79871601D01*
X138728434Y-79766983D01*
X138676898Y-79670567D01*
X138641200Y-79627069D01*
X138641200Y-77688117D01*
X138736201Y-77688117D01*
X138854565Y-77676459D01*
X138968381Y-77641933D01*
X139073274Y-77585867D01*
X139165214Y-77510414D01*
X139240667Y-77418474D01*
X139296733Y-77313581D01*
X139331259Y-77199765D01*
X139342917Y-77081401D01*
X139342917Y-76431399D01*
X139331259Y-76313035D01*
X139296733Y-76199219D01*
X139240667Y-76094326D01*
X139165214Y-76002386D01*
X139073274Y-75926933D01*
X138968381Y-75870867D01*
X138854565Y-75836341D01*
X138736201Y-75824683D01*
X137436199Y-75824683D01*
X137317835Y-75836341D01*
X137204019Y-75870867D01*
X137099126Y-75926933D01*
X137007186Y-76002386D01*
X136931733Y-76094326D01*
X136875667Y-76199219D01*
X136841141Y-76313035D01*
X136829483Y-76431399D01*
X136829483Y-77081401D01*
X136841141Y-77199765D01*
X136875667Y-77313581D01*
X136931733Y-77418474D01*
X137007186Y-77510414D01*
X137099126Y-77585867D01*
X137204019Y-77641933D01*
X137317835Y-77676459D01*
X137436199Y-77688117D01*
X137531200Y-77688117D01*
X137531201Y-79826130D01*
X137528515Y-79853400D01*
X137539231Y-79962198D01*
X137570966Y-80066816D01*
X137570967Y-80066817D01*
X137622503Y-80163233D01*
X137658200Y-80206730D01*
X137658201Y-80916222D01*
X137641161Y-80921391D01*
X137537348Y-80976880D01*
X137446356Y-81051556D01*
X137426472Y-81075785D01*
X137386928Y-81036241D01*
X137369543Y-81015057D01*
X137285033Y-80945702D01*
X137188617Y-80894166D01*
X137083999Y-80862431D01*
X137037664Y-80857867D01*
X137018667Y-80822326D01*
X136943214Y-80730386D01*
X136851274Y-80654933D01*
X136746381Y-80598867D01*
X136632565Y-80564341D01*
X136514200Y-80552683D01*
X131514200Y-80552683D01*
X131395835Y-80564341D01*
X131282019Y-80598867D01*
X131177126Y-80654933D01*
X131085186Y-80730386D01*
X131009733Y-80822326D01*
X130953667Y-80927219D01*
X130919141Y-81041035D01*
X130907483Y-81159400D01*
X128322200Y-81159400D01*
X128322200Y-78459400D01*
X129907483Y-78459400D01*
X129907483Y-79559400D01*
X129919141Y-79677765D01*
X129953667Y-79791581D01*
X130009733Y-79896474D01*
X130085186Y-79988414D01*
X130177126Y-80063867D01*
X130282019Y-80119933D01*
X130395835Y-80154459D01*
X130514200Y-80166117D01*
X133014200Y-80166117D01*
X133132565Y-80154459D01*
X133246381Y-80119933D01*
X133351274Y-80063867D01*
X133443214Y-79988414D01*
X133518667Y-79896474D01*
X133574733Y-79791581D01*
X133609259Y-79677765D01*
X133620917Y-79559400D01*
X133620917Y-78459400D01*
X133609259Y-78341035D01*
X133574733Y-78227219D01*
X133518667Y-78122326D01*
X133443214Y-78030386D01*
X133351274Y-77954933D01*
X133246381Y-77898867D01*
X133132565Y-77864341D01*
X133014200Y-77852683D01*
X130514200Y-77852683D01*
X130395835Y-77864341D01*
X130282019Y-77898867D01*
X130177126Y-77954933D01*
X130085186Y-78030386D01*
X130009733Y-78122326D01*
X129953667Y-78227219D01*
X129919141Y-78341035D01*
X129907483Y-78459400D01*
X128322200Y-78459400D01*
X128322200Y-74543852D01*
X128591589Y-75194214D01*
X129062172Y-75898490D01*
X129661110Y-76497428D01*
X130365386Y-76968011D01*
X131147936Y-77292154D01*
X131978687Y-77457400D01*
X132825713Y-77457400D01*
X133656464Y-77292154D01*
X134439014Y-76968011D01*
X135143290Y-76497428D01*
X135742228Y-75898490D01*
X136212811Y-75194214D01*
X136536954Y-74411664D01*
X136542973Y-74381400D01*
X136829482Y-74381400D01*
X136836336Y-74450992D01*
X136856636Y-74517910D01*
X136889600Y-74579582D01*
X136933962Y-74633638D01*
X136988018Y-74678000D01*
X137049690Y-74710964D01*
X137116608Y-74731264D01*
X137186200Y-74738118D01*
X137992450Y-74736400D01*
X138081200Y-74647650D01*
X138081200Y-73811400D01*
X138091200Y-73811400D01*
X138091200Y-74647650D01*
X138179950Y-74736400D01*
X138986200Y-74738118D01*
X139055792Y-74731264D01*
X139122710Y-74710964D01*
X139184382Y-74678000D01*
X139238438Y-74633638D01*
X139282800Y-74579582D01*
X139315764Y-74517910D01*
X139336064Y-74450992D01*
X139342918Y-74381400D01*
X139341200Y-73900150D01*
X139252450Y-73811400D01*
X138091200Y-73811400D01*
X138081200Y-73811400D01*
X136919950Y-73811400D01*
X136831200Y-73900150D01*
X136829482Y-74381400D01*
X136542973Y-74381400D01*
X136702200Y-73580913D01*
X136702200Y-73231400D01*
X136829482Y-73231400D01*
X136831200Y-73712650D01*
X136919950Y-73801400D01*
X138081200Y-73801400D01*
X138081200Y-72965150D01*
X138091200Y-72965150D01*
X138091200Y-73801400D01*
X139252450Y-73801400D01*
X139341200Y-73712650D01*
X139342918Y-73231400D01*
X139336064Y-73161808D01*
X139315764Y-73094890D01*
X139282800Y-73033218D01*
X139238438Y-72979162D01*
X139184382Y-72934800D01*
X139122710Y-72901836D01*
X139055792Y-72881536D01*
X138986200Y-72874682D01*
X138179950Y-72876400D01*
X138091200Y-72965150D01*
X138081200Y-72965150D01*
X137992450Y-72876400D01*
X137186200Y-72874682D01*
X137116608Y-72881536D01*
X137049690Y-72901836D01*
X136988018Y-72934800D01*
X136933962Y-72979162D01*
X136889600Y-73033218D01*
X136856636Y-73094890D01*
X136836336Y-73161808D01*
X136829482Y-73231400D01*
X136702200Y-73231400D01*
X136702200Y-72733887D01*
X136640549Y-72423944D01*
X143137200Y-72423944D01*
X143137200Y-72690856D01*
X143189272Y-72952639D01*
X143291415Y-73199233D01*
X143439703Y-73421162D01*
X143628438Y-73609897D01*
X143850367Y-73758185D01*
X144096961Y-73860328D01*
X144358744Y-73912400D01*
X144625656Y-73912400D01*
X144887439Y-73860328D01*
X145134033Y-73758185D01*
X145355962Y-73609897D01*
X145544697Y-73421162D01*
X145692985Y-73199233D01*
X145795128Y-72952639D01*
X145847200Y-72690856D01*
X145847200Y-72423944D01*
X145795128Y-72162161D01*
X145692985Y-71915567D01*
X145544697Y-71693638D01*
X145375003Y-71523944D01*
X147587200Y-71523944D01*
X147587200Y-71790856D01*
X147639272Y-72052639D01*
X147741415Y-72299233D01*
X147889703Y-72521162D01*
X148078438Y-72709897D01*
X148300367Y-72858185D01*
X148546961Y-72960328D01*
X148808744Y-73012400D01*
X149075656Y-73012400D01*
X149337439Y-72960328D01*
X149584033Y-72858185D01*
X149805962Y-72709897D01*
X149994697Y-72521162D01*
X150142985Y-72299233D01*
X150149692Y-72283039D01*
X151187200Y-72283039D01*
X151187200Y-72431761D01*
X151216214Y-72577625D01*
X151273128Y-72715027D01*
X151355753Y-72838684D01*
X151460916Y-72943847D01*
X151584573Y-73026472D01*
X151721975Y-73083386D01*
X151867839Y-73112400D01*
X152016561Y-73112400D01*
X152162425Y-73083386D01*
X152299827Y-73026472D01*
X152423484Y-72943847D01*
X152528647Y-72838684D01*
X152611272Y-72715027D01*
X152668186Y-72577625D01*
X152697200Y-72431761D01*
X152697200Y-72423944D01*
X153537200Y-72423944D01*
X153537200Y-72690856D01*
X153589272Y-72952639D01*
X153691415Y-73199233D01*
X153839703Y-73421162D01*
X154028438Y-73609897D01*
X154250367Y-73758185D01*
X154496961Y-73860328D01*
X154758744Y-73912400D01*
X155025656Y-73912400D01*
X155287439Y-73860328D01*
X155534033Y-73758185D01*
X155755962Y-73609897D01*
X155944697Y-73421162D01*
X156092985Y-73199233D01*
X156195128Y-72952639D01*
X156247200Y-72690856D01*
X156247200Y-72423944D01*
X156195128Y-72162161D01*
X156092985Y-71915567D01*
X155944697Y-71693638D01*
X155755962Y-71504903D01*
X155534033Y-71356615D01*
X155287439Y-71254472D01*
X155025656Y-71202400D01*
X154758744Y-71202400D01*
X154496961Y-71254472D01*
X154250367Y-71356615D01*
X154028438Y-71504903D01*
X153839703Y-71693638D01*
X153691415Y-71915567D01*
X153589272Y-72162161D01*
X153537200Y-72423944D01*
X152697200Y-72423944D01*
X152697200Y-72283039D01*
X152668186Y-72137175D01*
X152611272Y-71999773D01*
X152528647Y-71876116D01*
X152423484Y-71770953D01*
X152299827Y-71688328D01*
X152162425Y-71631414D01*
X152016561Y-71602400D01*
X151867839Y-71602400D01*
X151721975Y-71631414D01*
X151584573Y-71688328D01*
X151460916Y-71770953D01*
X151355753Y-71876116D01*
X151273128Y-71999773D01*
X151216214Y-72137175D01*
X151187200Y-72283039D01*
X150149692Y-72283039D01*
X150245128Y-72052639D01*
X150297200Y-71790856D01*
X150297200Y-71523944D01*
X150245128Y-71262161D01*
X150142985Y-71015567D01*
X149994697Y-70793638D01*
X149805962Y-70604903D01*
X149584033Y-70456615D01*
X149337439Y-70354472D01*
X149075656Y-70302400D01*
X148808744Y-70302400D01*
X148546961Y-70354472D01*
X148300367Y-70456615D01*
X148078438Y-70604903D01*
X147889703Y-70793638D01*
X147741415Y-71015567D01*
X147639272Y-71262161D01*
X147587200Y-71523944D01*
X145375003Y-71523944D01*
X145355962Y-71504903D01*
X145134033Y-71356615D01*
X144887439Y-71254472D01*
X144625656Y-71202400D01*
X144358744Y-71202400D01*
X144096961Y-71254472D01*
X143850367Y-71356615D01*
X143628438Y-71504903D01*
X143439703Y-71693638D01*
X143291415Y-71915567D01*
X143189272Y-72162161D01*
X143137200Y-72423944D01*
X136640549Y-72423944D01*
X136536954Y-71903136D01*
X136212811Y-71120586D01*
X135742228Y-70416310D01*
X135143290Y-69817372D01*
X134439014Y-69346789D01*
X133656464Y-69022646D01*
X132825713Y-68857400D01*
X131978687Y-68857400D01*
X131147936Y-69022646D01*
X130365386Y-69346789D01*
X129661110Y-69817372D01*
X129062172Y-70416310D01*
X128591589Y-71120586D01*
X128322200Y-71770948D01*
X128322200Y-69175982D01*
X128335795Y-69037330D01*
X128370668Y-68921828D01*
X128427306Y-68815306D01*
X128503558Y-68721812D01*
X128596518Y-68644908D01*
X128702645Y-68587526D01*
X128817900Y-68551848D01*
X128955361Y-68537400D01*
X156923620Y-68537400D01*
X157159389Y-68560517D01*
G04 #@! TA.AperFunction,Conductor*
D17*
G36*
X157159389Y-68560517D02*
G01*
X157368303Y-68623592D01*
X157560989Y-68726045D01*
X157730106Y-68863974D01*
X157869211Y-69032123D01*
X157973007Y-69224088D01*
X158037540Y-69432562D01*
X158062201Y-69667200D01*
X158062200Y-97638820D01*
X158039083Y-97874588D01*
X157976008Y-98083504D01*
X157873555Y-98276189D01*
X157735626Y-98445306D01*
X157567477Y-98584411D01*
X157375512Y-98688207D01*
X157167038Y-98752740D01*
X156932409Y-98777400D01*
X128960781Y-98777400D01*
X128822129Y-98763805D01*
X128706632Y-98728934D01*
X128600106Y-98672294D01*
X128506610Y-98596041D01*
X128429707Y-98503080D01*
X128372325Y-98396953D01*
X128336648Y-98281700D01*
X128322200Y-98144239D01*
X128322200Y-95543852D01*
X128591589Y-96194214D01*
X129062172Y-96898490D01*
X129661110Y-97497428D01*
X130365386Y-97968011D01*
X131147936Y-98292154D01*
X131978687Y-98457400D01*
X132825713Y-98457400D01*
X133656464Y-98292154D01*
X134439014Y-97968011D01*
X135143290Y-97497428D01*
X135742228Y-96898490D01*
X136212811Y-96194214D01*
X136536954Y-95411664D01*
X136693640Y-94623944D01*
X141637200Y-94623944D01*
X141637200Y-94890856D01*
X141689272Y-95152639D01*
X141791415Y-95399233D01*
X141939703Y-95621162D01*
X142128438Y-95809897D01*
X142350367Y-95958185D01*
X142596961Y-96060328D01*
X142858744Y-96112400D01*
X143125656Y-96112400D01*
X143387439Y-96060328D01*
X143634033Y-95958185D01*
X143855962Y-95809897D01*
X144044697Y-95621162D01*
X144192985Y-95399233D01*
X144295128Y-95152639D01*
X144347200Y-94890856D01*
X144347200Y-94883039D01*
X145187200Y-94883039D01*
X145187200Y-95031761D01*
X145216214Y-95177625D01*
X145273128Y-95315027D01*
X145355753Y-95438684D01*
X145460916Y-95543847D01*
X145584573Y-95626472D01*
X145721975Y-95683386D01*
X145867839Y-95712400D01*
X146016561Y-95712400D01*
X146162425Y-95683386D01*
X146299827Y-95626472D01*
X146423484Y-95543847D01*
X146443387Y-95523944D01*
X147587200Y-95523944D01*
X147587200Y-95790856D01*
X147639272Y-96052639D01*
X147741415Y-96299233D01*
X147889703Y-96521162D01*
X148078438Y-96709897D01*
X148300367Y-96858185D01*
X148546961Y-96960328D01*
X148808744Y-97012400D01*
X149075656Y-97012400D01*
X149337439Y-96960328D01*
X149584033Y-96858185D01*
X149805962Y-96709897D01*
X149994697Y-96521162D01*
X150142985Y-96299233D01*
X150245128Y-96052639D01*
X150297200Y-95790856D01*
X150297200Y-95523944D01*
X150245128Y-95262161D01*
X150142985Y-95015567D01*
X149994697Y-94793638D01*
X149825003Y-94623944D01*
X153537200Y-94623944D01*
X153537200Y-94890856D01*
X153589272Y-95152639D01*
X153691415Y-95399233D01*
X153839703Y-95621162D01*
X154028438Y-95809897D01*
X154250367Y-95958185D01*
X154496961Y-96060328D01*
X154758744Y-96112400D01*
X155025656Y-96112400D01*
X155287439Y-96060328D01*
X155534033Y-95958185D01*
X155755962Y-95809897D01*
X155944697Y-95621162D01*
X156092985Y-95399233D01*
X156195128Y-95152639D01*
X156247200Y-94890856D01*
X156247200Y-94623944D01*
X156195128Y-94362161D01*
X156092985Y-94115567D01*
X155944697Y-93893638D01*
X155755962Y-93704903D01*
X155534033Y-93556615D01*
X155287439Y-93454472D01*
X155025656Y-93402400D01*
X154758744Y-93402400D01*
X154496961Y-93454472D01*
X154250367Y-93556615D01*
X154028438Y-93704903D01*
X153839703Y-93893638D01*
X153691415Y-94115567D01*
X153589272Y-94362161D01*
X153537200Y-94623944D01*
X149825003Y-94623944D01*
X149805962Y-94604903D01*
X149584033Y-94456615D01*
X149337439Y-94354472D01*
X149075656Y-94302400D01*
X148808744Y-94302400D01*
X148546961Y-94354472D01*
X148300367Y-94456615D01*
X148078438Y-94604903D01*
X147889703Y-94793638D01*
X147741415Y-95015567D01*
X147639272Y-95262161D01*
X147587200Y-95523944D01*
X146443387Y-95523944D01*
X146528647Y-95438684D01*
X146611272Y-95315027D01*
X146668186Y-95177625D01*
X146697200Y-95031761D01*
X146697200Y-94883039D01*
X146668186Y-94737175D01*
X146611272Y-94599773D01*
X146528647Y-94476116D01*
X146423484Y-94370953D01*
X146299827Y-94288328D01*
X146162425Y-94231414D01*
X146016561Y-94202400D01*
X145867839Y-94202400D01*
X145721975Y-94231414D01*
X145584573Y-94288328D01*
X145460916Y-94370953D01*
X145355753Y-94476116D01*
X145273128Y-94599773D01*
X145216214Y-94737175D01*
X145187200Y-94883039D01*
X144347200Y-94883039D01*
X144347200Y-94623944D01*
X144295128Y-94362161D01*
X144192985Y-94115567D01*
X144044697Y-93893638D01*
X143855962Y-93704903D01*
X143634033Y-93556615D01*
X143387439Y-93454472D01*
X143125656Y-93402400D01*
X142858744Y-93402400D01*
X142596961Y-93454472D01*
X142350367Y-93556615D01*
X142128438Y-93704903D01*
X141939703Y-93893638D01*
X141791415Y-94115567D01*
X141689272Y-94362161D01*
X141637200Y-94623944D01*
X136693640Y-94623944D01*
X136702200Y-94580913D01*
X136702200Y-93733887D01*
X136536954Y-92903136D01*
X136212811Y-92120586D01*
X135742228Y-91416310D01*
X135143290Y-90817372D01*
X134439014Y-90346789D01*
X133656464Y-90022646D01*
X132825713Y-89857400D01*
X131978687Y-89857400D01*
X131147936Y-90022646D01*
X130365386Y-90346789D01*
X129661110Y-90817372D01*
X129062172Y-91416310D01*
X128591589Y-92120586D01*
X128322200Y-92770948D01*
X128322200Y-87259400D01*
X129907483Y-87259400D01*
X129907483Y-88359400D01*
X129919141Y-88477765D01*
X129953667Y-88591581D01*
X130009733Y-88696474D01*
X130085186Y-88788414D01*
X130177126Y-88863867D01*
X130282019Y-88919933D01*
X130395835Y-88954459D01*
X130514200Y-88966117D01*
X133014200Y-88966117D01*
X133132565Y-88954459D01*
X133246381Y-88919933D01*
X133351274Y-88863867D01*
X133443214Y-88788414D01*
X133518667Y-88696474D01*
X133574733Y-88591581D01*
X133609259Y-88477765D01*
X133620917Y-88359400D01*
X133620917Y-88082400D01*
X137270482Y-88082400D01*
X137277336Y-88151992D01*
X137297636Y-88218910D01*
X137330600Y-88280582D01*
X137374962Y-88334638D01*
X137429018Y-88379000D01*
X137490690Y-88411964D01*
X137557608Y-88432264D01*
X137627200Y-88439118D01*
X138233450Y-88437400D01*
X138322200Y-88348650D01*
X138322200Y-87574900D01*
X138332200Y-87574900D01*
X138332200Y-88348650D01*
X138420950Y-88437400D01*
X139027200Y-88439118D01*
X139096792Y-88432264D01*
X139163710Y-88411964D01*
X139225382Y-88379000D01*
X139279438Y-88334638D01*
X139323800Y-88280582D01*
X139356764Y-88218910D01*
X139377064Y-88151992D01*
X139383918Y-88082400D01*
X139382200Y-87663650D01*
X139293450Y-87574900D01*
X138332200Y-87574900D01*
X138322200Y-87574900D01*
X137360950Y-87574900D01*
X137272200Y-87663650D01*
X137270482Y-88082400D01*
X133620917Y-88082400D01*
X133620917Y-87259400D01*
X133609259Y-87141035D01*
X133583889Y-87057400D01*
X137270482Y-87057400D01*
X137272200Y-87476150D01*
X137360950Y-87564900D01*
X138322200Y-87564900D01*
X138322200Y-86791150D01*
X138332200Y-86791150D01*
X138332200Y-87564900D01*
X139293450Y-87564900D01*
X139382200Y-87476150D01*
X139383918Y-87057400D01*
X139377064Y-86987808D01*
X139356764Y-86920890D01*
X139323800Y-86859218D01*
X139279438Y-86805162D01*
X139225382Y-86760800D01*
X139163710Y-86727836D01*
X139096792Y-86707536D01*
X139027200Y-86700682D01*
X138420950Y-86702400D01*
X138332200Y-86791150D01*
X138322200Y-86791150D01*
X138233450Y-86702400D01*
X137627200Y-86700682D01*
X137557608Y-86707536D01*
X137490690Y-86727836D01*
X137429018Y-86760800D01*
X137374962Y-86805162D01*
X137330600Y-86859218D01*
X137297636Y-86920890D01*
X137277336Y-86987808D01*
X137270482Y-87057400D01*
X133583889Y-87057400D01*
X133574733Y-87027219D01*
X133518667Y-86922326D01*
X133443214Y-86830386D01*
X133351274Y-86754933D01*
X133246381Y-86698867D01*
X133132565Y-86664341D01*
X133014200Y-86652683D01*
X130514200Y-86652683D01*
X130395835Y-86664341D01*
X130282019Y-86698867D01*
X130177126Y-86754933D01*
X130085186Y-86830386D01*
X130009733Y-86922326D01*
X129953667Y-87027219D01*
X129919141Y-87141035D01*
X129907483Y-87259400D01*
X128322200Y-87259400D01*
X128322200Y-85909400D01*
X130907482Y-85909400D01*
X130914336Y-85978992D01*
X130934636Y-86045910D01*
X130967600Y-86107582D01*
X131011962Y-86161638D01*
X131066018Y-86206000D01*
X131127690Y-86238964D01*
X131194608Y-86259264D01*
X131264200Y-86266118D01*
X133920450Y-86264400D01*
X134009200Y-86175650D01*
X134009200Y-85414400D01*
X134019200Y-85414400D01*
X134019200Y-86175650D01*
X134107950Y-86264400D01*
X136764200Y-86266118D01*
X136833792Y-86259264D01*
X136900710Y-86238964D01*
X136962382Y-86206000D01*
X137016438Y-86161638D01*
X137060800Y-86107582D01*
X137093764Y-86045910D01*
X137114064Y-85978992D01*
X137120918Y-85909400D01*
X137119200Y-85503150D01*
X137030450Y-85414400D01*
X134019200Y-85414400D01*
X134009200Y-85414400D01*
X130997950Y-85414400D01*
X130909200Y-85503150D01*
X130907482Y-85909400D01*
X128322200Y-85909400D01*
X128322200Y-84909400D01*
X130907482Y-84909400D01*
X130909200Y-85315650D01*
X130997950Y-85404400D01*
X134009200Y-85404400D01*
X134009200Y-84643150D01*
X134019200Y-84643150D01*
X134019200Y-85404400D01*
X137030450Y-85404400D01*
X137119200Y-85315650D01*
X137120918Y-84909400D01*
X137114064Y-84839808D01*
X137093764Y-84772890D01*
X137060800Y-84711218D01*
X137016438Y-84657162D01*
X136962382Y-84612800D01*
X136900710Y-84579836D01*
X136833792Y-84559536D01*
X136764200Y-84552682D01*
X134107950Y-84554400D01*
X134019200Y-84643150D01*
X134009200Y-84643150D01*
X133920450Y-84554400D01*
X131264200Y-84552682D01*
X131194608Y-84559536D01*
X131127690Y-84579836D01*
X131066018Y-84612800D01*
X131011962Y-84657162D01*
X130967600Y-84711218D01*
X130934636Y-84772890D01*
X130914336Y-84839808D01*
X130907482Y-84909400D01*
X128322200Y-84909400D01*
X128322200Y-81159400D01*
X130907483Y-81159400D01*
X130907483Y-81659400D01*
X130919141Y-81777765D01*
X130953667Y-81891581D01*
X131009733Y-81996474D01*
X131085186Y-82088414D01*
X131177126Y-82163867D01*
X131282019Y-82219933D01*
X131395835Y-82254459D01*
X131514200Y-82266117D01*
X134481014Y-82266117D01*
X134452117Y-82289832D01*
X134452112Y-82289837D01*
X134433726Y-82304926D01*
X134418637Y-82323312D01*
X134189266Y-82552683D01*
X131514200Y-82552683D01*
X131395835Y-82564341D01*
X131282019Y-82598867D01*
X131177126Y-82654933D01*
X131085186Y-82730386D01*
X131009733Y-82822326D01*
X130953667Y-82927219D01*
X130919141Y-83041035D01*
X130907483Y-83159400D01*
X130907483Y-83659400D01*
X130919141Y-83777765D01*
X130953667Y-83891581D01*
X131009733Y-83996474D01*
X131085186Y-84088414D01*
X131177126Y-84163867D01*
X131282019Y-84219933D01*
X131395835Y-84254459D01*
X131514200Y-84266117D01*
X136514200Y-84266117D01*
X136632565Y-84254459D01*
X136746381Y-84219933D01*
X136851274Y-84163867D01*
X136943214Y-84088414D01*
X137018667Y-83996474D01*
X137074733Y-83891581D01*
X137109259Y-83777765D01*
X137120917Y-83659400D01*
X137120917Y-83159400D01*
X137117962Y-83129400D01*
X137313752Y-83129400D01*
X137282021Y-83234005D01*
X137270483Y-83351150D01*
X137270483Y-83838650D01*
X137282021Y-83955795D01*
X137316191Y-84068439D01*
X137371680Y-84172252D01*
X137446356Y-84263244D01*
X137537348Y-84337920D01*
X137641161Y-84393409D01*
X137753805Y-84427579D01*
X137845200Y-84436581D01*
X137845201Y-84878835D01*
X137758834Y-84887341D01*
X137645018Y-84921866D01*
X137540125Y-84977933D01*
X137448186Y-85053386D01*
X137372733Y-85145325D01*
X137316666Y-85250218D01*
X137282141Y-85364034D01*
X137270483Y-85482398D01*
X137270483Y-86007402D01*
X137282141Y-86125766D01*
X137316666Y-86239582D01*
X137372733Y-86344475D01*
X137448186Y-86436414D01*
X137540125Y-86511867D01*
X137645018Y-86567934D01*
X137758834Y-86602459D01*
X137877198Y-86614117D01*
X138777202Y-86614117D01*
X138895566Y-86602459D01*
X139009382Y-86567934D01*
X139114275Y-86511867D01*
X139206214Y-86436414D01*
X139281667Y-86344475D01*
X139337734Y-86239582D01*
X139372259Y-86125766D01*
X139383917Y-86007402D01*
X139383917Y-85482398D01*
X139372259Y-85364034D01*
X139337734Y-85250218D01*
X139281667Y-85145325D01*
X139206214Y-85053386D01*
X139114275Y-84977933D01*
X139009382Y-84921866D01*
X138895566Y-84887341D01*
X138809200Y-84878835D01*
X138809200Y-84436581D01*
X138900595Y-84427579D01*
X139013239Y-84393409D01*
X139117052Y-84337920D01*
X139208044Y-84263244D01*
X139282720Y-84172252D01*
X139338209Y-84068439D01*
X139372379Y-83955795D01*
X139383917Y-83838650D01*
X139383917Y-83749721D01*
X142615683Y-86981488D01*
X142630772Y-86999874D01*
X142649158Y-87014963D01*
X142649163Y-87014968D01*
X142704164Y-87060106D01*
X142704166Y-87060107D01*
X142787900Y-87104864D01*
X142878758Y-87132426D01*
X142949568Y-87139400D01*
X142949580Y-87139400D01*
X142973245Y-87141731D01*
X142996910Y-87139400D01*
X150353584Y-87139400D01*
X150410756Y-87246362D01*
X150542593Y-87407007D01*
X150703238Y-87538844D01*
X150886516Y-87636808D01*
X151085384Y-87697134D01*
X151240379Y-87712400D01*
X152144021Y-87712400D01*
X152299016Y-87697134D01*
X152497884Y-87636808D01*
X152681162Y-87538844D01*
X152841807Y-87407007D01*
X152973644Y-87246362D01*
X153071608Y-87063084D01*
X153131934Y-86864216D01*
X153152304Y-86657400D01*
X153131934Y-86450584D01*
X153071608Y-86251716D01*
X152973644Y-86068438D01*
X152841807Y-85907793D01*
X152681162Y-85775956D01*
X152497884Y-85677992D01*
X152421088Y-85654696D01*
X152500550Y-85630180D01*
X152682484Y-85531823D01*
X152841733Y-85399863D01*
X152972178Y-85239370D01*
X153068806Y-85056512D01*
X153127904Y-84858317D01*
X153133417Y-84827375D01*
X153058437Y-84662400D01*
X151697200Y-84662400D01*
X151697200Y-84682400D01*
X151687200Y-84682400D01*
X151687200Y-84662400D01*
X150325963Y-84662400D01*
X150250983Y-84827375D01*
X150256496Y-84858317D01*
X150315594Y-85056512D01*
X150412222Y-85239370D01*
X150542667Y-85399863D01*
X150701916Y-85531823D01*
X150883850Y-85630180D01*
X150963312Y-85654696D01*
X150886516Y-85677992D01*
X150703238Y-85775956D01*
X150542593Y-85907793D01*
X150410756Y-86068438D01*
X150353584Y-86175400D01*
X143172897Y-86175400D01*
X139320814Y-82323318D01*
X139305720Y-82304926D01*
X139287328Y-82289832D01*
X139286882Y-82289466D01*
X139294667Y-82274900D01*
X144524813Y-82274900D01*
X145280476Y-83030564D01*
X145297857Y-83051743D01*
X145382367Y-83121098D01*
X145478783Y-83172634D01*
X145583401Y-83204369D01*
X145664939Y-83212400D01*
X145664941Y-83212400D01*
X145692199Y-83215085D01*
X145719457Y-83212400D01*
X150392603Y-83212400D01*
X150410756Y-83246362D01*
X150542593Y-83407007D01*
X150703238Y-83538844D01*
X150886516Y-83636808D01*
X150963312Y-83660104D01*
X150883850Y-83684620D01*
X150701916Y-83782977D01*
X150542667Y-83914937D01*
X150412222Y-84075430D01*
X150315594Y-84258288D01*
X150256496Y-84456483D01*
X150250983Y-84487425D01*
X150325963Y-84652400D01*
X151687200Y-84652400D01*
X151687200Y-84632400D01*
X151697200Y-84632400D01*
X151697200Y-84652400D01*
X153058437Y-84652400D01*
X153133417Y-84487425D01*
X153127904Y-84456483D01*
X153068806Y-84258288D01*
X152972178Y-84075430D01*
X152841733Y-83914937D01*
X152682484Y-83782977D01*
X152500550Y-83684620D01*
X152421088Y-83660104D01*
X152497884Y-83636808D01*
X152681162Y-83538844D01*
X152841807Y-83407007D01*
X152973644Y-83246362D01*
X153071608Y-83063084D01*
X153131934Y-82864216D01*
X153152304Y-82657400D01*
X153131934Y-82450584D01*
X153071608Y-82251716D01*
X152973644Y-82068438D01*
X152841807Y-81907793D01*
X152681162Y-81775956D01*
X152497884Y-81677992D01*
X152430001Y-81657400D01*
X152497884Y-81636808D01*
X152681162Y-81538844D01*
X152841807Y-81407007D01*
X152973644Y-81246362D01*
X153071608Y-81063084D01*
X153131934Y-80864216D01*
X153152304Y-80657400D01*
X153131934Y-80450584D01*
X153071608Y-80251716D01*
X152973644Y-80068438D01*
X152841807Y-79907793D01*
X152681162Y-79775956D01*
X152497884Y-79677992D01*
X152299016Y-79617666D01*
X152144021Y-79602400D01*
X151240379Y-79602400D01*
X151085384Y-79617666D01*
X150886516Y-79677992D01*
X150703238Y-79775956D01*
X150542593Y-79907793D01*
X150410756Y-80068438D01*
X150312792Y-80251716D01*
X150252466Y-80450584D01*
X150232096Y-80657400D01*
X150252466Y-80864216D01*
X150312792Y-81063084D01*
X150410756Y-81246362D01*
X150542593Y-81407007D01*
X150703238Y-81538844D01*
X150886516Y-81636808D01*
X150954399Y-81657400D01*
X150886516Y-81677992D01*
X150703238Y-81775956D01*
X150542593Y-81907793D01*
X150410756Y-82068438D01*
X150392603Y-82102400D01*
X145922088Y-82102400D01*
X145166428Y-81346741D01*
X145149043Y-81325557D01*
X145064533Y-81256202D01*
X144968117Y-81204666D01*
X144863499Y-81172931D01*
X144781961Y-81164900D01*
X144781960Y-81164900D01*
X144754700Y-81162215D01*
X144727440Y-81164900D01*
X139294667Y-81164900D01*
X139282720Y-81142548D01*
X139208044Y-81051556D01*
X139117052Y-80976880D01*
X139013239Y-80921391D01*
X138900595Y-80887221D01*
X138783450Y-80875683D01*
X138768200Y-80875683D01*
X138768200Y-80007657D01*
X138770885Y-79980399D01*
X138768200Y-79953139D01*
X138760169Y-79871601D01*
X138728434Y-79766983D01*
X138676898Y-79670567D01*
X138641200Y-79627069D01*
X138641200Y-77688117D01*
X138736201Y-77688117D01*
X138854565Y-77676459D01*
X138968381Y-77641933D01*
X139073274Y-77585867D01*
X139165214Y-77510414D01*
X139240667Y-77418474D01*
X139296733Y-77313581D01*
X139331259Y-77199765D01*
X139342917Y-77081401D01*
X139342917Y-76431399D01*
X139331259Y-76313035D01*
X139296733Y-76199219D01*
X139240667Y-76094326D01*
X139165214Y-76002386D01*
X139073274Y-75926933D01*
X138968381Y-75870867D01*
X138854565Y-75836341D01*
X138736201Y-75824683D01*
X137436199Y-75824683D01*
X137317835Y-75836341D01*
X137204019Y-75870867D01*
X137099126Y-75926933D01*
X137007186Y-76002386D01*
X136931733Y-76094326D01*
X136875667Y-76199219D01*
X136841141Y-76313035D01*
X136829483Y-76431399D01*
X136829483Y-77081401D01*
X136841141Y-77199765D01*
X136875667Y-77313581D01*
X136931733Y-77418474D01*
X137007186Y-77510414D01*
X137099126Y-77585867D01*
X137204019Y-77641933D01*
X137317835Y-77676459D01*
X137436199Y-77688117D01*
X137531200Y-77688117D01*
X137531201Y-79826130D01*
X137528515Y-79853400D01*
X137539231Y-79962198D01*
X137570966Y-80066816D01*
X137570967Y-80066817D01*
X137622503Y-80163233D01*
X137658200Y-80206730D01*
X137658201Y-80916222D01*
X137641161Y-80921391D01*
X137537348Y-80976880D01*
X137446356Y-81051556D01*
X137426472Y-81075785D01*
X137386928Y-81036241D01*
X137369543Y-81015057D01*
X137285033Y-80945702D01*
X137188617Y-80894166D01*
X137083999Y-80862431D01*
X137037664Y-80857867D01*
X137018667Y-80822326D01*
X136943214Y-80730386D01*
X136851274Y-80654933D01*
X136746381Y-80598867D01*
X136632565Y-80564341D01*
X136514200Y-80552683D01*
X131514200Y-80552683D01*
X131395835Y-80564341D01*
X131282019Y-80598867D01*
X131177126Y-80654933D01*
X131085186Y-80730386D01*
X131009733Y-80822326D01*
X130953667Y-80927219D01*
X130919141Y-81041035D01*
X130907483Y-81159400D01*
X128322200Y-81159400D01*
X128322200Y-78459400D01*
X129907483Y-78459400D01*
X129907483Y-79559400D01*
X129919141Y-79677765D01*
X129953667Y-79791581D01*
X130009733Y-79896474D01*
X130085186Y-79988414D01*
X130177126Y-80063867D01*
X130282019Y-80119933D01*
X130395835Y-80154459D01*
X130514200Y-80166117D01*
X133014200Y-80166117D01*
X133132565Y-80154459D01*
X133246381Y-80119933D01*
X133351274Y-80063867D01*
X133443214Y-79988414D01*
X133518667Y-79896474D01*
X133574733Y-79791581D01*
X133609259Y-79677765D01*
X133620917Y-79559400D01*
X133620917Y-78459400D01*
X133609259Y-78341035D01*
X133574733Y-78227219D01*
X133518667Y-78122326D01*
X133443214Y-78030386D01*
X133351274Y-77954933D01*
X133246381Y-77898867D01*
X133132565Y-77864341D01*
X133014200Y-77852683D01*
X130514200Y-77852683D01*
X130395835Y-77864341D01*
X130282019Y-77898867D01*
X130177126Y-77954933D01*
X130085186Y-78030386D01*
X130009733Y-78122326D01*
X129953667Y-78227219D01*
X129919141Y-78341035D01*
X129907483Y-78459400D01*
X128322200Y-78459400D01*
X128322200Y-74543852D01*
X128591589Y-75194214D01*
X129062172Y-75898490D01*
X129661110Y-76497428D01*
X130365386Y-76968011D01*
X131147936Y-77292154D01*
X131978687Y-77457400D01*
X132825713Y-77457400D01*
X133656464Y-77292154D01*
X134439014Y-76968011D01*
X135143290Y-76497428D01*
X135742228Y-75898490D01*
X136212811Y-75194214D01*
X136536954Y-74411664D01*
X136542973Y-74381400D01*
X136829482Y-74381400D01*
X136836336Y-74450992D01*
X136856636Y-74517910D01*
X136889600Y-74579582D01*
X136933962Y-74633638D01*
X136988018Y-74678000D01*
X137049690Y-74710964D01*
X137116608Y-74731264D01*
X137186200Y-74738118D01*
X137992450Y-74736400D01*
X138081200Y-74647650D01*
X138081200Y-73811400D01*
X138091200Y-73811400D01*
X138091200Y-74647650D01*
X138179950Y-74736400D01*
X138986200Y-74738118D01*
X139055792Y-74731264D01*
X139122710Y-74710964D01*
X139184382Y-74678000D01*
X139238438Y-74633638D01*
X139282800Y-74579582D01*
X139315764Y-74517910D01*
X139336064Y-74450992D01*
X139342918Y-74381400D01*
X139341200Y-73900150D01*
X139252450Y-73811400D01*
X138091200Y-73811400D01*
X138081200Y-73811400D01*
X136919950Y-73811400D01*
X136831200Y-73900150D01*
X136829482Y-74381400D01*
X136542973Y-74381400D01*
X136702200Y-73580913D01*
X136702200Y-73231400D01*
X136829482Y-73231400D01*
X136831200Y-73712650D01*
X136919950Y-73801400D01*
X138081200Y-73801400D01*
X138081200Y-72965150D01*
X138091200Y-72965150D01*
X138091200Y-73801400D01*
X139252450Y-73801400D01*
X139341200Y-73712650D01*
X139342918Y-73231400D01*
X139336064Y-73161808D01*
X139315764Y-73094890D01*
X139282800Y-73033218D01*
X139238438Y-72979162D01*
X139184382Y-72934800D01*
X139122710Y-72901836D01*
X139055792Y-72881536D01*
X138986200Y-72874682D01*
X138179950Y-72876400D01*
X138091200Y-72965150D01*
X138081200Y-72965150D01*
X137992450Y-72876400D01*
X137186200Y-72874682D01*
X137116608Y-72881536D01*
X137049690Y-72901836D01*
X136988018Y-72934800D01*
X136933962Y-72979162D01*
X136889600Y-73033218D01*
X136856636Y-73094890D01*
X136836336Y-73161808D01*
X136829482Y-73231400D01*
X136702200Y-73231400D01*
X136702200Y-72733887D01*
X136640549Y-72423944D01*
X143137200Y-72423944D01*
X143137200Y-72690856D01*
X143189272Y-72952639D01*
X143291415Y-73199233D01*
X143439703Y-73421162D01*
X143628438Y-73609897D01*
X143850367Y-73758185D01*
X144096961Y-73860328D01*
X144358744Y-73912400D01*
X144625656Y-73912400D01*
X144887439Y-73860328D01*
X145134033Y-73758185D01*
X145355962Y-73609897D01*
X145544697Y-73421162D01*
X145692985Y-73199233D01*
X145795128Y-72952639D01*
X145847200Y-72690856D01*
X145847200Y-72423944D01*
X145795128Y-72162161D01*
X145692985Y-71915567D01*
X145544697Y-71693638D01*
X145375003Y-71523944D01*
X147587200Y-71523944D01*
X147587200Y-71790856D01*
X147639272Y-72052639D01*
X147741415Y-72299233D01*
X147889703Y-72521162D01*
X148078438Y-72709897D01*
X148300367Y-72858185D01*
X148546961Y-72960328D01*
X148808744Y-73012400D01*
X149075656Y-73012400D01*
X149337439Y-72960328D01*
X149584033Y-72858185D01*
X149805962Y-72709897D01*
X149994697Y-72521162D01*
X150142985Y-72299233D01*
X150149692Y-72283039D01*
X151187200Y-72283039D01*
X151187200Y-72431761D01*
X151216214Y-72577625D01*
X151273128Y-72715027D01*
X151355753Y-72838684D01*
X151460916Y-72943847D01*
X151584573Y-73026472D01*
X151721975Y-73083386D01*
X151867839Y-73112400D01*
X152016561Y-73112400D01*
X152162425Y-73083386D01*
X152299827Y-73026472D01*
X152423484Y-72943847D01*
X152528647Y-72838684D01*
X152611272Y-72715027D01*
X152668186Y-72577625D01*
X152697200Y-72431761D01*
X152697200Y-72423944D01*
X153537200Y-72423944D01*
X153537200Y-72690856D01*
X153589272Y-72952639D01*
X153691415Y-73199233D01*
X153839703Y-73421162D01*
X154028438Y-73609897D01*
X154250367Y-73758185D01*
X154496961Y-73860328D01*
X154758744Y-73912400D01*
X155025656Y-73912400D01*
X155287439Y-73860328D01*
X155534033Y-73758185D01*
X155755962Y-73609897D01*
X155944697Y-73421162D01*
X156092985Y-73199233D01*
X156195128Y-72952639D01*
X156247200Y-72690856D01*
X156247200Y-72423944D01*
X156195128Y-72162161D01*
X156092985Y-71915567D01*
X155944697Y-71693638D01*
X155755962Y-71504903D01*
X155534033Y-71356615D01*
X155287439Y-71254472D01*
X155025656Y-71202400D01*
X154758744Y-71202400D01*
X154496961Y-71254472D01*
X154250367Y-71356615D01*
X154028438Y-71504903D01*
X153839703Y-71693638D01*
X153691415Y-71915567D01*
X153589272Y-72162161D01*
X153537200Y-72423944D01*
X152697200Y-72423944D01*
X152697200Y-72283039D01*
X152668186Y-72137175D01*
X152611272Y-71999773D01*
X152528647Y-71876116D01*
X152423484Y-71770953D01*
X152299827Y-71688328D01*
X152162425Y-71631414D01*
X152016561Y-71602400D01*
X151867839Y-71602400D01*
X151721975Y-71631414D01*
X151584573Y-71688328D01*
X151460916Y-71770953D01*
X151355753Y-71876116D01*
X151273128Y-71999773D01*
X151216214Y-72137175D01*
X151187200Y-72283039D01*
X150149692Y-72283039D01*
X150245128Y-72052639D01*
X150297200Y-71790856D01*
X150297200Y-71523944D01*
X150245128Y-71262161D01*
X150142985Y-71015567D01*
X149994697Y-70793638D01*
X149805962Y-70604903D01*
X149584033Y-70456615D01*
X149337439Y-70354472D01*
X149075656Y-70302400D01*
X148808744Y-70302400D01*
X148546961Y-70354472D01*
X148300367Y-70456615D01*
X148078438Y-70604903D01*
X147889703Y-70793638D01*
X147741415Y-71015567D01*
X147639272Y-71262161D01*
X147587200Y-71523944D01*
X145375003Y-71523944D01*
X145355962Y-71504903D01*
X145134033Y-71356615D01*
X144887439Y-71254472D01*
X144625656Y-71202400D01*
X144358744Y-71202400D01*
X144096961Y-71254472D01*
X143850367Y-71356615D01*
X143628438Y-71504903D01*
X143439703Y-71693638D01*
X143291415Y-71915567D01*
X143189272Y-72162161D01*
X143137200Y-72423944D01*
X136640549Y-72423944D01*
X136536954Y-71903136D01*
X136212811Y-71120586D01*
X135742228Y-70416310D01*
X135143290Y-69817372D01*
X134439014Y-69346789D01*
X133656464Y-69022646D01*
X132825713Y-68857400D01*
X131978687Y-68857400D01*
X131147936Y-69022646D01*
X130365386Y-69346789D01*
X129661110Y-69817372D01*
X129062172Y-70416310D01*
X128591589Y-71120586D01*
X128322200Y-71770948D01*
X128322200Y-69175982D01*
X128335795Y-69037330D01*
X128370668Y-68921828D01*
X128427306Y-68815306D01*
X128503558Y-68721812D01*
X128596518Y-68644908D01*
X128702645Y-68587526D01*
X128817900Y-68551848D01*
X128955361Y-68537400D01*
X156923620Y-68537400D01*
X157159389Y-68560517D01*
G37*
G04 #@! TD.AperFunction*
M02*
