G04 #@! TF.GenerationSoftware,KiCad,Pcbnew,5.1.10*
G04 #@! TF.CreationDate,2021-09-16T01:02:32+02:00*
G04 #@! TF.ProjectId,pressureSensorHolder,70726573-7375-4726-9553-656e736f7248,rev?*
G04 #@! TF.SameCoordinates,Original*
G04 #@! TF.FileFunction,Legend,Bot*
G04 #@! TF.FilePolarity,Positive*
%FSLAX46Y46*%
G04 Gerber Fmt 4.6, Leading zero omitted, Abs format (unit mm)*
G04 Created by KiCad (PCBNEW 5.1.10) date 2021-09-16 01:02:32*
%MOMM*%
%LPD*%
G01*
G04 APERTURE LIST*
G04 #@! TA.AperFunction,Profile*
%ADD10C,0.050000*%
G04 #@! TD*
%ADD11C,0.120000*%
%ADD12C,0.150000*%
G04 APERTURE END LIST*
D10*
X128942200Y-99157400D02*
G75*
G02*
X127942200Y-98157400I0J1000000D01*
G01*
X127942200Y-69157400D02*
G75*
G02*
X128942200Y-68157400I1000000J0D01*
G01*
X158442200Y-97657400D02*
G75*
G02*
X156942200Y-99157400I-1500000J0D01*
G01*
X156942200Y-68157400D02*
G75*
G02*
X158442200Y-69657400I0J-1500000D01*
G01*
X158442200Y-97657400D02*
X158442200Y-69657400D01*
X128942200Y-99157400D02*
X156942200Y-99157400D01*
X127942200Y-69157400D02*
X127942200Y-98157400D01*
X156942200Y-68157400D02*
X128942200Y-68157400D01*
D11*
X133524200Y-78324400D02*
X134374200Y-78324400D01*
X134374200Y-78324400D02*
X134374200Y-80649400D01*
X134374200Y-80649400D02*
X136764200Y-80649400D01*
X133524200Y-88494400D02*
X134374200Y-88494400D01*
X134374200Y-88494400D02*
X134374200Y-86169400D01*
X130004200Y-78324400D02*
X129154200Y-78324400D01*
X129154200Y-78324400D02*
X129154200Y-88494400D01*
X129154200Y-88494400D02*
X130004200Y-88494400D01*
X137592200Y-86430336D02*
X137592200Y-86884464D01*
X139062200Y-86430336D02*
X139062200Y-86884464D01*
X139287200Y-81657400D02*
X139287200Y-84342400D01*
X139287200Y-84342400D02*
X137367200Y-84342400D01*
X137367200Y-84342400D02*
X137367200Y-81657400D01*
X150192200Y-79557400D02*
X150192200Y-87757400D01*
X150192200Y-87757400D02*
X153192200Y-87757400D01*
X153192200Y-87757400D02*
X153192200Y-79557400D01*
X153192200Y-79557400D02*
X150192200Y-79557400D01*
X150192200Y-81657400D02*
X153192200Y-81657400D01*
X139942200Y-98657400D02*
X157942200Y-98657400D01*
X157942200Y-98657400D02*
X157942200Y-68657400D01*
X157942200Y-68657400D02*
X139942200Y-68657400D01*
X139942200Y-68657400D02*
X139942200Y-98657400D01*
X137176200Y-75992652D02*
X137176200Y-74570148D01*
X138996200Y-75992652D02*
X138996200Y-74570148D01*
D12*
X136141580Y-89807066D02*
X136855866Y-89807066D01*
X136998723Y-89759447D01*
X137093961Y-89664209D01*
X137141580Y-89521352D01*
X137141580Y-89426114D01*
X137141580Y-90807066D02*
X137141580Y-90235638D01*
X137141580Y-90521352D02*
X136141580Y-90521352D01*
X136284438Y-90426114D01*
X136379676Y-90330876D01*
X136427295Y-90235638D01*
X139279580Y-89240733D02*
X138803390Y-88907400D01*
X139279580Y-88669304D02*
X138279580Y-88669304D01*
X138279580Y-89050257D01*
X138327200Y-89145495D01*
X138374819Y-89193114D01*
X138470057Y-89240733D01*
X138612914Y-89240733D01*
X138708152Y-89193114D01*
X138755771Y-89145495D01*
X138803390Y-89050257D01*
X138803390Y-88669304D01*
X139279580Y-90193114D02*
X139279580Y-89621685D01*
X139279580Y-89907400D02*
X138279580Y-89907400D01*
X138422438Y-89812161D01*
X138517676Y-89716923D01*
X138565295Y-89621685D01*
X139029580Y-79169304D02*
X138029580Y-79169304D01*
X138029580Y-79407400D01*
X138077200Y-79550257D01*
X138172438Y-79645495D01*
X138267676Y-79693114D01*
X138458152Y-79740733D01*
X138601009Y-79740733D01*
X138791485Y-79693114D01*
X138886723Y-79645495D01*
X138981961Y-79550257D01*
X139029580Y-79407400D01*
X139029580Y-79169304D01*
X139029580Y-80693114D02*
X139029580Y-80121685D01*
X139029580Y-80407400D02*
X138029580Y-80407400D01*
X138172438Y-80312161D01*
X138267676Y-80216923D01*
X138315295Y-80121685D01*
X153394580Y-86395495D02*
X154204104Y-86395495D01*
X154299342Y-86443114D01*
X154346961Y-86490733D01*
X154394580Y-86585971D01*
X154394580Y-86776447D01*
X154346961Y-86871685D01*
X154299342Y-86919304D01*
X154204104Y-86966923D01*
X153394580Y-86966923D01*
X154394580Y-87966923D02*
X154394580Y-87395495D01*
X154394580Y-87681209D02*
X153394580Y-87681209D01*
X153537438Y-87585971D01*
X153632676Y-87490733D01*
X153680295Y-87395495D01*
X136693342Y-73589733D02*
X136740961Y-73542114D01*
X136788580Y-73399257D01*
X136788580Y-73304019D01*
X136740961Y-73161161D01*
X136645723Y-73065923D01*
X136550485Y-73018304D01*
X136360009Y-72970685D01*
X136217152Y-72970685D01*
X136026676Y-73018304D01*
X135931438Y-73065923D01*
X135836200Y-73161161D01*
X135788580Y-73304019D01*
X135788580Y-73399257D01*
X135836200Y-73542114D01*
X135883819Y-73589733D01*
X136788580Y-74542114D02*
X136788580Y-73970685D01*
X136788580Y-74256400D02*
X135788580Y-74256400D01*
X135931438Y-74161161D01*
X136026676Y-74065923D01*
X136074295Y-73970685D01*
M02*
