G04 #@! TF.GenerationSoftware,KiCad,Pcbnew,5.1.9*
G04 #@! TF.CreationDate,2021-01-10T02:38:05+01:00*
G04 #@! TF.ProjectId,pressureSensorHolder,70726573-7375-4726-9553-656e736f7248,rev?*
G04 #@! TF.SameCoordinates,PX4dab598PY46b8d58*
G04 #@! TF.FileFunction,Soldermask,Bot*
G04 #@! TF.FilePolarity,Negative*
%FSLAX46Y46*%
G04 Gerber Fmt 4.6, Leading zero omitted, Abs format (unit mm)*
G04 Created by KiCad (PCBNEW 5.1.9) date 2021-01-10 02:38:05*
%MOMM*%
%LPD*%
G01*
G04 APERTURE LIST*
G04 #@! TA.AperFunction,Profile*
%ADD10C,0.050000*%
G04 #@! TD*
%ADD11O,2.302000X1.502000*%
%ADD12C,2.102000*%
%ADD13C,0.902000*%
%ADD14C,6.502000*%
G04 APERTURE END LIST*
D10*
X47500000Y-25000000D02*
G75*
G02*
X46500000Y-24000000I0J1000000D01*
G01*
X46500000Y5000000D02*
G75*
G02*
X47500000Y6000000I1000000J0D01*
G01*
X77000000Y-23500000D02*
G75*
G02*
X75500000Y-25000000I-1500000J0D01*
G01*
X75500000Y6000000D02*
G75*
G02*
X77000000Y4500000I0J-1500000D01*
G01*
X77000000Y-23500000D02*
X77000000Y4500000D01*
X47500000Y-25000000D02*
X75500000Y-25000000D01*
X46500000Y5000000D02*
X46500000Y-24000000D01*
X75500000Y6000000D02*
X47500000Y6000000D01*
X47500000Y-25000000D02*
G75*
G02*
X46500000Y-24000000I0J1000000D01*
G01*
X46500000Y5000000D02*
G75*
G02*
X47500000Y6000000I1000000J0D01*
G01*
X77000000Y-23500000D02*
G75*
G02*
X75500000Y-25000000I-1500000J0D01*
G01*
X75500000Y6000000D02*
G75*
G02*
X77000000Y4500000I0J-1500000D01*
G01*
X77000000Y-23500000D02*
X77000000Y4500000D01*
X47500000Y-25000000D02*
X75500000Y-25000000D01*
X46500000Y5000000D02*
X46500000Y-24000000D01*
X75500000Y6000000D02*
X47500000Y6000000D01*
G36*
G01*
X55773876Y-12849000D02*
X56726124Y-12849000D01*
G75*
G02*
X57001000Y-13123876I0J-274876D01*
G01*
X57001000Y-13701124D01*
G75*
G02*
X56726124Y-13976000I-274876J0D01*
G01*
X55773876Y-13976000D01*
G75*
G02*
X55499000Y-13701124I0J274876D01*
G01*
X55499000Y-13123876D01*
G75*
G02*
X55773876Y-12849000I274876J0D01*
G01*
G37*
G36*
G01*
X55773876Y-11024000D02*
X56726124Y-11024000D01*
G75*
G02*
X57001000Y-11298876I0J-274876D01*
G01*
X57001000Y-11876124D01*
G75*
G02*
X56726124Y-12151000I-274876J0D01*
G01*
X55773876Y-12151000D01*
G75*
G02*
X55499000Y-11876124I0J274876D01*
G01*
X55499000Y-11298876D01*
G75*
G02*
X55773876Y-11024000I274876J0D01*
G01*
G37*
G36*
G01*
X56731750Y-8101000D02*
X55768250Y-8101000D01*
G75*
G02*
X55499000Y-7831750I0J269250D01*
G01*
X55499000Y-7293250D01*
G75*
G02*
X55768250Y-7024000I269250J0D01*
G01*
X56731750Y-7024000D01*
G75*
G02*
X57001000Y-7293250I0J-269250D01*
G01*
X57001000Y-7831750D01*
G75*
G02*
X56731750Y-8101000I-269250J0D01*
G01*
G37*
G36*
G01*
X56731750Y-9976000D02*
X55768250Y-9976000D01*
G75*
G02*
X55499000Y-9706750I0J269250D01*
G01*
X55499000Y-9168250D01*
G75*
G02*
X55768250Y-8899000I269250J0D01*
G01*
X56731750Y-8899000D01*
G75*
G02*
X57001000Y-9168250I0J-269250D01*
G01*
X57001000Y-9706750D01*
G75*
G02*
X56731750Y-9976000I-269250J0D01*
G01*
G37*
D11*
X70250000Y-6500000D03*
X70250000Y-8500000D03*
X70250000Y-10500000D03*
X70250000Y-12500000D03*
D12*
X73450000Y1600000D03*
X63050000Y1600000D03*
X61550000Y-20600000D03*
X73450000Y-20600000D03*
D13*
X70500000Y1800000D03*
D12*
X67500000Y2500000D03*
D13*
X64500000Y-20800000D03*
D12*
X67500000Y-21500000D03*
D13*
X55197056Y-18302944D03*
X53500000Y-17600000D03*
X51802944Y-18302944D03*
X51100000Y-20000000D03*
X51802944Y-21697056D03*
X53500000Y-22400000D03*
X55197056Y-21697056D03*
X55900000Y-20000000D03*
D14*
X53500000Y-20000000D03*
D13*
X55197056Y2697056D03*
X53500000Y3400000D03*
X51802944Y2697056D03*
X51100000Y1000000D03*
X51802944Y-697056D03*
X53500000Y-1400000D03*
X55197056Y-697056D03*
X55900000Y1000000D03*
D14*
X53500000Y1000000D03*
G36*
G01*
X49224500Y-5949000D02*
X54275500Y-5949000D01*
G75*
G02*
X54551000Y-6224500I0J-275500D01*
G01*
X54551000Y-6775500D01*
G75*
G02*
X54275500Y-7051000I-275500J0D01*
G01*
X49224500Y-7051000D01*
G75*
G02*
X48949000Y-6775500I0J275500D01*
G01*
X48949000Y-6224500D01*
G75*
G02*
X49224500Y-5949000I275500J0D01*
G01*
G37*
G36*
G01*
X49224500Y-7949000D02*
X54275500Y-7949000D01*
G75*
G02*
X54551000Y-8224500I0J-275500D01*
G01*
X54551000Y-8775500D01*
G75*
G02*
X54275500Y-9051000I-275500J0D01*
G01*
X49224500Y-9051000D01*
G75*
G02*
X48949000Y-8775500I0J275500D01*
G01*
X48949000Y-8224500D01*
G75*
G02*
X49224500Y-7949000I275500J0D01*
G01*
G37*
G36*
G01*
X49224500Y-9949000D02*
X54275500Y-9949000D01*
G75*
G02*
X54551000Y-10224500I0J-275500D01*
G01*
X54551000Y-10775500D01*
G75*
G02*
X54275500Y-11051000I-275500J0D01*
G01*
X49224500Y-11051000D01*
G75*
G02*
X48949000Y-10775500I0J275500D01*
G01*
X48949000Y-10224500D01*
G75*
G02*
X49224500Y-9949000I275500J0D01*
G01*
G37*
G36*
G01*
X49224500Y-11949000D02*
X54275500Y-11949000D01*
G75*
G02*
X54551000Y-12224500I0J-275500D01*
G01*
X54551000Y-12775500D01*
G75*
G02*
X54275500Y-13051000I-275500J0D01*
G01*
X49224500Y-13051000D01*
G75*
G02*
X48949000Y-12775500I0J275500D01*
G01*
X48949000Y-12224500D01*
G75*
G02*
X49224500Y-11949000I275500J0D01*
G01*
G37*
G36*
G01*
X48214937Y-3249000D02*
X50785063Y-3249000D01*
G75*
G02*
X51051000Y-3514937I0J-265937D01*
G01*
X51051000Y-4685063D01*
G75*
G02*
X50785063Y-4951000I-265937J0D01*
G01*
X48214937Y-4951000D01*
G75*
G02*
X47949000Y-4685063I0J265937D01*
G01*
X47949000Y-3514937D01*
G75*
G02*
X48214937Y-3249000I265937J0D01*
G01*
G37*
G36*
G01*
X48214937Y-14049000D02*
X50785063Y-14049000D01*
G75*
G02*
X51051000Y-14314937I0J-265937D01*
G01*
X51051000Y-15485063D01*
G75*
G02*
X50785063Y-15751000I-265937J0D01*
G01*
X48214937Y-15751000D01*
G75*
G02*
X47949000Y-15485063I0J265937D01*
G01*
X47949000Y-14314937D01*
G75*
G02*
X48214937Y-14049000I265937J0D01*
G01*
G37*
M02*
