G04 #@! TF.GenerationSoftware,KiCad,Pcbnew,5.1.9*
G04 #@! TF.CreationDate,2021-01-10T02:38:05+01:00*
G04 #@! TF.ProjectId,pressureSensorHolder,70726573-7375-4726-9553-656e736f7248,rev?*
G04 #@! TF.SameCoordinates,PX4dab598PY46b8d58*
G04 #@! TF.FileFunction,Legend,Top*
G04 #@! TF.FilePolarity,Positive*
%FSLAX46Y46*%
G04 Gerber Fmt 4.6, Leading zero omitted, Abs format (unit mm)*
G04 Created by KiCad (PCBNEW 5.1.9) date 2021-01-10 02:38:05*
%MOMM*%
%LPD*%
G01*
G04 APERTURE LIST*
%ADD10C,0.100000*%
G04 #@! TA.AperFunction,Profile*
%ADD11C,0.050000*%
G04 #@! TD*
%ADD12C,0.120000*%
%ADD13C,0.150000*%
G04 APERTURE END LIST*
D10*
X48329426Y-15550966D02*
X47622319Y-14843859D01*
X48363098Y-15113233D01*
X48093724Y-14372455D01*
X48800831Y-15079562D01*
X49238563Y-14641829D02*
X49137548Y-14675501D01*
X49070205Y-14675501D01*
X48969189Y-14641829D01*
X48767159Y-14439798D01*
X48733487Y-14338783D01*
X48733487Y-14271440D01*
X48767159Y-14170424D01*
X48868174Y-14069409D01*
X48969189Y-14035737D01*
X49036533Y-14035737D01*
X49137548Y-14069409D01*
X49339579Y-14271440D01*
X49373250Y-14372455D01*
X49373250Y-14439798D01*
X49339579Y-14540814D01*
X49238563Y-14641829D01*
X49777311Y-14103081D02*
X49070205Y-13395974D01*
X50181372Y-13699020D01*
X49474266Y-12991913D01*
X50619105Y-13261287D02*
X50518090Y-13294959D01*
X50450746Y-13294959D01*
X50349731Y-13261287D01*
X50147701Y-13059257D01*
X50114029Y-12958241D01*
X50114029Y-12890898D01*
X50147701Y-12789883D01*
X50248716Y-12688867D01*
X50349731Y-12655196D01*
X50417075Y-12655196D01*
X50518090Y-12688867D01*
X50720120Y-12890898D01*
X50753792Y-12991913D01*
X50753792Y-13059257D01*
X50720120Y-13160272D01*
X50619105Y-13261287D01*
X50417075Y-12183791D02*
X50450746Y-11948089D01*
X50686449Y-11914417D01*
X50821136Y-11779730D02*
X50854807Y-11544028D01*
X51090510Y-11510356D01*
X51831288Y-11308326D02*
X51965975Y-11240982D01*
X52033319Y-11240982D01*
X52134334Y-11274654D01*
X52235349Y-11375669D01*
X52269021Y-11476684D01*
X52269021Y-11544028D01*
X52235349Y-11645043D01*
X51965975Y-11914417D01*
X51258868Y-11207310D01*
X51494571Y-10971608D01*
X51595586Y-10937936D01*
X51662929Y-10937936D01*
X51763945Y-10971608D01*
X51831288Y-11038952D01*
X51864960Y-11139967D01*
X51864960Y-11207310D01*
X51831288Y-11308326D01*
X51595586Y-11544028D01*
X53077143Y-10803249D02*
X52504723Y-10702234D01*
X52673082Y-11207310D02*
X51965975Y-10500203D01*
X52235349Y-10230829D01*
X52336364Y-10197158D01*
X52403708Y-10197158D01*
X52504723Y-10230829D01*
X52605739Y-10331845D01*
X52639410Y-10432860D01*
X52639410Y-10500203D01*
X52605739Y-10601219D01*
X52336364Y-10870593D01*
X53009800Y-10129814D02*
X53245502Y-9894112D01*
X53716906Y-10163486D02*
X53380189Y-10500203D01*
X52673082Y-9793097D01*
X53009800Y-9456379D01*
X53245502Y-9220677D02*
X54120967Y-9759425D01*
X53750578Y-9119662D01*
X54390341Y-9490051D01*
X53851593Y-8614585D01*
X55467837Y-8412555D02*
X55366822Y-8446227D01*
X55265807Y-8412555D01*
X54659715Y-7806463D01*
X56040257Y-7840135D02*
X55669868Y-7469746D01*
X55568853Y-7436074D01*
X55467837Y-7469746D01*
X55333150Y-7604433D01*
X55299479Y-7705448D01*
X56006585Y-7806463D02*
X55972914Y-7907479D01*
X55804555Y-8075837D01*
X55703540Y-8109509D01*
X55602524Y-8075837D01*
X55535181Y-8008494D01*
X55501509Y-7907479D01*
X55535181Y-7806463D01*
X55703540Y-7638105D01*
X55737211Y-7537089D01*
X56376975Y-7503418D02*
X55669868Y-6796311D01*
X55939242Y-7065685D02*
X55972914Y-6964670D01*
X56107601Y-6829983D01*
X56208616Y-6796311D01*
X56275959Y-6796311D01*
X56376975Y-6829983D01*
X56579005Y-7032013D01*
X56612677Y-7133028D01*
X56612677Y-7200372D01*
X56579005Y-7301387D01*
X56444318Y-7436074D01*
X56343303Y-7469746D01*
X56949394Y-6796311D02*
X57016738Y-6796311D01*
X57016738Y-6863654D01*
X56949394Y-6863654D01*
X56949394Y-6796311D01*
X57016738Y-6863654D01*
X57218768Y-5382097D02*
X57218768Y-5314754D01*
X57252440Y-5213739D01*
X57420799Y-5045380D01*
X57521814Y-5011708D01*
X57589158Y-5011708D01*
X57690173Y-5045380D01*
X57757516Y-5112723D01*
X57824860Y-5247410D01*
X57824860Y-6055532D01*
X58262593Y-5617800D01*
X57993219Y-4472960D02*
X58060562Y-4405616D01*
X58161578Y-4371945D01*
X58228921Y-4371945D01*
X58329936Y-4405616D01*
X58498295Y-4506632D01*
X58666654Y-4674990D01*
X58767669Y-4843349D01*
X58801341Y-4944364D01*
X58801341Y-5011708D01*
X58767669Y-5112723D01*
X58700326Y-5180067D01*
X58599310Y-5213739D01*
X58531967Y-5213739D01*
X58430952Y-5180067D01*
X58262593Y-5079051D01*
X58094234Y-4910693D01*
X57993219Y-4742334D01*
X57959547Y-4641319D01*
X57959547Y-4573975D01*
X57993219Y-4472960D01*
X58565639Y-4035227D02*
X58565639Y-3967884D01*
X58599310Y-3866868D01*
X58767669Y-3698510D01*
X58868684Y-3664838D01*
X58936028Y-3664838D01*
X59037043Y-3698510D01*
X59104387Y-3765853D01*
X59171730Y-3900540D01*
X59171730Y-4708662D01*
X59609463Y-4270929D01*
X60282898Y-3597494D02*
X59878837Y-4001555D01*
X60080867Y-3799525D02*
X59373761Y-3092418D01*
X59407432Y-3260777D01*
X59407432Y-3395464D01*
X59373761Y-3496479D01*
X60013524Y-2452655D02*
X60080867Y-2385311D01*
X60181883Y-2351640D01*
X60249226Y-2351640D01*
X60350241Y-2385311D01*
X60518600Y-2486327D01*
X60686959Y-2654685D01*
X60787974Y-2823044D01*
X60821646Y-2924059D01*
X60821646Y-2991403D01*
X60787974Y-3092418D01*
X60720631Y-3159762D01*
X60619615Y-3193433D01*
X60552272Y-3193433D01*
X60451257Y-3159762D01*
X60282898Y-3058746D01*
X60114539Y-2890388D01*
X60013524Y-2722029D01*
X59979852Y-2621014D01*
X59979852Y-2553670D01*
X60013524Y-2452655D01*
X61629768Y-2250624D02*
X61225707Y-2654685D01*
X61427737Y-2452655D02*
X60720631Y-1745548D01*
X60754302Y-1913907D01*
X60754302Y-2048594D01*
X60720631Y-2149609D01*
X62303203Y-1577189D02*
X61899142Y-1981250D01*
X62101172Y-1779220D02*
X61394066Y-1072113D01*
X61427737Y-1240472D01*
X61427737Y-1375159D01*
X61394066Y-1476174D01*
X62033829Y-432350D02*
X62101172Y-365006D01*
X62202188Y-331335D01*
X62269531Y-331335D01*
X62370546Y-365006D01*
X62538905Y-466022D01*
X62707264Y-634380D01*
X62808279Y-802739D01*
X62841951Y-903754D01*
X62841951Y-971098D01*
X62808279Y-1072113D01*
X62740936Y-1139457D01*
X62639920Y-1173128D01*
X62572577Y-1173128D01*
X62471562Y-1139457D01*
X62303203Y-1038441D01*
X62134844Y-870083D01*
X62033829Y-701724D01*
X62000157Y-600709D01*
X62000157Y-533365D01*
X62033829Y-432350D01*
X50100560Y-16042574D02*
X49730171Y-15672185D01*
X49629156Y-15638513D01*
X49528141Y-15672185D01*
X49393454Y-15806872D01*
X49359782Y-15907887D01*
X50066889Y-16008902D02*
X50033217Y-16109917D01*
X49864858Y-16278276D01*
X49763843Y-16311948D01*
X49662828Y-16278276D01*
X49595484Y-16210933D01*
X49561812Y-16109917D01*
X49595484Y-16008902D01*
X49763843Y-15840543D01*
X49797515Y-15739528D01*
X50437278Y-15705856D02*
X49965873Y-15234452D01*
X50100560Y-15369139D02*
X50066889Y-15268124D01*
X50066889Y-15200780D01*
X50100560Y-15099765D01*
X50167904Y-15032421D01*
X50302591Y-14897734D02*
X50571965Y-14628360D01*
X50167904Y-14561017D02*
X50773995Y-15167108D01*
X50875011Y-15200780D01*
X50976026Y-15167108D01*
X51043369Y-15099765D01*
X51110713Y-14089612D02*
X51582117Y-14561017D01*
X50807667Y-14392658D02*
X51178056Y-14763047D01*
X51279072Y-14796719D01*
X51380087Y-14763047D01*
X51481102Y-14662032D01*
X51514774Y-14561017D01*
X51514774Y-14493673D01*
X51918835Y-14224299D02*
X51447430Y-13752895D01*
X51582117Y-13887582D02*
X51548446Y-13786567D01*
X51548446Y-13719223D01*
X51582117Y-13618208D01*
X51649461Y-13550864D01*
X52289224Y-13719223D02*
X52356568Y-13719223D01*
X52356568Y-13786567D01*
X52289224Y-13786567D01*
X52289224Y-13719223D01*
X52356568Y-13786567D01*
X52996331Y-13146803D02*
X52625942Y-12776414D01*
X52524926Y-12742742D01*
X52423911Y-12776414D01*
X52289224Y-12911101D01*
X52255552Y-13012116D01*
X52962659Y-13113132D02*
X52928987Y-13214147D01*
X52760629Y-13382506D01*
X52659613Y-13416177D01*
X52558598Y-13382506D01*
X52491255Y-13315162D01*
X52457583Y-13214147D01*
X52491255Y-13113132D01*
X52659613Y-12944773D01*
X52693285Y-12843758D01*
X53265705Y-12742742D02*
X53333048Y-12742742D01*
X53333048Y-12810086D01*
X53265705Y-12810086D01*
X53265705Y-12742742D01*
X53333048Y-12810086D01*
X53198361Y-12001964D02*
X53905468Y-12709071D01*
X53232033Y-12035636D02*
X53265705Y-11934620D01*
X53400392Y-11799933D01*
X53501407Y-11766261D01*
X53568751Y-11766261D01*
X53669766Y-11799933D01*
X53871797Y-12001964D01*
X53905468Y-12102979D01*
X53905468Y-12170323D01*
X53871797Y-12271338D01*
X53737110Y-12406025D01*
X53636094Y-12439697D01*
X54410545Y-11732590D02*
X54309529Y-11766261D01*
X54242186Y-11766261D01*
X54141171Y-11732590D01*
X53939140Y-11530559D01*
X53905468Y-11429544D01*
X53905468Y-11362200D01*
X53939140Y-11261185D01*
X54040155Y-11160170D01*
X54141171Y-11126498D01*
X54208514Y-11126498D01*
X54309529Y-11160170D01*
X54511560Y-11362200D01*
X54545232Y-11463216D01*
X54545232Y-11530559D01*
X54511560Y-11631574D01*
X54410545Y-11732590D01*
X54410545Y-10789781D02*
X54780934Y-10419391D01*
X54881949Y-11261185D01*
X55252338Y-10890796D01*
X55050308Y-10150017D02*
X55521712Y-10621422D01*
X55117651Y-10217361D02*
X55117651Y-10150017D01*
X55151323Y-10049002D01*
X55252338Y-9947987D01*
X55353354Y-9914315D01*
X55454369Y-9947987D01*
X55824758Y-10318376D01*
X56161476Y-9981659D02*
X55690071Y-9510254D01*
X55454369Y-9274552D02*
X55454369Y-9341895D01*
X55521712Y-9341895D01*
X55521712Y-9274552D01*
X55454369Y-9274552D01*
X55521712Y-9341895D01*
X56801239Y-9341895D02*
X56430850Y-8971506D01*
X56329834Y-8937834D01*
X56228819Y-8971506D01*
X56094132Y-9106193D01*
X56060460Y-9207208D01*
X56767567Y-9308224D02*
X56733895Y-9409239D01*
X56565537Y-9577598D01*
X56464521Y-9611269D01*
X56363506Y-9577598D01*
X56296163Y-9510254D01*
X56262491Y-9409239D01*
X56296163Y-9308224D01*
X56464521Y-9139865D01*
X56498193Y-9038850D01*
X57137956Y-9005178D02*
X56430850Y-8298071D01*
X56935926Y-8668460D02*
X57407330Y-8735804D01*
X56935926Y-8264399D02*
X56935926Y-8803147D01*
X57811391Y-7658308D02*
X57744048Y-7658308D01*
X57643033Y-7691980D01*
X57575689Y-7759323D01*
X57542017Y-7860338D01*
X57542017Y-7927682D01*
X57575689Y-8028697D01*
X57643033Y-8096041D01*
X57744048Y-8129712D01*
X57811391Y-8129712D01*
X57912407Y-8096041D01*
X57979750Y-8028697D01*
X58013422Y-7927682D01*
X58013422Y-7860338D01*
X57744048Y-7590964D02*
X58013422Y-7860338D01*
X58080765Y-7860338D01*
X58114437Y-7826667D01*
X58148109Y-7725651D01*
X58114437Y-7624636D01*
X57946078Y-7456277D01*
X57777720Y-7422606D01*
X57609361Y-7456277D01*
X57441002Y-7557293D01*
X57339987Y-7725651D01*
X57306315Y-7894010D01*
X57339987Y-8062369D01*
X57441002Y-8230728D01*
X57609361Y-8331743D01*
X57777720Y-8365415D01*
X57946078Y-8331743D01*
X58114437Y-8230728D01*
X58215452Y-8062369D01*
X58249124Y-7894010D01*
X58451155Y-6749171D02*
X59023574Y-7321590D01*
X59057246Y-7422606D01*
X59057246Y-7489949D01*
X59023574Y-7590964D01*
X58922559Y-7691980D01*
X58821544Y-7725651D01*
X58888887Y-7186903D02*
X58855216Y-7287919D01*
X58720529Y-7422606D01*
X58619513Y-7456277D01*
X58552170Y-7456277D01*
X58451155Y-7422606D01*
X58249124Y-7220575D01*
X58215452Y-7119560D01*
X58215452Y-7052216D01*
X58249124Y-6951201D01*
X58383811Y-6816514D01*
X58484826Y-6782842D01*
X59259277Y-6883858D02*
X58787872Y-6412453D01*
X58855216Y-6479797D02*
X58855216Y-6412453D01*
X58888887Y-6311438D01*
X58989903Y-6210422D01*
X59090918Y-6176751D01*
X59191933Y-6210422D01*
X59562323Y-6580812D01*
X59191933Y-6210422D02*
X59158261Y-6109407D01*
X59191933Y-6008392D01*
X59292949Y-5907377D01*
X59393964Y-5873705D01*
X59494979Y-5907377D01*
X59865368Y-6277766D01*
X60505132Y-5638003D02*
X60134742Y-5267613D01*
X60033727Y-5233942D01*
X59932712Y-5267613D01*
X59798025Y-5402300D01*
X59764353Y-5503316D01*
X60471460Y-5604331D02*
X60437788Y-5705346D01*
X60269429Y-5873705D01*
X60168414Y-5907377D01*
X60067399Y-5873705D01*
X60000055Y-5806361D01*
X59966384Y-5705346D01*
X60000055Y-5604331D01*
X60168414Y-5435972D01*
X60202086Y-5334957D01*
X60841849Y-5301285D02*
X60370445Y-4829881D01*
X60134742Y-4594178D02*
X60134742Y-4661522D01*
X60202086Y-4661522D01*
X60202086Y-4594178D01*
X60134742Y-4594178D01*
X60202086Y-4661522D01*
X61279582Y-4863552D02*
X61178567Y-4897224D01*
X61077551Y-4863552D01*
X60471460Y-4257461D01*
X61481612Y-4526835D02*
X61548956Y-4526835D01*
X61548956Y-4594178D01*
X61481612Y-4594178D01*
X61481612Y-4526835D01*
X61548956Y-4594178D01*
X62155047Y-3920743D02*
X62121376Y-4021759D01*
X61986689Y-4156446D01*
X61885673Y-4190117D01*
X61818330Y-4190117D01*
X61717315Y-4156446D01*
X61515284Y-3954415D01*
X61481612Y-3853400D01*
X61481612Y-3786056D01*
X61515284Y-3685041D01*
X61649971Y-3550354D01*
X61750986Y-3516682D01*
X62592780Y-3550354D02*
X62491765Y-3584026D01*
X62424421Y-3584026D01*
X62323406Y-3550354D01*
X62121376Y-3348324D01*
X62087704Y-3247308D01*
X62087704Y-3179965D01*
X62121376Y-3078950D01*
X62222391Y-2977934D01*
X62323406Y-2944263D01*
X62390750Y-2944263D01*
X62491765Y-2977934D01*
X62693795Y-3179965D01*
X62727467Y-3280980D01*
X62727467Y-3348324D01*
X62693795Y-3449339D01*
X62592780Y-3550354D01*
X63131528Y-3011606D02*
X62660124Y-2540202D01*
X62727467Y-2607545D02*
X62727467Y-2540202D01*
X62761139Y-2439186D01*
X62862154Y-2338171D01*
X62963169Y-2304499D01*
X63064185Y-2338171D01*
X63434574Y-2708560D01*
X63064185Y-2338171D02*
X63030513Y-2237156D01*
X63064185Y-2136141D01*
X63165200Y-2035125D01*
X63266215Y-2001454D01*
X63367230Y-2035125D01*
X63737620Y-2405515D01*
D11*
X47500000Y-25000000D02*
G75*
G02*
X46500000Y-24000000I0J1000000D01*
G01*
X46500000Y5000000D02*
G75*
G02*
X47500000Y6000000I1000000J0D01*
G01*
X77000000Y-23500000D02*
G75*
G02*
X75500000Y-25000000I-1500000J0D01*
G01*
X75500000Y6000000D02*
G75*
G02*
X77000000Y4500000I0J-1500000D01*
G01*
X77000000Y-23500000D02*
X77000000Y4500000D01*
X47500000Y-25000000D02*
X75500000Y-25000000D01*
X46500000Y5000000D02*
X46500000Y-24000000D01*
X75500000Y6000000D02*
X47500000Y6000000D01*
D12*
X72500000Y-9500000D02*
X72500000Y-4000000D01*
X72500000Y-4000000D02*
X74450000Y-4000000D01*
X74450000Y-4000000D02*
X74450000Y-9500000D01*
X74450000Y-9500000D02*
X72500000Y-9500000D01*
X74700000Y-8150000D02*
X75000000Y-8450000D01*
X75000000Y-8450000D02*
X75000000Y-7850000D01*
X75000000Y-7850000D02*
X74700000Y-8150000D01*
X68160000Y-9263748D02*
X68160000Y-10686252D01*
X66340000Y-9263748D02*
X66340000Y-10686252D01*
D13*
X72666666Y-2452380D02*
X72666666Y-3166666D01*
X72619047Y-3309523D01*
X72523809Y-3404761D01*
X72380952Y-3452380D01*
X72285714Y-3452380D01*
X73142857Y-3452380D02*
X73142857Y-2452380D01*
X73523809Y-2452380D01*
X73619047Y-2500000D01*
X73666666Y-2547619D01*
X73714285Y-2642857D01*
X73714285Y-2785714D01*
X73666666Y-2880952D01*
X73619047Y-2928571D01*
X73523809Y-2976190D01*
X73142857Y-2976190D01*
X74666666Y-3452380D02*
X74095238Y-3452380D01*
X74380952Y-3452380D02*
X74380952Y-2452380D01*
X74285714Y-2595238D01*
X74190476Y-2690476D01*
X74095238Y-2738095D01*
X65857142Y-11666666D02*
X65904761Y-11714285D01*
X65952380Y-11857142D01*
X65952380Y-11952380D01*
X65904761Y-12095238D01*
X65809523Y-12190476D01*
X65714285Y-12238095D01*
X65523809Y-12285714D01*
X65380952Y-12285714D01*
X65190476Y-12238095D01*
X65095238Y-12190476D01*
X65000000Y-12095238D01*
X64952380Y-11952380D01*
X64952380Y-11857142D01*
X65000000Y-11714285D01*
X65047619Y-11666666D01*
X65952380Y-10714285D02*
X65952380Y-11285714D01*
X65952380Y-11000000D02*
X64952380Y-11000000D01*
X65095238Y-11095238D01*
X65190476Y-11190476D01*
X65238095Y-11285714D01*
M02*
