M48
METRIC,TZ
T1C0.400
T2C0.500
T3C1.000
T4C3.200
%
G90
G05
T1
X145692Y-82657
T2
X132542Y-73157
X132542Y-94157
X133245Y-71460
X133245Y-74854
X133245Y-92460
X133245Y-95854
X134942Y-70757
X134942Y-75557
X134942Y-91757
X134942Y-96557
X136639Y-71460
X136639Y-74854
X136639Y-92460
X136639Y-95854
X137342Y-73157
X137342Y-94157
T3
X151692Y-80657
X151692Y-82657
X151692Y-84657
X151692Y-86657
T4
X134942Y-73157
X134942Y-94157
T0
M30
