G04 #@! TF.GenerationSoftware,KiCad,Pcbnew,5.1.9*
G04 #@! TF.CreationDate,2021-01-10T02:38:05+01:00*
G04 #@! TF.ProjectId,pressureSensorHolder,70726573-7375-4726-9553-656e736f7248,rev?*
G04 #@! TF.SameCoordinates,PX4dab598PY46b8d58*
G04 #@! TF.FileFunction,Soldermask,Top*
G04 #@! TF.FilePolarity,Negative*
%FSLAX46Y46*%
G04 Gerber Fmt 4.6, Leading zero omitted, Abs format (unit mm)*
G04 Created by KiCad (PCBNEW 5.1.9) date 2021-01-10 02:38:05*
%MOMM*%
%LPD*%
G01*
G04 APERTURE LIST*
G04 #@! TA.AperFunction,Profile*
%ADD10C,0.050000*%
G04 #@! TD*
%ADD11O,2.302000X1.502000*%
%ADD12C,2.102000*%
%ADD13C,0.902000*%
%ADD14C,6.502000*%
%ADD15R,1.500000X1.500000*%
%ADD16C,0.100000*%
G04 APERTURE END LIST*
D10*
X47500000Y-25000000D02*
G75*
G02*
X46500000Y-24000000I0J1000000D01*
G01*
X46500000Y5000000D02*
G75*
G02*
X47500000Y6000000I1000000J0D01*
G01*
X77000000Y-23500000D02*
G75*
G02*
X75500000Y-25000000I-1500000J0D01*
G01*
X75500000Y6000000D02*
G75*
G02*
X77000000Y4500000I0J-1500000D01*
G01*
X77000000Y-23500000D02*
X77000000Y4500000D01*
X47500000Y-25000000D02*
X75500000Y-25000000D01*
X46500000Y5000000D02*
X46500000Y-24000000D01*
X75500000Y6000000D02*
X47500000Y6000000D01*
X47500000Y-25000000D02*
G75*
G02*
X46500000Y-24000000I0J1000000D01*
G01*
X46500000Y5000000D02*
G75*
G02*
X47500000Y6000000I1000000J0D01*
G01*
X77000000Y-23500000D02*
G75*
G02*
X75500000Y-25000000I-1500000J0D01*
G01*
X75500000Y6000000D02*
G75*
G02*
X77000000Y4500000I0J-1500000D01*
G01*
X77000000Y-23500000D02*
X77000000Y4500000D01*
X47500000Y-25000000D02*
X75500000Y-25000000D01*
X46500000Y5000000D02*
X46500000Y-24000000D01*
X75500000Y6000000D02*
X47500000Y6000000D01*
D11*
X70250000Y-6500000D03*
X70250000Y-8500000D03*
X70250000Y-10500000D03*
X70250000Y-12500000D03*
D12*
X73450000Y1600000D03*
X63050000Y1600000D03*
X61550000Y-20600000D03*
X73450000Y-20600000D03*
D13*
X70500000Y1800000D03*
D12*
X67500000Y2500000D03*
D13*
X64500000Y-20800000D03*
D12*
X67500000Y-21500000D03*
D13*
X55197056Y-18302944D03*
X53500000Y-17600000D03*
X51802944Y-18302944D03*
X51100000Y-20000000D03*
X51802944Y-21697056D03*
X53500000Y-22400000D03*
X55197056Y-21697056D03*
X55900000Y-20000000D03*
D14*
X53500000Y-20000000D03*
D13*
X55197056Y2697056D03*
X53500000Y3400000D03*
X51802944Y2697056D03*
X51100000Y1000000D03*
X51802944Y-697056D03*
X53500000Y-1400000D03*
X55197056Y-697056D03*
X55900000Y1000000D03*
D14*
X53500000Y1000000D03*
D15*
X73500000Y-5550000D03*
X73500000Y-7950000D03*
D16*
G36*
X72699980Y-8240050D02*
G01*
X72702882Y-8230483D01*
X72707595Y-8221666D01*
X72713938Y-8213938D01*
X72721710Y-8207565D01*
X73471710Y-7707565D01*
X73480532Y-7702862D01*
X73490103Y-7699970D01*
X73500053Y-7699000D01*
X73510002Y-7699990D01*
X73519566Y-7702903D01*
X73528290Y-7707565D01*
X74278290Y-8207565D01*
X74286025Y-8213900D01*
X74292375Y-8221622D01*
X74297097Y-8230434D01*
X74300010Y-8239998D01*
X74301000Y-8250000D01*
X74301000Y-9250000D01*
X74300020Y-9259950D01*
X74297118Y-9269517D01*
X74292405Y-9278334D01*
X74286062Y-9286062D01*
X74278334Y-9292405D01*
X74269517Y-9297118D01*
X74259950Y-9300020D01*
X74250000Y-9301000D01*
X72750000Y-9301000D01*
X72740050Y-9300020D01*
X72730483Y-9297118D01*
X72721666Y-9292405D01*
X72713938Y-9286062D01*
X72707595Y-9278334D01*
X72702882Y-9269517D01*
X72699980Y-9259950D01*
X72699000Y-9250000D01*
X72699000Y-8250000D01*
X72699980Y-8240050D01*
G37*
G36*
X74300020Y-5259950D02*
G01*
X74297118Y-5269517D01*
X74292405Y-5278334D01*
X74286062Y-5286062D01*
X74278290Y-5292435D01*
X73528290Y-5792435D01*
X73519468Y-5797138D01*
X73509897Y-5800030D01*
X73499947Y-5801000D01*
X73489998Y-5800010D01*
X73480434Y-5797097D01*
X73471710Y-5792435D01*
X72721710Y-5292435D01*
X72713975Y-5286100D01*
X72707625Y-5278378D01*
X72702903Y-5269566D01*
X72699990Y-5260002D01*
X72699000Y-5250000D01*
X72699000Y-4250000D01*
X72699980Y-4240050D01*
X72702882Y-4230483D01*
X72707595Y-4221666D01*
X72713938Y-4213938D01*
X72721666Y-4207595D01*
X72730483Y-4202882D01*
X72740050Y-4199980D01*
X72750000Y-4199000D01*
X74250000Y-4199000D01*
X74259950Y-4199980D01*
X74269517Y-4202882D01*
X74278334Y-4207595D01*
X74286062Y-4213938D01*
X74292405Y-4221666D01*
X74297118Y-4230483D01*
X74300020Y-4240050D01*
X74301000Y-4250000D01*
X74301000Y-5250000D01*
X74300020Y-5259950D01*
G37*
G36*
G01*
X66571172Y-10824000D02*
X67928828Y-10824000D01*
G75*
G02*
X68201000Y-11096172I0J-272172D01*
G01*
X68201000Y-11803828D01*
G75*
G02*
X67928828Y-12076000I-272172J0D01*
G01*
X66571172Y-12076000D01*
G75*
G02*
X66299000Y-11803828I0J272172D01*
G01*
X66299000Y-11096172D01*
G75*
G02*
X66571172Y-10824000I272172J0D01*
G01*
G37*
G36*
G01*
X66571172Y-7874000D02*
X67928828Y-7874000D01*
G75*
G02*
X68201000Y-8146172I0J-272172D01*
G01*
X68201000Y-8853828D01*
G75*
G02*
X67928828Y-9126000I-272172J0D01*
G01*
X66571172Y-9126000D01*
G75*
G02*
X66299000Y-8853828I0J272172D01*
G01*
X66299000Y-8146172D01*
G75*
G02*
X66571172Y-7874000I272172J0D01*
G01*
G37*
M02*
