G04 #@! TF.GenerationSoftware,KiCad,Pcbnew,5.1.9*
G04 #@! TF.CreationDate,2021-01-10T02:38:05+01:00*
G04 #@! TF.ProjectId,pressureSensorHolder,70726573-7375-4726-9553-656e736f7248,rev?*
G04 #@! TF.SameCoordinates,PX4dab598PY46b8d58*
G04 #@! TF.FileFunction,Legend,Bot*
G04 #@! TF.FilePolarity,Positive*
%FSLAX46Y46*%
G04 Gerber Fmt 4.6, Leading zero omitted, Abs format (unit mm)*
G04 Created by KiCad (PCBNEW 5.1.9) date 2021-01-10 02:38:05*
%MOMM*%
%LPD*%
G01*
G04 APERTURE LIST*
G04 #@! TA.AperFunction,Profile*
%ADD10C,0.050000*%
G04 #@! TD*
%ADD11C,0.120000*%
%ADD12C,0.150000*%
G04 APERTURE END LIST*
D10*
X47500000Y-25000000D02*
G75*
G02*
X46500000Y-24000000I0J1000000D01*
G01*
X46500000Y5000000D02*
G75*
G02*
X47500000Y6000000I1000000J0D01*
G01*
X77000000Y-23500000D02*
G75*
G02*
X75500000Y-25000000I-1500000J0D01*
G01*
X75500000Y6000000D02*
G75*
G02*
X77000000Y4500000I0J-1500000D01*
G01*
X77000000Y-23500000D02*
X77000000Y4500000D01*
X47500000Y-25000000D02*
X75500000Y-25000000D01*
X46500000Y5000000D02*
X46500000Y-24000000D01*
X75500000Y6000000D02*
X47500000Y6000000D01*
D11*
X56985000Y-12272936D02*
X56985000Y-12727064D01*
X55515000Y-12272936D02*
X55515000Y-12727064D01*
X55290000Y-10185000D02*
X55290000Y-7500000D01*
X57210000Y-10185000D02*
X55290000Y-10185000D01*
X57210000Y-7500000D02*
X57210000Y-10185000D01*
X58500000Y5500000D02*
X58500000Y-24500000D01*
X76500000Y5500000D02*
X58500000Y5500000D01*
X76500000Y-24500000D02*
X76500000Y5500000D01*
X58500000Y-24500000D02*
X76500000Y-24500000D01*
X68750000Y-7500000D02*
X71750000Y-7500000D01*
X71750000Y-5400000D02*
X68750000Y-5400000D01*
X71750000Y-13600000D02*
X71750000Y-5400000D01*
X68750000Y-13600000D02*
X71750000Y-13600000D01*
X68750000Y-5400000D02*
X68750000Y-13600000D01*
X46890000Y-15585000D02*
X47740000Y-15585000D01*
X46890000Y-3415000D02*
X46890000Y-15585000D01*
X47740000Y-3415000D02*
X46890000Y-3415000D01*
X52110000Y-15585000D02*
X52110000Y-13260000D01*
X51260000Y-15585000D02*
X52110000Y-15585000D01*
X52110000Y-5740000D02*
X54500000Y-5740000D01*
X52110000Y-3415000D02*
X52110000Y-5740000D01*
X51260000Y-3415000D02*
X52110000Y-3415000D01*
D12*
X57202380Y-15083333D02*
X56726190Y-14750000D01*
X57202380Y-14511904D02*
X56202380Y-14511904D01*
X56202380Y-14892857D01*
X56250000Y-14988095D01*
X56297619Y-15035714D01*
X56392857Y-15083333D01*
X56535714Y-15083333D01*
X56630952Y-15035714D01*
X56678571Y-14988095D01*
X56726190Y-14892857D01*
X56726190Y-14511904D01*
X57202380Y-16035714D02*
X57202380Y-15464285D01*
X57202380Y-15750000D02*
X56202380Y-15750000D01*
X56345238Y-15654761D01*
X56440476Y-15559523D01*
X56488095Y-15464285D01*
X56952380Y-5011904D02*
X55952380Y-5011904D01*
X55952380Y-5250000D01*
X56000000Y-5392857D01*
X56095238Y-5488095D01*
X56190476Y-5535714D01*
X56380952Y-5583333D01*
X56523809Y-5583333D01*
X56714285Y-5535714D01*
X56809523Y-5488095D01*
X56904761Y-5392857D01*
X56952380Y-5250000D01*
X56952380Y-5011904D01*
X56952380Y-6535714D02*
X56952380Y-5964285D01*
X56952380Y-6250000D02*
X55952380Y-6250000D01*
X56095238Y-6154761D01*
X56190476Y-6059523D01*
X56238095Y-5964285D01*
X71952380Y-12238095D02*
X72761904Y-12238095D01*
X72857142Y-12285714D01*
X72904761Y-12333333D01*
X72952380Y-12428571D01*
X72952380Y-12619047D01*
X72904761Y-12714285D01*
X72857142Y-12761904D01*
X72761904Y-12809523D01*
X71952380Y-12809523D01*
X72952380Y-13809523D02*
X72952380Y-13238095D01*
X72952380Y-13523809D02*
X71952380Y-13523809D01*
X72095238Y-13428571D01*
X72190476Y-13333333D01*
X72238095Y-13238095D01*
X45252380Y-9166666D02*
X45966666Y-9166666D01*
X46109523Y-9119047D01*
X46204761Y-9023809D01*
X46252380Y-8880952D01*
X46252380Y-8785714D01*
X46252380Y-10166666D02*
X46252380Y-9595238D01*
X46252380Y-9880952D02*
X45252380Y-9880952D01*
X45395238Y-9785714D01*
X45490476Y-9690476D01*
X45538095Y-9595238D01*
M02*
