G04 #@! TF.GenerationSoftware,KiCad,Pcbnew,5.1.9*
G04 #@! TF.CreationDate,2021-01-10T02:38:05+01:00*
G04 #@! TF.ProjectId,pressureSensorHolder,70726573-7375-4726-9553-656e736f7248,rev?*
G04 #@! TF.SameCoordinates,PX4dab598PY46b8d58*
G04 #@! TF.FileFunction,Copper,L2,Bot*
G04 #@! TF.FilePolarity,Positive*
%FSLAX46Y46*%
G04 Gerber Fmt 4.6, Leading zero omitted, Abs format (unit mm)*
G04 Created by KiCad (PCBNEW 5.1.9) date 2021-01-10 02:38:05*
%MOMM*%
%LPD*%
G01*
G04 APERTURE LIST*
G04 #@! TA.AperFunction,Profile*
%ADD10C,0.050000*%
G04 #@! TD*
G04 #@! TA.AperFunction,ComponentPad*
%ADD11O,2.200000X1.400000*%
G04 #@! TD*
G04 #@! TA.AperFunction,ComponentPad*
%ADD12C,0.800000*%
G04 #@! TD*
G04 #@! TA.AperFunction,ComponentPad*
%ADD13C,6.400000*%
G04 #@! TD*
G04 #@! TA.AperFunction,ViaPad*
%ADD14C,0.800000*%
G04 #@! TD*
G04 #@! TA.AperFunction,Conductor*
%ADD15C,0.254000*%
G04 #@! TD*
G04 #@! TA.AperFunction,Conductor*
%ADD16C,0.200000*%
G04 #@! TD*
G04 #@! TA.AperFunction,Conductor*
%ADD17C,0.100000*%
G04 #@! TD*
G04 APERTURE END LIST*
D10*
X47500000Y-25000000D02*
G75*
G02*
X46500000Y-24000000I0J1000000D01*
G01*
X46500000Y5000000D02*
G75*
G02*
X47500000Y6000000I1000000J0D01*
G01*
X77000000Y-23500000D02*
G75*
G02*
X75500000Y-25000000I-1500000J0D01*
G01*
X75500000Y6000000D02*
G75*
G02*
X77000000Y4500000I0J-1500000D01*
G01*
X77000000Y-23500000D02*
X77000000Y4500000D01*
X47500000Y-25000000D02*
X75500000Y-25000000D01*
X46500000Y5000000D02*
X46500000Y-24000000D01*
X75500000Y6000000D02*
X47500000Y6000000D01*
G04 #@! TA.AperFunction,SMDPad,CuDef*
G36*
G01*
X55799999Y-12900000D02*
X56700001Y-12900000D01*
G75*
G02*
X56950000Y-13149999I0J-249999D01*
G01*
X56950000Y-13675001D01*
G75*
G02*
X56700001Y-13925000I-249999J0D01*
G01*
X55799999Y-13925000D01*
G75*
G02*
X55550000Y-13675001I0J249999D01*
G01*
X55550000Y-13149999D01*
G75*
G02*
X55799999Y-12900000I249999J0D01*
G01*
G37*
G04 #@! TD.AperFunction*
G04 #@! TA.AperFunction,SMDPad,CuDef*
G36*
G01*
X55799999Y-11075000D02*
X56700001Y-11075000D01*
G75*
G02*
X56950000Y-11324999I0J-249999D01*
G01*
X56950000Y-11850001D01*
G75*
G02*
X56700001Y-12100000I-249999J0D01*
G01*
X55799999Y-12100000D01*
G75*
G02*
X55550000Y-11850001I0J249999D01*
G01*
X55550000Y-11324999D01*
G75*
G02*
X55799999Y-11075000I249999J0D01*
G01*
G37*
G04 #@! TD.AperFunction*
G04 #@! TA.AperFunction,SMDPad,CuDef*
G36*
G01*
X56706250Y-8050000D02*
X55793750Y-8050000D01*
G75*
G02*
X55550000Y-7806250I0J243750D01*
G01*
X55550000Y-7318750D01*
G75*
G02*
X55793750Y-7075000I243750J0D01*
G01*
X56706250Y-7075000D01*
G75*
G02*
X56950000Y-7318750I0J-243750D01*
G01*
X56950000Y-7806250D01*
G75*
G02*
X56706250Y-8050000I-243750J0D01*
G01*
G37*
G04 #@! TD.AperFunction*
G04 #@! TA.AperFunction,SMDPad,CuDef*
G36*
G01*
X56706250Y-9925000D02*
X55793750Y-9925000D01*
G75*
G02*
X55550000Y-9681250I0J243750D01*
G01*
X55550000Y-9193750D01*
G75*
G02*
X55793750Y-8950000I243750J0D01*
G01*
X56706250Y-8950000D01*
G75*
G02*
X56950000Y-9193750I0J-243750D01*
G01*
X56950000Y-9681250D01*
G75*
G02*
X56706250Y-9925000I-243750J0D01*
G01*
G37*
G04 #@! TD.AperFunction*
D11*
X70250000Y-6500000D03*
X70250000Y-8500000D03*
X70250000Y-10500000D03*
X70250000Y-12500000D03*
D12*
X55197056Y-18302944D03*
X53500000Y-17600000D03*
X51802944Y-18302944D03*
X51100000Y-20000000D03*
X51802944Y-21697056D03*
X53500000Y-22400000D03*
X55197056Y-21697056D03*
X55900000Y-20000000D03*
D13*
X53500000Y-20000000D03*
D12*
X55197056Y2697056D03*
X53500000Y3400000D03*
X51802944Y2697056D03*
X51100000Y1000000D03*
X51802944Y-697056D03*
X53500000Y-1400000D03*
X55197056Y-697056D03*
X55900000Y1000000D03*
D13*
X53500000Y1000000D03*
G04 #@! TA.AperFunction,SMDPad,CuDef*
G36*
G01*
X49250000Y-6000000D02*
X54250000Y-6000000D01*
G75*
G02*
X54500000Y-6250000I0J-250000D01*
G01*
X54500000Y-6750000D01*
G75*
G02*
X54250000Y-7000000I-250000J0D01*
G01*
X49250000Y-7000000D01*
G75*
G02*
X49000000Y-6750000I0J250000D01*
G01*
X49000000Y-6250000D01*
G75*
G02*
X49250000Y-6000000I250000J0D01*
G01*
G37*
G04 #@! TD.AperFunction*
G04 #@! TA.AperFunction,SMDPad,CuDef*
G36*
G01*
X49250000Y-8000000D02*
X54250000Y-8000000D01*
G75*
G02*
X54500000Y-8250000I0J-250000D01*
G01*
X54500000Y-8750000D01*
G75*
G02*
X54250000Y-9000000I-250000J0D01*
G01*
X49250000Y-9000000D01*
G75*
G02*
X49000000Y-8750000I0J250000D01*
G01*
X49000000Y-8250000D01*
G75*
G02*
X49250000Y-8000000I250000J0D01*
G01*
G37*
G04 #@! TD.AperFunction*
G04 #@! TA.AperFunction,SMDPad,CuDef*
G36*
G01*
X49250000Y-10000000D02*
X54250000Y-10000000D01*
G75*
G02*
X54500000Y-10250000I0J-250000D01*
G01*
X54500000Y-10750000D01*
G75*
G02*
X54250000Y-11000000I-250000J0D01*
G01*
X49250000Y-11000000D01*
G75*
G02*
X49000000Y-10750000I0J250000D01*
G01*
X49000000Y-10250000D01*
G75*
G02*
X49250000Y-10000000I250000J0D01*
G01*
G37*
G04 #@! TD.AperFunction*
G04 #@! TA.AperFunction,SMDPad,CuDef*
G36*
G01*
X49250000Y-12000000D02*
X54250000Y-12000000D01*
G75*
G02*
X54500000Y-12250000I0J-250000D01*
G01*
X54500000Y-12750000D01*
G75*
G02*
X54250000Y-13000000I-250000J0D01*
G01*
X49250000Y-13000000D01*
G75*
G02*
X49000000Y-12750000I0J250000D01*
G01*
X49000000Y-12250000D01*
G75*
G02*
X49250000Y-12000000I250000J0D01*
G01*
G37*
G04 #@! TD.AperFunction*
G04 #@! TA.AperFunction,SMDPad,CuDef*
G36*
G01*
X48250000Y-3300000D02*
X50750000Y-3300000D01*
G75*
G02*
X51000000Y-3550000I0J-250000D01*
G01*
X51000000Y-4650000D01*
G75*
G02*
X50750000Y-4900000I-250000J0D01*
G01*
X48250000Y-4900000D01*
G75*
G02*
X48000000Y-4650000I0J250000D01*
G01*
X48000000Y-3550000D01*
G75*
G02*
X48250000Y-3300000I250000J0D01*
G01*
G37*
G04 #@! TD.AperFunction*
G04 #@! TA.AperFunction,SMDPad,CuDef*
G36*
G01*
X48250000Y-14100000D02*
X50750000Y-14100000D01*
G75*
G02*
X51000000Y-14350000I0J-250000D01*
G01*
X51000000Y-15450000D01*
G75*
G02*
X50750000Y-15700000I-250000J0D01*
G01*
X48250000Y-15700000D01*
G75*
G02*
X48000000Y-15450000I0J250000D01*
G01*
X48000000Y-14350000D01*
G75*
G02*
X48250000Y-14100000I250000J0D01*
G01*
G37*
G04 #@! TD.AperFunction*
D14*
X64250000Y-8500000D03*
D15*
X70250000Y-12500000D02*
X53000000Y-12500000D01*
X70250000Y-6500000D02*
X53000000Y-6500000D01*
X64250000Y-8500000D02*
X53000000Y-8500000D01*
X63312500Y-7562500D02*
X64250000Y-8500000D01*
X56250000Y-7562500D02*
X63312500Y-7562500D01*
X56250000Y-9437500D02*
X56250000Y-11587500D01*
D16*
X75717189Y5596883D02*
X75926103Y5533808D01*
X76118789Y5431355D01*
X76287906Y5293426D01*
X76427011Y5125277D01*
X76530807Y4933312D01*
X76595340Y4724838D01*
X76620001Y4490200D01*
X76620000Y-23481420D01*
X76596883Y-23717188D01*
X76533808Y-23926104D01*
X76431355Y-24118789D01*
X76293426Y-24287906D01*
X76125277Y-24427011D01*
X75933312Y-24530807D01*
X75724838Y-24595340D01*
X75490209Y-24620000D01*
X47518581Y-24620000D01*
X47379929Y-24606405D01*
X47264432Y-24571534D01*
X47157906Y-24514894D01*
X47064410Y-24438641D01*
X46987507Y-24345680D01*
X46930125Y-24239553D01*
X46894448Y-24124300D01*
X46880000Y-23986839D01*
X46880000Y-19576487D01*
X49200000Y-19576487D01*
X49200000Y-20423513D01*
X49365246Y-21254264D01*
X49689389Y-22036814D01*
X50159972Y-22741090D01*
X50758910Y-23340028D01*
X51463186Y-23810611D01*
X52245736Y-24134754D01*
X53076487Y-24300000D01*
X53923513Y-24300000D01*
X54754264Y-24134754D01*
X55536814Y-23810611D01*
X56241090Y-23340028D01*
X56840028Y-22741090D01*
X57310611Y-22036814D01*
X57634754Y-21254264D01*
X57791440Y-20466544D01*
X60195000Y-20466544D01*
X60195000Y-20733456D01*
X60247072Y-20995239D01*
X60349215Y-21241833D01*
X60497503Y-21463762D01*
X60686238Y-21652497D01*
X60908167Y-21800785D01*
X61154761Y-21902928D01*
X61416544Y-21955000D01*
X61683456Y-21955000D01*
X61945239Y-21902928D01*
X62191833Y-21800785D01*
X62413762Y-21652497D01*
X62602497Y-21463762D01*
X62750785Y-21241833D01*
X62852928Y-20995239D01*
X62905000Y-20733456D01*
X62905000Y-20725639D01*
X63745000Y-20725639D01*
X63745000Y-20874361D01*
X63774014Y-21020225D01*
X63830928Y-21157627D01*
X63913553Y-21281284D01*
X64018716Y-21386447D01*
X64142373Y-21469072D01*
X64279775Y-21525986D01*
X64425639Y-21555000D01*
X64574361Y-21555000D01*
X64720225Y-21525986D01*
X64857627Y-21469072D01*
X64981284Y-21386447D01*
X65001187Y-21366544D01*
X66145000Y-21366544D01*
X66145000Y-21633456D01*
X66197072Y-21895239D01*
X66299215Y-22141833D01*
X66447503Y-22363762D01*
X66636238Y-22552497D01*
X66858167Y-22700785D01*
X67104761Y-22802928D01*
X67366544Y-22855000D01*
X67633456Y-22855000D01*
X67895239Y-22802928D01*
X68141833Y-22700785D01*
X68363762Y-22552497D01*
X68552497Y-22363762D01*
X68700785Y-22141833D01*
X68802928Y-21895239D01*
X68855000Y-21633456D01*
X68855000Y-21366544D01*
X68802928Y-21104761D01*
X68700785Y-20858167D01*
X68552497Y-20636238D01*
X68382803Y-20466544D01*
X72095000Y-20466544D01*
X72095000Y-20733456D01*
X72147072Y-20995239D01*
X72249215Y-21241833D01*
X72397503Y-21463762D01*
X72586238Y-21652497D01*
X72808167Y-21800785D01*
X73054761Y-21902928D01*
X73316544Y-21955000D01*
X73583456Y-21955000D01*
X73845239Y-21902928D01*
X74091833Y-21800785D01*
X74313762Y-21652497D01*
X74502497Y-21463762D01*
X74650785Y-21241833D01*
X74752928Y-20995239D01*
X74805000Y-20733456D01*
X74805000Y-20466544D01*
X74752928Y-20204761D01*
X74650785Y-19958167D01*
X74502497Y-19736238D01*
X74313762Y-19547503D01*
X74091833Y-19399215D01*
X73845239Y-19297072D01*
X73583456Y-19245000D01*
X73316544Y-19245000D01*
X73054761Y-19297072D01*
X72808167Y-19399215D01*
X72586238Y-19547503D01*
X72397503Y-19736238D01*
X72249215Y-19958167D01*
X72147072Y-20204761D01*
X72095000Y-20466544D01*
X68382803Y-20466544D01*
X68363762Y-20447503D01*
X68141833Y-20299215D01*
X67895239Y-20197072D01*
X67633456Y-20145000D01*
X67366544Y-20145000D01*
X67104761Y-20197072D01*
X66858167Y-20299215D01*
X66636238Y-20447503D01*
X66447503Y-20636238D01*
X66299215Y-20858167D01*
X66197072Y-21104761D01*
X66145000Y-21366544D01*
X65001187Y-21366544D01*
X65086447Y-21281284D01*
X65169072Y-21157627D01*
X65225986Y-21020225D01*
X65255000Y-20874361D01*
X65255000Y-20725639D01*
X65225986Y-20579775D01*
X65169072Y-20442373D01*
X65086447Y-20318716D01*
X64981284Y-20213553D01*
X64857627Y-20130928D01*
X64720225Y-20074014D01*
X64574361Y-20045000D01*
X64425639Y-20045000D01*
X64279775Y-20074014D01*
X64142373Y-20130928D01*
X64018716Y-20213553D01*
X63913553Y-20318716D01*
X63830928Y-20442373D01*
X63774014Y-20579775D01*
X63745000Y-20725639D01*
X62905000Y-20725639D01*
X62905000Y-20466544D01*
X62852928Y-20204761D01*
X62750785Y-19958167D01*
X62602497Y-19736238D01*
X62413762Y-19547503D01*
X62191833Y-19399215D01*
X61945239Y-19297072D01*
X61683456Y-19245000D01*
X61416544Y-19245000D01*
X61154761Y-19297072D01*
X60908167Y-19399215D01*
X60686238Y-19547503D01*
X60497503Y-19736238D01*
X60349215Y-19958167D01*
X60247072Y-20204761D01*
X60195000Y-20466544D01*
X57791440Y-20466544D01*
X57800000Y-20423513D01*
X57800000Y-19576487D01*
X57634754Y-18745736D01*
X57310611Y-17963186D01*
X56840028Y-17258910D01*
X56241090Y-16659972D01*
X55536814Y-16189389D01*
X54754264Y-15865246D01*
X53923513Y-15700000D01*
X53076487Y-15700000D01*
X52245736Y-15865246D01*
X51463186Y-16189389D01*
X50758910Y-16659972D01*
X50159972Y-17258910D01*
X49689389Y-17963186D01*
X49365246Y-18745736D01*
X49200000Y-19576487D01*
X46880000Y-19576487D01*
X46880000Y-14350000D01*
X47643283Y-14350000D01*
X47643283Y-15450000D01*
X47654941Y-15568365D01*
X47689467Y-15682181D01*
X47745533Y-15787074D01*
X47820986Y-15879014D01*
X47912926Y-15954467D01*
X48017819Y-16010533D01*
X48131635Y-16045059D01*
X48250000Y-16056717D01*
X50750000Y-16056717D01*
X50868365Y-16045059D01*
X50982181Y-16010533D01*
X51087074Y-15954467D01*
X51179014Y-15879014D01*
X51254467Y-15787074D01*
X51310533Y-15682181D01*
X51345059Y-15568365D01*
X51356717Y-15450000D01*
X51356717Y-14350000D01*
X51345059Y-14231635D01*
X51310533Y-14117819D01*
X51254467Y-14012926D01*
X51182309Y-13925000D01*
X55193282Y-13925000D01*
X55200136Y-13994592D01*
X55220436Y-14061510D01*
X55253400Y-14123182D01*
X55297762Y-14177238D01*
X55351818Y-14221600D01*
X55413490Y-14254564D01*
X55480408Y-14274864D01*
X55550000Y-14281718D01*
X56156250Y-14280000D01*
X56245000Y-14191250D01*
X56245000Y-13417500D01*
X56255000Y-13417500D01*
X56255000Y-14191250D01*
X56343750Y-14280000D01*
X56950000Y-14281718D01*
X57019592Y-14274864D01*
X57086510Y-14254564D01*
X57148182Y-14221600D01*
X57202238Y-14177238D01*
X57246600Y-14123182D01*
X57279564Y-14061510D01*
X57299864Y-13994592D01*
X57306718Y-13925000D01*
X57305000Y-13506250D01*
X57216250Y-13417500D01*
X56255000Y-13417500D01*
X56245000Y-13417500D01*
X55283750Y-13417500D01*
X55195000Y-13506250D01*
X55193282Y-13925000D01*
X51182309Y-13925000D01*
X51179014Y-13920986D01*
X51087074Y-13845533D01*
X50982181Y-13789467D01*
X50868365Y-13754941D01*
X50750000Y-13743283D01*
X48250000Y-13743283D01*
X48131635Y-13754941D01*
X48017819Y-13789467D01*
X47912926Y-13845533D01*
X47820986Y-13920986D01*
X47745533Y-14012926D01*
X47689467Y-14117819D01*
X47654941Y-14231635D01*
X47643283Y-14350000D01*
X46880000Y-14350000D01*
X46880000Y-11000000D01*
X48643282Y-11000000D01*
X48650136Y-11069592D01*
X48670436Y-11136510D01*
X48703400Y-11198182D01*
X48747762Y-11252238D01*
X48801818Y-11296600D01*
X48863490Y-11329564D01*
X48930408Y-11349864D01*
X49000000Y-11356718D01*
X51656250Y-11355000D01*
X51745000Y-11266250D01*
X51745000Y-10505000D01*
X51755000Y-10505000D01*
X51755000Y-11266250D01*
X51843750Y-11355000D01*
X54500000Y-11356718D01*
X54569592Y-11349864D01*
X54636510Y-11329564D01*
X54698182Y-11296600D01*
X54752238Y-11252238D01*
X54796600Y-11198182D01*
X54829564Y-11136510D01*
X54849864Y-11069592D01*
X54856718Y-11000000D01*
X54855000Y-10593750D01*
X54766250Y-10505000D01*
X51755000Y-10505000D01*
X51745000Y-10505000D01*
X48733750Y-10505000D01*
X48645000Y-10593750D01*
X48643282Y-11000000D01*
X46880000Y-11000000D01*
X46880000Y-10000000D01*
X48643282Y-10000000D01*
X48645000Y-10406250D01*
X48733750Y-10495000D01*
X51745000Y-10495000D01*
X51745000Y-9733750D01*
X51755000Y-9733750D01*
X51755000Y-10495000D01*
X54766250Y-10495000D01*
X54855000Y-10406250D01*
X54856718Y-10000000D01*
X54849864Y-9930408D01*
X54829564Y-9863490D01*
X54796600Y-9801818D01*
X54752238Y-9747762D01*
X54698182Y-9703400D01*
X54636510Y-9670436D01*
X54569592Y-9650136D01*
X54500000Y-9643282D01*
X51843750Y-9645000D01*
X51755000Y-9733750D01*
X51745000Y-9733750D01*
X51656250Y-9645000D01*
X49000000Y-9643282D01*
X48930408Y-9650136D01*
X48863490Y-9670436D01*
X48801818Y-9703400D01*
X48747762Y-9747762D01*
X48703400Y-9801818D01*
X48670436Y-9863490D01*
X48650136Y-9930408D01*
X48643282Y-10000000D01*
X46880000Y-10000000D01*
X46880000Y-6250000D01*
X48643283Y-6250000D01*
X48643283Y-6750000D01*
X48654941Y-6868365D01*
X48689467Y-6982181D01*
X48745533Y-7087074D01*
X48820986Y-7179014D01*
X48912926Y-7254467D01*
X49017819Y-7310533D01*
X49131635Y-7345059D01*
X49250000Y-7356717D01*
X54250000Y-7356717D01*
X54368365Y-7345059D01*
X54482181Y-7310533D01*
X54587074Y-7254467D01*
X54679014Y-7179014D01*
X54754467Y-7087074D01*
X54810533Y-6982181D01*
X54810588Y-6982000D01*
X55297064Y-6982000D01*
X55294480Y-6985148D01*
X55238991Y-7088961D01*
X55204821Y-7201605D01*
X55193283Y-7318750D01*
X55193283Y-7806250D01*
X55204821Y-7923395D01*
X55233519Y-8018000D01*
X54810588Y-8018000D01*
X54810533Y-8017819D01*
X54754467Y-7912926D01*
X54679014Y-7820986D01*
X54587074Y-7745533D01*
X54482181Y-7689467D01*
X54368365Y-7654941D01*
X54250000Y-7643283D01*
X49250000Y-7643283D01*
X49131635Y-7654941D01*
X49017819Y-7689467D01*
X48912926Y-7745533D01*
X48820986Y-7820986D01*
X48745533Y-7912926D01*
X48689467Y-8017819D01*
X48654941Y-8131635D01*
X48643283Y-8250000D01*
X48643283Y-8750000D01*
X48654941Y-8868365D01*
X48689467Y-8982181D01*
X48745533Y-9087074D01*
X48820986Y-9179014D01*
X48912926Y-9254467D01*
X49017819Y-9310533D01*
X49131635Y-9345059D01*
X49250000Y-9356717D01*
X54250000Y-9356717D01*
X54368365Y-9345059D01*
X54482181Y-9310533D01*
X54587074Y-9254467D01*
X54679014Y-9179014D01*
X54754467Y-9087074D01*
X54810533Y-8982181D01*
X54810588Y-8982000D01*
X55233519Y-8982000D01*
X55204821Y-9076605D01*
X55193283Y-9193750D01*
X55193283Y-9681250D01*
X55204821Y-9798395D01*
X55238991Y-9911039D01*
X55294480Y-10014852D01*
X55369156Y-10105844D01*
X55460148Y-10180520D01*
X55563961Y-10236009D01*
X55676605Y-10270179D01*
X55768000Y-10279181D01*
X55768001Y-10721435D01*
X55681635Y-10729941D01*
X55567819Y-10764467D01*
X55462926Y-10820533D01*
X55370986Y-10895986D01*
X55295533Y-10987926D01*
X55239467Y-11092819D01*
X55204941Y-11206635D01*
X55193283Y-11324999D01*
X55193283Y-11850001D01*
X55204941Y-11968365D01*
X55219998Y-12018000D01*
X54810588Y-12018000D01*
X54810533Y-12017819D01*
X54754467Y-11912926D01*
X54679014Y-11820986D01*
X54587074Y-11745533D01*
X54482181Y-11689467D01*
X54368365Y-11654941D01*
X54250000Y-11643283D01*
X49250000Y-11643283D01*
X49131635Y-11654941D01*
X49017819Y-11689467D01*
X48912926Y-11745533D01*
X48820986Y-11820986D01*
X48745533Y-11912926D01*
X48689467Y-12017819D01*
X48654941Y-12131635D01*
X48643283Y-12250000D01*
X48643283Y-12750000D01*
X48654941Y-12868365D01*
X48689467Y-12982181D01*
X48745533Y-13087074D01*
X48820986Y-13179014D01*
X48912926Y-13254467D01*
X49017819Y-13310533D01*
X49131635Y-13345059D01*
X49250000Y-13356717D01*
X54250000Y-13356717D01*
X54368365Y-13345059D01*
X54482181Y-13310533D01*
X54587074Y-13254467D01*
X54679014Y-13179014D01*
X54754467Y-13087074D01*
X54810533Y-12982181D01*
X54810588Y-12982000D01*
X55193618Y-12982000D01*
X55195000Y-13318750D01*
X55283750Y-13407500D01*
X56245000Y-13407500D01*
X56245000Y-13387500D01*
X56255000Y-13387500D01*
X56255000Y-13407500D01*
X57216250Y-13407500D01*
X57305000Y-13318750D01*
X57306382Y-12982000D01*
X68911384Y-12982000D01*
X68968556Y-13088962D01*
X69100393Y-13249607D01*
X69261038Y-13381444D01*
X69444316Y-13479408D01*
X69643184Y-13539734D01*
X69798179Y-13555000D01*
X70701821Y-13555000D01*
X70856816Y-13539734D01*
X71055684Y-13479408D01*
X71238962Y-13381444D01*
X71399607Y-13249607D01*
X71531444Y-13088962D01*
X71629408Y-12905684D01*
X71689734Y-12706816D01*
X71710104Y-12500000D01*
X71689734Y-12293184D01*
X71629408Y-12094316D01*
X71531444Y-11911038D01*
X71399607Y-11750393D01*
X71238962Y-11618556D01*
X71055684Y-11520592D01*
X70978888Y-11497296D01*
X71058350Y-11472780D01*
X71240284Y-11374423D01*
X71399533Y-11242463D01*
X71529978Y-11081970D01*
X71626606Y-10899112D01*
X71685704Y-10700917D01*
X71691217Y-10669975D01*
X71616237Y-10505000D01*
X70255000Y-10505000D01*
X70255000Y-10525000D01*
X70245000Y-10525000D01*
X70245000Y-10505000D01*
X68883763Y-10505000D01*
X68808783Y-10669975D01*
X68814296Y-10700917D01*
X68873394Y-10899112D01*
X68970022Y-11081970D01*
X69100467Y-11242463D01*
X69259716Y-11374423D01*
X69441650Y-11472780D01*
X69521112Y-11497296D01*
X69444316Y-11520592D01*
X69261038Y-11618556D01*
X69100393Y-11750393D01*
X68968556Y-11911038D01*
X68911384Y-12018000D01*
X57280002Y-12018000D01*
X57295059Y-11968365D01*
X57306717Y-11850001D01*
X57306717Y-11324999D01*
X57295059Y-11206635D01*
X57260533Y-11092819D01*
X57204467Y-10987926D01*
X57129014Y-10895986D01*
X57037074Y-10820533D01*
X56932181Y-10764467D01*
X56818365Y-10729941D01*
X56732000Y-10721435D01*
X56732000Y-10279181D01*
X56823395Y-10270179D01*
X56936039Y-10236009D01*
X57039852Y-10180520D01*
X57130844Y-10105844D01*
X57205520Y-10014852D01*
X57261009Y-9911039D01*
X57295179Y-9798395D01*
X57306717Y-9681250D01*
X57306717Y-9193750D01*
X57295179Y-9076605D01*
X57266481Y-8982000D01*
X63664269Y-8982000D01*
X63768716Y-9086447D01*
X63892373Y-9169072D01*
X64029775Y-9225986D01*
X64175639Y-9255000D01*
X64324361Y-9255000D01*
X64470225Y-9225986D01*
X64607627Y-9169072D01*
X64731284Y-9086447D01*
X64836447Y-8981284D01*
X64919072Y-8857627D01*
X64975986Y-8720225D01*
X65005000Y-8574361D01*
X65005000Y-8425639D01*
X64975986Y-8279775D01*
X64919072Y-8142373D01*
X64836447Y-8018716D01*
X64731284Y-7913553D01*
X64607627Y-7830928D01*
X64470225Y-7774014D01*
X64324361Y-7745000D01*
X64176651Y-7745000D01*
X63670068Y-7238418D01*
X63654974Y-7220026D01*
X63605001Y-7179014D01*
X63581581Y-7159793D01*
X63539713Y-7137415D01*
X63497846Y-7115036D01*
X63406988Y-7087474D01*
X63336178Y-7080500D01*
X63336168Y-7080500D01*
X63312500Y-7078169D01*
X63288832Y-7080500D01*
X57256487Y-7080500D01*
X57205520Y-6985148D01*
X57202936Y-6982000D01*
X68911384Y-6982000D01*
X68968556Y-7088962D01*
X69100393Y-7249607D01*
X69261038Y-7381444D01*
X69444316Y-7479408D01*
X69512199Y-7500000D01*
X69444316Y-7520592D01*
X69261038Y-7618556D01*
X69100393Y-7750393D01*
X68968556Y-7911038D01*
X68870592Y-8094316D01*
X68810266Y-8293184D01*
X68789896Y-8500000D01*
X68810266Y-8706816D01*
X68870592Y-8905684D01*
X68968556Y-9088962D01*
X69100393Y-9249607D01*
X69261038Y-9381444D01*
X69444316Y-9479408D01*
X69521112Y-9502704D01*
X69441650Y-9527220D01*
X69259716Y-9625577D01*
X69100467Y-9757537D01*
X68970022Y-9918030D01*
X68873394Y-10100888D01*
X68814296Y-10299083D01*
X68808783Y-10330025D01*
X68883763Y-10495000D01*
X70245000Y-10495000D01*
X70245000Y-10475000D01*
X70255000Y-10475000D01*
X70255000Y-10495000D01*
X71616237Y-10495000D01*
X71691217Y-10330025D01*
X71685704Y-10299083D01*
X71626606Y-10100888D01*
X71529978Y-9918030D01*
X71399533Y-9757537D01*
X71240284Y-9625577D01*
X71058350Y-9527220D01*
X70978888Y-9502704D01*
X71055684Y-9479408D01*
X71238962Y-9381444D01*
X71399607Y-9249607D01*
X71531444Y-9088962D01*
X71629408Y-8905684D01*
X71689734Y-8706816D01*
X71710104Y-8500000D01*
X71689734Y-8293184D01*
X71629408Y-8094316D01*
X71531444Y-7911038D01*
X71399607Y-7750393D01*
X71238962Y-7618556D01*
X71055684Y-7520592D01*
X70987801Y-7500000D01*
X71055684Y-7479408D01*
X71238962Y-7381444D01*
X71399607Y-7249607D01*
X71531444Y-7088962D01*
X71629408Y-6905684D01*
X71689734Y-6706816D01*
X71710104Y-6500000D01*
X71689734Y-6293184D01*
X71629408Y-6094316D01*
X71531444Y-5911038D01*
X71399607Y-5750393D01*
X71238962Y-5618556D01*
X71055684Y-5520592D01*
X70856816Y-5460266D01*
X70701821Y-5445000D01*
X69798179Y-5445000D01*
X69643184Y-5460266D01*
X69444316Y-5520592D01*
X69261038Y-5618556D01*
X69100393Y-5750393D01*
X68968556Y-5911038D01*
X68911384Y-6018000D01*
X54810588Y-6018000D01*
X54810533Y-6017819D01*
X54754467Y-5912926D01*
X54679014Y-5820986D01*
X54587074Y-5745533D01*
X54482181Y-5689467D01*
X54368365Y-5654941D01*
X54250000Y-5643283D01*
X49250000Y-5643283D01*
X49131635Y-5654941D01*
X49017819Y-5689467D01*
X48912926Y-5745533D01*
X48820986Y-5820986D01*
X48745533Y-5912926D01*
X48689467Y-6017819D01*
X48654941Y-6131635D01*
X48643283Y-6250000D01*
X46880000Y-6250000D01*
X46880000Y-3550000D01*
X47643283Y-3550000D01*
X47643283Y-4650000D01*
X47654941Y-4768365D01*
X47689467Y-4882181D01*
X47745533Y-4987074D01*
X47820986Y-5079014D01*
X47912926Y-5154467D01*
X48017819Y-5210533D01*
X48131635Y-5245059D01*
X48250000Y-5256717D01*
X50750000Y-5256717D01*
X50868365Y-5245059D01*
X50982181Y-5210533D01*
X51087074Y-5154467D01*
X51179014Y-5079014D01*
X51254467Y-4987074D01*
X51310533Y-4882181D01*
X51345059Y-4768365D01*
X51356717Y-4650000D01*
X51356717Y-3550000D01*
X51345059Y-3431635D01*
X51310533Y-3317819D01*
X51254467Y-3212926D01*
X51179014Y-3120986D01*
X51087074Y-3045533D01*
X50982181Y-2989467D01*
X50868365Y-2954941D01*
X50750000Y-2943283D01*
X48250000Y-2943283D01*
X48131635Y-2954941D01*
X48017819Y-2989467D01*
X47912926Y-3045533D01*
X47820986Y-3120986D01*
X47745533Y-3212926D01*
X47689467Y-3317819D01*
X47654941Y-3431635D01*
X47643283Y-3550000D01*
X46880000Y-3550000D01*
X46880000Y1423513D01*
X49200000Y1423513D01*
X49200000Y576487D01*
X49365246Y-254264D01*
X49689389Y-1036814D01*
X50159972Y-1741090D01*
X50758910Y-2340028D01*
X51463186Y-2810611D01*
X52245736Y-3134754D01*
X53076487Y-3300000D01*
X53923513Y-3300000D01*
X54754264Y-3134754D01*
X55536814Y-2810611D01*
X56241090Y-2340028D01*
X56840028Y-1741090D01*
X57310611Y-1036814D01*
X57634754Y-254264D01*
X57800000Y576487D01*
X57800000Y1423513D01*
X57738349Y1733456D01*
X61695000Y1733456D01*
X61695000Y1466544D01*
X61747072Y1204761D01*
X61849215Y958167D01*
X61997503Y736238D01*
X62186238Y547503D01*
X62408167Y399215D01*
X62654761Y297072D01*
X62916544Y245000D01*
X63183456Y245000D01*
X63445239Y297072D01*
X63691833Y399215D01*
X63913762Y547503D01*
X64102497Y736238D01*
X64250785Y958167D01*
X64352928Y1204761D01*
X64405000Y1466544D01*
X64405000Y1733456D01*
X64352928Y1995239D01*
X64250785Y2241833D01*
X64102497Y2463762D01*
X63932803Y2633456D01*
X66145000Y2633456D01*
X66145000Y2366544D01*
X66197072Y2104761D01*
X66299215Y1858167D01*
X66447503Y1636238D01*
X66636238Y1447503D01*
X66858167Y1299215D01*
X67104761Y1197072D01*
X67366544Y1145000D01*
X67633456Y1145000D01*
X67895239Y1197072D01*
X68141833Y1299215D01*
X68363762Y1447503D01*
X68552497Y1636238D01*
X68700785Y1858167D01*
X68707492Y1874361D01*
X69745000Y1874361D01*
X69745000Y1725639D01*
X69774014Y1579775D01*
X69830928Y1442373D01*
X69913553Y1318716D01*
X70018716Y1213553D01*
X70142373Y1130928D01*
X70279775Y1074014D01*
X70425639Y1045000D01*
X70574361Y1045000D01*
X70720225Y1074014D01*
X70857627Y1130928D01*
X70981284Y1213553D01*
X71086447Y1318716D01*
X71169072Y1442373D01*
X71225986Y1579775D01*
X71255000Y1725639D01*
X71255000Y1733456D01*
X72095000Y1733456D01*
X72095000Y1466544D01*
X72147072Y1204761D01*
X72249215Y958167D01*
X72397503Y736238D01*
X72586238Y547503D01*
X72808167Y399215D01*
X73054761Y297072D01*
X73316544Y245000D01*
X73583456Y245000D01*
X73845239Y297072D01*
X74091833Y399215D01*
X74313762Y547503D01*
X74502497Y736238D01*
X74650785Y958167D01*
X74752928Y1204761D01*
X74805000Y1466544D01*
X74805000Y1733456D01*
X74752928Y1995239D01*
X74650785Y2241833D01*
X74502497Y2463762D01*
X74313762Y2652497D01*
X74091833Y2800785D01*
X73845239Y2902928D01*
X73583456Y2955000D01*
X73316544Y2955000D01*
X73054761Y2902928D01*
X72808167Y2800785D01*
X72586238Y2652497D01*
X72397503Y2463762D01*
X72249215Y2241833D01*
X72147072Y1995239D01*
X72095000Y1733456D01*
X71255000Y1733456D01*
X71255000Y1874361D01*
X71225986Y2020225D01*
X71169072Y2157627D01*
X71086447Y2281284D01*
X70981284Y2386447D01*
X70857627Y2469072D01*
X70720225Y2525986D01*
X70574361Y2555000D01*
X70425639Y2555000D01*
X70279775Y2525986D01*
X70142373Y2469072D01*
X70018716Y2386447D01*
X69913553Y2281284D01*
X69830928Y2157627D01*
X69774014Y2020225D01*
X69745000Y1874361D01*
X68707492Y1874361D01*
X68802928Y2104761D01*
X68855000Y2366544D01*
X68855000Y2633456D01*
X68802928Y2895239D01*
X68700785Y3141833D01*
X68552497Y3363762D01*
X68363762Y3552497D01*
X68141833Y3700785D01*
X67895239Y3802928D01*
X67633456Y3855000D01*
X67366544Y3855000D01*
X67104761Y3802928D01*
X66858167Y3700785D01*
X66636238Y3552497D01*
X66447503Y3363762D01*
X66299215Y3141833D01*
X66197072Y2895239D01*
X66145000Y2633456D01*
X63932803Y2633456D01*
X63913762Y2652497D01*
X63691833Y2800785D01*
X63445239Y2902928D01*
X63183456Y2955000D01*
X62916544Y2955000D01*
X62654761Y2902928D01*
X62408167Y2800785D01*
X62186238Y2652497D01*
X61997503Y2463762D01*
X61849215Y2241833D01*
X61747072Y1995239D01*
X61695000Y1733456D01*
X57738349Y1733456D01*
X57634754Y2254264D01*
X57310611Y3036814D01*
X56840028Y3741090D01*
X56241090Y4340028D01*
X55536814Y4810611D01*
X54754264Y5134754D01*
X53923513Y5300000D01*
X53076487Y5300000D01*
X52245736Y5134754D01*
X51463186Y4810611D01*
X50758910Y4340028D01*
X50159972Y3741090D01*
X49689389Y3036814D01*
X49365246Y2254264D01*
X49200000Y1423513D01*
X46880000Y1423513D01*
X46880000Y4981418D01*
X46893595Y5120070D01*
X46928468Y5235572D01*
X46985106Y5342094D01*
X47061358Y5435588D01*
X47154318Y5512492D01*
X47260445Y5569874D01*
X47375700Y5605552D01*
X47513161Y5620000D01*
X75481420Y5620000D01*
X75717189Y5596883D01*
G04 #@! TA.AperFunction,Conductor*
D17*
G36*
X75717189Y5596883D02*
G01*
X75926103Y5533808D01*
X76118789Y5431355D01*
X76287906Y5293426D01*
X76427011Y5125277D01*
X76530807Y4933312D01*
X76595340Y4724838D01*
X76620001Y4490200D01*
X76620000Y-23481420D01*
X76596883Y-23717188D01*
X76533808Y-23926104D01*
X76431355Y-24118789D01*
X76293426Y-24287906D01*
X76125277Y-24427011D01*
X75933312Y-24530807D01*
X75724838Y-24595340D01*
X75490209Y-24620000D01*
X47518581Y-24620000D01*
X47379929Y-24606405D01*
X47264432Y-24571534D01*
X47157906Y-24514894D01*
X47064410Y-24438641D01*
X46987507Y-24345680D01*
X46930125Y-24239553D01*
X46894448Y-24124300D01*
X46880000Y-23986839D01*
X46880000Y-19576487D01*
X49200000Y-19576487D01*
X49200000Y-20423513D01*
X49365246Y-21254264D01*
X49689389Y-22036814D01*
X50159972Y-22741090D01*
X50758910Y-23340028D01*
X51463186Y-23810611D01*
X52245736Y-24134754D01*
X53076487Y-24300000D01*
X53923513Y-24300000D01*
X54754264Y-24134754D01*
X55536814Y-23810611D01*
X56241090Y-23340028D01*
X56840028Y-22741090D01*
X57310611Y-22036814D01*
X57634754Y-21254264D01*
X57791440Y-20466544D01*
X60195000Y-20466544D01*
X60195000Y-20733456D01*
X60247072Y-20995239D01*
X60349215Y-21241833D01*
X60497503Y-21463762D01*
X60686238Y-21652497D01*
X60908167Y-21800785D01*
X61154761Y-21902928D01*
X61416544Y-21955000D01*
X61683456Y-21955000D01*
X61945239Y-21902928D01*
X62191833Y-21800785D01*
X62413762Y-21652497D01*
X62602497Y-21463762D01*
X62750785Y-21241833D01*
X62852928Y-20995239D01*
X62905000Y-20733456D01*
X62905000Y-20725639D01*
X63745000Y-20725639D01*
X63745000Y-20874361D01*
X63774014Y-21020225D01*
X63830928Y-21157627D01*
X63913553Y-21281284D01*
X64018716Y-21386447D01*
X64142373Y-21469072D01*
X64279775Y-21525986D01*
X64425639Y-21555000D01*
X64574361Y-21555000D01*
X64720225Y-21525986D01*
X64857627Y-21469072D01*
X64981284Y-21386447D01*
X65001187Y-21366544D01*
X66145000Y-21366544D01*
X66145000Y-21633456D01*
X66197072Y-21895239D01*
X66299215Y-22141833D01*
X66447503Y-22363762D01*
X66636238Y-22552497D01*
X66858167Y-22700785D01*
X67104761Y-22802928D01*
X67366544Y-22855000D01*
X67633456Y-22855000D01*
X67895239Y-22802928D01*
X68141833Y-22700785D01*
X68363762Y-22552497D01*
X68552497Y-22363762D01*
X68700785Y-22141833D01*
X68802928Y-21895239D01*
X68855000Y-21633456D01*
X68855000Y-21366544D01*
X68802928Y-21104761D01*
X68700785Y-20858167D01*
X68552497Y-20636238D01*
X68382803Y-20466544D01*
X72095000Y-20466544D01*
X72095000Y-20733456D01*
X72147072Y-20995239D01*
X72249215Y-21241833D01*
X72397503Y-21463762D01*
X72586238Y-21652497D01*
X72808167Y-21800785D01*
X73054761Y-21902928D01*
X73316544Y-21955000D01*
X73583456Y-21955000D01*
X73845239Y-21902928D01*
X74091833Y-21800785D01*
X74313762Y-21652497D01*
X74502497Y-21463762D01*
X74650785Y-21241833D01*
X74752928Y-20995239D01*
X74805000Y-20733456D01*
X74805000Y-20466544D01*
X74752928Y-20204761D01*
X74650785Y-19958167D01*
X74502497Y-19736238D01*
X74313762Y-19547503D01*
X74091833Y-19399215D01*
X73845239Y-19297072D01*
X73583456Y-19245000D01*
X73316544Y-19245000D01*
X73054761Y-19297072D01*
X72808167Y-19399215D01*
X72586238Y-19547503D01*
X72397503Y-19736238D01*
X72249215Y-19958167D01*
X72147072Y-20204761D01*
X72095000Y-20466544D01*
X68382803Y-20466544D01*
X68363762Y-20447503D01*
X68141833Y-20299215D01*
X67895239Y-20197072D01*
X67633456Y-20145000D01*
X67366544Y-20145000D01*
X67104761Y-20197072D01*
X66858167Y-20299215D01*
X66636238Y-20447503D01*
X66447503Y-20636238D01*
X66299215Y-20858167D01*
X66197072Y-21104761D01*
X66145000Y-21366544D01*
X65001187Y-21366544D01*
X65086447Y-21281284D01*
X65169072Y-21157627D01*
X65225986Y-21020225D01*
X65255000Y-20874361D01*
X65255000Y-20725639D01*
X65225986Y-20579775D01*
X65169072Y-20442373D01*
X65086447Y-20318716D01*
X64981284Y-20213553D01*
X64857627Y-20130928D01*
X64720225Y-20074014D01*
X64574361Y-20045000D01*
X64425639Y-20045000D01*
X64279775Y-20074014D01*
X64142373Y-20130928D01*
X64018716Y-20213553D01*
X63913553Y-20318716D01*
X63830928Y-20442373D01*
X63774014Y-20579775D01*
X63745000Y-20725639D01*
X62905000Y-20725639D01*
X62905000Y-20466544D01*
X62852928Y-20204761D01*
X62750785Y-19958167D01*
X62602497Y-19736238D01*
X62413762Y-19547503D01*
X62191833Y-19399215D01*
X61945239Y-19297072D01*
X61683456Y-19245000D01*
X61416544Y-19245000D01*
X61154761Y-19297072D01*
X60908167Y-19399215D01*
X60686238Y-19547503D01*
X60497503Y-19736238D01*
X60349215Y-19958167D01*
X60247072Y-20204761D01*
X60195000Y-20466544D01*
X57791440Y-20466544D01*
X57800000Y-20423513D01*
X57800000Y-19576487D01*
X57634754Y-18745736D01*
X57310611Y-17963186D01*
X56840028Y-17258910D01*
X56241090Y-16659972D01*
X55536814Y-16189389D01*
X54754264Y-15865246D01*
X53923513Y-15700000D01*
X53076487Y-15700000D01*
X52245736Y-15865246D01*
X51463186Y-16189389D01*
X50758910Y-16659972D01*
X50159972Y-17258910D01*
X49689389Y-17963186D01*
X49365246Y-18745736D01*
X49200000Y-19576487D01*
X46880000Y-19576487D01*
X46880000Y-14350000D01*
X47643283Y-14350000D01*
X47643283Y-15450000D01*
X47654941Y-15568365D01*
X47689467Y-15682181D01*
X47745533Y-15787074D01*
X47820986Y-15879014D01*
X47912926Y-15954467D01*
X48017819Y-16010533D01*
X48131635Y-16045059D01*
X48250000Y-16056717D01*
X50750000Y-16056717D01*
X50868365Y-16045059D01*
X50982181Y-16010533D01*
X51087074Y-15954467D01*
X51179014Y-15879014D01*
X51254467Y-15787074D01*
X51310533Y-15682181D01*
X51345059Y-15568365D01*
X51356717Y-15450000D01*
X51356717Y-14350000D01*
X51345059Y-14231635D01*
X51310533Y-14117819D01*
X51254467Y-14012926D01*
X51182309Y-13925000D01*
X55193282Y-13925000D01*
X55200136Y-13994592D01*
X55220436Y-14061510D01*
X55253400Y-14123182D01*
X55297762Y-14177238D01*
X55351818Y-14221600D01*
X55413490Y-14254564D01*
X55480408Y-14274864D01*
X55550000Y-14281718D01*
X56156250Y-14280000D01*
X56245000Y-14191250D01*
X56245000Y-13417500D01*
X56255000Y-13417500D01*
X56255000Y-14191250D01*
X56343750Y-14280000D01*
X56950000Y-14281718D01*
X57019592Y-14274864D01*
X57086510Y-14254564D01*
X57148182Y-14221600D01*
X57202238Y-14177238D01*
X57246600Y-14123182D01*
X57279564Y-14061510D01*
X57299864Y-13994592D01*
X57306718Y-13925000D01*
X57305000Y-13506250D01*
X57216250Y-13417500D01*
X56255000Y-13417500D01*
X56245000Y-13417500D01*
X55283750Y-13417500D01*
X55195000Y-13506250D01*
X55193282Y-13925000D01*
X51182309Y-13925000D01*
X51179014Y-13920986D01*
X51087074Y-13845533D01*
X50982181Y-13789467D01*
X50868365Y-13754941D01*
X50750000Y-13743283D01*
X48250000Y-13743283D01*
X48131635Y-13754941D01*
X48017819Y-13789467D01*
X47912926Y-13845533D01*
X47820986Y-13920986D01*
X47745533Y-14012926D01*
X47689467Y-14117819D01*
X47654941Y-14231635D01*
X47643283Y-14350000D01*
X46880000Y-14350000D01*
X46880000Y-11000000D01*
X48643282Y-11000000D01*
X48650136Y-11069592D01*
X48670436Y-11136510D01*
X48703400Y-11198182D01*
X48747762Y-11252238D01*
X48801818Y-11296600D01*
X48863490Y-11329564D01*
X48930408Y-11349864D01*
X49000000Y-11356718D01*
X51656250Y-11355000D01*
X51745000Y-11266250D01*
X51745000Y-10505000D01*
X51755000Y-10505000D01*
X51755000Y-11266250D01*
X51843750Y-11355000D01*
X54500000Y-11356718D01*
X54569592Y-11349864D01*
X54636510Y-11329564D01*
X54698182Y-11296600D01*
X54752238Y-11252238D01*
X54796600Y-11198182D01*
X54829564Y-11136510D01*
X54849864Y-11069592D01*
X54856718Y-11000000D01*
X54855000Y-10593750D01*
X54766250Y-10505000D01*
X51755000Y-10505000D01*
X51745000Y-10505000D01*
X48733750Y-10505000D01*
X48645000Y-10593750D01*
X48643282Y-11000000D01*
X46880000Y-11000000D01*
X46880000Y-10000000D01*
X48643282Y-10000000D01*
X48645000Y-10406250D01*
X48733750Y-10495000D01*
X51745000Y-10495000D01*
X51745000Y-9733750D01*
X51755000Y-9733750D01*
X51755000Y-10495000D01*
X54766250Y-10495000D01*
X54855000Y-10406250D01*
X54856718Y-10000000D01*
X54849864Y-9930408D01*
X54829564Y-9863490D01*
X54796600Y-9801818D01*
X54752238Y-9747762D01*
X54698182Y-9703400D01*
X54636510Y-9670436D01*
X54569592Y-9650136D01*
X54500000Y-9643282D01*
X51843750Y-9645000D01*
X51755000Y-9733750D01*
X51745000Y-9733750D01*
X51656250Y-9645000D01*
X49000000Y-9643282D01*
X48930408Y-9650136D01*
X48863490Y-9670436D01*
X48801818Y-9703400D01*
X48747762Y-9747762D01*
X48703400Y-9801818D01*
X48670436Y-9863490D01*
X48650136Y-9930408D01*
X48643282Y-10000000D01*
X46880000Y-10000000D01*
X46880000Y-6250000D01*
X48643283Y-6250000D01*
X48643283Y-6750000D01*
X48654941Y-6868365D01*
X48689467Y-6982181D01*
X48745533Y-7087074D01*
X48820986Y-7179014D01*
X48912926Y-7254467D01*
X49017819Y-7310533D01*
X49131635Y-7345059D01*
X49250000Y-7356717D01*
X54250000Y-7356717D01*
X54368365Y-7345059D01*
X54482181Y-7310533D01*
X54587074Y-7254467D01*
X54679014Y-7179014D01*
X54754467Y-7087074D01*
X54810533Y-6982181D01*
X54810588Y-6982000D01*
X55297064Y-6982000D01*
X55294480Y-6985148D01*
X55238991Y-7088961D01*
X55204821Y-7201605D01*
X55193283Y-7318750D01*
X55193283Y-7806250D01*
X55204821Y-7923395D01*
X55233519Y-8018000D01*
X54810588Y-8018000D01*
X54810533Y-8017819D01*
X54754467Y-7912926D01*
X54679014Y-7820986D01*
X54587074Y-7745533D01*
X54482181Y-7689467D01*
X54368365Y-7654941D01*
X54250000Y-7643283D01*
X49250000Y-7643283D01*
X49131635Y-7654941D01*
X49017819Y-7689467D01*
X48912926Y-7745533D01*
X48820986Y-7820986D01*
X48745533Y-7912926D01*
X48689467Y-8017819D01*
X48654941Y-8131635D01*
X48643283Y-8250000D01*
X48643283Y-8750000D01*
X48654941Y-8868365D01*
X48689467Y-8982181D01*
X48745533Y-9087074D01*
X48820986Y-9179014D01*
X48912926Y-9254467D01*
X49017819Y-9310533D01*
X49131635Y-9345059D01*
X49250000Y-9356717D01*
X54250000Y-9356717D01*
X54368365Y-9345059D01*
X54482181Y-9310533D01*
X54587074Y-9254467D01*
X54679014Y-9179014D01*
X54754467Y-9087074D01*
X54810533Y-8982181D01*
X54810588Y-8982000D01*
X55233519Y-8982000D01*
X55204821Y-9076605D01*
X55193283Y-9193750D01*
X55193283Y-9681250D01*
X55204821Y-9798395D01*
X55238991Y-9911039D01*
X55294480Y-10014852D01*
X55369156Y-10105844D01*
X55460148Y-10180520D01*
X55563961Y-10236009D01*
X55676605Y-10270179D01*
X55768000Y-10279181D01*
X55768001Y-10721435D01*
X55681635Y-10729941D01*
X55567819Y-10764467D01*
X55462926Y-10820533D01*
X55370986Y-10895986D01*
X55295533Y-10987926D01*
X55239467Y-11092819D01*
X55204941Y-11206635D01*
X55193283Y-11324999D01*
X55193283Y-11850001D01*
X55204941Y-11968365D01*
X55219998Y-12018000D01*
X54810588Y-12018000D01*
X54810533Y-12017819D01*
X54754467Y-11912926D01*
X54679014Y-11820986D01*
X54587074Y-11745533D01*
X54482181Y-11689467D01*
X54368365Y-11654941D01*
X54250000Y-11643283D01*
X49250000Y-11643283D01*
X49131635Y-11654941D01*
X49017819Y-11689467D01*
X48912926Y-11745533D01*
X48820986Y-11820986D01*
X48745533Y-11912926D01*
X48689467Y-12017819D01*
X48654941Y-12131635D01*
X48643283Y-12250000D01*
X48643283Y-12750000D01*
X48654941Y-12868365D01*
X48689467Y-12982181D01*
X48745533Y-13087074D01*
X48820986Y-13179014D01*
X48912926Y-13254467D01*
X49017819Y-13310533D01*
X49131635Y-13345059D01*
X49250000Y-13356717D01*
X54250000Y-13356717D01*
X54368365Y-13345059D01*
X54482181Y-13310533D01*
X54587074Y-13254467D01*
X54679014Y-13179014D01*
X54754467Y-13087074D01*
X54810533Y-12982181D01*
X54810588Y-12982000D01*
X55193618Y-12982000D01*
X55195000Y-13318750D01*
X55283750Y-13407500D01*
X56245000Y-13407500D01*
X56245000Y-13387500D01*
X56255000Y-13387500D01*
X56255000Y-13407500D01*
X57216250Y-13407500D01*
X57305000Y-13318750D01*
X57306382Y-12982000D01*
X68911384Y-12982000D01*
X68968556Y-13088962D01*
X69100393Y-13249607D01*
X69261038Y-13381444D01*
X69444316Y-13479408D01*
X69643184Y-13539734D01*
X69798179Y-13555000D01*
X70701821Y-13555000D01*
X70856816Y-13539734D01*
X71055684Y-13479408D01*
X71238962Y-13381444D01*
X71399607Y-13249607D01*
X71531444Y-13088962D01*
X71629408Y-12905684D01*
X71689734Y-12706816D01*
X71710104Y-12500000D01*
X71689734Y-12293184D01*
X71629408Y-12094316D01*
X71531444Y-11911038D01*
X71399607Y-11750393D01*
X71238962Y-11618556D01*
X71055684Y-11520592D01*
X70978888Y-11497296D01*
X71058350Y-11472780D01*
X71240284Y-11374423D01*
X71399533Y-11242463D01*
X71529978Y-11081970D01*
X71626606Y-10899112D01*
X71685704Y-10700917D01*
X71691217Y-10669975D01*
X71616237Y-10505000D01*
X70255000Y-10505000D01*
X70255000Y-10525000D01*
X70245000Y-10525000D01*
X70245000Y-10505000D01*
X68883763Y-10505000D01*
X68808783Y-10669975D01*
X68814296Y-10700917D01*
X68873394Y-10899112D01*
X68970022Y-11081970D01*
X69100467Y-11242463D01*
X69259716Y-11374423D01*
X69441650Y-11472780D01*
X69521112Y-11497296D01*
X69444316Y-11520592D01*
X69261038Y-11618556D01*
X69100393Y-11750393D01*
X68968556Y-11911038D01*
X68911384Y-12018000D01*
X57280002Y-12018000D01*
X57295059Y-11968365D01*
X57306717Y-11850001D01*
X57306717Y-11324999D01*
X57295059Y-11206635D01*
X57260533Y-11092819D01*
X57204467Y-10987926D01*
X57129014Y-10895986D01*
X57037074Y-10820533D01*
X56932181Y-10764467D01*
X56818365Y-10729941D01*
X56732000Y-10721435D01*
X56732000Y-10279181D01*
X56823395Y-10270179D01*
X56936039Y-10236009D01*
X57039852Y-10180520D01*
X57130844Y-10105844D01*
X57205520Y-10014852D01*
X57261009Y-9911039D01*
X57295179Y-9798395D01*
X57306717Y-9681250D01*
X57306717Y-9193750D01*
X57295179Y-9076605D01*
X57266481Y-8982000D01*
X63664269Y-8982000D01*
X63768716Y-9086447D01*
X63892373Y-9169072D01*
X64029775Y-9225986D01*
X64175639Y-9255000D01*
X64324361Y-9255000D01*
X64470225Y-9225986D01*
X64607627Y-9169072D01*
X64731284Y-9086447D01*
X64836447Y-8981284D01*
X64919072Y-8857627D01*
X64975986Y-8720225D01*
X65005000Y-8574361D01*
X65005000Y-8425639D01*
X64975986Y-8279775D01*
X64919072Y-8142373D01*
X64836447Y-8018716D01*
X64731284Y-7913553D01*
X64607627Y-7830928D01*
X64470225Y-7774014D01*
X64324361Y-7745000D01*
X64176651Y-7745000D01*
X63670068Y-7238418D01*
X63654974Y-7220026D01*
X63605001Y-7179014D01*
X63581581Y-7159793D01*
X63539713Y-7137415D01*
X63497846Y-7115036D01*
X63406988Y-7087474D01*
X63336178Y-7080500D01*
X63336168Y-7080500D01*
X63312500Y-7078169D01*
X63288832Y-7080500D01*
X57256487Y-7080500D01*
X57205520Y-6985148D01*
X57202936Y-6982000D01*
X68911384Y-6982000D01*
X68968556Y-7088962D01*
X69100393Y-7249607D01*
X69261038Y-7381444D01*
X69444316Y-7479408D01*
X69512199Y-7500000D01*
X69444316Y-7520592D01*
X69261038Y-7618556D01*
X69100393Y-7750393D01*
X68968556Y-7911038D01*
X68870592Y-8094316D01*
X68810266Y-8293184D01*
X68789896Y-8500000D01*
X68810266Y-8706816D01*
X68870592Y-8905684D01*
X68968556Y-9088962D01*
X69100393Y-9249607D01*
X69261038Y-9381444D01*
X69444316Y-9479408D01*
X69521112Y-9502704D01*
X69441650Y-9527220D01*
X69259716Y-9625577D01*
X69100467Y-9757537D01*
X68970022Y-9918030D01*
X68873394Y-10100888D01*
X68814296Y-10299083D01*
X68808783Y-10330025D01*
X68883763Y-10495000D01*
X70245000Y-10495000D01*
X70245000Y-10475000D01*
X70255000Y-10475000D01*
X70255000Y-10495000D01*
X71616237Y-10495000D01*
X71691217Y-10330025D01*
X71685704Y-10299083D01*
X71626606Y-10100888D01*
X71529978Y-9918030D01*
X71399533Y-9757537D01*
X71240284Y-9625577D01*
X71058350Y-9527220D01*
X70978888Y-9502704D01*
X71055684Y-9479408D01*
X71238962Y-9381444D01*
X71399607Y-9249607D01*
X71531444Y-9088962D01*
X71629408Y-8905684D01*
X71689734Y-8706816D01*
X71710104Y-8500000D01*
X71689734Y-8293184D01*
X71629408Y-8094316D01*
X71531444Y-7911038D01*
X71399607Y-7750393D01*
X71238962Y-7618556D01*
X71055684Y-7520592D01*
X70987801Y-7500000D01*
X71055684Y-7479408D01*
X71238962Y-7381444D01*
X71399607Y-7249607D01*
X71531444Y-7088962D01*
X71629408Y-6905684D01*
X71689734Y-6706816D01*
X71710104Y-6500000D01*
X71689734Y-6293184D01*
X71629408Y-6094316D01*
X71531444Y-5911038D01*
X71399607Y-5750393D01*
X71238962Y-5618556D01*
X71055684Y-5520592D01*
X70856816Y-5460266D01*
X70701821Y-5445000D01*
X69798179Y-5445000D01*
X69643184Y-5460266D01*
X69444316Y-5520592D01*
X69261038Y-5618556D01*
X69100393Y-5750393D01*
X68968556Y-5911038D01*
X68911384Y-6018000D01*
X54810588Y-6018000D01*
X54810533Y-6017819D01*
X54754467Y-5912926D01*
X54679014Y-5820986D01*
X54587074Y-5745533D01*
X54482181Y-5689467D01*
X54368365Y-5654941D01*
X54250000Y-5643283D01*
X49250000Y-5643283D01*
X49131635Y-5654941D01*
X49017819Y-5689467D01*
X48912926Y-5745533D01*
X48820986Y-5820986D01*
X48745533Y-5912926D01*
X48689467Y-6017819D01*
X48654941Y-6131635D01*
X48643283Y-6250000D01*
X46880000Y-6250000D01*
X46880000Y-3550000D01*
X47643283Y-3550000D01*
X47643283Y-4650000D01*
X47654941Y-4768365D01*
X47689467Y-4882181D01*
X47745533Y-4987074D01*
X47820986Y-5079014D01*
X47912926Y-5154467D01*
X48017819Y-5210533D01*
X48131635Y-5245059D01*
X48250000Y-5256717D01*
X50750000Y-5256717D01*
X50868365Y-5245059D01*
X50982181Y-5210533D01*
X51087074Y-5154467D01*
X51179014Y-5079014D01*
X51254467Y-4987074D01*
X51310533Y-4882181D01*
X51345059Y-4768365D01*
X51356717Y-4650000D01*
X51356717Y-3550000D01*
X51345059Y-3431635D01*
X51310533Y-3317819D01*
X51254467Y-3212926D01*
X51179014Y-3120986D01*
X51087074Y-3045533D01*
X50982181Y-2989467D01*
X50868365Y-2954941D01*
X50750000Y-2943283D01*
X48250000Y-2943283D01*
X48131635Y-2954941D01*
X48017819Y-2989467D01*
X47912926Y-3045533D01*
X47820986Y-3120986D01*
X47745533Y-3212926D01*
X47689467Y-3317819D01*
X47654941Y-3431635D01*
X47643283Y-3550000D01*
X46880000Y-3550000D01*
X46880000Y1423513D01*
X49200000Y1423513D01*
X49200000Y576487D01*
X49365246Y-254264D01*
X49689389Y-1036814D01*
X50159972Y-1741090D01*
X50758910Y-2340028D01*
X51463186Y-2810611D01*
X52245736Y-3134754D01*
X53076487Y-3300000D01*
X53923513Y-3300000D01*
X54754264Y-3134754D01*
X55536814Y-2810611D01*
X56241090Y-2340028D01*
X56840028Y-1741090D01*
X57310611Y-1036814D01*
X57634754Y-254264D01*
X57800000Y576487D01*
X57800000Y1423513D01*
X57738349Y1733456D01*
X61695000Y1733456D01*
X61695000Y1466544D01*
X61747072Y1204761D01*
X61849215Y958167D01*
X61997503Y736238D01*
X62186238Y547503D01*
X62408167Y399215D01*
X62654761Y297072D01*
X62916544Y245000D01*
X63183456Y245000D01*
X63445239Y297072D01*
X63691833Y399215D01*
X63913762Y547503D01*
X64102497Y736238D01*
X64250785Y958167D01*
X64352928Y1204761D01*
X64405000Y1466544D01*
X64405000Y1733456D01*
X64352928Y1995239D01*
X64250785Y2241833D01*
X64102497Y2463762D01*
X63932803Y2633456D01*
X66145000Y2633456D01*
X66145000Y2366544D01*
X66197072Y2104761D01*
X66299215Y1858167D01*
X66447503Y1636238D01*
X66636238Y1447503D01*
X66858167Y1299215D01*
X67104761Y1197072D01*
X67366544Y1145000D01*
X67633456Y1145000D01*
X67895239Y1197072D01*
X68141833Y1299215D01*
X68363762Y1447503D01*
X68552497Y1636238D01*
X68700785Y1858167D01*
X68707492Y1874361D01*
X69745000Y1874361D01*
X69745000Y1725639D01*
X69774014Y1579775D01*
X69830928Y1442373D01*
X69913553Y1318716D01*
X70018716Y1213553D01*
X70142373Y1130928D01*
X70279775Y1074014D01*
X70425639Y1045000D01*
X70574361Y1045000D01*
X70720225Y1074014D01*
X70857627Y1130928D01*
X70981284Y1213553D01*
X71086447Y1318716D01*
X71169072Y1442373D01*
X71225986Y1579775D01*
X71255000Y1725639D01*
X71255000Y1733456D01*
X72095000Y1733456D01*
X72095000Y1466544D01*
X72147072Y1204761D01*
X72249215Y958167D01*
X72397503Y736238D01*
X72586238Y547503D01*
X72808167Y399215D01*
X73054761Y297072D01*
X73316544Y245000D01*
X73583456Y245000D01*
X73845239Y297072D01*
X74091833Y399215D01*
X74313762Y547503D01*
X74502497Y736238D01*
X74650785Y958167D01*
X74752928Y1204761D01*
X74805000Y1466544D01*
X74805000Y1733456D01*
X74752928Y1995239D01*
X74650785Y2241833D01*
X74502497Y2463762D01*
X74313762Y2652497D01*
X74091833Y2800785D01*
X73845239Y2902928D01*
X73583456Y2955000D01*
X73316544Y2955000D01*
X73054761Y2902928D01*
X72808167Y2800785D01*
X72586238Y2652497D01*
X72397503Y2463762D01*
X72249215Y2241833D01*
X72147072Y1995239D01*
X72095000Y1733456D01*
X71255000Y1733456D01*
X71255000Y1874361D01*
X71225986Y2020225D01*
X71169072Y2157627D01*
X71086447Y2281284D01*
X70981284Y2386447D01*
X70857627Y2469072D01*
X70720225Y2525986D01*
X70574361Y2555000D01*
X70425639Y2555000D01*
X70279775Y2525986D01*
X70142373Y2469072D01*
X70018716Y2386447D01*
X69913553Y2281284D01*
X69830928Y2157627D01*
X69774014Y2020225D01*
X69745000Y1874361D01*
X68707492Y1874361D01*
X68802928Y2104761D01*
X68855000Y2366544D01*
X68855000Y2633456D01*
X68802928Y2895239D01*
X68700785Y3141833D01*
X68552497Y3363762D01*
X68363762Y3552497D01*
X68141833Y3700785D01*
X67895239Y3802928D01*
X67633456Y3855000D01*
X67366544Y3855000D01*
X67104761Y3802928D01*
X66858167Y3700785D01*
X66636238Y3552497D01*
X66447503Y3363762D01*
X66299215Y3141833D01*
X66197072Y2895239D01*
X66145000Y2633456D01*
X63932803Y2633456D01*
X63913762Y2652497D01*
X63691833Y2800785D01*
X63445239Y2902928D01*
X63183456Y2955000D01*
X62916544Y2955000D01*
X62654761Y2902928D01*
X62408167Y2800785D01*
X62186238Y2652497D01*
X61997503Y2463762D01*
X61849215Y2241833D01*
X61747072Y1995239D01*
X61695000Y1733456D01*
X57738349Y1733456D01*
X57634754Y2254264D01*
X57310611Y3036814D01*
X56840028Y3741090D01*
X56241090Y4340028D01*
X55536814Y4810611D01*
X54754264Y5134754D01*
X53923513Y5300000D01*
X53076487Y5300000D01*
X52245736Y5134754D01*
X51463186Y4810611D01*
X50758910Y4340028D01*
X50159972Y3741090D01*
X49689389Y3036814D01*
X49365246Y2254264D01*
X49200000Y1423513D01*
X46880000Y1423513D01*
X46880000Y4981418D01*
X46893595Y5120070D01*
X46928468Y5235572D01*
X46985106Y5342094D01*
X47061358Y5435588D01*
X47154318Y5512492D01*
X47260445Y5569874D01*
X47375700Y5605552D01*
X47513161Y5620000D01*
X75481420Y5620000D01*
X75717189Y5596883D01*
G37*
G04 #@! TD.AperFunction*
M02*
